<svg xmlns="http://www.w3.org/2000/svg" xmlns:xlink="http://www.w3.org/1999/xlink" viewBox="0 0 411.49 376.91"><defs><style>.cls-1{fill:#00395c;}.cls-2,.cls-3{fill:#fefefe;}.cls-3{stroke-miterlimit:10;stroke:url(#Degradado_sin_nombre);}</style><linearGradient id="Degradado_sin_nombre" x1="21.1" y1="115.76" x2="415.2" y2="115.76" gradientUnits="userSpaceOnUse"><stop offset="0" stop-color="#fff"/><stop offset="1"/></linearGradient></defs><title>Recurso 1digital rain brand</title><g id="Capa_2" data-name="Capa 2"><g id="Capa_1-2" data-name="Capa 1"><path class="cls-1" d="M7.56,314.82V271.77H24.74a25.43,25.43,0,0,1,12.09,2.76,20.26,20.26,0,0,1,8.09,7.63,22.88,22.88,0,0,1,0,22.26,20.26,20.26,0,0,1-8.09,7.63,25.43,25.43,0,0,1-12.09,2.77ZM10.73,312H24.49a22.46,22.46,0,0,0,10.67-2.4,17.4,17.4,0,0,0,7-6.61,20.15,20.15,0,0,0,0-19.37,17.43,17.43,0,0,0-7-6.62,22.58,22.58,0,0,0-10.67-2.39H10.73Z" transform="translate(-7.56)"/><path class="cls-1" d="M58.78,314.82V271.77h3.16v43.05Z" transform="translate(-7.56)"/><path class="cls-1" d="M95.61,315.12a24.51,24.51,0,0,1-9-1.63,21.54,21.54,0,0,1-7.22-4.58A20.61,20.61,0,0,1,74.59,302a23.5,23.5,0,0,1,0-17.4,20.4,20.4,0,0,1,4.78-6.92,22.21,22.21,0,0,1,7.22-4.58,24.46,24.46,0,0,1,9.09-1.63,25.1,25.1,0,0,1,8.74,1.48,18,18,0,0,1,6.88,4.42l-2,2.09a16.89,16.89,0,0,0-6.23-3.93,22.39,22.39,0,0,0-7.35-1.17,21.18,21.18,0,0,0-7.81,1.41,19,19,0,0,0-6.27,4,18,18,0,0,0-4.12,6,20,20,0,0,0,0,15,18,18,0,0,0,4.12,6,18.79,18.79,0,0,0,6.27,4,21.18,21.18,0,0,0,7.81,1.41,22.44,22.44,0,0,0,7.28-1.17,17,17,0,0,0,6.3-3.87l1.8,2.4a18.86,18.86,0,0,1-7,4.15A26.34,26.34,0,0,1,95.61,315.12Zm12.47-5.84v-15.8h3v16.11Z" transform="translate(-7.56)"/><path class="cls-1" d="M125,314.82V271.77h3.16v43.05Z" transform="translate(-7.56)"/><path class="cls-1" d="M151.61,314.82V274.6H136v-2.83h34.41v2.83H154.77v40.22Z" transform="translate(-7.56)"/><path class="cls-1" d="M168.78,314.82l20-43.05h3.16l20,43.05h-3.41l-18.85-41.09H191l-18.79,41.09Zm7.32-12.12,1.05-2.64h26l1.06,2.64Z" transform="translate(-7.56)"/><path class="cls-1" d="M219.75,314.82V271.77h3.16V312h25v2.83Z" transform="translate(-7.56)"/><path class="cls-1" d="M272,314.82V271.77h15.56a23.13,23.13,0,0,1,9.37,1.72,13.44,13.44,0,0,1,6,4.95,14,14,0,0,1,2.11,7.84A13.77,13.77,0,0,1,302.9,294a13.63,13.63,0,0,1-6,5,22.78,22.78,0,0,1-9.37,1.75H273.7l1.42-1.47v15.56Zm3.16-15.38L273.7,298h13.82q7,0,10.64-3.08a10.67,10.67,0,0,0,3.63-8.61q0-5.59-3.63-8.64t-10.64-3H273.7l1.42-1.54Zm27,15.38-11.29-15.63h3.6l11.28,15.63Z" transform="translate(-7.56)"/><path class="cls-1" d="M309.35,314.82l20-43.05h3.16l20,43.05H349l-18.85-41.09h1.37l-18.79,41.09Zm7.32-12.12,1.05-2.64h26l1.05,2.64Z" transform="translate(-7.56)"/><path class="cls-1" d="M360.32,314.82V271.77h3.16v43.05Z" transform="translate(-7.56)"/><path class="cls-1" d="M378.61,314.82V271.77h2.67l30.94,39.17h-1.43V271.77H414v43.05h-2.61l-31-39.18h1.42v39.18Z" transform="translate(-7.56)"/></g><g id="Capa_2-2" data-name="Capa 2"><path class="cls-2" d="M418.75,372.93c0,1.29,1.12,3.09-.94,4" transform="translate(-7.56)"/><path class="cls-3" d="M212.14,230.77c-46.66,0-93.33-.32-140,.25-10,.12-17.72-3.7-24.74-9.29-11.94-9.51-20.84-21.47-24.09-36.79-4.17-19.68-1-37.93,11.32-54.21,5.24-6.95,11.11-13.21,19.07-17.17,2.07-1,3.69-2.49,3-5.32-1.92-7.54.08-14.67,3-21.45C65,74.45,74,66.11,87.11,62.17a42.66,42.66,0,0,1,24-.44c2.28.62,3,.42,4-1.48A117.42,117.42,0,0,1,203.62,1.4C207.7,1,211.75.63,215.84.53c20-.47,38.61,4.31,56.32,13.53a114,114,0,0,1,47.58,45.83c2.76,4.86,5.71,9.64,7,15.16A2.51,2.51,0,0,0,330,77.2c11.89-2.36,23,1,33.95,4.89,19.69,7,33.68,20.78,42.89,39.14a73.31,73.31,0,0,1,7.72,29.65c.63,14.08-1.6,27.51-7.75,40.11A79.33,79.33,0,0,1,374,225.75c-6.62,3.76-13.59,5.2-21.35,5.16C305.79,230.63,259,230.77,212.14,230.77Z" transform="translate(-7.56)"/></g></g></svg>