<svg xmlns="http://www.w3.org/2000/svg" viewBox="0 0 420.83 390.22"><defs><style>.cls-1{fill:#b3b3b3;}.cls-2{fill:#2a454e;}.cls-3{fill:#385a64;}.cls-4{fill:#1b2f36;}.cls-5{fill:#00debf;}.cls-6{fill:#026555;}.cls-7{fill:#01debf;}.cls-8{fill:#dfe0e0;}.cls-9{fill:#01927d;}.cls-10{fill:#04bea4;}.cls-11{fill:#fea9a8;}.cls-12{fill:#fda8a7;}.cls-13{fill:#2c464f;}.cls-14{fill:#02c7ab;}.cls-15{fill:#03bea4;}.cls-16{fill:#54717a;}.cls-17{fill:#25827f;}.cls-18{fill:#374d55;}.cls-19{fill:#516f77;}.cls-20{fill:#d49191;}.cls-21{fill:#1edcc1;}.cls-22{fill:#6d878e;}.cls-23{fill:#14dcbf;}.cls-24{fill:#eef3f3;}.cls-25{fill:#fd9998;}.cls-26{fill:#00917d;}.cls-27{fill:#e0e0e0;}.cls-28{fill:#ccc;}.cls-29{fill:#006454;}.cls-30{fill:#1a2e35;}.cls-31{fill:#007b67;}.cls-32{fill:#999;}.cls-33{fill:#22373e;}.cls-34{fill:#eba09e;}.cls-35{fill:#fda9a7;}.cls-36{fill:#e6e8e9;}.cls-37{fill:#233b42;}.cls-38{fill:#296a6f;}.cls-39{fill:#9d8285;}.cls-40{fill:#a4f4ea;}.cls-41{fill:#52e9d5;}.cls-42{fill:#9df4e9;}.cls-43{fill:#6aeddb;}.cls-44{fill:#e28c8c;}.cls-45{fill:#51646c;}.cls-46{fill:#6f5b60;}.cls-47{fill:#c28787;}.cls-48{fill:#926b6e;}.cls-49{fill:#fefefe;}.cls-50{fill:#2b454e;}.cls-51{fill:#129985;}.cls-52{fill:#35555b;}.cls-53{fill:#153d3f;}.cls-54{fill:#a6d1cc;}.cls-55{fill:#124243;}.cls-56{fill:#143f41;}.cls-57{fill:#a1cfc9;}.cls-58{fill:#1d3037;}.cls-59{fill:#1c2f36;}.cls-60{fill:#000d0b;}.cls-61{fill:#118371;}.cls-62{fill:#1f3b3f;}.cls-63{fill:#000e0c;}.cls-64{fill:#6bafa6;}.cls-65{fill:#a1c8c3;}.cls-66{fill:#af7c7e;}.cls-67{fill:#80f1e4;}.cls-68{fill:#03dfbf;}.cls-69{fill:#04937e;}.cls-70{fill:#c4f7f2;}.cls-71{fill:#02dec0;}.cls-72{fill:#09dfc1;}.cls-73{fill:#47666f;}.cls-74{fill:#14e1c4;}.cls-75{fill:#0ee0c3;}.cls-76{fill:#e7e7e7;}.cls-77{fill:#13e1c4;}.cls-78{fill:#1de2c6;}.cls-79{fill:#20a18e;}.cls-80{fill:#e6e6e6;}.cls-81{fill:#19e2c6;}.cls-82{fill:#eff2f2;}.cls-83{fill:#1ee2c7;}.cls-84{fill:#93f3e8;}.cls-85{fill:#16e1c5;}.cls-86{fill:#dcfaf6;}.cls-87{fill:#dbe0e2;}.cls-88{fill:#18e1c5;}.cls-89{fill:#1d9f8b;}.cls-90{fill:#688289;}.cls-91{fill:#e8fcf8;}.cls-92{fill:#189d89;}.cls-93{fill:#d9dfe1;}.cls-94{fill:#95a8ad;}.cls-95{fill:#6d868d;}.cls-96{fill:#788f95;}.cls-97{fill:#5d7981;}.cls-98{fill:#768d94;}.cls-99{fill:#f4f5f6;}.cls-100{fill:#e6eaeb;}.cls-101{fill:#657f87;}.cls-102{fill:#cfd7d9;}.cls-103{fill:#9fafb3;}.cls-104{fill:#99abb0;}.cls-105{fill:#e8e8e8;}.cls-106{fill:#41e7d0;}.cls-107{fill:#aab8bc;}.cls-108{fill:#ddfaf7;}.cls-109{fill:#8c9fa5;}.cls-110{fill:#bfcacd;}.cls-111{fill:#d2dadb;}.cls-112{fill:#f0f2f3;}.cls-113{fill:#3d5f69;}.cls-114{fill:#47e9d2;}.cls-115{fill:#375963;}.cls-116{fill:#829194;}.cls-117{fill:#718287;}.cls-118{fill:#a4afb2;}.cls-119{fill:#7ff1e4;}.cls-120{fill:#e3e3e3;}.cls-121{fill:#e2e2e2;}.cls-122{fill:#3d5e68;}.cls-123{fill:#fbfbfb;}.cls-124{fill:#0de0c2;}.cls-125{fill:#06dfc1;}.cls-126{fill:#fafafa;}.cls-127{fill:#17e1c5;}.cls-128{fill:#1be2c6;}.cls-129{fill:#21e2c7;}.cls-130{fill:#edf0f1;}.cls-131{fill:#9dadb2;}.cls-132{fill:#5d7980;}.cls-133{fill:#4e6d75;}.cls-134{fill:#dae0e2;}.cls-135{fill:#c1cbce;}.cls-136{fill:#c8d1d4;}.cls-137{fill:#778f95;}.cls-138{fill:#547179;}.cls-139{fill:#0adfc1;}.cls-140{fill:#39e5cd;}.cls-141{fill:#4f6e76;}.cls-142{fill:#88f1e4;}.cls-143{fill:#8cf1e4;}.cls-144{fill:#c4cdd0;}.cls-145{fill:#abbabd;}.cls-146{fill:#8fa2a8;}.cls-147{fill:#a3b3b7;}.cls-148{fill:#e0e5e7;}.cls-149{fill:#859a9f;}.cls-150{fill:#83979d;}.cls-151{fill:#b8c4c7;}.cls-152{fill:#a7b5ba;}.cls-153{fill:#a4b3b7;}.cls-154{fill:#cad3d5;}.cls-155{fill:#06c4ab;}.cls-156{fill:#02d5b7;}.cls-157{fill:#02d3b6;}.cls-158{fill:#15e1c4;}.cls-159{fill:#263a41;}.cls-160{fill:#26e3c8;}.cls-161{fill:#2ee4cb;}.cls-162{fill:#27e4c9;}.cls-163{fill:#b4c0c4;}.cls-164{fill:#c2cccf;}.cls-165{fill:#a0b0b5;}.cls-166{fill:#f2f4f4;}.cls-167{fill:#b4c1c4;}.cls-168{fill:#c5ced1;}.cls-169{fill:#718990;}.cls-170{fill:#9bacb1;}.cls-171{fill:#c0cbce;}.cls-172{fill:#bcf7ef;}.cls-173{fill:#eafbf9;}.cls-174{fill:#acb9bd;}.cls-175{fill:#dee3e5;}.cls-176{fill:#abb9bd;}.cls-177{fill:#74eedf;}.cls-178{fill:#879ba1;}.cls-179{fill:#365862;}.cls-180{fill:#939c9e;}.cls-181{fill:#a5acaf;}.cls-182{fill:#889196;}.cls-183{fill:#949ca0;}.cls-184{fill:#f6fdfc;}.cls-185{fill:#b6f7ef;}.cls-186{fill:#e7fbf9;}.cls-187{fill:#e2fbf7;}.cls-188{fill:#dafaf6;}.cls-189{fill:#dcfaf5;}.cls-190{fill:#e0faf6;}.cls-191{fill:#ecfcf9;}.cls-192{fill:#cdf8f2;}.cls-193{fill:#6ceddd;}.cls-194{fill:#dbf0ed;}.cls-195{fill:#e7f5f2;}.cls-196{fill:#dff1ef;}.cls-197{fill:#ceeae6;}.cls-198{fill:#dcf0ed;}.cls-199{fill:#ddf1ef;}.cls-200{fill:#0be0c3;}.cls-201{fill:#eefcfa;}.cls-202{fill:#fbfdfd;}.cls-203{fill:#f6f6f6;}.cls-204{fill:#f7f7f7;}.cls-205{fill:#19e2c5;}.cls-206{fill:#e5e5e5;}.cls-207{fill:#effcfa;}.cls-208{fill:#798f96;}.cls-209{fill:#f4faf9;}.cls-210{fill:#f2f9f8;}.cls-211{fill:#d0ece7;}.cls-212{fill:#e1f3f1;}.cls-213{fill:#cdeae6;}.cls-214{fill:#d3ece8;}.cls-215{fill:#cbeae5;}.cls-216{fill:#d6eeea;}.cls-217{fill:#d7efeb;}.cls-218{fill:#ceebe6;}.cls-219{fill:#d0ebe7;}.cls-220{fill:#d4ede9;}.cls-221{fill:#d2ece8;}.cls-222{fill:#35aa99;}.cls-223{fill:#149b87;}.cls-224{fill:#64c0b4;}.cls-225{fill:#fafdfc;}.cls-226{fill:#daefec;}.cls-227{fill:#199e8a;}.cls-228{fill:#22a18f;}.cls-229{fill:#fefefd;}.cls-230{fill:#2ba592;}.cls-231{fill:#fbfdfc;}.cls-232{fill:#5bbeb2;}.cls-233{fill:#f9fdfd;}.cls-234{fill:#f1fcfb;}.cls-235{fill:#90f3e8;}.cls-236{fill:#97f3e9;}.cls-237{fill:#8df3e7;}.cls-238{fill:#bff7f0;}.cls-239{fill:#98f4e9;}.cls-240{fill:#94f3e8;}.cls-241{fill:#ebfcfa;}.cls-242{fill:#f4fdfb;}.cls-243{fill:#f5fdfc;}.cls-244{fill:#e0faf7;}.cls-245{fill:#c2f7f0;}.cls-246{fill:#d5f9f4;}.cls-247{fill:#d6f9f4;}.cls-248{fill:#c5f7f0;}.cls-249{fill:#dbfaf5;}.cls-250{fill:#d4f9f4;}.cls-251{fill:#26e3c9;}.cls-252{fill:#bff7ef;}.cls-253{fill:#d2f9f4;}.cls-254{fill:#cef8f3;}.cls-255{fill:#38e5cd;}.cls-256{fill:#b9f6ed;}.cls-257{fill:#31e5cc;}.cls-258{fill:#e1fbf7;}.cls-259{fill:#28e4ca;}.cls-260{fill:#25e4c9;}.cls-261{fill:#e5fbf8;}.cls-262{fill:#c6f7f0;}.cls-263{fill:#d9f9f5;}.cls-264{fill:#d3f9f4;}.cls-265{fill:#2be5cc;}.cls-266{fill:#d1f9f4;}.cls-267{fill:#5eead6;}.cls-268{fill:#0ce0c2;}.cls-269{fill:#ebfcf9;}.cls-270{fill:#e7fbf8;}.cls-271{fill:#f5fcfb;}.cls-272{fill:#e8fbf9;}.cls-273{fill:#4ae8d2;}.cls-274{fill:#dffbf7;}.cls-275{fill:#d7faf5;}.cls-276{fill:#1a9e8b;}.cls-277{fill:#fafcfc;}.cls-278{fill:#36aa99;}.cls-279{fill:#31a897;}.cls-280{fill:#36aa9a;}.cls-281{fill:#1d9f8d;}.cls-282{fill:#1fa08d;}.cls-283{fill:#8ef3e7;}.cls-284{fill:#8df2e7;}.cls-285{fill:#21e3c7;}.cls-286{fill:#32e5cc;}.cls-287{fill:#1ce2c6;}.cls-288{fill:#22e3c7;}.cls-289{fill:#20e3c8;}.cls-290{fill:#d7f9f5;}.cls-291{fill:#fdfdfd;}</style></defs><title>Recurso 1_2</title><g id="Capa_2" data-name="Capa 2"><g id="Capa_1-2" data-name="Capa 1"><path class="cls-1" d="M412.92,235.46c4.37,9.56,7.36,19.56,7.84,30a71.45,71.45,0,0,1-6.25,32.31c-10.6,24.07-29.22,40.6-51,54C337.93,367.46,310,377.15,280.76,383a309.81,309.81,0,0,1-39.67,5.53c-10.88.76-21.82,1.9-32.65,1.6-26.08-.74-52.05-2.93-77.54-9.19-22-5.39-43.25-12.58-63.25-23.24-20.55-10.95-39.16-24.5-52.45-43.91C3.78,297.16-2.53,278.84,1,258a71.78,71.78,0,0,1,4.71-16.63,46.82,46.82,0,0,0,3.52-19.3C9,188,9.11,153.9,9.15,119.83c0-1.93-.64-4,.82-5.76,2,1.58,1.74,3.85,1.75,6,0,37.29.34,74.59-.18,111.87-.14,10.08-.93,20.18-.66,30.28.13,4.72.79,9.46,6.56,10.93,3.71.28,6.7-1.67,9.66-3.4q23.09-13.54,46.35-26.8c6.59-3.77,7-3.65,8.27,3.74a4.23,4.23,0,0,1-.26,2.2C76,254.08,69,257,62.61,260.72c-14.48,8.42-29,16.69-43.52,25.14-4.47,2.62-4.36,3.74-.06,6.32,3.91,2.35,7.68,2.6,11.73.31,12.13-6.87,24.15-13.9,36.17-20.95,5.16-3,10.49-5.72,15.55-8.9a10.05,10.05,0,0,1,11.26-.13c4.42,2.63,9,5.07,13.33,7.77,3.74,2.31,7.21,2.46,11.16.12q21-12.43,42.23-24.39c4.63-2.59,4.63-3,.82-7.07-1-1.59-.34-3.68-1.66-5.15-1.92-1.93-4.47-2.82-6.7-4.24-1.5-1-3.27-1.72-3.63-3.8.31-2.36,2.3-3.08,4-4.06,15.28-8.71,30.45-17.61,45.69-26.38,4.8-2.77,4.7-3.56.24-6.63-4.17-2.86-7.95-2.36-12.05,0-13.9,8.11-27.79,16.24-41.82,24.12-2.11,1.19-4,3.15-6.79,2.58a2.77,2.77,0,0,1-1.66-2.4,13.12,13.12,0,0,1,1.16-5.26c1.4-3.3,4.36-4.89,7.26-6.53,20.23-11.47,40.24-23.32,60.49-34.76,4.52-2.56,6.56-6.26,6.61-11.41,0-2.71-.95-5.69,1.33-8.07,13,0,25.9,1.3,38.8,2.62,3.57.36,2.92-1.68,2.94-3.52.1-7.43.12-14.86.17-22.28,2.47.85,2.28,3.07,2.35,5,.65,19.24-.85,38.44-1.31,57.65-.45,2-1.92,3-3.56,3.88a42.09,42.09,0,0,0-5.07,3.16c-7.12,5.25-7.37,13.29-.47,18.87,5.05,4.09,11.12,6,17.4,6.82a46.14,46.14,0,0,0,25.77-3.55,19.9,19.9,0,0,0,6.9-4.79c4.67-5.31,4.46-10.82-.52-15.84a20.25,20.25,0,0,0-8.81-5.42c-4.51-1.28-6.78-3.85-6.33-8.62-.17-6.9,1-13.7,1.56-20.53.16-1.9.29-4,1.9-5.43,12.8,3,25.34,6.81,37.8,10.94,1.49,1.23,1.35,3,1.36,4.6q.06,21.91,0,43.83c0,1.85-.08,3.79-1.57,5.09-3.11,2.73-1.15,4.07,1.27,5.49,10,5.86,20.15,11.57,30.19,17.42,6.6,3.85,13.16,7.74,19.83,11.47,8.58,4.8,11.86,4.36,19.43-2.45,4.33-4.76,7.54-10.81,14.62-12.39C410.34,238.54,410.75,235.8,412.92,235.46Z"/><path class="cls-2" d="M80.86,247c-1.49-1.7-.38-3.86-1.19-6.22-3,1.71-5.94,3.35-8.86,5q-23.36,13.47-46.72,27c-1.52.87-2.93,2.25-5,1.82-3-1.79-2.52-4.84-2.53-7.58-.08-18.09,0-36.19,0-54.29q0-42.59,0-85.18a45.59,45.59,0,0,1,.64-9.9c.84-3,3.44-4.38,5.84-5.77Q85.5,75.74,148,39.73q29.09-16.78,58.16-33.6c2-1.16,4-2.58,6.39-.76,1.5,2.08,1,4.48,1,6.76q0,64.71,0,129.4c0,1.82.12,3.64.18,5.46a6.89,6.89,0,0,0-.16,1c.28,17.47,0,15.33-13.83,23.36q-28.09,16.29-56.25,32.49c-1.86,1.08-3.8,2-4.54,4.22-17.24,9.59-34.08,19.87-51.39,29.31C83.33,239.66,82.54,243.39,80.86,247Z"/><path class="cls-3" d="M212.56,5.37c-6.29.43-10.75,4.78-15.83,7.65-21.3,12.05-42.44,24.37-63.63,36.61Q103.46,66.75,73.84,83.9c-16.32,9.44-32.6,18.94-49,28.22-2.28,1.29-3.9,3.69-6.72,4-3.33,1-5.27-1.18-7.24-3.24.65-2.53,2.77-3.6,4.77-4.76q91.76-53,183.52-105.93C205.69-1.55,209.72-.53,212.56,5.37Z"/><path class="cls-2" d="M255.66,187.86c-.89-19.56,1.83-39.09.52-58.65-.12-1.8-.35-3.6-.52-5.4.15-.93.31-1.86.47-2.79,1.82-1,3.54,0,5.31.25,5.63.62,11.25.81,16.82-.6,1.71-.43,3.4-1.54,5.27-.49q1,17.4,1.94,34.8-1.08,13.29-2.17,26.59c-1.37,3,1.09,6.25-.38,9.29-2.55,2.59-5.16,2.57-7.84.19-1.41-2.34-.77-5.12-1.68-7.57-1.57-13.59-1.29-27.27-1.85-40.9a34.11,34.11,0,0,0,.95-8.78c-.07-1.64-.16-3.34,1.37-4.5a7.38,7.38,0,0,1,1.19-.69c.35-.17.81-.25.94-.72a2.52,2.52,0,0,1-1.18.72c-4.27,2.38-1.45,6.59-2.56,9.79-.87,2.79-.74,5.69-.91,8.56a23.86,23.86,0,0,0-.43,7.3c-.63,10.25-2.9,20.27-4.38,30.41-1.64,5.14-.54,11-4.05,15.67a5.88,5.88,0,0,1-6.08-.13C254.22,196.21,255,192,255.66,187.86Z"/><path class="cls-4" d="M10.88,112.9c2.83.15,4.57,2.73,7.24,3.24,1,2.61,0,5.22,0,7.82q.14,71.93.07,143.84c0,2.3-.39,4.67,1,6.78-6.53.29-9.35-2.24-9.42-9.08-.12-12.29,0-24.58,0-36.86q0-53.56,0-107.11c0-2.49.14-5,.22-7.46Z"/><path class="cls-5" d="M283.53,120.18a35.22,35.22,0,0,1-27.4.84c-1.53-6.06-.17-12.22-.66-18.31-.15-1.89.78-4-.94-5.62.63-5.8,3.51-10.9,5.1-16.41,2.33-1.26,4.82-.81,7.28-.7a10.64,10.64,0,0,0,6.32,0c3.13,0,6.32-.76,9.3.86a30.77,30.77,0,0,1,1.86,17c-2.23,5.75-.21,11.66-.6,17.48C283.68,116.93,284.43,118.6,283.53,120.18Z"/><path class="cls-6" d="M387.91,125.16l.53,1.17c.48,23.57.14,47.14.16,70.71a80.31,80.31,0,0,0,1.71,16.24c.89,4.3.33,8.59.3,12.89.21,6.75-.32,13.49-.05,20.25a10.51,10.51,0,0,1-1.26,5.72c-2.14,2.51-4.27,5.11-7.86,2-1.44-3.69-.86-7.54-.83-11.32q.4-52.68,0-105.36c0-2.8-.22-5.65.9-8.34C383,126.79,384.87,125,387.91,125.16Z"/><path class="cls-7" d="M388.41,251.39c1.19-8.17.13-16.41.72-24.6,1.37-1.47.78-3.8,2.28-5.22,1.35-1.28,2.48-3.17,4.83-1.8,4.27.5,8.44,1.9,12.87.14a4.44,4.44,0,0,1,5.89,2.27c1.07,2.39-.31,4.11-2.15,5.45-3.64,2.67,1,5.22.07,7.83-1,1.48-1.2,3.95-3,4.24-7.23,1.13-10.21,7.43-14.88,11.67C392.83,253.38,390.63,253.7,388.41,251.39Z"/><path class="cls-8" d="M388.41,251.39a11.89,11.89,0,0,0,6.61,0c-4.67,7.16-12.08,8.84-19.43,4.58q-26.65-15.42-53.38-30.7c-3.31-1.9-5.75-3.67-.49-6.18,2.18-1,1.58-3.08,1.58-4.82q0-24.17,0-48.33,0-32.26.09-64.52c0-1.76-.61-3.67.8-5.23.22.19.44.38.67.56,1.37,2.48.94,5.19.94,7.82,0,36.24.12,72.48-.09,108.72,0,5.71,1.83,9.15,6.81,12,15.05,8.5,30,17.2,44.91,25.93a16.52,16.52,0,0,1,4.78,3.5C385,255,386.87,253.49,388.41,251.39Z"/><path class="cls-9" d="M387.91,125.16l-4.73,2.89c-1.91,1.33-3.54.13-5-.75-17.61-10.21-35.31-20.24-52.87-30.52a3.15,3.15,0,0,1-.7-.71l-.41.1c2.22-3.73,5.12-5.68,9.4-3.22Q360,108.13,386.3,123.4A7.8,7.8,0,0,1,387.91,125.16Z"/><path class="cls-10" d="M396.24,219.77c-4.42.26-4.3,5.13-7.11,7-1.4-33.48-.89-67-.7-100.47,1.13,1.68.54,3.56.54,5.32q.18,36.6.24,73.19c1.33,1.7.89,3.64.52,6.7.1-.52,1.27-1,.6-.95-.28,0-.31-.12-.31-.39a3,3,0,0,1,2.34-3.23c2.11-1.8,4.07-3.75,6.94-4.47,2.29-.58,4.26-.42,5.78,1.46s1.19,4.16-.17,5.94a67.44,67.44,0,0,1-5.35,5.75C398.32,216.92,396.73,217.9,396.24,219.77Z"/><path class="cls-11" d="M252.54,99.1c-6.92,12.55-9.21,8.08-14.34,0-3.37-5.3-7.12-10.39-9.66-16.16-1.36-3.1-2.17-6.36.8-9.15.7-.66,2.44-1.39,2.42-.65-.1,3.52,4,4.57,4,8.2,0,6.54,5.33,10.09,9.42,14.21.11.11.84-.38,1.28-.6C249.31,95.18,251.75,95.92,252.54,99.1Z"/><path class="cls-11" d="M302.42,77.18c1.47.6,2.9,1.26,2.91-1.37,0-1.23-.23-3.07,1.71-2.89a3.94,3.94,0,0,1,3.29,2.68,10.09,10.09,0,0,1-.67,7.69c-2.88,6.12-5.8,12.24-9.15,18.11-3.57,6.27-5.09,6.26-10.3,1-.69-.7-1.29-1.49-1.92-2.24a11.64,11.64,0,0,1,4.92-6.51c4.78-1.8,6.83-5.74,7.8-10.34C301.44,81.23,301.45,79.1,302.42,77.18Z"/><path class="cls-12" d="M280.45,64.22c-.17,7.93-1.32,9.37-7.95,10-1.62.05-3-1-4.72-1.07a8.25,8.25,0,0,1,4.56,2l.33,1.33a2.35,2.35,0,0,1,0,2.93c-2.11,1.6-4.48.61-6.75.68a3.22,3.22,0,0,1-1.41-.49,2.92,2.92,0,0,1-.9-2.71c.29-3.68-.22-7-3.4-9.52-2.49-2-2.27-4.47-.54-6.93,2-.9,3.29,1.65,5.23,1.06a4.88,4.88,0,0,1,3,1.07c1.48,1.54,3.1.85,4.72.31,1,.2,2,.87,3,.07A24.47,24.47,0,0,1,280.45,64.22Z"/><path class="cls-13" d="M264.53,62.27c-2.68,2.2-3-2-4.89-1.83-.09-9,1.46-10.95,10.18-12.21a14.63,14.63,0,0,0,6.07-2c2.68-1.74,4.17,1,5.91,1.84,1.43.73,1.2,2.88-.41,4.16a7.46,7.46,0,0,1-3.07,3.15c-2.06,1.24-4.38,1.09-6.66,1.17-1.77.06-3.65-.21-5,1.36C265.57,59.18,265.81,61.1,264.53,62.27Z"/><path class="cls-14" d="M252.54,99.1q-3-2.07-6-4.12c.14-5.21,3.92-9,5.18-13.82a2.65,2.65,0,0,1,1.42-.85c2.2-.14,4.51-1.1,6.43.86.68,6-2.5,10.87-5,15.92A2.61,2.61,0,0,1,252.54,99.1Z"/><path class="cls-15" d="M283.76,81.09c2.76,4.63,7.44,7.84,9.51,13a17.52,17.52,0,0,1-5,6.06c-2,.35-3-.9-3.9-2.3a78.39,78.39,0,0,1-1.95-16.64,1.07,1.07,0,0,1,.89-.38Z"/><path class="cls-16" d="M300.37,79.18A4,4,0,0,1,297,82.74c-2.64.63-.11-1.36-.66-1.95-4.06-.3-8.14-.05-12.21-.14-1-.1-2.21.35-2.88-.89l.17-.8c5.3-.24,10.7,1.5,15.89-1C298.55,77.37,299.27,79,300.37,79.18Z"/><path class="cls-17" d="M259.52,81.17l-7-.25a.72.72,0,0,1-.22-.68q.09-.36.18-.36c.36-.19.7-.39,1-.61l1-.33c3.32.06,6.63-1.57,9.94,0l.23.17c.71,1.07,2,.22,2.82.82A.77.77,0,0,1,267.4,81Z"/><path class="cls-18" d="M278.46,54.17l2.93-1.94a40.77,40.77,0,0,1,1.29,6.66c.06,1.55.6,3.83-2.06,4.3a3,3,0,0,1-1.29-2.44,12.79,12.79,0,0,1-.09-1.38C279.43,57.57,278.62,55.92,278.46,54.17Z"/><path class="cls-19" d="M253.54,79.27l-1,.88c-2.21,1-4.55.42-6.82.46-1.74,0-3.28.12-4.17,1.87-1.59-.47-3.57-.9-2.61-3.13.78-1.83,2.32-.69,3.78-.5C246.25,79.31,249.91,79.17,253.54,79.27Z"/><path class="cls-20" d="M280.33,60.32c.1,1,.19,1.92.29,2.87-.05.35-.11.69-.17,1-2,1.57-3.61.89-5-1a2.09,2.09,0,0,1-1.37-2.9,2.27,2.27,0,0,1,1.85-.82C277.4,59.89,279.08,59,280.33,60.32Z"/><path class="cls-21" d="M272.71,79c0-.85,0-1.7,0-2.55,3,.5,6.33-.07,8.76,2.48l-.16.35c-2.3,1.48-4.81.72-7.26.69A2.34,2.34,0,0,1,272.71,79Z"/><path class="cls-22" d="M241.5,82.48c.11-2.37,1.78-2.41,3.53-2.38,2.48,0,5,0,7.46.05a6.81,6.81,0,0,0,0,.78,1.88,1.88,0,0,1-.87.23c-2.11-.06-4.22-.17-6.33-.16-1.16,0-1.91-.53-1.56,1.87S242.33,83,241.5,82.48Z"/><path class="cls-23" d="M264.5,79l-9.94,0c2.85-1.39,6-1.32,9-2C263.89,77.58,264.2,78.27,264.5,79Z"/><path class="cls-24" d="M392.36,207c-.84,1.33-1.69,2.65-3.15,4.94v-7.07Z"/><path class="cls-25" d="M272.34,75.15c-2.27-.65-4.72-.92-7.29-3.43,3.3.5,5.55.91,7.45,2.49A3.31,3.31,0,0,1,272.34,75.15Z"/><path class="cls-26" d="M127.65,316.46c.61-1.8,2.36-2.21,3.76-3q61.44-35.51,122.82-71.08c4.18-2.44,7.21-2.29,11.29.12,24.48,14.37,49.12,28.46,73.69,42.68,1.52.88,3.46,1.36,4,3.41-5.08,4.94-11.6,7.64-17.58,11.09Q271.43,331,217.18,362.27a16.58,16.58,0,0,1-4.47,2.14,9.9,9.9,0,0,1-7.13-1.45c-24.83-14.06-49.47-28.46-74.18-42.74C129.82,319.31,128.16,318.45,127.65,316.46Z"/><path class="cls-2" d="M149.73,226l11,7c.39,1.66-.77,2.45-1.9,3.12q-22.22,13.15-44.73,25.81a3.9,3.9,0,0,1-1.44.34,93,93,0,0,1-20.19-11.55c-5.64-4.2-4.88-10.48,1.19-14,12.58-7.36,25.41-14.29,37.87-21.87,1.88-1.15,3.8-2.83,6.39-1.88l.72,2.08C140.85,220.08,146.24,222.06,149.73,226Z"/><path class="cls-27" d="M161.87,238.75c6.08,3.45,6.12,4.39.11,7.87q-22.32,12.94-44.68,25.83c-3.22,1.86-6.31,1.53-9.41-.28-4.57-2.67-9.34-5-13.7-8s-8-2.38-12.33.16q-25.23,14.88-50.73,29.26c-5.77,3.27-10.93,2.24-15.85-2.32-1.94-1.79-2.69-3.14.3-4.84q29.3-16.76,58.47-33.7,3.45-2,6.88-4c8.92,8.87,20.18,14.07,31.06,19.86,1.83.49,3.14-.65,4.57-1.43,12.87-7.05,25.24-15,38.18-21.87A16.75,16.75,0,0,0,161.87,238.75Z"/><path class="cls-28" d="M262.33,199.77q1.53-7.52,3-15c3.05-.66,6.08-1.42,9.25-1l1,7.15a3.82,3.82,0,0,1,.7,2c-.72,5.78-.71,5.74,4.93,7,3.3.74,6.45,2.63,10.37,1-2.44-4-8.44-3.31-10-8a3.45,3.45,0,0,1,.43-2.11c.61-3.05-.26-6.29,1.2-9.23-.33,3.64,1.09,5.56,4.89,6.52A22,22,0,0,1,299,194.85c5,5.41,4.62,12.69-1.12,18-12.12,11.18-41.65,10.54-53-1.15-5.57-5.76-4.8-14.22,1.72-18.83a32.93,32.93,0,0,1,9-5l1,11.88a4.06,4.06,0,0,1,.26,2.7,14.29,14.29,0,0,0,6.75,11.36c1.32.88,3.31,1.44,4.45-.25.92-1.36-.55-2.41-1.44-3.29a16.66,16.66,0,0,1-4.81-8.45A3,3,0,0,1,262.33,199.77Z"/><path class="cls-27" d="M344.2,292.64a3.81,3.81,0,0,1,3.88,3.2c.37,2.16-1.66,2.6-3,3.4L236.27,362.11c-6.73,3.89-13.54,7.65-20.23,11.63-3.88,2.31-7.43,2-11.22-.22q-39.1-22.63-78.27-45.17c-5.3-3.06-5.23-3.09-1.39-7.77a16.67,16.67,0,0,0,1.57-3c1.55,5.34,5.73,7.85,10.29,10.43,22.9,12.95,45.62,26.23,68.43,39.36,2.05,1.19,4.08,3.06,6.85,2,21.84-11.89,43.14-24.72,64.73-37,19.29-11,38.35-22.42,57.73-33.27C338.09,297.13,341.08,294.8,344.2,292.64Z"/><path class="cls-29" d="M344.2,292.64a8.86,8.86,0,0,1-4.14,4.67q-62.82,36.15-125.59,72.39a13.72,13.72,0,0,1-1.8.77c-2.34,1-2.83-.7-3.11-2.34-.41-2.43.71-4,3.08-4.68q37.43-21.65,74.85-43.3,26.68-15.4,53.4-30.76a12.83,12.83,0,0,1,2.33-.81C343.54,289.93,343.87,291.28,344.2,292.64Z"/><path class="cls-27" d="M149.73,226c-4.8-2.57-10.71-4-11.08-11,9.51-5.33,19-10.61,28.52-16,6.9-3.93,13.68-8.08,20.59-12,5-2.81,12.61-1.23,16.15,3.31,2.13,2.73-.5,3.93-2.2,4.94-7.26,4.31-14.61,8.46-21.94,12.65-9.48,5.43-19,10.83-28.44,16.3C150.67,224.5,150.26,225.33,149.73,226Z"/><path class="cls-30" d="M111.61,270q-12.4-7.07-24.79-14.13c-2.85-1.62-4.26-4.46-5.89-7.11,0-.58-.05-1.17-.07-1.75-.53-4.92,1.25-8,5.88-10.6,16-8.77,31.59-18.12,47.42-27.12,1.36-.77,2.76-2.66,4.81-1.22-.35,1.6-.69,3.2-1,4.79C123,221.3,108.06,229.7,93.2,238.27c-4.88,2.82-4.67,8.31.66,11.9,6.15,4.13,12.66,7.73,19,11.56C114.58,264.8,115.84,267.81,111.61,270Z"/><path class="cls-31" d="M212.64,363.45c-2,2.35-3.86,4.7,0,7-2.26,1.81-4.06.12-5.83-.9-25.38-14.6-50.69-29.31-76.15-43.78-3.62-2.05-4-4.83-4-8.24l.92-1.09q27.39,15.94,54.79,31.88c7.86,4.55,15.89,8.81,23.67,13.48A10.87,10.87,0,0,0,212.64,363.45Z"/><path class="cls-3" d="M111.61,270c2.41-2.44.81-5.5,1.26-8.24,12.51-8.37,26-15.05,38.83-22.92,3.06-1.89,6.54-3.15,9-5.91,1.87,1.66.35,4,1.13,5.85-.24,2.09-.25,3.95-2.65,5.31-14.8,8.36-29.45,17-44.19,25.43C114.07,270,113,271.54,111.61,270Z"/><path class="cls-31" d="M22.1,188.94c0-21.27.08-42.53-.06-63.8,0-4.66,1.58-7.61,5.74-10Q98.7,74.41,169.45,33.41c10.76-6.21,21.48-12.5,32.32-18.58,4.62-2.6,5.83-1.78,5.83,3.55q0,63.8,0,127.59c0,4.48-1.51,7.62-5.75,10.05q-61.47,35.19-122.75,70.75-26,15-52.11,30c-4.21,2.42-4.89,2-4.9-3.08Q22.06,221.33,22.1,188.94Z"/><path class="cls-32" d="M274.62,183.7c-3,1.34-5.95,2.64-9.25,1q2.13-15.39,4.24-30.77c1-2.38-.14-5,.74-7.37.26-3-.85-6.14,1.21-8.87,1.27,1.27.82,2.85.78,4.36C274.2,155.89,273.29,169.86,274.62,183.7Z"/><path class="cls-33" d="M272.34,142.08c-1.83-1.17-.17-3-.78-4.36.78-3.45-2.71-8.61,3.9-9.7.3.23.39.45.3.68s-.19.35-.29.35c-2.3,1-1.82,3.14-2,5.07C273.13,136.77,274.57,139.69,272.34,142.08Z"/><path class="cls-34" d="M275.46,192.58c.05-.58.11-1.16.17-1.73,2.16.71,4.32,1.24,6.47-.06.06.67.13,1.34.19,2C279.93,195.53,277.65,195.47,275.46,192.58Z"/><path class="cls-35" d="M255.66,201.62l1-1.88,5.72,0,.15,1.8C260.23,203.78,258,203.66,255.66,201.62Z"/><path class="cls-36" d="M270.35,146.59c-.05,2.48.9,5-.74,7.37C269.47,151.47,269.33,149,270.35,146.59Z"/><path class="cls-37" d="M275.47,129.05v-1l2.73-3.24A4.51,4.51,0,0,1,275.47,129.05Z"/><path class="cls-38" d="M273.47,79.29l7.8,0,2,1,0,.53c-.28.11-.55.23-.82.36l-9.76-.25c-.42,0-.61-.27-.53-.69C272.46,79.75,273,79.6,273.47,79.29Z"/><path class="cls-39" d="M272.5,80.15a3.62,3.62,0,0,0,.18.79c-1.73,1.71-3.5,1.15-5.28.08,0-.29,0-.57,0-.85A6.14,6.14,0,0,1,272.5,80.15Z"/><path class="cls-31" d="M324.57,96.07c7.33,1.59,12.85,6.67,19.18,10.13,12.05,6.57,23.82,13.65,35.74,20.47a22.6,22.6,0,0,0,3.69,1.38c-1.34,2.11-1,4.47-1,6.77q0,59.93,0,119.84c-1.67.37-2.82-.76-4.08-1.48q-25-14.4-50-28.82c-2.27-1.31-3.91-2.72-3.9-5.74q.17-60.8.18-121.57A4.87,4.87,0,0,1,324.57,96.07Z"/><path class="cls-40" d="M396.53,230.41l-.79-7C398.12,225.76,396.84,228.26,396.53,230.41Z"/><path class="cls-41" d="M398.62,233.27c1.21-.63,2.74-.92,3,.37.3,1.56-1.2,1-2,.7C399.19,234.2,399,233.67,398.62,233.27Z"/><path class="cls-42" d="M393.05,234.77c.76-1.42,1.73-2.38,3.57-1.7-.1,1.59-1.49,1.36-2.41,1.76A.7.7,0,0,1,393.05,234.77Z"/><path class="cls-43" d="M393.05,234.77l1.16.06c-.89,1.06-1.42,2.54-3.32,2.79C390.93,236,391.92,235.35,393.05,234.77Z"/><path class="cls-44" d="M274.49,60.32l1,2.92c-.2.87.35,2.29-.92,2.42-1.48.17-.79-1.93-1.88-2.41a1.38,1.38,0,0,1-1.43.24,2.72,2.72,0,0,1-1.3-2.64,1.79,1.79,0,0,1,.92-1.22C272.21,59.15,273.47,59.11,274.49,60.32Z"/><path class="cls-45" d="M272.5,80.15l-5.07,0c-1-.13-2.18.3-2.7-1l8-.1a1.86,1.86,0,0,1,.76.26Z"/><path class="cls-46" d="M264.53,62.27c0-1.75-.56-3.57.8-5.1,1.07.59,1.2,1.78,1.73,2.71a7.34,7.34,0,0,1,.71,1,2.22,2.22,0,0,1,.11,1.8l-.44.43C266.45,62.91,265.78,61.65,264.53,62.27Z"/><path class="cls-47" d="M271.33,63.08l1.36.17c-1.8,2.33-3.56,2.86-5.25-.1l0,.05C268.68,62,270,62.79,271.33,63.08Z"/><path class="cls-12" d="M266.46,61.18c-2-.88-.65-2.7-1.13-4,.38-2.73,2.46-1.92,4.13-2,3-.11,6.17.79,9-1,2.58.88,1.79,3,1.86,4.9a16.67,16.67,0,0,1-3.91,1.13l-1.92.12-3.75-.17A6.79,6.79,0,0,0,266.46,61.18Z"/><path class="cls-16" d="M283.26,80.83a1.2,1.2,0,0,0,0-.53c4.35.08,8.75-.81,13.06.49l-12.6.3A.74.74,0,0,1,283.26,80.83Z"/><path class="cls-48" d="M276.41,60.2c1.06-1.22,2.23-2,3.91-1.13,0,.41,0,.83,0,1.25C279,59.71,277.66,62.13,276.41,60.2Z"/><path class="cls-49" d="M315.56,300.65c-14.33,9.29-29.44,17.27-44.15,25.9-15.18,8.9-30.47,17.6-45.67,26.45-2.44,1.42-4.61,2.2-7.39.59Q182,332.47,145.52,311.48a10.11,10.11,0,0,1-1.43-1.24c.53-1.58,1.92-1.92,3-2.57q44.59-25.82,89.21-51.6a9.24,9.24,0,0,1,1.39-.52c4.48,0,7.62,3.08,11.12,5.08q31.64,18.11,63.14,36.44C313.44,297.92,315.58,298.26,315.56,300.65Z"/><path class="cls-50" d="M315.56,300.65l-77.84-45.1c2.22-1.39,4.5-2.67,6.62-4.19,3.87-2.76,7.26-2.35,10.34,1.2.73,2.1,2.65,3.12,4.15,4.51a2.13,2.13,0,0,0,2.08-.25c.5-.23,1-.58,1.55-.09q30.69,17.59,61.39,35.22c2.38,1.37,3.35,3,0,4.38C321,297.56,318.73,300,315.56,300.65Z"/><path class="cls-51" d="M172.63,339.49c-2.3-1.14-2-3.15-1.74-5.15,2.55.31,5.45-1.77,7.64,1.09,2.57,1.36,2.54,1.5-.75,4.07A6,6,0,0,1,172.63,339.49Z"/><path class="cls-52" d="M258.37,258.76c-.12-2.73-5.66-2.23-3.69-6.2a23,23,0,0,1,7.78,4.17l-1,1C260.48,258.14,259.16,257.63,258.37,258.76Z"/><path class="cls-53" d="M290.61,265.59a14.61,14.61,0,0,1,6.48,4c-3.6.53-5.27-2.06-7.63-3C289.33,265.7,289.48,265.09,290.61,265.59Z"/><path class="cls-54" d="M178.53,335.43c-2.32-1.95-5.2,0-7.65-1.08C173.58,333.7,176.48,331.51,178.53,335.43Z"/><path class="cls-55" d="M300.22,272.54c-.83,0-1.52-.12-1.42-1a1.29,1.29,0,0,1,.9-.77c.6-.11,1.31.05,1.23.89C300.89,272,300.42,272.32,300.22,272.54Z"/><path class="cls-56" d="M290.61,265.59l-1.15,1c-.89-.4-2.33-1.07-1.67-1.9C288.69,263.57,289.76,264.88,290.61,265.59Z"/><path class="cls-57" d="M172.63,339.49h5.15C176.06,341,174.34,341.08,172.63,339.49Z"/><path class="cls-58" d="M275.46,192.58c2.25,1.06,4.51,1.59,6.84.21,2.48,3.43,6.57,4.2,10,6,1,.53,2.3.82,2.09,2.34s-1.4,1.68-2.57,1.87a12.85,12.85,0,0,1-7.73-.87,13.18,13.18,0,0,0-3.72-1.21C273.34,200,273.29,199.91,275.46,192.58Z"/><path class="cls-59" d="M255.66,201.62c2.27.19,4.56.88,6.83-.05a24.18,24.18,0,0,0,6.5,9.12c1.1.91,2.3,2.17,1.43,3.81s-2.46,1.56-3.94,1.45c-3.27-.23-6.2-1.25-7.46-4.63C257.83,208.11,253.91,205.84,255.66,201.62Z"/><path class="cls-49" d="M200.55,34.65q.06,54.59.14,109.15c0,4.19-1.93,6.74-5.39,8.74q-80.64,46.49-161.23,93c-4.28,2.47-5.32,1.94-5.32-2.81q-.06-53.09,0-106.16a25.29,25.29,0,0,1,.44-3.44c.88-2,2.78-2.77,4.49-3.75Q96.31,93.33,158.83,57.07c11.79-6.84,23.58-13.67,35.44-20.36C196.15,35.65,197.91,33.6,200.55,34.65Z"/><path class="cls-2" d="M200.55,34.65Q139.5,69.84,78.45,105c-16.39,9.44-32.84,18.77-49.26,28.15-2.42-6.76-.67-11.26,6-15.09q26.46-15.27,52.93-30.49,53.31-30.81,106.6-61.67c4.5-2.6,5.89-1.91,6,3.26C200.7,31,200.59,32.83,200.55,34.65Z"/><path class="cls-49" d="M379.91,153.19q0,40.59,0,81.18c0,5.83,0,5.86-5.23,2.87-14.65-8.44-29.27-16.92-43.93-25.32-2.29-1.32-3.84-2.65-3.83-5.7.11-27.06.07-54.12.09-81.18a12,12,0,0,1,.32-2c2.38-.9,4,.72,5.78,1.75,3.78,2.22,7.47,4.59,11.42,6.51,6.64,4.07,13.39,8,20.17,11.82,3.74,2.14,7.43,4.4,11.26,6.4A8.38,8.38,0,0,1,379.91,153.19Z"/><path class="cls-4" d="M343.88,132.22l-16.56-9.14c0-2.94.13-5.9-.12-8.83-.37-4.37,1.47-3.85,4.08-2.07a4.54,4.54,0,0,1,.2,2.42c.2,1.79,1.72,2.3,3,3.05a11.66,11.66,0,0,0,1.61.53,2.12,2.12,0,0,0,1.78-.9c.45-.36.91-.71,1.48-.22q18.87,10.72,37.72,21.49a6.09,6.09,0,0,1,3.12,6.24c-.21,2.79-.17,5.6-.23,8.4L364.23,144c-.38-.84.18-1.22.76-1.59,2.24-1.47.25-2.22-.64-2.76-9.19-5.63-18.68-10.73-28.09-16.05,2.44,3.44,7.62,3.59,9.28,7.9C345.19,132.22,344.73,132.67,343.88,132.22Z"/><path class="cls-60" d="M359.11,124c-4.58-1.22-8.62-3.29-11.57-7C352,118.36,356,120.36,359.11,124Z"/><path class="cls-61" d="M352.91,228.66l1.51,1.26c1.73,1.45,2.86,3.42.82,5s-3.05-.72-4-2.2c-1.68-1-1.68-2.4-1.15-4A2.12,2.12,0,0,1,352.91,228.66Z"/><path class="cls-62" d="M336,119.09l-1.9-.14c-.52-2.25-3.72-2.46-3.83-5l1-1.74,8,4.88-1,1C337.59,118.54,336.73,118.64,336,119.09Z"/><path class="cls-63" d="M354.23,116.13c-.19.16-.47.61-.81.65-.8.09-1.09-.61-1.12-1.21s.09-1.35,1-1.11C354,114.65,354.25,115.22,354.23,116.13Z"/><path class="cls-64" d="M352.91,228.66l-2.51.27q-.86-.52-.15-1.23C351.79,226.24,352.8,226.22,352.91,228.66Z"/><path class="cls-65" d="M350.25,227.7l.15,1.23a4.73,4.73,0,0,0,.83,3.78C348.09,231.59,348.76,229.72,350.25,227.7Z"/><path class="cls-12" d="M271.33,63.08c-1.27,1.15-2.61,0-3.91.12l.18-2c1.36-2.1,2.19-1.28,2.86.51Z"/><path class="cls-66" d="M270.46,61.72a1.92,1.92,0,0,0-2.86-.51l-1.14,0c1.26-1.06,1.88-4.72,4.28-1C270.65,60.67,270.55,61.19,270.46,61.72Z"/><path class="cls-67" d="M239.56,336.56q-32.16-18.4-64.35-36.76c-2.58-1.47-2.1-2.16,0-3.63a6.5,6.5,0,0,1,7.81-.3q30.7,17.94,61.48,35.77a.81.81,0,0,1,.27.76c-.06.26-.13.39-.2.39-1.38.95-3.28,1.15-4.1,2.89A2.83,2.83,0,0,1,239.56,336.56Z"/><path class="cls-68" d="M172.87,302.53l60.71,35a.8.8,0,0,1,.35.7c0,.28-.08.41-.14.41-.95.92-2.32,1.06-3.34,1.84-.64.58-1.18,1.26-1.87,1.78q-24.11-13.72-48.2-27.46-7.75-4.43-15.47-8.91c-1.62-.94-3.76-2-.26-3.38,1.33-.67,1.83.62,2.68,1.1a2.34,2.34,0,0,0,2.89,0C171,303.11,171.58,301.87,172.87,302.53Z"/><path class="cls-69" d="M218.55,348.73l-62.74-36.2c-.35-.78.13-1.2.69-1.59a8.85,8.85,0,0,0,3.77-2.26,1.55,1.55,0,0,1,1.79-.25c21,11.69,41.85,23.53,62.31,36.11A40.7,40.7,0,0,0,218.55,348.73Z"/><path class="cls-70" d="M197.62,287.39c.24-.22.48-.44.74-.65,7.66-6.25,15-6.19,22.92.08,4.49,3.57,9.9,6,14.86,8.94.38.22.57.77,1.06,1.46l-16.33,9.44c-1.33-.78-1.55-2.14-1.57-3.44,0-3.12-1.41-4.92-4.57-5.41a3.74,3.74,0,0,1-3.32-3.77c-.18-3.24-2.3-3.81-4.94-4.39C203.51,289,200.08,290,197.62,287.39Z"/><path class="cls-71" d="M197.62,287.39a87.81,87.81,0,0,0,8.82.89c4.21,0,7,1,6.13,6.06-.18,1,.23,2.17,1.5,2.09,8.25-.53,6.94,5.22,6.8,10.23a2.39,2.39,0,0,1-3.13.27c-8.67-5.07-17.39-10.07-26.41-15.28C193.19,289.34,195.71,288.8,197.62,287.39Z"/><path class="cls-72" d="M246.25,280.91c-.21.28-.47.67-.78,1-4.16,4.66-13.21,4.59-17.1-.09-.46-.56-1-1.26-.41-1.67,2.77-2.06,5.53-4.69,9.1-4.62s6.31,2.59,9,4.73C246.2,280.36,246.18,280.59,246.25,280.91Z"/><path class="cls-73" d="M264,311.72c-3.6,1.59-5.09-.13-6.74-1-4.77-2.65-9.5-5.39-14.2-8.17-.72-.42-2.09-.83-1.26-2.13.54-.84,1.49-.53,2.23-.1C250.42,303.93,256.8,307.59,264,311.72Z"/><path class="cls-74" d="M267.53,298.58c1.28-3.38,3.88-3.46,6.71-2.53a10.53,10.53,0,0,1,3.35,2c1.24,1,4.13,1.11,3.33,3.35a3.83,3.83,0,0,1-4.72,2.28c-1.1-2.87-3.43-4-6.27-4.32A4.21,4.21,0,0,1,268,299Z"/><path class="cls-75" d="M238.89,267.92c-2.16-.17-4.87-.16-4.83-2.94,0-2.35,2.63-2.81,4.57-2.74s4.8-.05,4.74,3C243.32,267.91,240.79,267.66,238.89,267.92Z"/><path class="cls-76" d="M261.52,320.57c1.05,3.09-.87,1.56-1.78,1.06-5.87-3.27-11.68-6.62-17.53-9.92a27.28,27.28,0,0,0-2.66-1.14l-.64-.31a1.42,1.42,0,0,1-.31-1.89c1.45-.82,2.69-.1,4,.54a19.58,19.58,0,0,0,5.19,2.75A8.78,8.78,0,0,1,250,313a12.49,12.49,0,0,0,5.09,2.74C257.51,317,260.53,317.44,261.52,320.57Z"/><path class="cls-77" d="M228,308.64c2.2,1.26,4.76,2.67,7.25,4.19.45.27,1.06,1,.28,1.59-.62.47-1.48,1.1-2.12,1-3.14-.53-5.51-2.68-8.14-4.27a1.26,1.26,0,0,1-.26-1.21C225.58,309.08,226.48,308.69,228,308.64Z"/><path class="cls-78" d="M258.51,294.52c-3.83,2.09-9.68.92-12.53-2.42-1-1.24-.68-2.11.5-2.79s2.64-1.3,4-1.95a2.29,2.29,0,0,1,.81,1c.51,1.38-.58,3.55,2,3.9,1,.08,2.09-.2,3.13-.12a4.36,4.36,0,0,1,2.31,1.19A.86.86,0,0,1,258.51,294.52Z"/><path class="cls-79" d="M218.55,348.73c.76-3,2.16-5.18,5.82-4.2,1.34.11,2.76.47,2.92,1.92s-1.48,1.5-2.37,2.08C222.88,349.87,220.75,351.29,218.55,348.73Z"/><path class="cls-80" d="M238.58,304.6c-1.11-3,.69-1.67,1.72-1.1,5.43,3,10.82,6.07,16.22,9.11a.77.77,0,0,1,.27.79c-.08.27-.16.41-.24.41-1.41.78-2.72.14-4.06-.26a8.1,8.1,0,0,1-2.32-1.32,12.34,12.34,0,0,0-4.87-2.78,7.8,7.8,0,0,1-2.21-1.3c-1.24-1.21-2.87-1.87-4.18-3Z"/><path class="cls-81" d="M233.58,338.53v-1c1.55.88,4.34.87,3.8,3.46s-6,3.11-8.8,1.27c0-1.06-.13-2.16,1.08-2.74C231.26,340.36,232.52,339.84,233.58,338.53Z"/><path class="cls-78" d="M273.75,305.51c-2.5.81-10.74-2.1-10.81-4.09-.09-2.23,1.35-3.17,3.53-1.76a3.77,3.77,0,0,0,2.39,2c1.12.6,2.11,1.4,3.19,2.06A3.72,3.72,0,0,1,273.75,305.51Z"/><path class="cls-82" d="M274.28,287.67c-1.12-1.35-3.59.92-4.19-1.48-.21-.87.29-1.76,1.56-2.1,2.06-.56,4.14-2.8,5.84.5C276.79,286,277.7,289.09,274.28,287.67Z"/><path class="cls-83" d="M258.51,294.52l-.08-1.11c-.9-1.39-.55-2.9-.46-4.4a1.81,1.81,0,0,1,1.5-1.13c1.68.5,4.07,1,4,2.82C263.36,293.28,260.35,293.43,258.51,294.52Z"/><path class="cls-84" d="M244.55,332.52c0-.29,0-.58,0-.88,1.39.87,3.94.8,3.47,3.27-.38,1.95-6,2.91-8.44,1.65l0-1.07C241.35,334.68,243.56,334.61,244.55,332.52Z"/><path class="cls-80" d="M261.52,320.57q-3.48-2-7-4a3.61,3.61,0,0,1-1.32-1.42,1.21,1.21,0,0,1,.66-1c1.33-.12,2.55.5,3.84.66a15.22,15.22,0,0,1,2.25,1.29c1.24,1.19,2.9,1.8,4.19,2.94l.33.55C264.3,322.22,262.5,320.19,261.52,320.57Z"/><path class="cls-85" d="M259.47,287.88l-.81.72a8.41,8.41,0,0,1-8.14,0c0-.4-.05-.8-.08-1.21C253.64,284.17,256.6,285.25,259.47,287.88Z"/><path class="cls-86" d="M269.43,298.58c4.55-.58,8,2,6.77,5.07a2.35,2.35,0,0,1-.7.07,9.38,9.38,0,0,1-4.05-1.49,5.18,5.18,0,0,1-1.35-1.29A3.81,3.81,0,0,1,269.43,298.58Z"/><path class="cls-87" d="M274.28,287.67c2.23.18,1.93-2.28,3.21-3.08l1.95,2.09c-.7,1.25.46,2.59-.2,3.84a3.78,3.78,0,0,1-.81,1.05C276,291.38,274.77,289.92,274.28,287.67Z"/><path class="cls-76" d="M259.51,316.57l-2-1c-.53-.56-1.64-.82-1-2,0-.33,0-.65,0-1,3,1.82,6.09,3.61,9.09,5.49.36.22,1.58.37.73,1.22-.35.35-1.22.17-1.85.23h0C263,318.28,261.05,317.78,259.51,316.57Z"/><path class="cls-88" d="M166.49,304.63l-1.84-2.1c2.74-2.75,5.48-2.77,8.22,0l-1.86,2.1A5.86,5.86,0,0,0,166.49,304.63Z"/><path class="cls-76" d="M239.55,310.57c.12.47.37,1.34.34,1.35-1.79.56-8-2.95-8.53-4.83a13,13,0,0,1,1.23-.49l.67.11c2.41.79,4.31,2.41,6.31,3.88Z"/><path class="cls-89" d="M162.06,308.43l-1.33,1.23a13.72,13.72,0,0,1-5.07.24,2.07,2.07,0,0,1-1.2-1.49C157,305.87,159.53,305.7,162.06,308.43Z"/><path class="cls-90" d="M260.49,280.7c-.62-1.44-1.9-.63-2.87-.89-3.18-.87-2.19-1.94-.06-3,1.5.68,3.33.58,4.52,2l.17-.21.24.11a1.39,1.39,0,0,1,.43,1.36A1.45,1.45,0,0,1,260.49,280.7Z"/><path class="cls-91" d="M271.47,301.64a5,5,0,0,1,4,2.08l-1.75,1.79-2.28-1A2,2,0,0,1,271.47,301.64Z"/><path class="cls-92" d="M154.46,308.41l1.37,1.26c.8.36,1.39.83,1.09,1.84l-1.11,1c-1.41-.61-3.34-.79-3.58-2.62C152.12,309.05,153.45,308.56,154.46,308.41Z"/><path class="cls-93" d="M285.51,294.84c-1.62-1.15-3.75-1.52-5-3.22.36-1.59,2.29-.85,2.95-2l1.09.08a5.15,5.15,0,0,1,1.59,3.86A2.33,2.33,0,0,1,285.51,294.84Z"/><path class="cls-94" d="M291.4,295.77c1,0,2.36-.71,2.89.81a2,2,0,0,1-1,2.5c-1.64,1-2.25-.34-2.9-1.47a4.45,4.45,0,0,1,.23-1.07A2,2,0,0,1,291.4,295.77Z"/><path class="cls-95" d="M266.61,279.22c.92.78,2.86.7,2.59,2.39-.12.71-1.3,1.43-2.15,1.8-1.54.65-1.34-.85-1.69-1.64A2.57,2.57,0,0,1,266.61,279.22Z"/><path class="cls-96" d="M253.38,275.45c-1.94.37-3.63,1-4.75-.78-.83-1.31,1.45-2.82,1.67-1.8C250.69,274.74,252.34,274.09,253.38,275.45Z"/><path class="cls-97" d="M262.08,278.79c-1.65-.3-3.63.13-4.52-2C259.91,275.53,261.49,276,262.08,278.79Z"/><path class="cls-98" d="M266.61,279.22a3,3,0,0,1-1.25,2.55l.13-.07a4.17,4.17,0,0,0-1.49-.88,4.13,4.13,0,0,1-1.44-1l-.07-1.12A2.85,2.85,0,0,1,266.61,279.22Z"/><path class="cls-99" d="M285.51,294.84l-.08-1a1.21,1.21,0,0,1,1.28-.65c1.54.12,3.11-.28,4.61.32,0,.39.07.77.11,1.16a2.91,2.91,0,0,1-.86.7,4.54,4.54,0,0,1-1.09.25l-1.13.06C287.35,295.57,286.26,295.83,285.51,294.84Z"/><path class="cls-100" d="M283.44,289.63c.13,2.3-2.17,1-2.95,2l-2.06-.05.06-1.05c.71-.57,1.07-1.48,1.94-1.87Z"/><path class="cls-101" d="M247.78,273.69c-2.24-.37-3.68-.47-4.13-2.17a.89.89,0,0,1,.51-.7C246.06,270.43,246.54,272,247.78,273.69Z"/><path class="cls-102" d="M262.56,279.81c.86.08,1.79,0,2.2,1a.48.48,0,0,1-.1.72c-1.43-.08-3.3,2-4.17-.85A2.1,2.1,0,0,0,262.56,279.81Z"/><path class="cls-103" d="M280.43,288.65c-.12,1.16-.5,2.07-1.94,1.87.28-1.29-.37-2.81.95-3.84Z"/><path class="cls-104" d="M286.46,293.49l-1,.3-.9-4.08c1.51.23,3.12.39,2,2.63q.45.41.27.78C286.68,293.37,286.57,293.49,286.46,293.49Z"/><path class="cls-105" d="M235.58,305.6c-.24-1.72-.24-1.72,3-1h0c.64.57,1.6,1,1.13,2.13-1.41.94-2.59.33-3.73-.54Z"/><path class="cls-106" d="M246.5,322.84c-.67-.13-1.51,0-1.45-.95,0-.73.72-1.06,1.42-1.08a1.17,1.17,0,0,1,1.37,1.1C247.87,322.83,247,322.69,246.5,322.84Z"/><path class="cls-107" d="M298.93,303.1c1-1.81,2.19-1.83,3.94-1.16A5.58,5.58,0,0,1,298.93,303.1Z"/><path class="cls-108" d="M268.5,302.53c-1-.76-3.51-.39-2-2.87l1.06-1.08,0,0a5.73,5.73,0,0,1,1.53,2.15A1.76,1.76,0,0,1,268.5,302.53Z"/><path class="cls-109" d="M286.46,293.49l.06-1.15c1.57.49,3.49-.49,4.8,1.12Z"/><path class="cls-80" d="M232.59,306.6c.7-1.21,1.89-1,3-1h0c.71.6,1.73,1.07.9,2.28-1.65.64-2.67-.63-3.89-1.28Z"/><path class="cls-110" d="M288.35,295.63l1.22-.89a1.41,1.41,0,0,0,.93.4,2.74,2.74,0,0,1,1,.29l-.1.34a4.85,4.85,0,0,1,0,.85,1.59,1.59,0,0,1-2.08.08Z"/><path class="cls-111" d="M289.34,296.7l2.08-.08-1,1Z"/><path class="cls-112" d="M291.5,295.43l-1.07.19a.65.65,0,0,1-.24-.63c0-.22.1-.34.16-.34l1.08,0A4.43,4.43,0,0,0,291.5,295.43Z"/><path class="cls-113" d="M264.66,281.55a1,1,0,0,1,.1-.72l.73.87A2.9,2.9,0,0,1,264.66,281.55Z"/><polygon class="cls-114" points="250.77 324.02 251.14 323.88 251.11 324.23 250.77 324.02"/><path class="cls-115" d="M314,293.9c-.82,2.12-2.24,1.47-3.61.72-6.09-3.36-12.22-6.66-18.24-10.14Q271.52,272.54,251,260.42c-1.42-.84-4.37-1.31-3.37-3.34,1.13-2.32,3.51-.66,5.19.31q26.19,15.19,52.36,30.46c2.44,1.42,4.88,2.81,7.29,4.26C313.12,292.52,314,292.85,314,293.9Z"/><path class="cls-116" d="M317.29,292.84c1.43-1.25,2.81-1.63,3.36-.6.85,1.58-.79,1.15-1.56,1.19A6.8,6.8,0,0,1,317.29,292.84Z"/><path class="cls-117" d="M284.06,273.06a5.16,5.16,0,0,1,3.91,0c-.09.48-.06.92-.2,1C286.49,274.67,285.31,274.55,284.06,273.06Z"/><path class="cls-118" d="M258.37,258.76c.13-3.12,1.85-1.4,3.13-1C260.88,259.36,259.51,258.7,258.37,258.76Z"/><path class="cls-9" d="M140.86,159c0-3,.34-6-.07-8.95-.87-6.28,1.52-10,7.23-12.91,9.3-4.71,18.24-10.14,27.18-15.53,3.73-2.24,4.44-1.12,4.39,2.65q-.19,13.42,0,26.88a6.86,6.86,0,0,1-3.88,6.82c-10.25,5.77-20.46,11.62-30.56,17.66-3.75,2.25-4.44,1-4.29-2.68.17-4.64,0-9.29,0-13.94Z"/><path class="cls-119" d="M50,211.43c0-4.31.19-8.63-.06-12.92-.19-3.24,1-5.23,3.79-6.8q15.15-8.51,30.14-17.32c3.69-2.17,5-1.28,5,2.88q-.16,13.17,0,26.36a6.76,6.76,0,0,1-3.68,6.49q-15.91,9.18-31.78,18.45c-2.75,1.6-3.44.51-3.39-2.22C50.08,221.38,50,216.41,50,211.43Z"/><path class="cls-7" d="M133.92,166.54c4.23,12-3.25,19.3-15.41,24.55-6.64,2.87-12.71,7.09-19,10.81-3,1.75-4.06,1.2-4-2.34.07-9.44,0-18.89-.14-28.34,0-2.7,1.28-4.27,3.46-5.52q15.72-9,31.4-18.12C133,146,134,146.4,134,149.72,133.82,154.52,133.92,159.33,133.92,166.54Z"/><path class="cls-70" d="M57.08,165c0-.33,0-.66,0-1,0-6-1.47-12.57.61-17.71s9.53-6.43,14.5-9.57c8.48-5.37,17.39-10,26.76-15.38v28.73c-2.94.66-5-1.34-7.27-2.53-3-1.61-5.18-1.36-7.22,1.5-4.23,6-4.63,6.57-11.13,2.9-2.31-1.3-4.06-.72-5.51,1.4-2.16,3.13-4.79,5.91-7,9C59.93,163.66,59.24,165.45,57.08,165Z"/><path class="cls-5" d="M57.08,165c3.06-3.91,6.42-7.63,9.1-11.79,2.46-3.83,4.87-5,8.57-1.85,3,2.56,5.15,2.18,7.63-1.33,4.41-6.25,4.7-6.05,11.65-2.46l4.87,2.51c.18,1.83.37,3.51-1.69,4.68C84,162.27,70.88,169.88,57.08,177.83Z"/><path class="cls-120" d="M108.91,126.05c-.78.17-2.08.7-2.24.46-1-1.48.44-1.94,1.37-2.48q9-5.25,18-10.44,21.89-12.57,43.8-25.12c.77-.44,1.67-1.71,2.42-.48.63,1-.66,1.64-1.49,2.17-1.41,2.7-4.19,3.69-6.59,5-16.72,9.37-33.18,19.2-49.79,28.76A18.38,18.38,0,0,1,108.91,126.05Z"/><path class="cls-121" d="M169.76,96.14c.77-.18,2.07-.7,2.23-.46,1,1.47-.44,1.94-1.37,2.48q-9.13,5.37-18.31,10.67c-3.13,1.81-6.31,3.53-9.46,5.29a5.88,5.88,0,0,1-2.66,2.82c-8.76,5.21-17.51,10.44-26.49,15.28-.89.48-1.93.31-2.8.8-1.72-.34-2.56,2.08-4.61,1.4.13-2.36,2.31-2.45,3.61-3.41,2.29-3.8,6.41-5.2,9.95-7.17,14.94-8.3,29.55-17.19,44.43-25.6A18.77,18.77,0,0,1,169.76,96.14Z"/><path class="cls-121" d="M108.91,130c-.84.13-1.73,1.36-2.49.2-.5-.77.3-1.45,1-1.86s1.67-.92,2.5-1.37c4.27-4.59,10.16-6.66,15.38-9.71,15.1-8.82,30.11-17.79,45.49-26.11,3.33,3.32-1.25,2.69-2,4-5.15,5.11-12,7.56-18,11.22-12.73,7.7-25.81,14.81-38.58,22.47A28.64,28.64,0,0,1,108.91,130Z"/><path class="cls-122" d="M107.4,120.21c-1.44-.08-1.57-1-1.22-2.07a5.26,5.26,0,0,1,2.75-2.72c8.29-4.78,16.58-9.58,24.9-14.32,1-.6,2.43-2,3.41-.39.72,1.19-.31,2.6-1.49,3.29-9.12,5.34-18.27,10.61-27.42,15.9A4.84,4.84,0,0,1,107.4,120.21Z"/><path class="cls-123" d="M170.76,91.19c-6.88,5.75-15.14,9.23-22.75,13.77-12.61,7.52-25.4,14.72-38.12,22.05l-1-1q22.91-13.45,45.82-26.88c5.29-3.08,10.68-6,16-9C170.76,90.5,170.76,90.85,170.76,91.19Z"/><path class="cls-123" d="M108.91,130Q132,116.53,155,103c4.56-2.67,9.17-5.25,13.75-7.86l1,1q-23.26,13.62-46.54,27.24c-4.42,2.58-8.88,5.09-13.32,7.63Z"/><path class="cls-124" d="M144.7,81.11A11.05,11.05,0,0,1,136,91.87c-.89.17-1.51.16-2-.82-2.5-5.11,3.08-15.21,8.75-15.07C146.51,76.08,143.69,79.73,144.7,81.11Z"/><path class="cls-125" d="M119.93,138.45a4.7,4.7,0,0,1-2.76,4.72c-2.29,1.33-4.54,2.75-6.9,4-1.2.61-2.6,2.48-3.82,1a3.47,3.47,0,0,1,.6-4.95,91.4,91.4,0,0,1,11-6.66C120.36,135.39,119.55,137.85,119.93,138.45Z"/><path class="cls-120" d="M144.81,116.12c-4.31,4.5-10.1,6.69-15.3,9.78-7.47,4.44-15,8.7-22.94,12.58.54-2.92,3.44-3.13,5.32-4.49a8.85,8.85,0,0,1,4-3.45c8-4.25,15.72-8.87,23.47-13.5C141.12,116,142.73,114.8,144.81,116.12Z"/><path class="cls-126" d="M144.81,116.12c-5.11.33-8.52,4.1-12.67,6.34-6.84,3.69-13.51,7.67-20.25,11.53l-1-1,31.95-18.9Z"/><path class="cls-127" d="M57,130c-.73,2.8-1.87,5.48-5.12,5.79-1.94.19-2.18-1.76-1.94-3.26.45-2.76,1.78-5.12,4.74-5.59C56.67,126.66,57,128.4,57,130Z"/><path class="cls-128" d="M157.78,79.12c-1.75,1.14-3.67,3.47-5.5,2.47s-.6-4-.86-6c-.52-4.12,1.25-6.67,5.28-7.65a1.61,1.61,0,0,1,.53,1.14c-.31,2-1.85,3.36-2.41,5.21-.34,1.07-.32,2,.83,2.6A7.08,7.08,0,0,1,157.94,78,.83.83,0,0,1,157.78,79.12Z"/><path class="cls-129" d="M169.76,71.14c-3.17-8.19,1.34-15.69,9.05-15.07.74,1.23.19,2.25-.54,3.24a12.73,12.73,0,0,1-2.81,1.84c-1.59,1-3.28,1.82-4,3.71-.6,1.45-.38,3-.65,4.51A3.68,3.68,0,0,1,169.76,71.14Z"/><path class="cls-129" d="M157.78,79.12l-.19-1.37c-.74-1.65,1-2.56,1.16-4,.33-1.27.49-2.49-.75-3.4A2.9,2.9,0,0,1,156.78,69c0-.37-.05-.73-.08-1.1,1.3-1.23,2.81-2.91,4.55-2,1.58.78.7,3,.77,4.54C162.18,74.05,162.57,77.87,157.78,79.12Z"/><path class="cls-130" d="M90.08,108.08c.27,0,.55,0,.82,0a3.15,3.15,0,0,1,1.62,2.18,2.18,2.18,0,0,1-.67,1.88L87,115.58v-6.53C87.62,107.47,88.92,108,90.08,108.08Z"/><path class="cls-131" d="M72.82,120.21c-1-1-.57-2,.57-2.09,2.26-.07,3.31-1.69,4.68-3,2.23.85,2.82,2.44,2.08,4.62-1.56,1.48-3.19,1.92-4.94.3C74.45,120.9,73.61,120.07,72.82,120.21Z"/><path class="cls-100" d="M102.94,107.13c-.12.91.32,2.09-.92,2.51a1.39,1.39,0,0,1-1.24-.5c-1-2,.72-4.4-1-6.47-.29-.34,1.88-1.41,3.2-1.56C104.59,103.12,103.61,105.12,102.94,107.13Z"/><path class="cls-127" d="M169.76,71.14v-2l.86-.83a16,16,0,0,1,2-1.33A14,14,0,0,1,177,64.87a2.93,2.93,0,0,1,1.25,0l.51.37C177.34,69.57,173.33,70,169.76,71.14Z"/><path class="cls-132" d="M61,122.33c2.06,2.29-.47,5.63,3.43,6,.59.06-.8,1.31-1.49,1.74-.91.56-1.9.76-1.93-.84C61,127.15,61,125.08,61,122.33Z"/><path class="cls-133" d="M67.93,123c.49-1.32,2.67-1.17,2.35-3.19,1.11,4.65,1.11,4.65-2.32,5.25A1.63,1.63,0,0,1,67.93,123Z"/><path class="cls-134" d="M106.86,101.23c.82-1.19.57-3.36,2.91-3.16,1.34,1,0,2.8,1.06,3.91-.22.92-1,1.11-1.73,1.21a3.19,3.19,0,0,1-2.29-.83A1,1,0,0,1,106.86,101.23Z"/><path class="cls-135" d="M96,106.15c.48-1,1.66-1.7,2.26-1.24,1.25,1,.82,2.44.11,3.73-1.79,0-1-2.31-2.44-2.55Z"/><path class="cls-136" d="M91.85,112.14l.1-1.89c-.54-1.82.42-2.68,2-3.15.3,0,.59-.06.89-.12,1,1.27.69,2.59.2,3.93Z"/><path class="cls-137" d="M81,113.9c3.65-.42,2.69,1.81,2.41,3.84-2.08.07-.71-2.45-2.29-2.53A.82.82,0,0,1,81,113.9Z"/><path class="cls-138" d="M81,113.9l.12,1.31c-.45,1.5.73,3.32-.92,4.58.43-2-1.43-3.06-2.08-4.62Z"/><path class="cls-139" d="M161.82,115.17a2.69,2.69,0,0,1-1.74,2.9c-1.07.37-1.48-.47-1.41-1.37a2.51,2.51,0,0,1,2-2.51C161.5,114,161.68,114.72,161.82,115.17Z"/><path class="cls-140" d="M177.75,59.18c.36-1,.71-2.07,1.06-3.11a9.84,9.84,0,0,1,0,9.14l-.08,0c-1.39-1.58-1.21-3.47-1-5.35C177.68,59.65,177.72,59.42,177.75,59.18Z"/><path class="cls-141" d="M72.82,120.21c.73-1.43,1.59-.09,2.39-.12.5,1.13,1.44,2.56-.54,3C72.14,123.59,73.23,121.31,72.82,120.21Z"/><path class="cls-142" d="M166.64,112.38c.29,2.24-.45,3.09-2.33,3.33C163.86,113.83,165.12,113.21,166.64,112.38Z"/><path class="cls-143" d="M171.07,110.94c.26.92-.13,1.47-.84,1.52-1,.07-1.4-.64-1.44-1.54,0-.65,0-1.4.85-1.48C170.75,109.34,170.66,110.48,171.07,110.94Z"/><path class="cls-144" d="M106.86,101.23c0,.27.07.54.1.81a2.14,2.14,0,0,1-1.14,2.2l-1.87.69c-.93-1.27.12-2.61-.17-3.91C104.89,99.86,105.81,101.52,106.86,101.23Z"/><path class="cls-145" d="M116.84,97.14a4.87,4.87,0,0,1-1.83,4.49V97.14A1.16,1.16,0,0,1,116.84,97.14Z"/><path class="cls-146" d="M94,107.1l-2,3.15c-1-.42-1-1.32-1-2.17C91.8,107.39,92.25,105.3,94,107.1Z"/><path class="cls-147" d="M105.82,104.24A2.46,2.46,0,0,1,107,102a2.35,2.35,0,0,1,2.14,1.15C108.19,104.13,107.5,105.74,105.82,104.24Z"/><path class="cls-148" d="M103.78,101c1,1.26.41,2.6.17,3.91,0,.88-.09,1.73-1,2.2,0-2,0-4,0-6A6,6,0,0,0,103.78,101Z"/><path class="cls-149" d="M110.83,102c-1.58-1-.56-2.65-1.06-3.91.19-.45.26-1.09.59-1.31,1.07-.68.89,0,.8.78C111,99,110.94,100.5,110.83,102Z"/><path class="cls-150" d="M90.08,108.08l-3.1,1C87.42,106.77,88.19,106.53,90.08,108.08Z"/><path class="cls-151" d="M116.84,97.14H115l-1-1c-.34.47-.69.45-1,0C114.73,94.73,116.29,94,116.84,97.14Z"/><path class="cls-152" d="M95.05,110.91c-.07-1.31-.13-2.62-.2-3.93l1.12-.83-.07-.06C95.66,107.7,96.72,109.55,95.05,110.91Z"/><path class="cls-153" d="M113,96.16h1c-.13,1.41-.25,2.82-.4,4.62C112.55,99,113,97.57,113,96.16Z"/><path class="cls-154" d="M67.93,123l0,2.06c-.42-.13-1.14-.17-1.22-.41C66.42,123.71,67.45,123.54,67.93,123Z"/><path class="cls-155" d="M178.81,40.85a2.59,2.59,0,0,1,1.84-2.57c.67-.2,1.4,0,1.41.82A2.71,2.71,0,0,1,180,42.05C179.32,42.22,178.86,41.62,178.81,40.85Z"/><path class="cls-156" d="M192.64,31.47c1,0,1.13.67,1.1,1.27a2.24,2.24,0,0,1-1.94,2.36c-.88.13-1.08-.62-1-1.24A2.36,2.36,0,0,1,192.64,31.47Z"/><path class="cls-157" d="M187.34,34.78c1,1.65.53,2.86-1.13,3.57a1.39,1.39,0,0,1-1.22-.52C184.66,36,185.6,35.09,187.34,34.78Z"/><path class="cls-70" d="M333.5,187.13c-.05-6.63,0-13.25-.18-19.87-.06-3,1-3.48,3.48-2q16.5,9.57,33.05,19.07c2.06,1.2,3.5,2.58,3.42,5.44-.26,9.76-.19,19.54-.25,29.31-2.19-.34-2.64-2.31-3.45-3.85-1.86-3.49-3.67-7-5.31-10.62-1.57-3.42-3.29-6.13-7.8-4.53-2.21.79-3.25-.93-4.19-2.56a78,78,0,0,1-4.51-9.9c-1.49-3.73-3.77-4.56-7.38-2.84C338.2,185.79,336.19,187.51,333.5,187.13Z"/><path class="cls-7" d="M333.5,187.13c2.88-2.67,6.73-3.4,10.14-5,2.12-1,2.92.45,3.67,2.07,1.88,4,4,8,5.69,12.11,1,2.36,2.1,3.53,4.68,2.25,3.24-1.62,5-.36,6.48,2.8,2.76,6,5.89,11.8,8.86,17.69v5.1c-5.93-3.36-11.47-6.46-17-9.62-6.29-3.62-12.46-7.45-18.86-10.86-2.92-1.55-3.93-3.45-3.67-6.64S333.53,190.43,333.5,187.13Z"/><path class="cls-77" d="M333.53,151c.71-1.68-1.44-5.25,1.32-5.65s5.82,1.72,7.26,4.29c2,3.56,1,7.73.71,11.62-.12,1.6-1.59,1.1-2.73.66C334.66,159.86,333.53,158.07,333.53,151Z"/><path class="cls-158" d="M373.26,174.28c-.47,1.76.92,5.4-1.76,5.13s-6.6-1.55-7.33-5.53a13.16,13.16,0,0,1-.05-4.47c.37-2.11-1.42-5.8,1.13-6s5.72,1.72,7.22,5C373.39,170.3,373,172.2,373.26,174.28Z"/><path class="cls-159" d="M365.23,143l-1,1a195.17,195.17,0,0,1-20.35-11.78l1.38-1.13a2.59,2.59,0,0,1,2.82.2c5.27,3.12,10.68,6,15.82,9.35C364.7,141.16,365.59,141.77,365.23,143Z"/><path class="cls-160" d="M357.38,158.71c1.49,2.09.76,4.49.73,6.73,0,1.84,1.15,4.38-1,5.4-1.72.81-3.24-1.13-4.78-2-.25-.76.18-1.24.69-1.68,1.28-.65,1.53-1.88,1.72-3.13a14.76,14.76,0,0,1,.8-1.82C356.16,161.05,356.08,159.5,357.38,158.71Z"/><path class="cls-161" d="M353.61,167.69l-1.31,1.13c-6.22-3.57-3.23-9.19-3.16-14.16,1.57,1.1,1.2,3,1.79,4.46.34,1.06.74,2.1,1.13,3.15.17.39.31.8.46,1.2C353,164.85,354.25,166,353.61,167.69Z"/><path class="cls-162" d="M336.3,136c.07,1.2,0,2.69-1.53,2.46-2.42-.35-2.76-2.6-3-4.53-.13-1.08.26-2.72,1.69-2.48C335.85,131.82,336.2,133.92,336.3,136Z"/><path class="cls-78" d="M350.3,160c-1.73-1.48-.65-3.57-1.16-5.32,3.06-2,4.31,1.27,6.38,2.17a2.45,2.45,0,0,1-1.09,1.62C353.05,158.94,352,160.43,350.3,160Z"/><path class="cls-163" d="M365.24,157c-2.78-1.07-3.14-3.38-3-5.93-.33-.23-.43-.44-.3-.62s.25-.27.38-.27a5.09,5.09,0,0,1,4.1,1.75C366.57,153.75,367,155.63,365.24,157Z"/><path class="cls-164" d="M362.28,150.18c0,.3,0,.59-.08.89-2.09,4-4.07,1.21-6.07-.1.25-1.82.18-4,3.11-3.11C360.33,148.53,360.72,150.13,362.28,150.18Z"/><path class="cls-165" d="M350.15,146.24c-1.51-.28-3.63.57-3.89-2.07a1.61,1.61,0,0,1,.14-2.31c1.37.55,3.6-.85,4.06,1.78A2.16,2.16,0,0,1,350.15,146.24Z"/><path class="cls-166" d="M359.24,147.86c-2.18-.11-1.67,2.48-3.11,3.11l-.87-.95c-.38-1.78-1.64-3.72.85-5A6.23,6.23,0,0,1,359.24,147.86Z"/><path class="cls-167" d="M340.33,142c-3.7-1.77-1.31-4.71-1.59-7.13,2.36,2.06,1.34,4.74,1.53,7.2Z"/><path class="cls-168" d="M371.29,155.79c1.73,0,2.49,1.36,3.6,2.53-1.61.88-3,1.72-4.63.59C369.38,157.47,369.09,156.22,371.29,155.79Z"/><path class="cls-88" d="M349.39,215.21c0,.86-.19,1.75-1.26,1.61-1.59-.22-2-1.52-2-2.87,0-.77.07-1.81,1.21-1.61C348.86,212.6,349.32,213.81,349.39,215.21Z"/><path class="cls-169" d="M346.4,141.86c0,.77-.1,1.54-.14,2.31-1.29-.6-3.07.67-4-1.08.12-1.79-.29-4.11,2.87-3Z"/><path class="cls-158" d="M354.19,158.12l1.33-1.29a2.11,2.11,0,0,1,1.86,1.88c-.33,1.39.3,3-.86,4.19-1.38-.51-1.9-1.81-2.67-2.89A1.78,1.78,0,0,1,354.19,158.12Z"/><path class="cls-170" d="M345.09,140.11c-2,0-2.12,1.79-2.87,3L340.33,142l-.06.07C341.53,140.57,341.65,136.25,345.09,140.11Z"/><path class="cls-171" d="M365.24,157c1-1.55-.65-3.69,1.14-5.07l2,1.94a1.56,1.56,0,0,1,.3,1.18,3,3,0,0,1-1.48,2Z"/><path class="cls-172" d="M353,215.86c1.41.61,2.84,1.46,2,3.19-.61,1.25-1.85,1-2.75-.08C351.9,217.79,350.88,216.44,353,215.86Z"/><path class="cls-173" d="M356.94,217.9c1.68,1.65,3.69,1.87,2.59,3.9-.18.33-.91.7-1.19.58C356.37,221.55,357.72,220,356.94,217.9Z"/><path class="cls-174" d="M350.15,146.24c.1-.87.21-1.73.31-2.6l1.85.47c.56,1.4.85,2.78-.21,4.09C351.14,147.86,349.12,148.55,350.15,146.24Z"/><path class="cls-175" d="M368.21,155c.05-.37.11-.75.16-1.12a3.69,3.69,0,0,1,2.92,1.93c-1.13.78-1.08,1.94-1,3.11l-1.15,0C368.63,157.62,367.06,156.62,368.21,155Z"/><path class="cls-168" d="M356.11,145c-1.52,1.47-.65,3.33-.85,5C354.33,148.14,352.5,146.11,356.11,145Z"/><path class="cls-176" d="M368.21,155l.9,3.88a2.75,2.75,0,0,1-1.92-1.84C367.25,156.21,367.35,155.41,368.21,155Z"/><path class="cls-177" d="M353,215.86c-1.18.81-.73,2-.75,3.11-1.46-1.05-1.23-2.43-.48-3.66C352.1,214.79,352.89,215,353,215.86Z"/><path class="cls-178" d="M352.1,148.2l.21-4.09C353.52,145.54,354.16,146.94,352.1,148.2Z"/><path class="cls-179" d="M365.23,143q-10-6-20-11.92c-3.29-1.88-6.62-3.69-9.85-5.67-1.06-.64-2.44-1.63-1.49-3.17s2.12-.38,3,.15q14.55,8.37,29.05,16.85c1.3.76,2.69,1.68,2.06,3.49S366.21,143.2,365.23,143Z"/><path class="cls-180" d="M330.29,113.92c.64,2.16,5,1.52,3.83,5C333.57,116.72,328.44,118,330.29,113.92Z"/><path class="cls-181" d="M377,141.52c.06,1.15-.53,1.46-1.18,1.24a2.09,2.09,0,0,1-1.48-2.22c0-.75.33-1.2,1.16-.9C376.45,140,377.1,140.62,377,141.52Z"/><path class="cls-182" d="M350.5,127.33c1.55-.19,2.88-.9,3.61.72a1.92,1.92,0,0,1-.2,1.3A3.62,3.62,0,0,1,350.5,127.33Z"/><path class="cls-183" d="M336,119.09c-.1-.57-.47-1.5-.25-1.66,1-.74,1.69.34,2.53.65,0,.73.09,1.65-.87,1.78C337,119.92,336.49,119.37,336,119.09Z"/><path class="cls-184" d="M232.3,328.43c-4-.55-45.83-24.45-49.2-28.1C187.09,300.75,228.61,324.46,232.3,328.43Z"/><path class="cls-185" d="M244.55,332.52c.45,4.51-2.19,3.84-5,3C239.83,332.13,242.35,332.6,244.55,332.52Z"/><path class="cls-186" d="M179.53,299.45c-1.19.05-2.18-.32-2.37-1.44s.74-1.36,1.62-1.38,2.2-.26,2.49,1S180.45,299.22,179.53,299.45Z"/><path class="cls-187" d="M183.18,311.37l19.45,11.31c0,.84-.13,1.6-1.28,1-6.93-3-13.19-7.26-19.6-11.21C181.77,311.53,182,310.88,183.18,311.37Z"/><path class="cls-188" d="M183.18,311.37l-1.43,1.12q-4.86-2.69-9.7-5.39l.8-1.62A53.09,53.09,0,0,1,183.18,311.37Z"/><path class="cls-189" d="M201.35,323.7l1.28-1a18.13,18.13,0,0,1,6.39,3.63c-.13.76-.84.84-1.35,1.16C205.43,326.43,203.14,325.49,201.35,323.7Z"/><path class="cls-190" d="M214.6,329.67l8.08,4.67c-4.75.26-7.08-1.57-9.3-3.67C213.51,330,214.12,329.92,214.6,329.67Z"/><path class="cls-191" d="M214.6,329.67c-.4.34-.81.67-1.22,1-2.33-.3-3.94-1.89-5.71-3.2l1.35-1.16Z"/><path class="cls-192" d="M166.49,304.63c1.5-3,3-3.12,4.52,0A3.33,3.33,0,0,1,166.49,304.63Z"/><path class="cls-193" d="M233.58,338.53c-.13,1,.36,2.38-1.08,2.79s-2.33-.49-2.84-1.78Z"/><path class="cls-194" d="M181.64,324.73q-7-4.05-14-8.11a2,2,0,0,1,1.29-1.5L183,323.39A1.9,1.9,0,0,1,181.64,324.73Z"/><path class="cls-195" d="M181.64,324.73l1.4-1.34,12.61,7.24c-.06,1.58-.83,1.61-2,.89Z"/><path class="cls-196" d="M202,334.37c3.65,1.08,6.13,4.06,10.06,5.86-5.41,1-7.92-2.94-11.4-4.69C200.57,334.54,200.86,334,202,334.37Z"/><path class="cls-197" d="M168.9,315.12l-1.29,1.5c-2.06-1.1-4.29-2-6.4-4.19C164.91,311.6,166.76,313.78,168.9,315.12Z"/><path class="cls-198" d="M202,334.37l-1.34,1.17-7-4a2.05,2.05,0,0,0,2-.89A22.1,22.1,0,0,1,202,334.37Z"/><path class="cls-199" d="M156.92,311.51c-.36-.61-.72-1.23-1.09-1.84a3.53,3.53,0,0,1,4.9,0C160.2,311.8,158.5,311.52,156.92,311.51Z"/><path class="cls-200" d="M228.37,296.15a2,2,0,0,1-2.2,1.44c-1,0-2.17-.36-2.17-1.42s1.12-1.49,2.15-1.49A2.1,2.1,0,0,1,228.37,296.15Z"/><path class="cls-201" d="M232.14,280.92a6.13,6.13,0,0,1,5.81-2.27c1.07.15,2.48-.36,2.59,1.46.07,1.21,0,2.39-1.61,2.51-1.2.08-3.42,1.84-3.29.68C236.13,278.76,232.76,283.13,232.14,280.92Z"/><path class="cls-202" d="M268.46,300.63a2.1,2.1,0,0,1-.95-2.07l1.92,0a2,2,0,0,1,1,2A1.35,1.35,0,0,1,268.46,300.63Z"/><path class="cls-203" d="M236.59,307.6l-1-2,4,1c1-.59,1.66.07,2.38.57a2.93,2.93,0,0,1,.85,1.79c-.09.21-.18.42-.26.63l-4-1C237.45,309.17,237,308.48,236.59,307.6Z"/><path class="cls-80" d="M250.56,311.58l2,1c.55.56,1.63.85,1,2h0c-1.71,1.18-2.71-.45-4-1l-2-1a3.33,3.33,0,0,1-1.32-1.46,1.23,1.23,0,0,1,.72-1C248.42,310,249.44,310.88,250.56,311.58Z"/><path class="cls-203" d="M236.59,307.6l2,1,1,2c-2.68-.72-5.33-1.5-7-4Z"/><path class="cls-203" d="M246.54,310.59l1,2c-2.05-.35-3.94-1-5-3h0C244.26,308.42,245.41,309.48,246.54,310.59Z"/><path class="cls-204" d="M249.53,313.57l4,1,1,2C252.48,316.22,250.6,315.58,249.53,313.57Z"/><path class="cls-86" d="M250.52,288.57a25.84,25.84,0,0,1,8.14,0,7.35,7.35,0,0,1-.23,4.81c-.74,0-1.49,0-1.9-.78-1.75-2.12-2.23.58-3.35.87C249.12,293.57,250,291,250.52,288.57Z"/><path class="cls-205" d="M253.18,293.5c.94-1.14-2.37-3.25.82-3.82,2.28-.4,2.86.95,2.53,2.95Z"/><path class="cls-206" d="M246.54,310.59l-4-1-1-2a1.35,1.35,0,0,1,2,0l2,1c.55.55,1.63.84,1,2Z"/><path class="cls-203" d="M243.56,307.59h-2l-2-1c-.34-.67-.68-1.34-1-2C240.62,304.94,242.5,305.58,243.56,307.59Z"/><path class="cls-203" d="M253.53,314.57l-1-2,4,1,1,2Z"/><path class="cls-203" d="M246.55,310.58l-1-2c2.07.34,3.94,1,5,3Z"/><path class="cls-207" d="M268.46,300.63l2,0,1.05,1.05v2.83l-3-1.94Z"/><path class="cls-203" d="M259.51,316.57c2.06.35,3.93,1,5,3C262.45,319.21,260.57,318.58,259.51,316.57Z"/><path class="cls-208" d="M290.35,294.65a6.35,6.35,0,0,1,.08,1l-.86-.88A1.59,1.59,0,0,1,290.35,294.65Z"/><path class="cls-209" d="M156.51,140.79c-3.38-1.74-.93-3.54.38-4.38,5.41-3.41,11-6.5,16.58-9.69.67-.38,1.58-1,2.1,0,.72,1.41,0,2.64-1.18,3.39-3.15,2.06-6.4,4-9.61,6a6.45,6.45,0,0,1-2.86,2.61C160.18,139.56,158.51,140.6,156.51,140.79Z"/><path class="cls-210" d="M151.69,143.79c-.86,2.93-1.87,5.68-5.2,6.09-1.82.23-2-1.5-1.85-2.83.33-3,1.68-5.51,4.94-6C151.23,140.87,151.49,142.56,151.69,143.79Z"/><path class="cls-211" d="M153.76,158c-.58,5.43-5.28,4.53-9,6.72.77-3,2.9-2.79,3.91-4a10.31,10.31,0,0,1,2.2-2.32,3.38,3.38,0,0,1,1.7-.89A1.76,1.76,0,0,1,153.76,158Z"/><path class="cls-212" d="M153.76,158a8.69,8.69,0,0,0-.88-.07,2.1,2.1,0,0,1-1.59-1.88c.14-1.41,1.21-2.23,2.06-3.19a7.68,7.68,0,0,1,2.22-1.32,4,4,0,0,1,1.29-.2,3.09,3.09,0,0,1,1.25.42,2.83,2.83,0,0,1,1,1.7,1.83,1.83,0,0,1-.56,1.19c-1,.8-2.21,1.42-2.85,2.65a2.87,2.87,0,0,1-1,.87Z"/><path class="cls-213" d="M168.7,141.86c1.91-1.52,3.8-3.09,7.13-3.45-1.34,2.89-3.94,2.84-5.05,4.52a.83.83,0,0,1,.27.8c-.06.28-.14.41-.22.41a2,2,0,0,1-2.39-1A1.29,1.29,0,0,1,168.7,141.86Z"/><path class="cls-214" d="M162.76,141l-7.14,4.36c-.94-2.65,1.25-2.61,2-3.59.93-1.54,2.14-2.61,4.11-2.38C162.48,139.66,163,140.05,162.76,141Z"/><path class="cls-215" d="M144.48,156c1.38-2.51,4.16-2.77,6.36-4,.61.26,1.18.57,1.27,1.33-.27,1.13-1.29,1.75-1.84,2.69a4,4,0,0,1-1.15.7C147.54,156.76,145.71,158.18,144.48,156Z"/><path class="cls-216" d="M156.58,148.86a23.53,23.53,0,0,1,7.11-4.12,1.92,1.92,0,0,1,.67,1.18,2.84,2.84,0,0,1-.37,1.34c-1.77,1.51-3.5,3.13-6.06,3.1A2,2,0,0,1,156.58,148.86Z"/><path class="cls-217" d="M164.05,154.16a11.1,11.1,0,0,1-5.21,3,2.13,2.13,0,0,1-.75-1.11,2.35,2.35,0,0,1,.55-1.9l.2-.32a6.22,6.22,0,0,1,2.93-2.17,2,2,0,0,1,1.63.77A3.09,3.09,0,0,1,164.05,154.16Z"/><path class="cls-218" d="M170.71,144.11l.07-1.18c1.54.78,3.71-1.77,4.88.93-.93,1.89-2.28,3-4.55,2.62a1.4,1.4,0,0,1-.4-2.37Z"/><path class="cls-219" d="M163.82,146.13c0-.46-.09-.93-.13-1.39a10.77,10.77,0,0,1,5-2.88l.13,1.4c0,1.36-1.07,1.84-1.9,2.55C166,146.42,165,147,163.82,146.13Z"/><path class="cls-220" d="M175.72,146c-.09,3.17-2.94,3.18-4.87,4.24a2,2,0,0,1-.68-1.25,2.67,2.67,0,0,1,.46-1.37C172.34,147.16,173.45,144.78,175.72,146Z"/><path class="cls-221" d="M162.76,141l-1.19-1a1.09,1.09,0,0,1,0-1.13,23.53,23.53,0,0,1,3.17-1.7c.94-.16,1.89-.45,2.88.34C166.4,139.14,164.51,140,162.76,141Z"/><path class="cls-222" d="M161.8,139.12a1.2,1.2,0,0,1-.23.81l-3.92,1.81-1.14-1a11.67,11.67,0,0,1,5.22-2.89.78.78,0,0,1,.31.79C162,139,161.89,139.12,161.8,139.12Z"/><path class="cls-223" d="M144.48,156c1.81.8,3.59-.41,5.39-.1.46,1.27-.5,1.9-1.18,2.66a2.53,2.53,0,0,1-1.14.46C147.07,157.49,143.44,159.12,144.48,156Z"/><path class="cls-224" d="M175.87,155.23c-.39,1.82-1.72,1.41-2.37.59-1.32-1.64.08-2.77,1.25-3.8A2.23,2.23,0,0,1,175.87,155.23Z"/><path class="cls-225" d="M151.88,153l-1-1,3.95-2.09c.88.36,1.47.87,1,1.93-.31.81-1,1-1.75,1A1.47,1.47,0,0,1,151.88,153Z"/><path class="cls-226" d="M170.71,148.88c0,.47.09.93.14,1.4l-4.16,2.5a1.49,1.49,0,0,1-1.31-1.3,2.08,2.08,0,0,1,.59-1.17C167.41,149.39,168.63,147.71,170.71,148.88Z"/><path class="cls-227" d="M175.72,146l-5,1.91a1.34,1.34,0,0,1-.47-.92,1.2,1.2,0,0,1,.54-.88l4.85-2.29Z"/><path class="cls-194" d="M158.74,155.87c0,.43.07.86.1,1.29-1.22.93-2.19,2.88-4.09,1v-1C155.89,156.06,157,154.86,158.74,155.87Z"/><path class="cls-228" d="M161.8,139.12c0-.41-.05-.82-.07-1.22a4.79,4.79,0,0,1,3.05-1.82v1C164.28,138.5,163,138.8,161.8,139.12Z"/><path class="cls-229" d="M155.77,151.91l-1-1.93,1.79-1.12,1.16.93a2.56,2.56,0,0,1-.73,2.12Z"/><path class="cls-230" d="M151.74,159.09a3.56,3.56,0,0,1-3.05,1.6l-1.14-1.64.35-.15C149.24,157.89,150.57,156.72,151.74,159.09Z"/><path class="cls-231" d="M165.56,151.87c.38.3.76.6,1.13.91l-2.64,1.38-1.3-.87C163.28,152,164,151,165.56,151.87Z"/><path class="cls-232" d="M175.87,155.23c-.38-1.07-.75-2.14-1.12-3.21C176.93,152,177.15,152.62,175.87,155.23Z"/><path class="cls-233" d="M64.06,192.83a3.8,3.8,0,0,1,2.13-4.1c5.16-3,10.28-6,15.43-9,1-.57,2.24-1.39,3,0,.67,1.17-.17,2.31-1.19,2.94-4.09,2.52-8.24,5-12.36,7.41C69.32,192.4,67.41,194.45,64.06,192.83Z"/><path class="cls-207" d="M81,199.9l3.22-.88.6,1.13-31,18c-.17-2.32,1.21-2.75,2.11-3.51,1.12-2.55,3.68-3.23,5.79-4.51,2-1,3.74-2.41,5.77-3.34,2.24-1,4.14-2.54,6.29-3.68C76.11,201.82,78.24,200.11,81,199.9Z"/><path class="cls-234" d="M55,209.74c-.79-1.94-.76-2.17,1.78-3.64,7.47-4.33,14.93-8.66,22.5-12.81,1.59-.88,2.88-2.95,5.3-2.06-.7,2.29-3,2.56-4.46,3.8-3.87,4.54-9.53,6.36-14.35,9.47a39.24,39.24,0,0,1-4.14,2.34C59.38,207.82,57.49,209.53,55,209.74Z"/><path class="cls-234" d="M55,213.75c-2.59-2,.38-2.15,1-3.1,1.44-2.16,3.77-3.06,5.92-4.23A23.87,23.87,0,0,0,65.94,204c4.44-2.08,8.17-5.51,13-6.78.73.3,1.29.69,1,1.61l.15.22a20.14,20.14,0,0,1-6.62,4.46,50.68,50.68,0,0,1-6.3,3.77c-2.06.83-3.67,2.48-5.76,3.25C59.21,211.47,57.43,213.29,55,213.75Z"/><path class="cls-184" d="M60.2,197.37c-.56,2.72-1.89,5-4.93,5.17a2,2,0,0,1-1.9-2.81c.89-2.53,1.35-5.79,5-5.8C60.53,193.93,60.08,195.88,60.2,197.37Z"/><path class="cls-235" d="M78.9,197.81,66,204.76a1.74,1.74,0,0,1-1-.92L80.07,195l1,.87C81.51,197.86,79.6,197.16,78.9,197.81Z"/><path class="cls-207" d="M72.09,191c1.88-.06,2.93-2.25,6-1.84a45.38,45.38,0,0,1-13.7,8.33c-.27-1.72.79-2.1,1.54-2.69A10.58,10.58,0,0,1,72.09,191Z"/><path class="cls-236" d="M72.09,191a19.78,19.78,0,0,1-6.15,3.8l-1.88-1.92c2.91.5,4.51-2.34,7-2.79Z"/><path class="cls-237" d="M73.06,203c2.58-.91,4.24-3.46,7-3.94l.93.85a24.16,24.16,0,0,1-6.93,4C73,204.43,72.92,203.86,73.06,203Z"/><path class="cls-238" d="M83.72,204.35c1.47,1.58,1.68,2.89.48,4.11a1.68,1.68,0,0,1-1.65-.22C81.53,206.72,82.55,205.61,83.72,204.35Z"/><path class="cls-239" d="M55,213.75a21.68,21.68,0,0,1,6.12-3.81c.41.26,1,.34,1.06,1L56,214.67Z"/><path class="cls-240" d="M62.12,206.89Q59,208.78,56,210.65l-1-.91L61.08,206C61.48,206.2,62,206.28,62.12,206.89Z"/><path class="cls-241" d="M78.9,197.81,81,195.89c1.06-.24,1.91-1.36,3.69-.55-1,2-3,2.65-4.75,3.49Z"/><path class="cls-242" d="M111.68,166.78c-4-.87-1.88-3-.43-3.92,5.46-3.46,11.12-6.6,16.73-9.84.73-.43,1.7-.7,2.17.22a2.11,2.11,0,0,1-.78,2.66c-2.73,1.87-5.57,3.57-8.38,5.33a7.92,7.92,0,0,1-3.91,3.38A18.48,18.48,0,0,1,111.68,166.78Z"/><path class="cls-243" d="M106,170.41c-.57,2.46-1.49,5.12-4.84,5.61-1.74.25-2.26-1.1-2.11-2.58.29-3,1.77-5.4,4.84-6.05C105.43,167.06,106,168.55,106,170.41Z"/><path class="cls-244" d="M109,186c-2.17,1.37-4.3,2.8-6.51,4.07-.66.38-1.71,1.57-2.27,0-.18-.53.57-1.39.89-2.1,1.37-2.05,3.67-2.58,5.71-3.55a3.43,3.43,0,0,1,1.39,0C108.83,184.7,109.36,185.11,109,186Z"/><path class="cls-245" d="M123.8,167.73a18.24,18.24,0,0,1,6.43-3.63c-.07,3.2-3.17,3.06-4.3,4.7a.9.9,0,0,1,.26.83c-.06.29-.14.43-.21.43a2,2,0,0,1-2.44-1A1.39,1.39,0,0,1,123.8,167.73Z"/><path class="cls-246" d="M117,167.25a19.18,19.18,0,0,1-6.81,3.75c-.35-2.46,1.75-2.34,2.55-3.32,1.07-1.49,2.14-3,4.32-1.83A1.14,1.14,0,0,1,117,167.25Z"/><path class="cls-247" d="M111.82,174.7a25.6,25.6,0,0,1,7-4.09,1.81,1.81,0,0,1,.69,1.29,2.6,2.6,0,0,1-.45,1.42c-2.17,1.59-4,4-7.29,2.74A1,1,0,0,1,111.82,174.7Z"/><path class="cls-246" d="M111.82,174.7l.12,1.34a1.65,1.65,0,0,1-.65,1.77c-1.61,1.25-3.18,2.6-5.37,2.72a2.31,2.31,0,0,1-1.24-.56,1.06,1.06,0,0,1,.17-1.24A22,22,0,0,1,111.82,174.7Z"/><path class="cls-248" d="M117,167.25l-.16-1.39a.9.9,0,0,1,0-1.17c1.7-.93,3.1-2.47,5.2-2.6,2.1.37,1.35,1.58.41,2.21A57.84,57.84,0,0,1,117,167.25Z"/><path class="cls-249" d="M126,176.15a22.5,22.5,0,0,1-7,4,2.07,2.07,0,0,1-.66-1.29,2.43,2.43,0,0,1,.5-1.39c2.26-1.29,4-3.87,7.23-2.72A1.19,1.19,0,0,1,126,176.15Z"/><path class="cls-250" d="M118.87,178.87c0,.44.07.88.1,1.33-1.69,1.77-3.94,2.61-6.08,3.64-.72-.28-1.28-.68-1.23-1.56C113.62,180.19,115.45,177.86,118.87,178.87Z"/><path class="cls-250" d="M100,186.75c-1-1.16-.68-1.85.78-2.11,1.14-1.89,2.65-3.18,5-3.08a2.29,2.29,0,0,1,1.42,1.46,1.9,1.9,0,0,1-1.12,1.64C104,185.13,102.74,188.08,100,186.75Z"/><path class="cls-251" d="M106,182l-5.15,2.61L99,182.88c2.05-.83,3.54-2.87,6-2.79a2.27,2.27,0,0,1,1-.07c.58.24,1.15.5,1.27,1.22C107.05,181.91,106.75,182.38,106,182Z"/><path class="cls-252" d="M125.77,170.17c0-.46.1-.91.16-1.37h2c.77,0,1.75-1,2.22-.19.56,1-.59,1.72-1.23,2.44-.69.89-1.39,1.77-2.73,1.34a1.66,1.66,0,0,1-.8-1A1.73,1.73,0,0,1,125.77,170.17Z"/><path class="cls-253" d="M105,180.09c-1.78,1.43-3.45,3.08-6,2.79,1.11-2.6,3.63-3.19,5.89-4.15C104.89,179.18,104.94,179.64,105,180.09Z"/><path class="cls-254" d="M118.94,172.06l-.15-1.45a13.11,13.11,0,0,1,5-2.88l.15,1.42c.1,1.39-1,1.87-1.88,2.58C121.08,172.35,120.08,172.9,118.94,172.06Z"/><path class="cls-255" d="M100,186.75l5.92-2.8c.44.31,1.06.42,1.19,1.08a12.81,12.81,0,0,1-6.07,2.9Z"/><path class="cls-256" d="M126,176.15l-.17-1.41a1,1,0,0,1,.09-1.2,5.94,5.94,0,0,1,3-1.19c2,.2,1.75,1.24.58,2.12A18.44,18.44,0,0,1,126,176.15Z"/><path class="cls-257" d="M116.91,165c0,.29,0,.58,0,.87l-4.1,1.82-1.09-.9a10.47,10.47,0,0,1,5.17-3,.76.76,0,0,1,.3.77C117.07,164.86,117,165,116.91,165Z"/><path class="cls-258" d="M111.77,182.84l1.12,1c-1.2.92-2.33,2-3.94,2.13l-1-1.06C108.16,182.27,109.69,182.05,111.77,182.84Z"/><path class="cls-259" d="M116.91,165l-.06-1.18a10.07,10.07,0,0,1,4.14-2.58l1.06.86A12.35,12.35,0,0,1,116.91,165Z"/><path class="cls-260" d="M128.9,172.35a4.08,4.08,0,0,1-3.06,1.49,1.34,1.34,0,0,1-.44-.92,1.12,1.12,0,0,1,.55-.83l3-1Z"/><path class="cls-72" d="M91.93,135.19c-.29,1.72-1.11,3.36-3.12,3.8-1.63.36-2-.91-1.8-2.17.31-1.89,1.17-3.53,3.31-3.8C91.63,132.85,91.92,133.89,91.93,135.19Z"/><path class="cls-261" d="M137,88.41c-.36-2-.85-3.91.56-5.68.75-.94.85-2.73,2.63-2.29,1.52.37,1.94,1.61,1.6,3-.27,1.15,1,3.54-2.21,2.36C138,85.28,139.12,88.28,137,88.41Z"/><path class="cls-262" d="M156.78,69l2,.72c.85.9.18,1.52-.39,2.17-1.17.85-1.85,2.32-3.36,2.76a1.39,1.39,0,0,1-1.11-.47C153.35,71.63,156.11,70.9,156.78,69Z"/><path class="cls-263" d="M159,74.52c.95,1.68-2,1.71-1.37,3.23l-2.76,0c-.85-.8-.32-1.43.22-2.07a7.44,7.44,0,0,1,2.14-1.17A2.57,2.57,0,0,1,159,74.52Z"/><path class="cls-264" d="M156,76.09a1.78,1.78,0,0,0-1.12,1.68c-1.7-.84-2.32-2-.91-3.57h.89C155.54,74.61,156.23,75.06,156,76.09Z"/><path class="cls-261" d="M177.82,65.26,172.7,68c-2-2.18-2.66-4.11.84-5.48.81-.32.86-1.35,1.23-2.07.94-.54,1.75-1.42,3-1.27l-.11.08A8.18,8.18,0,0,1,177.82,65.26Z"/><path class="cls-234" d="M174.77,60.45c-.14,1.33,2,3.71-1.84,3.38-.73-.06-.81,2.67-.23,4.17l-1.78,1.12c-1.21-1.55-.63-3.22-.35-4.87C170.91,61.81,173.33,61.67,174.77,60.45Z"/><path class="cls-265" d="M170.57,64.25c.12,1.62.23,3.25.35,4.87l-1.17.07C170,67.53,169.18,65.71,170.57,64.25Z"/><path class="cls-266" d="M159,74.52l-1.07.69c-1.49-1.24-.41-2.63-.21-4a1.59,1.59,0,0,0,1.1-1.51C161.47,71.24,160,72.89,159,74.52Z"/><path class="cls-267" d="M177.82,65.26l-.18-6c2.1,1.69.79,4,1.05,6Q178.26,65.26,177.82,65.26Z"/><path class="cls-268" d="M362,189.49c.17-1.22-.3-3.21,1.57-3,2.33.29,2.83,2.51,2.89,4.58,0,1.29.08,3-1.88,2.67C362.34,193.36,362.18,191.32,362,189.49Z"/><path class="cls-269" d="M339.87,158.41c.27-2.9-4.87-1.51-3.82-5.13.4-1.37,0-3.19,1.68-3.47s1.56,1.75,2.2,2.77C341.08,154.41,340.14,156.41,339.87,158.41Z"/><path class="cls-270" d="M367.24,174.69c-3.41-1.82-1.29-4.81-1.88-7.74,2.76,1,5.23,1.56,6.63,4a10.27,10.27,0,0,0-.72,1C370.45,173.63,368.75,174,367.24,174.69Z"/><path class="cls-271" d="M367.24,174.69c.37-2.26,3.2-1.91,4-3.75.32,1.9,1.94,4.11-1.26,5.14Z"/><path class="cls-272" d="M370,176.08c2-1.33,1-3.38,1.26-5.14H372a41.29,41.29,0,0,1,.17,4.44C372.05,177.23,371.11,177.16,370,176.08Z"/><path class="cls-273" d="M354.42,160c2.17-.08,1.74,1.7,2.1,2.92l-.75,1c-1.46,1.58-3,1.37-4.48.09l0-1.23C351.71,161.12,351.33,158.63,354.42,160Z"/><path class="cls-274" d="M351.29,164c1.49.2,3,1.12,4.48-.09-.16,1.58.89,3.85-2.16,3.78Z"/><path class="cls-275" d="M354.42,160c-2.26-.43-2.05,1.87-3.08,2.79-.51-.87-1.36-1.61-1-2.79,1.05-1.15,1.71-3.09,3.89-1.86C354.27,158.74,354.35,159.36,354.42,160Z"/><path class="cls-213" d="M151.74,159.09c-1.23-1-2.56,0-3.84-.19-.39-1.68,1.63-1.77,2-3l-.1.08a1.4,1.4,0,0,1,2-.18l1.14,2.06Z"/><path class="cls-276" d="M157,151.91a1.56,1.56,0,0,1,.73-2.12l5.85-2.87c.9-.62,1.22,0,1.51.7a3.7,3.7,0,0,1-1,2.58,4,4,0,0,1-1.21.66c-1.81-.16-3.12,1.92-5.07,1.13l-.38-.14Z"/><path class="cls-277" d="M157.79,152c1.55-.8,2.73-2.54,4.84-1.93.78,1.07-.08,1.43-.8,1.85-.61,1.24-1.41,2.19-3,1.92Z"/><path class="cls-278" d="M158.74,155.87l-4,1.23c.23-2.38,2-2.77,3.88-2.95Z"/><path class="cls-279" d="M151.74,155.83l-2,.18c-.12-1.57,1.36-2,2.11-3l2.14-.11C153.73,154.26,152.61,155,151.74,155.83Z"/><path class="cls-280" d="M166.77,145l2.06-1.75,1.88.85c0,.27,0,.55,0,.82a3.05,3.05,0,0,1-2.72,1.44A1.74,1.74,0,0,1,166.77,145Z"/><path class="cls-281" d="M166.77,145l1,1c-.51,1.41-1.07,2.75-3,1.77l-1.17-.83a1.85,1.85,0,0,0,.23-.79Z"/><path class="cls-278" d="M161.83,151.91l.8-1.85,1.23-.09a.88.88,0,0,1,1-.29,1.92,1.92,0,0,1,1,1.39,3.32,3.32,0,0,0-.34.8l-2.81,1.42C162.44,152.83,162.13,152.37,161.83,151.91Z"/><path class="cls-216" d="M164.79,150.07l-.93-.1a1.77,1.77,0,0,1,.9-2.22l3-1.77,3-1c0,.41.05.81.08,1.22s0,.6,0,.9C168.86,148.22,167.48,150.45,164.79,150.07Z"/><path class="cls-282" d="M164.79,150.07c2-1.09,3.68-2.61,6-3q0,.45,0,.9t0,.93l-4.81,2.19Z"/><path class="cls-240" d="M73.06,203l1,.93a21.13,21.13,0,0,1-6.13,3.8c-.41-.24-1-.31-1-.93Z"/><path class="cls-283" d="M66.93,206.79l1,.93-5.83,3.18-1.06-1Z"/><path class="cls-284" d="M62.12,206.89l-1-.94L65,203.84l1,.92C64.74,205.53,63.73,206.76,62.12,206.89Z"/><path class="cls-285" d="M111.77,182.84a5.47,5.47,0,0,0-3.82,2.07l-.82.12L105.94,184l1.15-1c.93-1.64,2.62-2.52,3.88-3.82a6.59,6.59,0,0,1,1.07-.84c1.89-.68,3.63-1.88,5.77-1.77a2.07,2.07,0,0,1,1.32,1.48,2.44,2.44,0,0,0-.26.83A22.89,22.89,0,0,0,111.77,182.84Z"/><path class="cls-286" d="M121.9,171l2-1.8,1.82,1a2.09,2.09,0,0,0,0,.56,2.74,2.74,0,0,1-2.64,1.58A1.72,1.72,0,0,1,121.9,171Z"/><path class="cls-127" d="M111,177.17l1-1.13,7-3.1a2,2,0,0,1,.54,1.22,2.32,2.32,0,0,1-.56,1.22,33.84,33.84,0,0,1-6.74,3C111.32,178.38,110.89,178,111,177.17Z"/><path class="cls-287" d="M118.87,173.87c0-.31,0-.62,0-.93a4.43,4.43,0,0,1,0-.89l3-1.1,1,1C122.16,173.81,121.17,175.16,118.87,173.87Z"/><path class="cls-288" d="M111,177.17l1.07.8c.27.27.34.5.21.71s-.25.28-.36.28c0,.28,0,.57,0,.85-1.75-.08-2.89,2.4-4.9,1.15L106,180Z"/><path class="cls-289" d="M119.13,178,117.89,177c.2-1.06,1.14-1.39,1.9-1.89,2.11-.48,3.26-3.66,6.08-2.15l0,.91c0,.3,0,.6,0,.9Z"/><path class="cls-290" d="M107.05,181c1.66-.25,3-2.11,4.9-1.15a12.72,12.72,0,0,1-4.86,3.18L106,182Z"/><path class="cls-246" d="M125.87,172.93l-6.07,2.78c-.46-.18-1-.25-1.08-.89a5.08,5.08,0,0,0,.15-.95c1.64,0,2.78-1.09,4-2l2.94-1.17c0,.45.09.91.14,1.36A3.33,3.33,0,0,0,125.87,172.93Z"/><path class="cls-286" d="M157.68,71.25c.86,1.28.52,2.62.21,4l-1.94.88-1.14-1.9Z"/><path class="cls-291" d="M118.72,174.82l1.08.89L117.89,177c-2,.54-3.67,2.32-6,2l.15-1Z"/></g></g></svg>