<svg xmlns="http://www.w3.org/2000/svg" viewBox="0 0 420.18 383.63"><defs><style>.cls-1{fill:gray;}.cls-2{fill:#e6e6e6;}.cls-3{fill:#009b86;}.cls-4{fill:#385a64;}.cls-5{fill:#00debf;}.cls-6{fill:#f4f4f4;}.cls-7{fill:#2a454e;}.cls-8{fill:#1a2e35;}.cls-9{fill:#febda7;}.cls-10{fill:#fec4c3;}.cls-11{fill:#c56668;}.cls-12{fill:#fea9a8;}.cls-13{fill:#fdbda7;}.cls-14{fill:#fea8a7;}.cls-15{fill:#1c2f36;}.cls-16{fill:#1b2f35;}.cls-17{fill:#01e8d2;}.cls-18{fill:#03b399;}.cls-19{fill:#01b399;}.cls-20{fill:#03ddbf;}.cls-21{fill:#2c464f;}.cls-22{fill:#faa6a5;}.cls-23{fill:#f3a3a2;}.cls-24{fill:#b75355;}.cls-25{fill:#0dbaa1;}.cls-26{fill:#0fb9a1;}.cls-27{fill:#303d44;}.cls-28{fill:#eecac9;}.cls-29{fill:#9b7275;}.cls-30{fill:#b3b3b3;}.cls-31{fill:#c4f7f2;}.cls-32{fill:#fda8a7;}.cls-33{fill:#019c86;}.cls-34{fill:#01c7ab;}.cls-35{fill:#01c7ac;}.cls-36{fill:#d9dcdc;}.cls-37{fill:#3f565f;}.cls-38{fill:#999;}.cls-39{fill:#086b5d;}.cls-40{fill:#0d7f6e;}.cls-41{fill:#f2bfbe;}.cls-42{fill:#dfbebb;}.cls-43{fill:#007e6b;}.cls-44{fill:#01debf;}.cls-45{fill:#fcbca6;}.cls-46{fill:#fbbca7;}.cls-47{fill:#142328;}.cls-48{fill:#cbdedd;}.cls-49{fill:#076458;}.cls-50{fill:#202f33;}.cls-51{fill:#0a9b86;}.cls-52{fill:#24383f;}.cls-53{fill:#fbfcfb;}.cls-54{fill:#04c6ab;}.cls-55{fill:#ebebeb;}.cls-56{fill:#07bea5;}.cls-57{fill:#0cc8ae;}.cls-58{fill:#1e7366;}.cls-59{fill:#fafdfd;}.cls-60{fill:#dffaf6;}.cls-61{fill:#9ff3e8;}.cls-62{fill:#6eefdf;}.cls-63{fill:#bbf6ee;}.cls-64{fill:#fcfefd;}.cls-65{fill:#fea284;}.cls-66{fill:#2a383f;}.cls-67{fill:#fdfcfb;}.cls-68{fill:#d9f0ec;}.cls-69{fill:#d0eeea;}.cls-70{fill:#fdadab;}.cls-71{fill:#feaba9;}.cls-72{fill:#515156;}.cls-73{fill:#4f5055;}.cls-74{fill:#fdb2b1;}.cls-75{fill:#fd9b7b;}.cls-76{fill:#695e5b;}.cls-77{fill:#b14b4e;}.cls-78{fill:#d89393;}.cls-79{fill:#fa9190;}.cls-80{fill:#fd9392;}.cls-81{fill:#866669;}.cls-82{fill:#a07375;}.cls-83{fill:#a27577;}.cls-84{fill:#93f2e7;}.cls-85{fill:#4beede;}.cls-86{fill:#1b2f36;}.cls-87{fill:#42626b;}.cls-88{fill:#3c5d67;}.cls-89{fill:#2b464f;}.cls-90{fill:#2f4952;}.cls-91{fill:#375963;}.cls-92{fill:#1d3037;}.cls-93{fill:#c36668;}.cls-94{fill:#273f47;}.cls-95{fill:#24363d;}.cls-96{fill:#20333a;}.cls-97{fill:#cfd2d3;}.cls-98{fill:#eeefef;}.cls-99{fill:#f2a7a6;}.cls-100{fill:#1c3138;}.cls-101{fill:#2d4850;}.cls-102{fill:#2c3e45;}.cls-103{fill:#f1f1f1;}.cls-104{fill:#455155;}.cls-105{fill:#565d60;}.cls-106{fill:#36af9d;}.cls-107{fill:#8c817d;}.cls-108{fill:#ca9e90;}.cls-109{fill:#33515b;}.cls-110{fill:#fefefe;}.cls-111{fill:#f6f7f7;}.cls-112{fill:#01b298;}.cls-113{fill:#fdfdfd;}.cls-114{fill:#f1f3f3;}.cls-115{fill:#04dcbd;}.cls-116{fill:#3c5d66;}.cls-117{fill:#2d4a52;}.cls-118{fill:#345057;}.cls-119{fill:#f7f9f9;}.cls-120{fill:#314e56;}.cls-121{fill:#dbe0e0;}.cls-122{fill:#406069;}.cls-123{fill:#f4f7f7;}.cls-124{fill:#0bbca2;}.cls-125{fill:#48626a;}.cls-126{fill:#eef0f0;}.cls-127{fill:#14ceb4;}.cls-128{fill:#23363c;}.cls-129{fill:#0ba48e;}.cls-130{fill:#0da48f;}.cls-131{fill:#08d9bb;}.cls-132{fill:#c4ece8;}.cls-133{fill:#d8a3a3;}.cls-134{fill:#077061;}.cls-135{fill:#f9fcfc;}.cls-136{fill:#c6ebe8;}.cls-137{fill:#cce9e6;}.cls-138{fill:#f79a99;}.cls-139{fill:#e7eaeb;}.cls-140{fill:#c7ebe8;}.cls-141{fill:#ececec;}.cls-142{fill:#d1d7d8;}.cls-143{fill:#17292d;}.cls-144{fill:#f0f4f3;}.cls-145{fill:#18cfb6;}.cls-146{fill:#cbe8e5;}.cls-147{fill:#c8ebe8;}.cls-148{fill:#c0ece8;}.cls-149{fill:#ebe9ea;}.cls-150{fill:#3b5c66;}.cls-151{fill:#f5f1f0;}.cls-152{fill:#ced4d4;}.cls-153{fill:#35525a;}.cls-154{fill:#20373e;}.cls-155{fill:#e3e4e4;}.cls-156{fill:#415f69;}.cls-157{fill:#21343b;}.cls-158{fill:#1a9d89;}.cls-159{fill:#f2f3f3;}.cls-160{fill:#07d4b8;}.cls-161{fill:#37535b;}.cls-162{fill:#354e56;}.cls-163{fill:#e0eae8;}.cls-164{fill:#c1d6d6;}.cls-165{fill:#effcfa;}.cls-166{fill:#80efe1;}.cls-167{fill:#65ecdb;}.cls-168{fill:#65eddd;}.cls-169{fill:#03dfc0;}.cls-170{fill:#1a2f36;}.cls-171{fill:#253d45;}.cls-172{fill:#01dabc;}.cls-173{fill:#007d6b;}.cls-174{fill:#037c69;}.cls-175{fill:#009f88;}.cls-176{fill:#eceeee;}.cls-177{fill:#e9ebec;}.cls-178{fill:#eceeef;}</style></defs><title>Recurso 7</title><g id="Capa_2" data-name="Capa 2"><g id="Capa_1-2" data-name="Capa 1"><path class="cls-1" d="M386.17,196.87c6.74,3.19,10.26,9.69,14.77,15,10.38,12.24,17,26.44,18.77,42.53a70.85,70.85,0,0,1-6.17,38.25c-9.77,21.17-25.84,36.46-44.91,49.21-23,15.41-48.36,25.34-75.07,31.86a333.42,333.42,0,0,1-55.15,8.86,404.79,404.79,0,0,1-49.24.54,312.41,312.41,0,0,1-74.52-12.6c-22-6.6-43.06-15.38-62.34-28-21.22-13.86-38.93-31-47.87-55.43-5.93-16.23-5.88-32.57-.09-49,4.78-13.62,13.06-24.79,22.6-35.25,1.56,1.52,1.12,3.43.75,5.16-2.57,12.27.06,24.46.48,36.68.11,3.32.7,6.6-.07,9.89-.69,2.08-2.51,3-4.21,4a28.2,28.2,0,0,0-6.25,4.89c-7.58,8.07-6.71,18.41,2.25,25.05a49.75,49.75,0,0,0,25.86,9.57c12.52,1,24.95.34,36.45-5.59,3.26-1.68,5.94-1,8.86.7,18.28,10.51,36.59,21,54.8,31.59,16.93,9.87,34,19.45,50.91,29.38,3.58,2.1,6.61,2,10.19-.09,35.91-20.82,72-41.39,107.74-62.43,5.13-3,8.81-3.66,14.21.2,17.13,12.26,45.7,12.09,63.23.47,11.32-7.5,11.5-20.06.38-27.79-3.27-2.28-7-4.12-6.84-9-.39-7.13.75-14.18,1.39-21.24.72-8,.69-15.78-1.37-23.59C384.5,206.14,383.29,201.39,386.17,196.87Z"/><path class="cls-2" d="M137,115.06a61.18,61.18,0,0,1,24-.08c-.16.2-.33.39-.5.59-5.83,1.69-11.66.67-16.65.59,6,1.65,4.82,10.09,10.09,13.58-.82,1.63-2.8,2.18-3.38,4.17-2.23,7.55.14,10.49,7.82,9.42,20.29-2.81,40.69-4.44,61.16-3.69a361.78,361.78,0,0,1,40.24,3.18,22,22,0,0,1,5.8,1.41,9.4,9.4,0,0,1,4.27,8.86c-.6,6.67-.71,13.41-2.14,20-2.74,3.71-6.7,5.72-10.75,7.6-2,.27-3.49-.87-5.07-1.76Q230.89,167,210,154.76c-3.46-2-6.19-2.1-9.64-.06-11,6.5-22.17,12.81-33.26,19.21-2,1.18-4,2.36-6.55,1.91-3.07-.68-5-3.07-7.44-4.77-1.37-1-4.31-.32-4.31-.32s-17.62,9.66-28.12,9.48a24.68,24.68,0,0,1-3-.15c-6.43-1.92-7.14-7.21-7.53-12.7.34-1.31,1.24-2.34,1.76-3.55a204.83,204.83,0,0,0,3.53-23.75c.78-4.43,2-8.78,2.53-13.25,1.19-2.07,2.73-1.22,4.22-.44s3.09,1.67,4.32-.25,0-3.35-.95-4.94c-1.27-2-4.69-2-4.76-5.1,5-1.18,2.25-5.26,3-8,.92-3.47-2-3.77-4-4.84,4.4-1.7,5.75-1,6.22,3.34.21,2,.06,4,.13,5.92a7.39,7.39,0,0,0,1.41,4.64c1.78,2.14,4,3.52,6.88,3.13C137.73,119.8,135.82,116.62,137,115.06Z"/><path class="cls-3" d="M386.17,196.87a38.46,38.46,0,0,0,1.26,14.68c3.14,11.1.85,22.36.32,33.56-.18,3.8-.49,7.59-.75,11.38-1,1.95.23,3.75.37,5.62s-.05,3.87-1.61,5.34c-3.44,2-6.82,2.44-10.07-.39-2.68-3.86-1.4-8.53-2.62-12.7-2.06-21.45-5.48-42.74-8-64.14a127.49,127.49,0,0,1-1.3-13.81c.88-5.15-3.11-6.73-6.47-8.77a10.25,10.25,0,0,1-1.16-.83c.24.43.69.61,1.08.89,2,1.56,4.89,2.24,5.16,5.42.66,7.95-.65,16,.82,23.89,1.77,19,.26,38.1.35,57.15-.05,2.13-.17,4.24-1.91,5.81-3.28,1.75-6.57,2.28-9.86,0-2.62-2.84-1.48-6.71-2.75-9.93-1.63-11.66-3.52-23.28-5.16-34.93-2.15-15.35-.88-30.79-1.16-46.18.24-7-.8-14,.62-21,1.23-2.09,2.93-1.18,4.31-.43,11.31,6.07,23,7,35,2.59a3.67,3.67,0,0,1,2.9.13Q385.9,173.53,386.17,196.87Z"/><path class="cls-4" d="M27.2,255.69c-.47-8.25-.75-16.51-1.47-24.74A100.62,100.62,0,0,1,27,202.85a29.11,29.11,0,0,0,2.25-13.58c-.52-9.12-.6-18.26-.86-27.38.39-1.44,1.52-1.76,2.79-1.87,4,.46,7,3.09,10.37,5a2.27,2.27,0,0,1,.52,1c.48-.4.43-1.06.77-1.54a12.73,12.73,0,0,1,1.92-1.82,3.38,3.38,0,0,0,.77-1.2c.4-4.72.06-9.44.19-14.15,0-1.78-.11-3.6,1-5.19,1.24-1.36,2.94-1.37,4.57-1.56,5.13-.59,10.16-1.51,14.73-4.15,1.4-.81,3-1.7,4.53-.15,1.84,4.7,1.71,9.71,2.3,14.6.77,6.38,1.22,12.79,1.62,19.21,1.89,23.07-1.1,45.95-2.72,68.88-.27,3.79.39,7.66-.91,11.36-3,3.72-6.35,3.41-9.95,1a5.14,5.14,0,0,1-.89-1.56c-2.77-12.25-4.58-24.67-6.19-37.12a13.9,13.9,0,0,1,0-4.94,52.54,52.54,0,0,0,.34-22.05c.5-2.33.9-4.67,0-7-.6-2.61-.06-5.35-1-7.91a54.23,54.23,0,0,1,0-9.87c.21-4.84,2.14-8.25,7.31-9.05.37-.3,1-.16,1.22-.76a5.52,5.52,0,0,1-1.22.67c-5.72.6-7.41,4.22-7.52,9.4,0,1.75.28,3.57-.26,5.32-1.91,6.14-2.47,12.51-3.33,18.83-2.93,20.81-6.12,41.57-10.15,62.2-1.27,3.75-.59,8-2.88,11.49-2.46,1.48-5,1.29-7.61.46C27.12,258.59,26.9,257.24,27.2,255.69Z"/><path class="cls-4" d="M385.61,150.19c-14.22,6.42-27.87,5.23-41-3.13-3.44-3.75-1.56-8.17-1.59-12.35a46.36,46.36,0,0,0-.21-19.2c1.4-4.14.85-8.45,1.07-12.69.46-8.75,4-13.24,12.24-15.51l4,.07c2,6.21,3.53,6.81,9.75,3.52,1.66-.87,3.19-1.77,5.1-1l4.16.32c.87,1.89.31,3.87.29,5.8-.06,5.55,1.08,10.42,6.67,13C384.46,122.78,386.72,136.5,385.61,150.19Z"/><path class="cls-5" d="M266.27,173.71c.64-6.71,1.08-13.44,2-20.11.49-3.57-1.86-5.78-3-8.6-2.08-3.17-.93-6.31.06-9.45,2.62-4.3,4.58-9.15,9.44-11.64l4.89.23a4.36,4.36,0,0,1-.55,2.82c-.54,1.38-2.62,2.65-.69,4.27,1.54,1.3,3.38.91,5.13.22,2.86-1.13,4.56-3.71,7-5.41a6.29,6.29,0,0,1,2.24-1c1.72-.19,3.45-.37,4.72,1.2.3,2.38-1.76,3.34-3,4.79-1.58,1.93-3.39,3.79-2.41,6.56,1.08,3,3.9.33,5.59,1.53a4.28,4.28,0,0,1,.65,1.32,33.38,33.38,0,0,1-1.67,18.5,4.26,4.26,0,0,0,.17,3.76c4.05,8.38,2.15,13-6.66,16.44a19.18,19.18,0,0,1-2.36.78,31,31,0,0,1-16.6-1.86C269.09,177.25,266.84,176.4,266.27,173.71Z"/><path class="cls-6" d="M69.91,136.14c-7.12,3.74-14.5,6.47-22.74,5.73l-.56-.4c-.91-1.37-.6-3-1-4.51-1.4-2.47-4.53-2.58-6.25-4.6a6.55,6.55,0,0,1-1.22-1.78c-1.19-2.87-1.75-5.67.77-8.22a2.31,2.31,0,0,0,.36-2.76c-2.72-5.19-2.07-10.46-.62-15.8a14,14,0,0,0,.05-3.94c.35-4.2-.31-8.49,1.17-12.58,1.29-.21,2.94.17,3.14-1.88,2.36-.71,2.08,1.51,2.6,2.55a11.57,11.57,0,0,0,6.28,5.89c1.39.55,2.91,1,4.18-.11,1.5-1.3.41-2.66-.15-4-.48-1.15-1.61-2.17-.75-3.6l3.94.07c11.52,8.41,14.23,15.55,10.79,28.43-1.08,5.64,1.07,11.15.68,16.76C70.44,133,71.19,134.7,69.91,136.14Z"/><path class="cls-5" d="M298.37,63.2c-3.59-.1-5.79-3.29-9.06-4.12-2.74-.48-3.48,1.94-4.9,3.38-1.76,1.67-2.83.68-3-1.12-.95-8.3-7.14-11.82-13.61-15-3.78-1.84-5.2-4.59-5.12-8.75.2-9.47.05-18.95.07-28.42,0-1.64-.3-3.35.81-4.82,1.48-1.13,2.91-.41,4.17.33,9.62,5.57,19.41,10.87,28.75,16.92a9.68,9.68,0,0,1,3.45,3.54c1.55,3.81.91,7.81,1,11.73q.13,9.88,0,19.76C300.82,59.1,301,61.7,298.37,63.2Z"/><path class="cls-5" d="M154.7,4.37c1.3,1.59.85,3.49.86,5.28,0,9.46-.09,18.92.07,28.39.06,3.75-1.2,6.41-4.58,8.05-.74.36-1.43.85-2.18,1.19-6,2.66-10.6,6.48-11.75,13.43-.18,1.07-.16,3-2.34,2.29-1.62-1.34-2.49-3.74-5.14-3.63-3.85-.18-6,4-9.81,3.86a4.49,4.49,0,0,1-2.36-4.12c-.19-10.46-.51-20.92.19-31.37a7.13,7.13,0,0,1,.71-2.37c1.28-2.66,3.71-4.13,6.09-5.59,8.15-5,16.62-9.44,24.79-14.42C150.85,4.38,152.58,3,154.7,4.37Z"/><path class="cls-7" d="M41.31,84.49C34,82,31,78.13,31,70.64c0-6.58-.94-13.36,3.74-19a1.35,1.35,0,0,0-.16-2.12c-2.22-2,0-2.47,1-3.8,2.11-2.57,2-.54,2.67.8.87,1.64,2,.3,2.92-.09,14.37-5.91,29.15,3.07,27.92,19.1a76.82,76.82,0,0,0,0,13.9c.49,4.84-1.49,6-5.8,5.52a59.78,59.78,0,0,0-7.45,0,2.34,2.34,0,0,1-1.64-2.3,2.25,2.25,0,0,1,1-1.91c7.67-.44,9.59-2.26,10.36-10.15A28.45,28.45,0,0,0,63,56c-2.66,6.38-7.18,9.78-12.8,11.9-2.35.89-4.69,1.79-7.17.33-1.5-.89-3.22-1.64-4.23.49-1.1,2.32.23,4,2.3,4.7,4.5,1.44,4.42,4.83,4,8.45C44.86,84.17,43.57,85.06,41.31,84.49Z"/><path class="cls-8" d="M268.88,110.22c-3.71-7.91-2.31-15.46,3.9-21.18A18.36,18.36,0,0,1,294,86.47c2,1,3.43,4.57,6.54,1.91.95,1.39,1.53,3.19,3.62,3.32-1.51,3.19,1.63,2.9,3,3.84,3.34,2.36,5.26,5.4,5.23,9.58,0,6,0,11.94,0,17.9-1.46,2-3.33,2-5.37,1.09-4-2.45-6.73-5.77-6.87-10.78-1,.68-1.73,1.32-2.82,1.25a1.78,1.78,0,0,1-1.43-1.39,7.65,7.65,0,0,1,.65-2.87c.33-1.13.69-2.37-.6-3.09s-2.27.13-2.91,1.11c-2.11,3.27-3.72,2.48-5.28-.46a5.17,5.17,0,0,0-2.7-2.09,22.7,22.7,0,0,1-11.1-10.69c-1.69,1.51-1.54,3.17-1.71,5A21.21,21.21,0,0,1,268.88,110.22Z"/><path class="cls-9" d="M39.84,87.28c1.26,4.23,0,8.49.14,12.73a76.82,76.82,0,0,1-4.59,14.67c-1.32,4.2-3.13,8.24-4.25,12.52a17.92,17.92,0,0,0-.74,5c0,1.46,0,2.92,0,4.38-.73,5.43.89,10.28,3.19,15.14,1.77,3.72,1,4.51-2.95,4.27-.53,1.69,1.08,3.05.75,4.69l-3,1.17c-2.84-2.33-7.38-3-7.45-8-2.74-3.74-2.22-8.1-2.29-12.32-.05-2.79-.07-5.57,0-8.36.33-3.6-.1-7.22.3-10.83a4.7,4.7,0,0,1,1.29-2.36c2.32-7.88,4.58-15.78,7-23.64C29.35,89.24,32.07,87.36,39.84,87.28Z"/><path class="cls-10" d="M375,89.93c-2.74-.07-4.08,2.57-6.45,3.32-2.72.86-5.51,1.76-8.12.31-3.07-1.69.59-4.13-.28-6.18-.37-1.2,1.14-2.95-1.35-3.53-8-1.9-10-4.22-10.53-12.44-.14-2.14,0-4.31-.86-6.34.59-1,0-1.93-.06-2.9-.4-6.48,1.41-8.12,7.71-6.86a36.82,36.82,0,0,0,9.43.48c6-.34,6.88.31,8.26,6,.34,1.43.31,3,1.32,4.32,2.1-.17,3.44-2.79,5.87-2,3,6.41,3,6.41-3.59,12.94-2.5-.57-2.09,1.92-3.08,2.93C373.72,83.33,371.66,87.1,375,89.93Z"/><path class="cls-9" d="M69.06,114c3-11-.56-19.72-9.55-26.45-.31-.23-.29-.9-.43-1.36,10.41.92,14.11,9.62,17.49,17,4.48,9.81,10.69,13,21.1,12,7.61-.77,15.51-1.22,23.16.85a66.11,66.11,0,0,1,5.76,4.43c2.25,2.16,2.93,4.9.68,7.4s-4.35.55-6.27-1a8.19,8.19,0,0,0-1.73-.85c-3.46,2.57-6.4,2.1-9.13-1.27-1-1.27-2.72-.76-4.17-.51-7.19,1.17-14.4,2.24-21.6,3.32-5.1.76-8.73-.81-11.2-5.27C71.68,119.61,69,117.47,69.06,114Z"/><path class="cls-11" d="M274.8,123.91l-8.23,11.25c-.56.35-1.14.89-1.78.82-11.42-1.4-23.29-.93-32.86-9.21-6-5.2-12.21-10.18-17.6-16.06a10.68,10.68,0,0,1-2.84-4.6c-.2-5-1.68-10.16,1.08-15,.93-.85.78-3,2.45-2.73s1.56,2,1.66,3.24c.8,10.38,7.68,15.73,15.49,21.51,11.44,8.48,24.53,8,37.31,9.85C271.26,123.27,273.15,122.86,274.8,123.91Z"/><path class="cls-10" d="M389.22,79.2c6.41-4,4.87-10.82,5.57-16.57,1-8.36,1.54-17-6.07-23.33-.69-.58-1.87-1.66-.9-2.39s2.41-.36,3.82-.5c.31-1.85-1.24-3.14-1.85-4.75-.54-1.43-1.27-2.88.12-4.1a4.37,4.37,0,0,1,4.18-.79c5.41,1.3,9.37,6.5,9.89,14,.54,7.75.31,15.57,1.15,23.28,1.08,9.81-2,18.23-7.13,26.2C392.1,90.56,388.87,86.51,389.22,79.2Z"/><path class="cls-12" d="M212.57,91.14l0,15.92a4.49,4.49,0,0,1-1.89,3.89c-13.67,9.3-27.39,18.48-45.06,17.41a6.92,6.92,0,0,1-3.82-.94,79.37,79.37,0,0,1-1-12.21l.09-.23c13.74,1.85,26.16-2.59,38.5-7.78,4.41-1.86,6-5.3,7.13-9.46.91-3.41.85-7.18,3.19-10C211.9,88.12,211.1,90.48,212.57,91.14Z"/><path class="cls-10" d="M307.37,123.25c1.69.59,3.32.14,5-.23,4.72-.73,9.44-2,14.18-2.08,7-.07,7.64-5.6,9.82-10,3.06.1,5,2,6.8,4.18.75.92,2.16,1.2,2.06,3-.31,5.32.33,10.69-.79,16-2-3.73-2-4.5-.22-9.31-2.39,6.28-4.38,7.59-11.72,7.73s-14.85-.27-22.26.27a4.33,4.33,0,0,0-2.54,2.19c-1.49,2.28-2.93,4.5-6.3,2.92-1.59-.74-2.58,1.24-4.06,1.36-1.72,1-3.28,3.25-5.49.88a5.31,5.31,0,0,1-.63-6.77,20.81,20.81,0,0,1,6-6.37C299.72,123.37,303.58,123.41,307.37,123.25Z"/><path class="cls-13" d="M54.86,83.19l1,1.78c-.26.39-.51.78-.76,1.17A39.16,39.16,0,0,1,57.34,90c.64,1.39,2.29,2.84.67,4.43a5.13,5.13,0,0,1-5.43,1.16C47.29,94,44.9,90,43,85.4l-1.68-.91c4.62-.89,1.81-4.49,2.41-6.81s-1.13-2.4-2.89-2.82C37.35,74,35.88,71.57,37,68.08c.68-2.1,2.66-3.82,4.52-2.22,3,2.57,5.62,1.93,8.66.76,4.48-1.71,8.24-4.25,10.48-8.63.72-1.42,1.26-2.93,1.91-4.47C67.35,59,68.26,74,64.34,79.45c-2.49,3.45-5.8,2.42-9.06,1.87-1.59,1.16-3-.36-4.48-.29A6.8,6.8,0,0,1,54.86,83.19Z"/><path class="cls-11" d="M268.88,110.22c-.3-4,2.7-7.44,1.85-11.76-.37-1.87.92-4.47,3.62-6.12,1.77,9.16,11.16,10.91,16.51,17.06.36,0,.33-.81.56-1.38,1-2.38,2.76-3.57,5.11-2.49s2.24,3.41,1.23,5.56a15.13,15.13,0,0,1-1.37,2.07c-.62,1.62-3,2.12-2.75,4.3-.17,2.8.07,5.67-1.65,8.15-2.22,2.61-4.22,5.51-7.43,7-2.63,1.22-5.69,1.7-7.79-.58-2.36-2.56.7-4.31,1.84-6.27.33-.56.72-1.08,1.08-1.62,1-.83.49-2.08.83-3.09,1.88-1.37,4.33-1.22,6-2.37-1.86.65-3.88,1.69-6.2,1.45C272.43,120.05,272.43,120.05,268.88,110.22Z"/><path class="cls-14" d="M137,115.06c.34,1.94,2.75,3.72.53,5.84-2,1.92-4.26,1.24-6.46.39-4.06-1.54-6.67-4.1-6.29-8.85.12-1.47-.16-3,0-4.44.52-3.91-1-5.53-4.94-4.79-3.38-2.57-5.07-5.46-1.79-9.3,3.3-1.44,4.64,1,6.24,3.07a3.16,3.16,0,0,1,1.89-2.57,7.12,7.12,0,0,1,5.1,0c2.1.54,1.94,6.5,5.94,2.45a3.37,3.37,0,0,1,1.73-1c1.36.18,1.69,1.29,2,2.34.59,2,1.74,1.25,2.88.62a4.45,4.45,0,0,1,3.85,1.16c-.26,7.77-1.82,10-8.64,11.13C136.1,111.58,136.79,113.3,137,115.06Z"/><path class="cls-15" d="M379.92,64.14a18.8,18.8,0,0,0-6.17,5.5c-2.16-3-2-6.24-2.52-9.11-.56-3-1.63-4.26-4.91-3.73a28.7,28.7,0,0,1-13.22-.64c-3-.94-4-.23-4.39,2.84-.24,2,.37,4.34-1.32,6.07-1.07-3.18-1.85-6.37-.31-9.65,1-2.2-1-3.67-1.35-5.56-.48-2.78-1-5.37,3.42-3.71,3.68,1.39,7.47.92,11.3.6,5.78-.48,11.27-.76,15.72,4.78C379.56,55.73,380.72,56.72,379.92,64.14Z"/><path class="cls-16" d="M125.86,95.17c-1,1.56-1.86,3.43-3.61.68A4.38,4.38,0,0,0,118,93.91c-1.71-3.81,1.27-7.53.21-11.33,4.29-.79,5.07-6.9,10.4-6.48a37.88,37.88,0,0,0,18.43-3.25c4.51-2,3,2.19,3.61,4.15.56,1.76-2.9,4.24,1.53,5.69,1.29.42-1.79,3.41-3.68,4.6-6.33-1.69-12.6.48-18.91.5-2.71,0-1.89,4.1-2.93,6.22A10.62,10.62,0,0,1,125.86,95.17Z"/><path class="cls-7" d="M389.22,79.2c1.38,4.9,2.53,10,8.78,11-3.12,6.83-8,12.53-11.9,18.9-3.57.51-5.58-1.37-6.65-4.49-1.64-4.74-2.2-9.54-.31-14.36Z"/><path class="cls-17" d="M298.42,24.35C287,17.28,275.76,10,263.53,4.37,265.6.3,269-1.15,272.92,1c10.42,5.72,20.64,11.82,30.92,17.8a2.94,2.94,0,0,1,1.63,2.35C303.68,23.44,301.42,24.72,298.42,24.35Z"/><path class="cls-17" d="M154.7,4.37c-8.9,3.48-16.48,9.38-24.95,13.69-3.48,1.77-6.65,4.17-10,6.29-3,.46-5.14-1-6.93-3.16.12-1.79,1.56-2.41,2.84-3.14,9.57-5.55,19.13-11.15,28.75-16.61C148.85-1,151.63-.15,154.7,4.37Z"/><path class="cls-18" d="M112.85,21.19l6.93,3.16a164.18,164.18,0,0,0,0,38.88c-4.55.36-7.66-1.81-7.78-6.24-.3-11.35-.08-22.71,0-34.07C112,22.34,112.56,21.76,112.85,21.19Z"/><path class="cls-19" d="M298.42,24.35l7.05-3.22c1.61,2.06.78,4.46.81,6.69.1,9.25.09,18.5,0,27.74,0,5.34-2.24,7.39-7.93,7.64,1.11-1.79,1-3.79,1-5.77q0-13.65,0-27.28C299.34,28.16,299.42,26.18,298.42,24.35Z"/><path class="cls-20" d="M19.86,132.82q.53,10.56,1,21.11c-4.86-1.19-6.88-4.19-6.84-9.28,0-5.58-.72-11.17-1-16.76-.3-5.84,1-7.15,7.14-7.83L19.91,122C18.61,125.6,19.91,129.21,19.86,132.82Z"/><path class="cls-21" d="M343.14,115.14c-2.8-.53-4.44-2.94-6.8-4.18a50.89,50.89,0,0,1,9.11-20.07c2.59-3.46,6.42-4.51,10.7-3.58-9.31,3.83-11.4,11.41-11,20.55C345.19,110.25,347,113.61,343.14,115.14Z"/><path class="cls-22" d="M125.87,94.1c.13-1.3.3-2.6.37-3.9.2-3.79,2-4.9,5.79-4.3s7.68.79,11.21-.74c2.87-1.24,4.11,0,5.29,2.13-.24.95-.47,1.9-.71,2.84a23.61,23.61,0,0,0-2.85,3.3,8.27,8.27,0,0,1-3.73,1.42,5.16,5.16,0,0,1-1.36-.07,10.58,10.58,0,0,1-2.49-1C136.27,93.2,136,92,135.25,91c-1.08-.24-.91.73-1.21,1.26A3.59,3.59,0,0,1,131,94.62C129.26,94.39,127.47,95.15,125.87,94.1Z"/><path class="cls-23" d="M144.79,93c-.29-2.33,1-3,3-2.86.08.61.16,1.21.25,1.81A8,8,0,0,1,148,98.2l-.25,0a3.14,3.14,0,0,1-3.47.46,1.51,1.51,0,0,1-1-.87C143.1,96,144.13,94.53,144.79,93Z"/><path class="cls-24" d="M280.36,120.13l8.05-2.95a8.5,8.5,0,0,1-7.89,3.87A2.23,2.23,0,0,1,280.36,120.13Z"/><path class="cls-25" d="M129.64,59.37c.73-1.18,1.55-2.67,2.81-.66.85,1.36,2.26,2.49,2.33,4.29C132.84,62.12,130.66,61.56,129.64,59.37Z"/><path class="cls-26" d="M284.41,62.46c.87-2.24.2-6.69,4.9-3.38A8.78,8.78,0,0,1,284.41,62.46Z"/><path class="cls-27" d="M373.25,80c.39-1.56-1-3.63.89-4.66,1.13-.62,2,.48,2.19,1.73C375.93,78.71,374.62,79.4,373.25,80Z"/><path class="cls-28" d="M148,98.2a16.23,16.23,0,0,1,.05-6.25C151.18,94.06,150.74,96.14,148,98.2Z"/><path class="cls-29" d="M143.73,98l4,.17c0,.6-.08,1.19-.11,1.79l-3.9-.75A1.11,1.11,0,0,1,143.73,98Z"/><path class="cls-30" d="M60.91,249.72l.29,1a5.68,5.68,0,0,1,.64,3.57,15.63,15.63,0,0,0-.58,3.48c-.38,6.8-.4,6.85,5.66,9.56,2.75,1.22,5,3.25,7.56,4.67A15,15,0,0,0,80,274c2,.22,4.38.07,5.23-1.9,1-2.41-1.91-2.53-3-3.73a59.5,59.5,0,0,1-11-9.2c-2-2.23-3.31-4.6-1.45-7.58a3.24,3.24,0,0,1,2.81-.62c9.15,2.68,18,6,23.41,14.54,2,3.15,3.74,3.67,6.74,1.77,1.45-.91,3.18-2.16,4.83-.11,1.66,5.09-.29,10.47,1.23,15.55.67,1,1.5,1.75,2.86,1.4,2.34-1.86,1.64-4.52,1.66-6.86.11-11,0-22.06.06-33.08,0-2.29-.22-4.63.72-6.82a2.17,2.17,0,0,1,2.5-1.06,15,15,0,0,1,12.6,14.48,7.8,7.8,0,0,0,.21,1.45c.69.91,1,2.67,2.71,1,.8-1.84.08-4.07,1.51-5.74,4.25-.64,6.88,2.21,9.76,4.53a9.6,9.6,0,0,1,1.22,3.56,8,8,0,0,1-.72,3.57c-1.51,3.47-.62,6.4,1.77,9.18,3,3.47,4.68,8.17,9.66,9.64a20.44,20.44,0,0,0,4.32,1.16c1.57.12,3.09-.14,3.92-1.61s-.11-2.91-1.21-3.95c-2.88-2.74-6-5.25-8.17-8.67-1.23-1.94-2.9-3.67-3-6.16a2.41,2.41,0,0,1,.6-1.29c2-.5,3.43.81,5,1.67,14.85,8.2,29.26,17.17,44.2,25.21,2.16.65,3.67-.85,5.4-1.61s3.45-1.21,4.32,1.24c1,7.72.35,15.48.46,23.22.13,9.56,0,19.12.07,28.69,0,2.35-.61,5,1.67,6.84,2.46.37,2.65-1.44,2.94-3.09a42.7,42.7,0,0,0,.27-7c.15-17.6-.3-35.21.23-52.81a3.33,3.33,0,0,1,.62-1.85c6.45-5.94,13.62-10.64,22.28-12.74,1.43,2.54-1,3.46-2.07,4.94-1.28,1.5-4.54,2.08-3.3,4.74,1,2.24,3.81,1.32,5.89,1.42,1.16,0,2.52.08,3.36-.65,4.65-4,9.36-8.09,10.95-14.46a1.91,1.91,0,0,1,.74-1.14c5.16-1,7.59-4.57,8.88-9.26,3.74-4.51,9.22-6.33,14.05-9.14a1.67,1.67,0,0,1,2.51.77c1.08,3.48.37,7.06.58,10.59.11,1.75-.31,3.57.74,5.16,3,1.53,2.35-1.18,2.42-2.36.25-3.9.07-7.82.11-11.73a18.54,18.54,0,0,1,.44-5.35c2.6-3.89,6.91-5.22,10.79-7.16a2,2,0,0,1,2.9.94c1.28,8.13.71,16.28.37,24.41-1.2,2.28-2,4.58-.12,6.94.81,7.22.14,14.47.42,21.69.08,2.22-.48,4.68,1.63,6.39,3.56.7,3.21-2.11,3.35-4,.31-4.43.06-8.87.12-13.31,0-2.13-.21-4.29.63-6.33,1.38-2,3-.75,4.42-.19a43.24,43.24,0,0,1,6.1,3.37c2.09,1.22,3.68.92,5-1.22,5.31-8.4,13.51-12.59,22.73-15,3.23-.83,5.88-2,7.52-4.93l1.89,9.3a2.89,2.89,0,0,1,.65,2.11c-.83,3.06-3.56,4.21-5.89,5.71s-4.75,2.36-7,3.69c-1.69,1-5.1,1.06-4.28,3.75.69,2.26,3.77,1.23,5.84,1.36a13.52,13.52,0,0,0,6.69-1.6,24.61,24.61,0,0,1,8.56-2.38c5.76-.51,6.55-1.77,5.1-7.35-.38-1.44-1-2.79-1.29-4.28a2.7,2.7,0,0,1,.43-1.38c1.47-1.27.75-3.12,1.23-4.65,4-2.44,8-1.31,12-.23q.94,6.21,1.88,12.4a4.41,4.41,0,0,1,.84,2c-.92,5.83-4.08,10.35-8.18,14.4-1.45,1.44-3.87,2.94-2.38,5.37s4,1.85,6.33,1.18c7.49-2.17,13.8-12.59,12.25-20.2a4.31,4.31,0,0,1,.07-2.77c2-3.19.12-7.09,1.88-10.33-.27,3.88,3,4.81,5.42,6.33,5.15,3.25,8.87,7.55,9.59,13.72a16,16,0,0,1-7.18,15.52c-12,8.34-25.36,11.17-40,9.79-11.57-1.1-22-4.26-30.87-12-2-1.73-3.5.13-4.9.92-11.1,6.27-22.14,12.66-33.18,19q-31.17,18-62.32,36.13-8.59,5-17.17,10c-3.12,1.83-5.88,1.85-9.25-.1-35.82-20.76-71.78-41.31-107.61-62.06-2.71-1.57-4.58-1.11-7.2,0-21.26,8.83-42.23,9.07-62.16-3.6-12.54-8-12-23.58.87-31.38,1.93-1.17,3.66-2.93,6.13-3.13.32.93.63,1.85.95,2.77,1.67,4.34,1.16,8.83,1,13.29-1.39,4.08-2.87,8.17-.53,12.4,1,1.78,2.26,3.41,4.49,3.41,2.07,0,2.42-1.93,3.09-3.4a12.39,12.39,0,0,0-.06-7.71,24,24,0,0,1-.42-4.55,18.35,18.35,0,0,0-.62-4.61,25.4,25.4,0,0,1-.4-4.92,7.92,7.92,0,0,1,1.15-4.05L38,247.61c2.52,2.36,5.47,1.62,8.43,1.31C51.28,248.42,56.21,247.18,60.91,249.72Z"/><path class="cls-31" d="M160.62,175c4.93-.33,8.36-3.82,12.37-6,9.58-5.25,19-10.83,28.37-16.42,2.8-1.66,5-1.29,7.75.32,15.74,9.11,31.19,18.74,47.39,27.05,6,1.38,10.35,5.87,15.86,8.16.6.35,1.17.75,1.73,1.14,6.6,3.58,12.88,7.72,19.66,11a4.41,4.41,0,0,1,1.18.61,48.49,48.49,0,0,0,5.78,3.92c.87.52,1.79,1,2.67,1.49s1.91,1.39,2.95,1.95l1.53.82c.86.44,1.75.84,2.62,1.27s1.45.72,2.15,1.13,1.09.71,1.62,1.09c1.29,1,2.76,1.85,2.48,3.84-6,5.36-13.31,8.63-20.16,12.59q-44,25.47-88,50.93c-2.15,1.24-4.21,2.73-6.87,2.67-4.93-1.21-9-4.26-13.22-6.74-31.19-18.17-62.58-36-93.79-54.18a16.4,16.4,0,0,1-4.82-3.44c-.64-2.12,1-2.86,2.33-3.73,2.58-1.68,5.27-3.19,7.88-4.83a21.89,21.89,0,0,1,2.3-1.21c.73-.35,1.48-.68,2.21-1,.35-.21.72-.39,1.08-.57.54-.3,1.08-.6,1.61-.93,2-1.31,4.1-2.4,6.1-3.68a39.81,39.81,0,0,1,3.43-2.05c2.46-1.11,4.61-2.76,7-4,5.63-3.07,11.06-6.49,16.6-9.71a68.11,68.11,0,0,0,5.89-3.45C151.3,180.73,155.64,177.27,160.62,175Z"/><path class="cls-4" d="M272.18,189.21c-5.37-2.86-10.78-5.64-15.68-9.28l9.77-6.22c6.62,5,14.2,5.75,22.11,5.07,3.27-.44,6.11-2,9.07-3.34,1.58-.7,3-2.1,5-1.5,1.85,1.39,2.07,3.43,2.17,5.5s.49,4.69-1,5.66c-5.87,3.72-5.15,11.06-9.21,15.67-1.38.73-2.45,0-3.61-.65-5.75-3.45-11.54-6.85-17.31-10.26C273.12,189.43,273.39,187.89,272.18,189.21Z"/><path class="cls-32" d="M111,166.76c1.27,4.62.69,10.28,6.78,12.23,2.71,1.59,6.13,2.79,2.78,6.95-.81,1,.7,2,1.24,3,1.25,2.2,1.1,4.1-1.08,5.63-4.7,2.25-8.31.41-11.39-3.13a39,39,0,0,1-4.2-6.7c-2.26-6.68-3.73-13.59-6.16-20.22-.91-4.76-.21-9.42.94-14.05.55-1.55,1-3.2,2.63-4,3.31-.61,6.15,1,9.17,1.91,1.59,1,1.74,2.47,1.49,4.12-.45,3.39-2,6.57-1.93,10.06C111.21,163.94,111.87,165.4,111,166.76Z"/><path class="cls-33" d="M120.71,193.91c3.35-4.07-2.1-5.34-2.57-8.47,7.9-2.4-.18-4.21-.4-6.46,5.11-.28,10.26.36,15.34-1,6.23-1.64,12.23-3.58,15.47-9.73,1.17-2.21,2-.91,3-.18,3.05,2.27,6.08,4.59,9.11,6.89-3.68,4.44-9,6.28-13.93,8.71-2.84-.34-4,2.12-5.76,3.49a155.54,155.54,0,0,1-17,9.91C121.79,197.08,120.54,196.2,120.71,193.91Z"/><path class="cls-34" d="M112.08,149.36a32,32,0,0,1-9.1-2.6,3.1,3.1,0,0,1-2.71-2.19c-.25-1.78.41-3.43.66-5.15,2-5.44,1.79-11.71,6-16.32,3.34-2,4.06,1.51,5.89,2.74,1,.65,1.35,2.83,3,1.74s-.71-2.13-.46-3.34c1.79-.37,2.78.81,3.86,1.8.07,4.8-1.58,9.3-2.45,13.94-.83,2.28-.61,4.79-1.66,7C114.5,148.41,114.05,149.8,112.08,149.36Z"/><path class="cls-35" d="M162,127.15c-2.36,2.25-5.48,1.41-8.24,2-2.84.17-4.79-.1-5.11-3.95-.37-4.52-3.44-7.68-7.66-9.87,6.64-.36,13.24-1.11,19.87-.15A13.66,13.66,0,0,1,162,127.15Z"/><path class="cls-36" d="M112.08,149.36c4.24-1.78,2.37-6.65,4.74-9.38a169,169,0,0,1-3.8,25c-1.26-.75-1.53-2-1.75-3.3.06-3.23,1.55-6.36.72-9.65C112.23,151.15,112.71,150.28,112.08,149.36Z"/><path class="cls-37" d="M111.84,161.82c1.66.58.75,2.13,1.18,3.17L111,166.76l-.87-3.66C110.36,162.24,110.71,161.49,111.84,161.82Z"/><path class="cls-38" d="M316.31,215.76l-3.19-3.2a11.82,11.82,0,0,1-1.21-6.22c.14-7.1-.27-14.19,0-21.28a15.56,15.56,0,0,1,2.12-7.58c3-5.79,5.59-11.67,5-18.43,1.13-1.09,2.46-.81,3.69-.37,6.47,2.32,12.81,5,19.08,7.79a4.88,4.88,0,0,1,2.31,2.45c.05,5.13.37,10.28.09,15.39-1.07,20,2.57,39.58,5.43,59.22.33,2.28.5,4.6.75,6.9.17,3.55-1.31,4.8-5,5.62-10.34,2.25-19.77,6.48-25,16.61-1,2-2.34,2-4.05,1-3.59-2-7.21-4-10.82-6-2.9-4.61-1.33-9.61-1.22-14.47,1-3.16,4.06-4.19,6.47-5.76,2.92-1.89,4.49-3.76,1.61-6.87-.81-5.22-.4-10.45-.32-15.68a8.48,8.48,0,0,1,2.25-4.66C315.23,218.94,317,217.88,316.31,215.76Z"/><path class="cls-30" d="M374.31,254.48c-4,1-8-.18-12,.23-.08-19.29.75-38.59-.38-57.88-.8-4.28.6-8.52.28-12.79.62-3.14-1.65-7.2,2.9-9.07,1.3,18.21,4.47,36.2,6.59,54.31C372.65,237.67,373.44,246.08,374.31,254.48Z"/><path class="cls-39" d="M365.08,175c-2.54,2.53-1.14,6-2.08,8.9-2.45-1-1-3.05-1.26-4.6-.41-2.41.47-4.94-.52-7.33-1.15-2-3.4-2.6-5-4-.23-.91-.05-1.39,1-1C360.57,168.89,365.65,169.16,365.08,175Z"/><path class="cls-40" d="M361.22,171.94c2.5,3.69-.55,8.21,1.78,11.93q-.54,6.48-1.1,13C360.31,188.57,361.55,180.23,361.22,171.94Z"/><path class="cls-41" d="M385.12,266.82l.9,1.94c-3.49,4.3-6.77,4.39-9.68.26,0-.71-.1-1.43-.16-2.14A13.08,13.08,0,0,0,385.12,266.82Z"/><path class="cls-42" d="M361.05,259.36l.27,1.63c-2.71,3.87-5.19,4.07-9.1.75,0-.67,0-1.34,0-2A17.09,17.09,0,0,0,361.05,259.36Z"/><path class="cls-43" d="M357.21,166.92l-1,1c-1.22-.74-2.58-1.37-2.64-3.28A7.22,7.22,0,0,1,357.21,166.92Z"/><path class="cls-38" d="M100.89,209.93c-2.93,3.64-8.13,4.12-11,7.9a15.14,15.14,0,0,0,7.4,6.94c1.93.87,3.79,2.07,4.53,4.32a7.61,7.61,0,0,1,.33,2.87c-.39,3.63.42,6.32,4.71,6.64.43,0,.65.67.89,1.11,1,7.81.35,15.65.38,23.48a3.65,3.65,0,0,1-1.55,3.41c-.86.46-1.76.86-2.59,1.37-5.65,3.49-5.31,3.26-9.19-2.19-6-8.45-15.13-11.92-24.85-14.09a.74.74,0,0,1-.35-1.05c1.19-26.9,5-53.69,3.45-80.71,3.14-3.5,7.77-4.23,11.74-6.12,4.4-2.1,9-3.69,12.78-7,2.34,2.83,1,6.54,2.34,9.63A61.77,61.77,0,0,1,102.39,184c-.07,6.6-.08,13.2-.12,19.8C102.26,205.94,102.37,208.12,100.89,209.93Z"/><path class="cls-38" d="M60.91,249.72a79.78,79.78,0,0,0-19.1,1.19c-3.45.67-4-.52-3.82-3.3q5.07-31.37,10.13-62.71c1.68-1.93,3.38-3.82,6.32-3.41,1.41.86,1.14,2.09.75,3.36,1.92,7.6,1,15.07.22,22.82-1.08,10.83,2.33,21.56,4,32.32C59.86,243.24,60.4,246.48,60.91,249.72Z"/><path class="cls-44" d="M31.38,160.72c-2.95-1.76-2.2-4.77-2.53-7.47,1.85,0,2.07,2.72,4.7,2.24-1.5-6.18-6.6-11.63-4.29-18.53.74-4.86.74-4.86,7-1.73,1.88,1.1,4,1.83,5.4,3.65,1.37,2.07.71,4.36.74,6.58a17.26,17.26,0,0,0,.72,6.1,31.48,31.48,0,0,1,.36,6.72c0,2.66.12,5.35-1.4,7.73Z"/><path class="cls-45" d="M28,272.69c.38-4.74-.88-9.5.13-14.23a13.65,13.65,0,0,0,7.68-.14c0,1.52,0,3,0,4.55-.39,1.64-.83,3.29.32,4.82,1.4,1.15.73,2.68.76,4.08-1.17,2.76.25,5.52,0,8.28-.48,2.81-2.29,3.92-4.9,3.38-2.85-.59-4.39-2.75-4.77-5.51A11.1,11.1,0,0,1,28,272.69Z"/><path class="cls-46" d="M69.63,250.64c.11.35.23.7.35,1.05-1.12,5.76,3.67,8,6.78,11.12a63.51,63.51,0,0,0,6.14,4.88c-1.59,3-4.23,2.33-6.52,1.53a30.24,30.24,0,0,1-15.06-10.77,11,11,0,0,1-.28-3.7c.05-1.34.1-2.68.16-4A7.61,7.61,0,0,0,69.63,250.64Z"/><path class="cls-30" d="M42.1,157.67l-.23-6.74c-.8-2,.22-4.29-.76-6.3a9.43,9.43,0,0,0-.09-5.54,3,3,0,0,1,2.5-1,2.55,2.55,0,0,1,2.22,1.5c0,8.06,1.34,16.16-.73,24.15L43.16,165C41.67,162.69,43.33,160,42.1,157.67Z"/><path class="cls-47" d="M53.12,172.91c-.42-2.27-.83-4.54-1.25-6.81-.79-3.26,0-6.52.32-9.73.57-5.27,5.27-4.48,8.73-5.45,1.07-.37,1.27.13,1.06,1.05-10.61,3-7.35,11.71-7.9,18.87C54.52,171.89,54.94,172.92,53.12,172.91Z"/><path class="cls-48" d="M45,163.78q0-12.24,0-24.47c2.78,0,1,2.18,1.51,3.24-.37,7.13.76,14.29-.63,21.39A2,2,0,0,1,45,163.78Z"/><path class="cls-49" d="M45.88,163.94Q46,153,46.2,142c.25-.49.58-.52,1-.15v0c-.05,5.87-.06,11.73-.17,17.6C47,161,47.61,162.79,45.88,163.94Z"/><path class="cls-50" d="M53.12,172.91l1-2.06c1.76,2.49.62,5.33,1,8,.46,1,.85,2-.89,2C53.83,178.23,53.47,175.57,53.12,172.91Z"/><path class="cls-51" d="M42.1,157.67c1.19,2.31.62,4.87,1.06,7.28-.31.42.31,1.82-1.12,1.06Z"/><path class="cls-52" d="M54.18,180.88c.3-.68.59-1.36.88-2a5,5,0,0,1,.13,6c-.4-1-.06-2.25-1.19-2.93Z"/><path class="cls-16" d="M62,152l-1.06-1.05a4.27,4.27,0,0,1,3.37-1.58C64.25,150.94,63,151.38,62,152Z"/><path class="cls-11" d="M318.38,155.14c.39,1.27.77,2.54,1.16,3.81,2.63,6.1-.67,11.13-2.94,16.34-1.24,2.84-3.28,5.35-3.42,8.62-1.37,3.22-2.17,6.66-3.9,9.73-2.1,3.69-3.91,7.65-8.43,9.09-2.54.65-4.65-.24-6.56-1.85l0-.11c-.8-3.33,1.83-5,3.79-7.25L294.75,192c3-4.16,10-5.15,8.72-12a41.1,41.1,0,0,0,1.66-4.41c.6-1.39.52-2.94,1-4.36,3.07-4.21,1.13-8-.92-11.85-.35-2.83-2.74-4.61-3.72-7.12a13.25,13.25,0,0,0-2-4.94c-1.74-2.09-1.13-4.87-2.11-7.18a3.33,3.33,0,0,0,0-.89c1.83-.92,2.2-7.14,5.88-1.58.45.68,1.5-.25,2-.93,1-1.48,2-3,3.05-4.49,1.68,3.77,3.34,7.56,5,11.32.66,1.46.81,3.3,2.72,3.89A16.77,16.77,0,0,1,318.38,155.14Z"/><path class="cls-53" d="M292,125.61q.19-4.22.37-8.42c1.32-1.83,3.26-2.52,5.35-2.94l3.42-2.54c-.2,5.39,2.15,9,6.24,11.54L297.18,127C295.69,125.61,293.64,126.4,292,125.61Z"/><path class="cls-54" d="M297.34,140.12l3.42,7.09c0,1.48.74,2.89.41,4.4-.25,1.17-.66,2.29-1,3.44-2.07,3.77-.4,7.4.45,11.06.37,2.48,1.81,4.66,2.05,7.19-.08.22-.16.43-.23.65-4.21,3-8.78,5-14.07,4.83,2.78-1.39,5.63-2.58,7.77-5.07a7.12,7.12,0,0,0-.91-10.59c-.79-.61-2.08-.84-1.24-2C298.5,154.61,297.57,147.32,297.34,140.12Z"/><path class="cls-55" d="M34.25,114.18,40,100c.49,3.55-.81,6.83-1.42,10.22s.71,6.44,2.25,9.38c.78,1.47,1.61,2.63-.93,3.77-3.9,1.76-.4,5-.82,7.47-2.16,1.15-3.62-.5-5.29-1.33a2.91,2.91,0,0,1-1.05-1.85C34.61,123.33,35.65,118.89,34.25,114.18Z"/><path class="cls-56" d="M43,138.76l-1.93.33L36,136a.86.86,0,0,1-.3-.74c0-.28.08-.41.14-.41,1.18-.84,2.47-1.57,3-3A.84.84,0,0,1,40,132a20.18,20.18,0,0,1,6.64,3.88C45.94,137.55,44.26,137.92,43,138.76Z"/><path class="cls-57" d="M40,132l-1.22.11c-.8,1.08-2.16,1.63-2.76,2.9,0,.32,0,.65,0,1a6.26,6.26,0,0,1-2.25-.71c-2.52-2.07-3.91-1.37-4.53,1.64,0-1.66,0-3.31,0-5,1.47-1.19,3.24-1.94,4.69-3.15,2-.14,3.24,1.7,5.07,2Z"/><path class="cls-58" d="M43,138.76c.52-1.89,2.2-2.25,3.71-2.83q.26,3,.5,6a5.06,5.06,0,0,1-1,.15c-.36-.93.22-2.27-1.2-2.73Z"/><path class="cls-59" d="M280.39,44.4c-1.56-4.94-5.05-9.21-5.14-14.65-.05-2.62-.38-5.58,2.76-6.77s5.33,1,7.13,3.12c5.45,6.48,5.12,13.24-.78,19.14-3.06-.88-.84-3.08-1.17-4.64-.1-1.32,1.66-2.52.22-3.92a3.54,3.54,0,0,1-.78-.86,4.26,4.26,0,0,1-.67-2.07c-.34-.91-.58.14-.88,0,0,.5-1.41-.63-.73.6.22.41.65.72.93,1.14a7.35,7.35,0,0,1,.9,5.66A5.6,5.6,0,0,1,280.39,44.4Z"/><path class="cls-60" d="M284.43,48.24c1,2.22.57,3.3-1.83,1.93-1.82-1-5.11-1.86-2.23-5.12.58.31,1.07-.24,1.63-.19a1.32,1.32,0,0,1,.94.68C283.5,46.41,283.63,47.51,284.43,48.24Z"/><path class="cls-61" d="M284.43,48.24a2.91,2.91,0,0,1-2.11-3c-1.39-1.81-.8-3.41.52-4.93a1.23,1.23,0,0,1,1.45-.08c.81,1.66-1.64,3.36.07,5C284.38,46.24,284.41,47.24,284.43,48.24Z"/><path class="cls-62" d="M281.47,45.25c-.55.93-.88.67-1.1-.2a.66.66,0,0,1,0-.65c0-1.08-.53-2.34.95-3A3.68,3.68,0,0,1,281.47,45.25Z"/><path class="cls-63" d="M291,37.9c1.06.22,1.73.66,1.89,1.56a.6.6,0,0,1-.88.67,3.91,3.91,0,0,1-1.41-1.21C290.43,38.75,290.82,38.22,291,37.9Z"/><path class="cls-64" d="M132.44,51.07c-1.95.23-1.7-1.08-1.47-2.23.76-3.66-.58-3.63-3.07-1.83-.66.47-1.33,1.8-2.32.32-.68-1-1-2-.15-3.17,1.72-2.22,4.71-4.35-.24-6.69-.75-.36,0-4.17,2.53-5,2.89-.91,3.47-2.72,3.34-5.62-.12-2.65.25-5.82,4.67-3.75,2.41,1.12,3.08-1.25,3.73-2.84s1.13-2.9,3-2.76c2.36.17,1.05,1.93,1.08,3,.07,2.18.84,2.7,2.76,1.5.79-.5,1.31-2.42,2.69-.86a2.48,2.48,0,0,1-.06,3.57c-1.78,2.17-4,4.27.5,6.36.81.38,0,4.05-2.09,4.76C144,37,143.42,39,143.61,42.31c.11,2-.84,4.9-4.41,3.23-2.45-1.15-3.16.88-3.92,2.52C134.66,49.41,134.38,51,132.44,51.07Z"/><path class="cls-65" d="M54.86,83.19c-2.48-.92-5.38-1-7.57-3.76,3.23-.23,5.44,1.59,8,1.89Z"/><path class="cls-66" d="M297.71,114.25a8.18,8.18,0,0,1-5.35,2.94c-1-3.73,2.46-2.92,4-4Z"/><path class="cls-67" d="M34.25,114.18c3,4,2.55,9.46-1.19,13.85-1.37.6-2.21,0-2.86-1.19C30.67,122.34,33.18,118.49,34.25,114.18Z"/><path class="cls-68" d="M30.2,126.84,33.06,128l.93.82c.52,4.15-2.55,3-4.69,3.15A7.08,7.08,0,0,1,30.2,126.84Z"/><path class="cls-69" d="M19.86,132.82c-1.34-2.72.65-6.14-2.25-8.77-1.09-1,1-1.91,2.3-2.06Q19.89,127.41,19.86,132.82Z"/><path class="cls-70" d="M361.84,84.44c2.2-2.72,5.67-2.34,8.45-3.73C368.43,84.05,364.81,83.55,361.84,84.44Z"/><path class="cls-71" d="M356.91,66.58c.31,2.57.75,4.57-1.79,5.42a1.18,1.18,0,0,1-1.59-.71C353.05,68.88,354.89,68,356.91,66.58Z"/><path class="cls-72" d="M351.82,65.12c.71.14,1.31.59,1.14,1.27-.13.52-.79,1.24-1.23,1.26a1.27,1.27,0,0,1-1.35-1.56C350.5,65.28,351.17,65.19,351.82,65.12Z"/><path class="cls-73" d="M363.28,66.79c-.16.67-.44,1.32-1.21,1.25a1.25,1.25,0,0,1-1.24-1.63,1.21,1.21,0,0,1,1.39-1C363.05,65.48,363.13,66.17,363.28,66.79Z"/><path class="cls-74" d="M360.73,77a6.14,6.14,0,0,1-1.43.73c-.15,0-.48-.59-.73-.91a6.64,6.64,0,0,1,1.58-1C360.73,75.75,360.89,76.24,360.73,77Z"/><path class="cls-75" d="M59.32,67.72c1.75,1,2.48,2.25,2.15,3.81-.13.59-1.19.77-1.7.3C58.52,70.67,59,69.31,59.32,67.72Z"/><path class="cls-76" d="M54.51,68.67c-.69-.13-1.28-.48-1.28-1.21a1.09,1.09,0,0,1,1.27-1.13,1.53,1.53,0,0,1,1,.93C55.68,68,55.25,68.48,54.51,68.67Z"/><path class="cls-77" d="M276.78,104.63c.68,3.2,1.25,5.14-.49,6.68a1.85,1.85,0,0,1-1.73-.32C273.56,108.77,275.53,107.53,276.78,104.63Z"/><path class="cls-78" d="M131.77,94.32l2-2.95c.29-1,1.36-1.35,1.91-2.13,1.82.7.45,3.16,2.16,3.92,1.41,1.36-1.71,2.67,0,4-.1,2-1.24,3.15-3.15,2.83-2.74-.47-2.6-2.91-2.84-5-.34-.15-.45-.31-.35-.48S131.66,94.32,131.77,94.32Z"/><path class="cls-79" d="M143.73,98c0,.4,0,.8,0,1.21a2,2,0,0,1-2.13,2.17c-1.22,0-1.34-1.27-1.66-2.12-.37-1,0-2.33-1.08-3.11-.67-1.15,0-1.63,1-2l1.08.07c1.45.49,2,1.8,2.82,2.94C143.75,97.43,143.75,97.71,143.73,98Z"/><path class="cls-80" d="M126.67,108.06l9.07,2.7C132.1,111.9,131.21,111.64,126.67,108.06Z"/><path class="cls-81" d="M139.85,94.14c-.32.66-.65,1.33-1,2l-1.1,1c-2.08-1.36,0-2.69,0-4A1.9,1.9,0,0,1,139.85,94.14Z"/><path class="cls-82" d="M131.77,94.32a3.47,3.47,0,0,0,0,.72l-5.93.13V94.1Z"/><path class="cls-83" d="M143.75,97.15c-1.95,0-2.21-1.65-2.82-2.94A5.77,5.77,0,0,1,144.79,93C145.94,94.75,144.67,95.9,143.75,97.15Z"/><path class="cls-22" d="M135.65,89.24c.14,1.4-.63,2-1.91,2.13C132.79,89.23,134.16,89.18,135.65,89.24Z"/><path class="cls-84" d="M316.31,215.76c3.4,4.45-2.68,5.09-3.21,8a33.52,33.52,0,0,1-4.83,2.77c-.53.3-1,.6-1.55.95a12,12,0,0,1-1.51,1.05c-1.26.69-2.58,1.28-3.82,2-1.33.5-2.34,2-4.05,1.29a81.31,81.31,0,0,0-12,7.05c-1,1.81-2.78,2.58-4.61,3.27a1.55,1.55,0,0,1-1.22-.25c-5,3.42-11,5.24-15.27,9.85a88.55,88.55,0,0,1-10.07,6c-5,2.28-9,6.32-14.38,7.8a91.22,91.22,0,0,0-22.46,13.14c-1.17,1.29-2.94,1.6-4.27,2.63a5.6,5.6,0,0,1-3.56,1.31c-3.24.18-5,4.7-8.89,3-.14-1.47-.27-2.94,1-4,9.17-3.5,17.08-9.3,25.53-14.11,22.56-12.83,45-25.87,67.46-38.87C301.9,224.43,309.08,220.06,316.31,215.76Z"/><path class="cls-85" d="M201.63,281.63c-.1,1.41.53,3-1,4l-45.45-26.06c-1.14-.65-2.34-1.17-3.52-1.75-2.1.21-3.81-1-5.69-1.58-1.26-.92-1.75-2.49-3-3.45a41.43,41.43,0,0,0-8.87-5.06,6.77,6.77,0,0,1-2.53-.3c-1.93-.16-1.33,1.37-1.58,2.34-.32,1.27.33,3-1.65,3.5,1.17-7.88-2.78-12.36-9.81-14.84a34.63,34.63,0,0,1-3.48-1.67c-1.86.13-3.13-1.13-4.58-2-.91-.53-1.85-1-2.78-1.46-.59-.29-1.16-.61-1.73-.94-1.69-1.13-3.59-2-4.88-3.63-2.3-2.25-5.23-3.49-8-5-2.48-1.34-3.85-3.09-3.17-6q20.28,11.52,40.55,23Q166.07,261.24,201.63,281.63Z"/><path class="cls-86" d="M352.22,261.74c3.21,1.93,6.29,2.17,9.1-.75,2.44,2.4,2.35,5.65,2.85,8.67.43,2.65-1.6,3.74-3.6,3.73-5.28,0-9.94,1.81-14.68,3.78-2.93,1.21-6.21.88-9.31.36-1.58-.27-3.34-.88-3.51-2.94s1.53-2.29,2.83-2.95C341.6,268.76,348,267.09,352.22,261.74Z"/><path class="cls-86" d="M376.34,269c3.32,3.18,6.51,1.75,9.68-.26,3.41,5.65-1.28,9.2-3.14,13.7-2,4.87-5.3,7.31-10,8.6a8.76,8.76,0,0,1-2.89.45c-2.14-.17-4.59-.34-5.68-2.39-1.25-2.37.76-4.13,2.31-5.47A31.38,31.38,0,0,0,376.34,269Z"/><path class="cls-86" d="M151.56,258.83c3.29,5.37,7,10.37,12,14.28,1.42,1.11,2.8,2.61,2,4.67s-2.85,2.56-4.88,2.73c-2.93.24-5.52-1-8-2.22-6.37-3.22-11.66-14-9.89-19.82C145.75,258.31,148.68,258.05,151.56,258.83Z"/><path class="cls-87" d="M212.65,280.69c1.31-1.23,2.7-2.29,4.67-2q0,30.23,0,60.44c0,3.34-.29,6.36-4.93,5.51-.84-5.93-.29-11.9-.33-17.84-.1-13.08,0-26.16,0-39.24A22.83,22.83,0,0,1,212.65,280.69Z"/><path class="cls-88" d="M301.28,229.58a4.82,4.82,0,0,1,3.92-1.81c2.52,2.69,1.13,6,1.54,9.08-.63,5,1.43,10.13-1.3,14.89q0,8,0,15.93c-.07,7.3-.11,14.59-.21,21.88,0,3.37-1.28,5.41-5.13,4.25-.83-6.43-.28-12.89-.33-19.34-.1-12.42,0-24.83,0-37.25C299.75,234.57,299.52,231.87,301.28,229.58Z"/><path class="cls-89" d="M212.65,280.69c1.36,1.16.92,2.75.92,4.19q0,27.62,0,55.22c0,1.6.45,3.38-1.21,4.56-3.29-.6-2.77-3.16-2.77-5.44q-.06-28.28-.11-56.57Z"/><path class="cls-90" d="M301.28,229.58q0,29.83.05,59.68c0,1.6.45,3.38-1.24,4.54-2.86-.64-2.64-2.87-2.65-5,0-8.7-.13-17.39-.19-26.08a3.41,3.41,0,0,1,0-3.95l.09-26.92Z"/><path class="cls-91" d="M110.81,234.13l4.24,2.67c0,14.7-.1,29.4-.1,44.11,0,2.9-.38,5.3-4.16,4.95-1.29-1.67-1.43-3.61-1.43-5.63q0-20.26,0-40.53C109.38,237.73,109.21,235.7,110.81,234.13Z"/><path class="cls-92" d="M61.94,257.74A39.84,39.84,0,0,0,75.8,267.82c2.28,1,4.76,1.46,7.1-.13,1.67,1.5,5.85,1.29,4.8,4.45-1.12,3.34-4.9,3.56-8.09,3.12a16.44,16.44,0,0,1-8-3.57,25.05,25.05,0,0,0-5.35-3.48c-7-3.06-7-3-6.12-10.45A1.14,1.14,0,0,1,61.94,257.74Z"/><path class="cls-7" d="M110.81,234.13q0,25.86,0,51.73l-2.93-1.22c-1.07-6.06-.23-12.17-.48-18.25-.42-10.05.84-20.14-.73-30.16a4.05,4.05,0,0,1,1.14-3.66Z"/><path class="cls-92" d="M254.53,260.68c.29,1.09.95,2.24.79,3.26-.69,4.42-12.38,14-16.92,14-2.62,0-6,.26-6.78-2.79-.84-3.23,2.38-4.21,4.76-5.31,5.15,1.43,9.21.28,12.42-4.34C250.17,263.5,251.46,260.87,254.53,260.68Z"/><path class="cls-93" d="M254.53,260.68c-2.33,2.71-4.61,5.47-7,8.11-3.45,3.82-8.12,4.2-11.15,1l3.39-4.23c4.1-3.77,9.13-6,13.93-8.65,1.23,1.09,1.91,2.28.79,3.85Z"/><path class="cls-94" d="M280.38,241.71c1.29-1.56,3.13-2.19,4.94-2.85,0,6.27.14,12.54.05,18.81-.06,4-1.42,4.58-5.09,2.54A83.53,83.53,0,0,1,280.38,241.71Z"/><path class="cls-95" d="M28,272.69a60.58,60.58,0,0,0,.65,6.33,4,4,0,0,0,3.61,3.52,3.31,3.31,0,0,0,3.92-2.86.78.78,0,0,1,1.26.38c0,1.59.37,3.2-.29,4.74-.37,2.23-1.23,4.36-3.69,4.58S29.1,288,28,285.91C25.61,281.54,25,277.08,28,272.69Z"/><path class="cls-96" d="M254.49,260.78c-.27-1.28-.53-2.56-.79-3.85,3.42-1.9,6.3-4.9,10.52-5.2C262.79,258.53,261.14,260.07,254.49,260.78Z"/><path class="cls-97" d="M107.79,232.57q0,26,.07,52.07c-2.24-3.86-.59-8.06-1-12.08-.23-2-.15-4-.21-6l.27-27.78c-1.65-2.33-1.93-4.63.15-6.87Z"/><path class="cls-98" d="M115.79,252.65c2.76,1.8,5.7,2.09,5.2,4.93-.19,1.1-3.15,2.9-3.8,2.53C114.54,258.6,116.28,255.85,115.79,252.65Z"/><path class="cls-99" d="M151.56,258.83c-3,2.24-5.87,1-8.73-.36l.93-3.06a2,2,0,0,1,2.18.18c2.14.14,4.2.49,5.68,2.27A3.15,3.15,0,0,1,151.56,258.83Z"/><path class="cls-100" d="M132.07,246.53c.68.41,1.36.82,2,1.24-.65,2.27,1.11,5-1.32,6.95-2.14.92-2.87-.54-2.79-2.1C130.1,250.47,128.41,247.52,132.07,246.53Z"/><path class="cls-101" d="M132.07,246.53c-1.71,2.9-2.65,5.73.71,8.19-2.26,2-3.28.09-4.43-1.41.06-1.81.22-3.61.17-5.42C128.41,243.94,130,244.6,132.07,246.53Z"/><path class="cls-102" d="M280.38,241.71q0,9.24-.1,18.5c-1.68-6-.21-12.24-.79-18.33Z"/><path class="cls-103" d="M297.25,258.73v3.95C294.06,261.36,294.08,260,297.25,258.73Z"/><path class="cls-104" d="M37,279.72a4.29,4.29,0,0,0-.8,0c.11-2.65-1.1-5.43.75-7.91.08,1.51.16,3,.25,4.54C37.57,277.48,37.84,278.63,37,279.72Z"/><path class="cls-105" d="M37,279.72c.06-1.13.13-2.27.2-3.41,1,2.84,1.46,5.67,0,8.49C37.11,283.11,37.05,281.42,37,279.72Z"/><path class="cls-106" d="M145.94,255.59l-2.18-.18a3,3,0,0,1-.79-2.58A2.78,2.78,0,0,1,145.94,255.59Z"/><path class="cls-107" d="M61.94,257.74l-1.84,0c-.27-1.19-.27-2.29.94-3C62,255.54,62,256.63,61.94,257.74Z"/><path class="cls-108" d="M36.19,267.69c-1.69-1.5-1.54-3.12-.32-4.82C36,264.48,36.09,266.09,36.19,267.69Z"/><path class="cls-109" d="M151.5,186.61c6.26-4.91,13.85-7.2,20.85-10.67,5.63-2.8,10.92-6.28,16.42-9.36,1.36-.76,2.82-2.58,4.41-1.3,1.16.93.5,2.84.26,4.29-.78,4.74-2.25,9.46-2.34,14.2-.12,6.67-3.77,9.86-9.11,12.71-10.53,5.62-20.77,11.77-31.13,17.7-1.45-1.12-1.35-2.76-1.45-4.33-.21-3.54,1-7,1.16-11.1-4.51,2.13-8,5-12.12,6.49-4.58,1.16-9.27-1.54-9.73-5.59a93.14,93.14,0,0,1,13.86-7.84,1.4,1.4,0,0,1,1.3-.17,9.57,9.57,0,0,1,1.22.76c1.74,1.16,3.55,2.68,5.69,1.16s1.87-3.56,1.06-5.67A4.13,4.13,0,0,1,151.5,186.61Z"/><path class="cls-5" d="M255.33,216.43c-12.33-7.1-24.64-14.24-37-21.27-2-1.15-3.31-2.49-3.66-4.89-1-7-2.21-14-3.36-21.05-.21-1.29-.84-2.74.43-3.69s2.45.39,3.5,1c7.77,4.4,15.5,8.89,23.24,13.35,4.88,2.26,9.73,4.58,13.84,8.15,1.62,2.53,1.34,5.55,2.17,8.29.61,5.17,2,10.21,2.35,15.42C256.71,213.41,256.89,215.2,255.33,216.43Z"/><path class="cls-5" d="M248.39,222.4c.16,1.1-1.07,1.53-2,2.09-5.87,3.43-11.79,6.75-17.6,10.25a4,4,0,0,1-4.56-.16c-8.14-4.76-16.29-9.53-24.49-14.19-2.3-1.31-2.52-2.21-.13-3.7,6.6-4.11,13.09-8.4,19.68-12.55,2.15-1.35,10.87,1.21,11.48,4.13.87,4.18,4.25,4.59,6.73,6.33,2.69,1.9,5.69,3.36,8.55,5C247,220.21,248.21,220.55,248.39,222.4Z"/><path class="cls-110" d="M155.74,237.75c5.29-4.29,11.64-6.87,17.26-10.62,1.58-1.06,3.06-.81,4.62.12,7.54,4.46,15.11,8.86,22.64,13.32,1.13.68,3.18,1.14,1.37,3.16-1.12,1.37-2.7,2.14-4.08,3.16a9.53,9.53,0,0,1-1.09.69,12.72,12.72,0,0,0-4.18,2.81c-.79,1.07-2.52-.2-3.15,1.29a9.2,9.2,0,0,1-9.53,1.15,64.46,64.46,0,0,1-9.12-5.24,12.72,12.72,0,0,0-5.12-2.92c-2.47-1-5-2.08-6.9-4A10.13,10.13,0,0,1,155.74,237.75Z"/><path class="cls-111" d="M110.86,212.83l3-2c2.18.41,3.7-1.6,5.82-1.52,1.81.07,3.54.07,4.53,1.92.22.7-.45,1.9,1.05,1.93a2.57,2.57,0,0,1,.94.72c.53,1.12,1.6,1.91,1.9,3.17-.08,1.71-3,1.86-2.2,4a5.26,5.26,0,0,0,1.07,1.54c4.14,3.89,4.12,4.4-.33,6.74-6.85-2.63-12.9-6.71-19-10.68C106.39,215.47,109.6,214.68,110.86,212.83Z"/><path class="cls-112" d="M255.33,216.43c.06-1.55.13-3.09.19-4.64,4.34-.33,7.4-3.37,11.42-5.21-3.37-2.26-7-3.47-9.86-5.91-2-1.72-2.34-3.08.17-4.5,1.75-1,4.05-1.86.72-3.86-.93-.55-2.12-1.14-1.49-2.65a1.9,1.9,0,0,1,1.37.05c7.31,4.12,15.16,7.34,21.43,13.14-3,2.52-6.64,4.06-9.83,6.29a115.74,115.74,0,0,0-13,7.53Z"/><path class="cls-113" d="M189.65,250.7l2-.94c1.52-1.24,3.5-1.74,5-3h0c1.61-.84,2.95-2.34,5-2,1.24.71,2.89,1,3,2.91-1.1,1.12-2.72,1.41-3.88,2.43-1.85,1.57-4.37,2.11-6.05,3.94a36.61,36.61,0,0,0-7,3.73c-.72,1.1-1.87.88-2.93.95-1.07-.71-2.57-.65-3.37-1.84-2.15-1.54-4.87-2.06-6.86-3.87-1.73-1.43-4.07-1.79-5.76-3.3h0c-3.56-2.48-8-3.5-11-7l.09-1.93c0-.66.54-.77.92-1.06l6.95,4c1.5,1.28,3.46,1.78,5,3l9,5C183.38,255.17,186.5,252.82,189.65,250.7Z"/><path class="cls-114" d="M124.82,221.81c-2.4-3.7,1.72-3.5,3-5a2.11,2.11,0,0,1,1.2-1.49c1.48-.65,3-1.15,4.33.23,1.73,3.82,4.61,4.71,8.4,3.3,3.85,0,4.17,3,2.1,4.3-4.45,2.8-8.64,6.34-14,7.59-1.63.29-3.1.35-3.07-2,5.76-3-.64-4-1-6C127,221,124.76,222.53,124.82,221.81Z"/><path class="cls-115" d="M120.71,193.91a7.88,7.88,0,0,0,3.18,3.19A24.65,24.65,0,0,1,117,201c-6-1.73-10-6.34-14.76-9.82-2.25-4.19,1.22-5,3.75-6.28a5.32,5.32,0,0,1,2.43,2.93C111,193.06,114.85,195.47,120.71,193.91Z"/><path class="cls-116" d="M106,184.93c-.14,1.59-1.44,2.14-2.6,2.72-1.74.86-1.38,1.95-.53,3.18.82,6.07.23,12.15.3,18.23a2,2,0,0,1-2.3.87c-.29-12.41.72-24.85-.94-37.22-.3-2.26-.61-4.52-.91-6.78.27-.39.32-1,.9-1.1A91.06,91.06,0,0,1,106,184.93Z"/><path class="cls-117" d="M103.19,209.06c-2.39-6-1.72-12.13-.3-18.23L117,201,113.81,203c-2.93.28-4.38-2.53-6.49-3.25a6.74,6.74,0,0,1-.37,7.14l-1.11.77c-2.17-2.92,0-6.68-1.67-9.69-.44-.58-.62.53-.15.06.23-.24.35-.19.44.12,1,3.24,0,6.6.61,9.86Z"/><path class="cls-118" d="M303.33,206.9l-3.5-1.64c-.18-1.88,1.47-2.33,2.52-3.26,1.61-1.15,3.07-2.49,4.6-3.75s3.36-2.94,5.65-1c.13,4.92.7,9.85-.32,14.74a1.69,1.69,0,0,1-2-.92c-2.09-1.66,0-4.77-2.19-6.35a4.71,4.71,0,0,0-1.44.83A5.41,5.41,0,0,1,303.33,206.9Z"/><path class="cls-119" d="M132.79,215.82c-1.33-1.21-2.66,1.22-4,0a5.12,5.12,0,0,1-3-2h0a5.08,5.08,0,0,1-2-2c-2-2.43-4.61-1.28-7-.94-1,.15-2,1.39-3,0l.87-.45c8.41-4.42,10.54-4.14,18.06,2.42a2.29,2.29,0,0,1,.47,2.49Z"/><path class="cls-120" d="M150.74,208.82l.12,5.36c-1,1-2.09.71-3.15.1-6.15-3.49-12.34-6.92-18.4-10.55-1.44-.86-4.19-2.2-.58-4.08,2.38,2.85,4.3,6.68,9.14,4.24,1,.75,2.24,1.3,2.93,2.46a4.74,4.74,0,0,0,3.68,2.06C146.52,209.24,148.54,210.37,150.74,208.82Z"/><path class="cls-121" d="M126.8,228.79l3.07,2a2.25,2.25,0,0,1-3.09.77c-6.74-4-13.42-8.15-20.11-12.24-1.4-.85-2.59-1.79-.87-3.44,1.17.16,1.63,1,2.06,2A148.69,148.69,0,0,0,126.8,228.79Z"/><path class="cls-122" d="M312.28,212c-.56-5,1.21-10.24-1-15.17-.89-1.33-2.3-2.28-2.81-3.89,1.86-2.84,1.52-6.85,4.72-9l-.06,28.65Z"/><path class="cls-123" d="M141.74,218.86c-4.85,3.63-6.79,3-9-3h0c.76-1.8,2.61-1.23,3.93-1.82C139.16,214.83,140.05,217.26,141.74,218.86Z"/><path class="cls-124" d="M257.85,189.71l-1.35.16c-2.29.95-3.54-.71-5-2-4.47-2.49-9.34-4.34-13.07-8,1.34-1,2.52-.29,3.67.4C247.38,183.39,252.62,186.56,257.85,189.71Z"/><path class="cls-125" d="M269.33,214.07c3.64-2.25,7.28-4.52,10.94-6.75,1-.59,2.22-1.44,3,0,.59,1.09-.69,1.69-1.52,2.17-3.84,2.25-7.7,4.46-11.54,6.69A1.76,1.76,0,0,1,269.33,214.07Z"/><path class="cls-126" d="M107,206.85v-8.23c2.89.72,4.68,2.86,6.86,4.34A23.9,23.9,0,0,1,107,206.85Z"/><path class="cls-127" d="M145.69,228.66c2.82-1.65,5.63-3.32,8.47-4.92.79-.44,1.78-1.33,2.49,0,.55,1.06,0,1.9-1,2.43-2.88,1.58-5.77,3.14-8.66,4.71C145,231,145.16,230,145.69,228.66Z"/><path class="cls-8" d="M307.18,204.09c1.89-2.13,3.2-2.57,3.15,1.06,0,2-.05,3.92-.07,5.89l-2.88-1.25A4.8,4.8,0,0,1,307.18,204.09Z"/><path class="cls-128" d="M105.07,208c-2.44-3.6-.79-7.47-.52-11.28,2.1,3.41,1,7.27,1.29,10.93A.81.81,0,0,1,105.07,208Z"/><path class="cls-129" d="M256.46,216.67c3.44-4.08,8.13-6.07,13-7.85q.45.31.3.63c-.1.22-.2.32-.3.32C265,211.93,261.49,215.7,256.46,216.67Z"/><path class="cls-130" d="M269.42,209.77v-1a24.3,24.3,0,0,1,9.86-6C277.25,207,272.86,207.68,269.42,209.77Z"/><path class="cls-131" d="M302.3,202.78c-.82.83-1.64,1.66-2.47,2.48-2-1.3-4.82-1.5-5.54-4.38l6.9.9C302.31,201.27,302.45,201.86,302.3,202.78Z"/><path class="cls-132" d="M157.74,242.74c3.56,2.48,7.94,3.67,11,7C164.61,248.1,160.05,247.19,157.74,242.74Z"/><path class="cls-133" d="M269.33,214.07l.86,2.06c-1.62.72-3.47,3.86-4.69,1.76C264.06,215.39,268.07,215.5,269.33,214.07Z"/><path class="cls-134" d="M140.93,187.19c.64-2.42,2.6-3.92,4.4-5.16s1.16.85,1.36,1.67A14.35,14.35,0,0,1,140.93,187.19Z"/><path class="cls-109" d="M143.84,191.92l-1.26-.11a39.26,39.26,0,0,1,8.92-5.2l.36.45C150.46,190.79,147.74,192.34,143.84,191.92Z"/><path class="cls-135" d="M107.86,217.82l-2.06-2c1.35-1.56,3.36-2,5.06-3C111.33,215.38,107.38,215.26,107.86,217.82Z"/><path class="cls-136" d="M174.7,252.71c2.32,1.35,5,2,7,4-.33.43-.67.43-1,0-2.67-.73-5.32-1.49-7-4A.6.6,0,0,1,174.7,252.71Z"/><path class="cls-137" d="M187.64,257.75c1.6-2.58,4.36-3.23,6.94-4.15.32.23.43.47.34.72s-.19.38-.29.38C192.29,255.69,190.25,257.36,187.64,257.75Z"/><path class="cls-137" d="M194.63,254.7c0-.36,0-.73,0-1.1,1.42-2.21,4-2.63,6-3.87.3.22.41.44.31.67s-.2.34-.3.34Z"/><path class="cls-138" d="M144,232c-.79,1.37-1.89,2.16-3.52,1.61a1.28,1.28,0,0,1-.5-1.14,3.09,3.09,0,0,1,3.65-1.5A.69.69,0,0,1,144,232Z"/><path class="cls-139" d="M303.33,206.9l3-2.07a4,4,0,0,1,0,4A3.1,3.1,0,0,1,303.33,206.9Z"/><path class="cls-140" d="M174.7,252.71l-1,0c-2.05-.38-4-1-5-3A11.7,11.7,0,0,1,174.7,252.71Z"/><path class="cls-141" d="M201.63,244.74l-5,2c1.07-2,3-2.65,5-3Z"/><path class="cls-142" d="M306.33,208.84c0-1.34,0-2.67,0-4l.86-.74c.07,1.9.13,3.8.2,5.7Z"/><path class="cls-143" d="M272.18,189.21c.65-.88-.81-2.82.41-2.7,1.63.15,1.65,1.92.83,3.35Z"/><path class="cls-144" d="M136.72,214l-3.93,1.82v-3Z"/><path class="cls-145" d="M144,232c-.12-.35-.25-.69-.37-1l2.06-2.26a2.43,2.43,0,0,0,1.27,2.25C146.21,231.91,145,231.58,144,232Z"/><path class="cls-146" d="M200.62,250.74c0-.34,0-.67,0-1a6.27,6.27,0,0,1,4-2.08C204,249.56,202.07,249.88,200.62,250.74Z"/><path class="cls-147" d="M158.75,239.75l-.93,1.06a3.08,3.08,0,0,1-2.08-3.06Z"/><path class="cls-148" d="M180.66,256.72h1l3,2C183,258.81,181.44,258.55,180.66,256.72Z"/><path class="cls-149" d="M306.15,176c-.58,1.52-.81,3.29-2.68,3.95q-.51-3-1-6l-.07.06C304.78,172.52,305.34,174.5,306.15,176Z"/><path class="cls-150" d="M99.94,164.83l-.9,1.1c-.68-3.07-1.35-6.13-2-9.2-.63-5.45-2.81-10.44-4.68-15.53-.58-1.57-1.29-3.3.8-4.25,2.25-1,3.18.51,4.08,2.3.55,1.09.21,3.36,2.65,2.68.7,1.32-.47,3,.73,4.19a11.22,11.22,0,0,1,.41,3.82C100.44,154.89,99.56,159.82,99.94,164.83Z"/><path class="cls-151" d="M111.84,161.82l-1.75,1.28c-.67-3.91,1.5-7.34,1.9-11.07A11.35,11.35,0,0,1,111.84,161.82Z"/><path class="cls-152" d="M101,149.94c-.58-1.17-1.42-2.3-.77-3.73a.88.88,0,0,1,.88-.89l1.87,1.44Z"/><path class="cls-153" d="M101.11,145.32c-.3.29-.59.59-.88.89-2.21-1.25-.88-2.8-.37-4.28a3.4,3.4,0,0,1,2-2Q101.46,142.61,101.11,145.32Z"/><path class="cls-154" d="M307.21,225.86c2-.72,3.34-3,5.89-2.13l.15,18c1.28,2.86-.56,4.09-2.78,4.56a3.1,3.1,0,0,1-4-3.26C306.5,237.32,305.48,231.53,307.21,225.86Z"/><path class="cls-155" d="M307.21,225.86c0,4.94,0,9.88,0,14.82,0,2.09-.55,4.69,2.5,5,2.59.27,3.06-2,3.51-3.93,3.29.51,3.68,2.1,1.29,4.17a30.31,30.31,0,0,1-9.1,5.81q0-7.5,0-15c1.18-3.22-.39-6.69.88-9.9Z"/><path class="cls-156" d="M318.38,155.14c-1.26-2.43-3.21-4.64-2.4-7.7.43-1.07.8-2.18,1.32-3.2a2.56,2.56,0,0,1,4.62,2.22C320.77,149.36,319.56,152.25,318.38,155.14Z"/><path class="cls-157" d="M107,232l-.15,6.87c-5.9,1.53-5.91,1.53-5.88-4.52,0-1.83,0-3.65.08-5.48Z"/><path class="cls-158" d="M41.11,144.63c1.12,2,.79,4.17.76,6.3C40.27,149,41.34,146.73,41.11,144.63Z"/><path class="cls-159" d="M299.68,166.94c-1.25-4-2.89-8-.33-12.11,3.53-.3,5.42,1.88,6.93,4.61,3.87,4.12,4.15,8.35.43,12.73C303.38,171.75,301.79,169,299.68,166.94Z"/><path class="cls-160" d="M302.3,202.78l-1.11-1c3.52-2.06,5.3-5.55,7.27-8.88,1.32,1,4.35.8,2.81,3.89Z"/><path class="cls-161" d="M299.68,166.94a24.17,24.17,0,0,1,7,5.22c.66,1.42-.3,2.59-.56,3.87-1.29-.62-1.92-2.48-3.78-2C301.48,171.65,300.58,169.3,299.68,166.94Z"/><path class="cls-162" d="M306.28,159.44l-6.93-4.61c0-1.18-.14-2.4.89-3.31.92-.26,1.69-.17,2.06.87C304.32,154.35,306.43,156.26,306.28,159.44Z"/><path class="cls-163" d="M302.3,152.39l-2.06-.87c.17-1.44.35-2.88.52-4.31C301.84,148.77,303,150.31,302.3,152.39Z"/><path class="cls-164" d="M36,135.05c-1.38-3.17,1.25-2.5,2.76-2.9C41.25,136.32,37.69,134.77,36,135.05Z"/><path class="cls-165" d="M281.47,45.25c-.05-1.27-.09-2.54-.13-3.81.42-2.11-.49-4-1-6,.83-1.12,1.85-.83,2.88-.38.05.41.09.83.14,1.24,1,1.32.67,2.63,0,4-1.07,1.5-1,3.25-1.07,5l-.43,0Z"/><path class="cls-166" d="M283.26,35.09l-2.88.38a4.15,4.15,0,0,1-2.51-2.92l3.64.77a.61.61,0,0,1,1,0Z"/><path class="cls-167" d="M283.39,40.28c0-1.32,0-2.64,0-4,.82-.36,1.66-1.37,2.53-.41a1.38,1.38,0,0,1-.53,2.34c-.88.42-1,1.18-1.1,2A4.67,4.67,0,0,1,283.39,40.28Z"/><path class="cls-168" d="M282.5,33.35,282,33.3l-.5,0c0-.76.07-1.52.1-2.28.38.11.88.11,1.12.36A1.17,1.17,0,0,1,282.5,33.35Z"/><path class="cls-169" d="M142.83,30.83c0,5.25-4.49,10.79-8,10.53-2.64-.2-3-2.09-3-4.22,0-4.55,4.57-10.18,8-9.93C142.48,27.42,142.8,29.35,142.83,30.83Z"/><path class="cls-6" d="M306.31,226.83c-.39,3.29.92,6.73-.88,9.9-.08-3-.15-6-.23-9Z"/><path class="cls-170" d="M150.74,208.82c-2.31,4.66-4.65,1.08-7,0a11.32,11.32,0,0,1-4-2.06l-1.93-2.89c5-1.23,8.71-5.1,13.8-7.1C152.71,201.06,150.27,204.87,150.74,208.82Z"/><path class="cls-171" d="M143.84,191.92a24.34,24.34,0,0,0,8-4.86c3.41.88,1.72,3.4,1.51,5.24a3.65,3.65,0,0,1-3.33,3.26C147.39,195.67,144.81,195,143.84,191.92Z"/><path class="cls-172" d="M174.69,186.88c1.1-.13,2,.05,1.92,1.1-.18,2.57-1.86,4.06-4.13,4.89-.82.3-1.78,0-1.72-1.08C170.92,189.19,172.76,187.88,174.69,186.88Z"/><path class="cls-173" d="M257.59,196.93c-.89.85-2.2,1.47-.08,2.64,3.81,2.1,7.46,4.49,11.22,6.78-2.85,2.89-6.9,3.81-10,6.28-1.46,1.19-2.34.12-3.25-.84q-1.07-7.95-2.14-15.92A3.34,3.34,0,0,1,257.59,196.93Z"/><path class="cls-174" d="M257.59,196.93l-4.21-1.06c-1.5-2.45-.85-5.4-1.84-8l5,2,1.93,1.47c1.23,1,3.81,1,3.51,2.89S259.36,196.48,257.59,196.93Z"/><path class="cls-175" d="M230.33,187.93c2.35,1.09,4.1,2.75,4.56,5.36a1.25,1.25,0,0,1-1.68,1.26,6,6,0,0,1-4.51-4.7C228.41,188.65,229.08,188,230.33,187.93Z"/><path class="cls-103" d="M189.65,250.7c-4.71,4.62-6.09,4.76-10,1C183.23,253.65,186.39,251.75,189.65,250.7Z"/><path class="cls-141" d="M196.63,246.73c-1.06,2-3,2.64-5,3C192.67,247.72,194.56,247.08,196.63,246.73Z"/><path class="cls-6" d="M170.7,246.74c-2.06-.34-3.94-1-5-3C167.76,244.09,169.64,244.74,170.7,246.74Z"/><path class="cls-176" d="M125.81,213.83a3,3,0,0,1,3,2l-1,1C126.73,216.09,124.6,216.08,125.81,213.83Z"/><path class="cls-177" d="M123.82,211.83a3.45,3.45,0,0,1,2,2c-1-.27-2.27.61-3-.53C122.67,213.12,123.45,212.34,123.82,211.83Z"/><path class="cls-178" d="M124.82,221.81c1-.28,1.88-1.44,3.17-.65-.35,1.08-1.42,1.16-2.18,1.65Z"/><path class="cls-109" d="M139.79,206.78a6,6,0,0,1,4,2.06C141.7,209.59,140.65,208.36,139.79,206.78Z"/><path class="cls-76" d="M147.78,93.86c.22.72-.21,1.22-.95,1.4-.69-.12-1.28-.48-1.28-1.2"/><path class="cls-76" d="M135.78,94.86c.22.72-.21,1.22-.95,1.4-.69-.12-1.28-.48-1.28-1.2"/><path class="cls-76" d="M282.78,105.86c.22.72-.21,1.22-.95,1.4-.69-.12-1.28-.48-1.28-1.2"/><path class="cls-76" d="M273.78,103.86c.22.72-.21,1.22-.95,1.4-.69-.12-1.28-.48-1.28-1.2"/><path class="cls-73" d="M64,65.14c-.16.66-.45,1.31-1.21,1.25a1.24,1.24,0,0,1-1.24-1.63,1.18,1.18,0,0,1,1.39-1C63.75,63.82,63.82,64.52,64,65.14Z"/><path class="cls-35" d="M147.24,175.5c0-14.54.72-29.17,1.62-43.64.11-1.7.69-3.75,2-4"/><path class="cls-35" d="M152.07,129.42a25.13,25.13,0,0,0,7.39-.5"/><path class="cls-35" d="M127.22,172.58l4.34-9.72a1.55,1.55,0,0,0-.54-2.06,1.53,1.53,0,0,0-2.05.54l-4.34,9.72a1.53,1.53,0,0,0,.54,2.05,1.51,1.51,0,0,0,2-.53Z"/><path class="cls-35" d="M117,178c5.55-.45,11.11-.82,16.66-1.36,3.77-.36,8-1,10.82-3.89a9.55,9.55,0,0,0,2.53-5.7c.33-2.73.3-5.52.41-8.26l.7-17.17.79-19.4-2.94.4c3,15.47-3.22,31-11.42,43.87l2.79.75a207.28,207.28,0,0,0,.37-24.42c-.07-1.6-2.67-2.15-2.94-.4a111.51,111.51,0,0,0-1.3,21.9c.05,1.19,1.68,2.12,2.56,1.06a30,30,0,0,0,6.06-11.71c1-3.78,1.56-8.3.16-12-1.18-3.18-4-6.06-7.7-4.77s-4.82,5.9-5.7,9.31c-1.44,5.56-2.55,11.34-1.12,17a1.52,1.52,0,0,0,2.9,0,65,65,0,0,0,.42-28.11c-.35-1.74-2.84-1.21-2.94.39l-1,15.19-.49,7.35a34.06,34.06,0,0,1-.25,3.64,6.39,6.39,0,0,1-.39,1.14,1,1,0,0,1-.29.38c.41,0,.43-.06.07-.15l1,1a81,81,0,0,1-2.36-25.16,1.51,1.51,0,0,0-3-.39c-2,9.35-3.9,19.31-.67,28.62a1.51,1.51,0,0,0,3-.4,71.35,71.35,0,0,0-2.66-21.56,1.51,1.51,0,0,0-2.89,0,85.19,85.19,0,0,0-3.12,27.51,1.5,1.5,0,0,0,3,0,143.51,143.51,0,0,1,1.15-14.51h-3a60.88,60.88,0,0,1-1.33,15.23l2.74-.36a19.89,19.89,0,0,1-1.66-6.33,1.52,1.52,0,0,0-2.56-1.06,11.06,11.06,0,0,0-3,6.06l3,.39a11.71,11.71,0,0,1,.89-4.52l-2.94-.39.37,4.51a1.51,1.51,0,0,0,2.95.4,47.41,47.41,0,0,0,1.57-9.53l-2.94.4,1.35,6.68.67,3.33a9.16,9.16,0,0,1,.22,1.14,3,3,0,0,1,0,.6c-.09.24,0,.22.14-.06l1.7.69c-2.09-4.56-1.75-9.76-1.19-14.61.63-5.47,1.4-10.92,2.1-16.39h-3a27.93,27.93,0,0,1-.66,6.64l2.51-.66c-2.41-2.62-.29-7.15.67-10l4.45-13-2.94-.4c-.29,2.5,1.69,4.67,4,5.32a6.17,6.17,0,0,0,6.6-2.75c3.33-4.72,1-11.1-3.32-14.25-1.41-1-2.94,1.16-1.81,2.36,2.84,3,6.78,6.75,11.34,5.65,3.62-.87,6.69-5,4.61-8.56L139,117c4.45,1.19,5.08,7.14,5,11a79.3,79.3,0,0,1-2.93,20.32l2.94.4a140.89,140.89,0,0,0,.25-20.85,1.5,1.5,0,0,0-3,0c-.94,9.37,3.14,18.8.84,28.08l2.95.4a15.33,15.33,0,0,1,.9-6.5l-2.74.36a14.6,14.6,0,0,1,.3,12c-1.55,3.37-5.08,6-8.91,5.2l.36,2.74,3.2-2.33-2.2-1.7a10.65,10.65,0,0,1-2.36,3.75,10.14,10.14,0,0,1-1.71,1.43c-.26.17-.53.33-.8.48l-.5.26c-.72.12-.66.67.15,1.65l-1.15.16.19,0v-2.89a15.64,15.64,0,0,0-8.12,6,1.51,1.51,0,0,0,.9,2.2A18.29,18.29,0,0,0,136,176.6a1.5,1.5,0,0,0-1.52-2.59L132,175.29c-1.54.77-.46,3.17,1.16,2.74l2-.54L134,174.74c-2.89,1.59-6.18,1.8-9.41,1.66a50.67,50.67,0,0,1-5.07-.4,5,5,0,0,1-3.83-2.15c-1.71-2.71-2.17-6.55-2.43-9.68a37.85,37.85,0,0,1,.64-10.88l-2.95-.4-.5,6.22c-.12,1.43,2.2,2.12,2.79.76a20.77,20.77,0,0,0,1.48-11.7l-2.89.8a48.19,48.19,0,0,1,1.62,14.78l1.9-1.45a2.76,2.76,0,0,1-1.91-3.73l-1,1c1.73-.66,3.51-.4,5.32-.32a13.32,13.32,0,0,0,4.57-.52,15,15,0,0,0,7.18-5.11c4.46-5.66,4.67-13.12,4-20a1.51,1.51,0,0,0-2.95-.4,74.47,74.47,0,0,0-4.31,29.29c.08,1.62,2.54,2.12,2.94.4a63.54,63.54,0,0,0,1.6-10.8,37,37,0,0,0-.42-10.35c-.64-2.78-2.51-5.49-5.45-6.1a5.79,5.79,0,0,0-6.13,3,17.62,17.62,0,0,0-1.94,7.4,75.86,75.86,0,0,0-.49,9.88,28.74,28.74,0,0,0,1.74,9.46c.84,2.16,2.77,6.44,5.81,4.5,1.15-.73,1.59-2.11,2-3.32q.9-2.52,1.56-5.1a60.26,60.26,0,0,0,1.68-10.24c.13-1.7.18-3.4.16-5.1a16.45,16.45,0,0,0-.43-4.7c-.75-2.4-3.31-4.36-5.59-2.32a9.25,9.25,0,0,0-2,3.51A42.4,42.4,0,0,0,117.94,158c-.07,2.4-.17,5.82,2.26,7.21,2.82,1.61,5.48-1.63,7-3.57a27.8,27.8,0,0,0,4.54-8c.86-2.39,2.31-6.31.44-8.54s-4.92-1.17-6.83.28a24.57,24.57,0,0,0-5.73,6.54c-3,4.78-4.93,11-4.18,16.71.32,2.45,1.47,5.11,4,5.88,3.09.93,5.88-1.33,7.78-3.51a30.48,30.48,0,0,0,5-8,28.77,28.77,0,0,0,1.49-4.27c.37-1.4,1-3.35.61-4.79a2.65,2.65,0,0,0-2.82-1.91,5.63,5.63,0,0,0-3.54,2.16,29,29,0,0,0-5,7.85c-1.11,2.56-2.36,5.75-2,8.59.42,3.3,3.42,4.27,6.28,3.22,5.1-1.87,9.62-6.75,10.18-12.31a4.62,4.62,0,0,0-4.73-5.34c-3,.07-5,2.52-6.11,5a16,16,0,0,0-1.21,4.47c-.18,1.55-.32,3.41.76,4.68,1.75,2,5.39,1.85,7.78,1.43,5.26-.92,11.63-5.87,10.67-11.85a5.45,5.45,0,0,0-5.52-4.63c-2.87.22-4.19,3-4.54,5.5a25.22,25.22,0,0,0,.75,10.26,1.52,1.52,0,0,0,2.5.66,8.45,8.45,0,0,0,1.76-10.51,1.52,1.52,0,0,0-2.59,0,16.69,16.69,0,0,0-2.71,6.44c-.36,1.95-.86,4.95,1.18,6.17s4-.43,5-2.07a11.74,11.74,0,0,0,1.61-7,1.52,1.52,0,0,0-2.26-1.29,5.52,5.52,0,0,0-2.73,5.8,1.5,1.5,0,0,0,2.5.66,22.72,22.72,0,0,0,3.17-5.4c.6-1.42-1.54-2.48-2.5-1.46a7.22,7.22,0,0,0-1.9,6.29,1.5,1.5,0,0,0,2.5.66c6.66-7.77,5.08-20.51-3.24-26.44a1.51,1.51,0,0,0-2.21.89l-3,13.56c-.4,1.87,2.39,2.67,2.9.8a149.51,149.51,0,0,0,3.21-14.92q.57-3.49,1-7c.15-1.26.28-2.53.39-3.8.1-1.07.52-2.68.21-3.72-.68-2.27-3.43-1.23-4.42.1-1.22,1.66-1.7,4.15-2.24,6.1a61.47,61.47,0,0,0-2.18,14.7,1.52,1.52,0,0,0,2.56,1.06,11.67,11.67,0,0,0,3.86-5.89,1.51,1.51,0,0,0-2.9-.8,8.89,8.89,0,0,1-3.08,4.57l2.56,1.06a57.12,57.12,0,0,1,1.19-10.27q.52-2.52,1.28-5c.22-.74.46-1.49.72-2.22a10.94,10.94,0,0,1,.45-1.25l.17-.29c.38-.29.22-.44-.48-.43l-.44-1.07A147.12,147.12,0,0,1,132.52,158l2.9.8,3-13.56-2.2.9c6.68,4.76,8,15.51,2.64,21.73l2.51.66a4,4,0,0,1,1.13-3.37l-2.51-1.46a18,18,0,0,1-2.4,4.08l2.51.66A2.45,2.45,0,0,1,141.4,166l-2.25-1.3a9.48,9.48,0,0,1-.53,4.16,5.82,5.82,0,0,1-1,1.78c-.08.09-.58.61-.77.55.29.1.12-.38.13-.52a14.77,14.77,0,0,1,2.6-8H137a5.45,5.45,0,0,1-1.29,6.87l2.51.66a23.31,23.31,0,0,1-.82-7.75c.09-1.29.29-4.42,2.24-4.22,2.18.22,2.33,2.87,1.74,4.44a9.56,9.56,0,0,1-4,4.59,11.32,11.32,0,0,1-5.59,1.69,7.62,7.62,0,0,1-2.77-.3c-1.05-.4-.7-1.93-.59-2.84.27-2.06,1-4.56,2.64-6,1.37-1.19,3.6-1,3.47,1.2-.23,3.92-3.55,7.59-6.88,9.3a5.82,5.82,0,0,1-2.69.87c-1.07-.06-1-1.22-1-2.06a20.1,20.1,0,0,1,1.88-6.27,26.13,26.13,0,0,1,3.53-5.75,8.6,8.6,0,0,1,2.08-2.09c.06,0,.35-.18.41-.14-.33-.2-.41.44-.43.5-.17.5-.21,1.1-.33,1.62a27.34,27.34,0,0,1-6.25,12.06c-1.11,1.23-3.35,3.51-5.13,2.12-1.31-1-1.42-3.18-1.42-4.7a25.36,25.36,0,0,1,7.18-17.33,10.64,10.64,0,0,1,2.2-1.87c.47-.28,1.45-.84,2-.54s.25,1.88.13,2.46a25.08,25.08,0,0,1-.92,3.32,24.77,24.77,0,0,1-3.1,5.92,21.56,21.56,0,0,1-2.07,2.51c-.36.38-1.45,1.79-2.07,1.58s-.69-1.32-.75-1.76a20.81,20.81,0,0,1,0-3.53,39.52,39.52,0,0,1,3.43-14.5c.12-.27.62-1.53,1-1.48.55.07.73,1.69.77,2.08a43.9,43.9,0,0,1,0,7.43,56.28,56.28,0,0,1-3.16,15,5.81,5.81,0,0,1-.57,1.39c-.15.21-.17.09,0,.14-.12,0-.35-.42-.39-.47a12.86,12.86,0,0,1-1.37-3,26.29,26.29,0,0,1-1.29-6.81,55.93,55.93,0,0,1,.1-7.09,53.61,53.61,0,0,1,.65-6.2c.3-1.57.77-3.52,2.07-4.59s3.19-.4,4.18.9c1.38,1.82,1.39,4.41,1.46,6.59a61.14,61.14,0,0,1-.27,7.89,57.89,57.89,0,0,1-1.3,7.61l3,.4a72.33,72.33,0,0,1,4.2-28.49l-2.94-.4c.81,7.78.38,18.13-8,21.84a11.6,11.6,0,0,1-5.63.73c-1.64-.1-4.87-.48-6,1-1,1.3-.68,3.47,0,4.84a5.63,5.63,0,0,0,3.76,3.1,1.52,1.52,0,0,0,1.9-1.45,50.9,50.9,0,0,0-1.73-15.58c-.51-1.9-3.19-1.06-2.89.8a17,17,0,0,1-1.18,9.38l2.8.76.5-6.22c.14-1.68-2.6-2-2.94-.4a40.66,40.66,0,0,0-.64,12.83c.42,3.63,1,8,3.4,11s6.85,2.92,10.39,3.09c3.91.2,7.86-.13,11.35-2a1.51,1.51,0,0,0-1.15-2.75l-2,.54,1.15,2.75L136,176.6,134.48,174a15.12,15.12,0,0,1-11.07,2.21l.89,2.2a12.35,12.35,0,0,1,6.33-4.6c1.27-.4,1.58-2.67,0-2.89a2,2,0,0,0-2.34,2.7c.63,1.79,2.67,1.54,4,.86a13.58,13.58,0,0,0,6.58-7.62,1.51,1.51,0,0,0-2.21-1.69l-3.19,2.33c-.94.68-1,2.47.36,2.74A11.35,11.35,0,0,0,146,164a17.68,17.68,0,0,0-.13-15.36c-.59-1.28-2.35-.73-2.74.35a17.61,17.61,0,0,0-1,7.3c.12,1.61,2.52,2.13,2.94.4,2.38-9.62-1.7-19.2-.73-28.88h-3a140.89,140.89,0,0,1-.25,20.85c-.14,1.72,2.51,2,2.95.4a75.78,75.78,0,0,0,3-22.4c-.17-5-1.78-11.13-7.24-12.59a1.51,1.51,0,0,0-1.69,2.2c1.24,2.15-1.76,4.3-3.7,4.24-3.09-.11-5.57-2.89-7.54-5l-1.82,2.36c2.65,1.95,4.26,5.78,2.93,8.95-.56,1.31-1.8,2.76-3.36,2.66a2.35,2.35,0,0,1-2.34-2.52c.2-1.77-2.43-1.91-3-.4-1.69,4.94-3.42,9.88-5.08,14.84-1.22,3.62-2.12,7.92.72,11a1.51,1.51,0,0,0,2.51-.66,31.56,31.56,0,0,0,.77-7.44c0-2-2.76-1.86-3,0-.74,5.75-1.58,11.5-2.19,17.26-.55,5.18-.53,10.43,1.69,15.25a1.5,1.5,0,0,0,1.69.69c2.69-.73,2-3.81,1.64-5.84l-1.93-9.54c-.35-1.73-2.85-1.21-3,.4a43.06,43.06,0,0,1-1.47,8.73l3,.4-.37-4.51a1.51,1.51,0,0,0-3-.4,13.8,13.8,0,0,0-1,5.31c0,1.63,2.7,2.13,3,.4a8.29,8.29,0,0,1,2.25-4.73L113,166.74a24.46,24.46,0,0,0,2.07,7.84,1.51,1.51,0,0,0,2.74-.36,63.88,63.88,0,0,0,1.44-16,1.5,1.5,0,0,0-3,0,143.51,143.51,0,0,0-1.15,14.51h3a82.84,82.84,0,0,1,3-26.72h-2.89a68.74,68.74,0,0,1,2.55,20.77l2.94-.4c-3-8.81-1.18-18.18.68-27l-3-.4a83.09,83.09,0,0,0,2.18,24.8c.23.93.35,1.83,1.34,2.21a2.63,2.63,0,0,0,2,0,4.63,4.63,0,0,0,2.35-3.43,46.61,46.61,0,0,0,.46-5.91l.42-6.37,1-14.7-3,.4a61.47,61.47,0,0,1-.43,26.52h2.9c-1-4.12-.54-8.34.38-12.43.42-1.89.88-3.78,1.44-5.63a9.81,9.81,0,0,1,1.85-3.76c2.11-2.37,4.4-.11,5.17,2.15,1,3,.59,6.52-.12,9.56a26.63,26.63,0,0,1-5.44,11l2.56,1.06a107.15,107.15,0,0,1,1.19-21.1l-2.95-.4a207.28,207.28,0,0,1-.37,24.42c-.11,1.57,2.05,1.93,2.8.76,8.67-13.6,14.86-29.88,11.72-46.18-.33-1.72-2.88-1.23-3,.4l-1.31,32.09-.32,8c-.09,2.26.12,4.9-.93,7-1.61,3.19-5.8,4-9,4.32-5.76.64-11.57,1-17.34,1.43-1.91.16-1.93,3.16,0,3Z"/><path class="cls-35" d="M140.3,149.74l-.2-5.11a1.5,1.5,0,0,0-2.94-.4L133,154.9a1.5,1.5,0,0,0,1.05,1.84,1.52,1.52,0,0,0,1.84-1.05L140.05,145l-3-.4.2,5.11a1.5,1.5,0,0,0,3,0Z"/><path class="cls-35" d="M136.2,154.88a35,35,0,0,0,.48-7.91,1.5,1.5,0,1,0-3,0,32.45,32.45,0,0,1,0,3.69c0,.61-.08,1.21-.15,1.81,0,.14,0,.29,0,.43-.05.36,0-.15,0,.18s-.1.67-.16,1a1.5,1.5,0,1,0,2.9.8Z"/><path class="cls-35" d="M123.09,155.66c-.06,3.43-.2,6.86-.14,10.28a5.44,5.44,0,0,0,1.46,4.05,4.57,4.57,0,0,0,3.6,1.08c2.86-.32,5.37-2.17,7.6-3.88s5.34-3.83,5.23-6.9a3.49,3.49,0,0,0-2.63-3.45,3.07,3.07,0,0,0-3.6,2.07,1.51,1.51,0,0,0,2.9.8c0,.08-.13.1-.18.14a.32.32,0,0,1,.19-.09.35.35,0,0,1,.14,0c.16.08,0,0,0,0a1.62,1.62,0,0,1-.3,1.86,13,13,0,0,1-2.24,2.14,29.93,29.93,0,0,1-2.61,2c-1.43,1-3.17,2.31-5,2.35a1.27,1.27,0,0,1-1.39-.78,7.79,7.79,0,0,1-.17-2.85c0-2.94.08-5.88.13-8.82,0-1.93-3-1.93-3,0Z"/><path class="cls-35" d="M128.44,164.73l.8,3.89A1.52,1.52,0,0,0,132,169a33.55,33.55,0,0,0,3-10c.31-2.34,1.1-6.61-1.47-8.06-3.07-1.73-5.07,2.79-6,4.89a29.57,29.57,0,0,0-2.5,10.13,1.51,1.51,0,0,0,2.26,1.29,16.68,16.68,0,0,0,8.26-13.94,1.5,1.5,0,0,0-2.25-1.29,31.86,31.86,0,0,0-12.87,15.2c-.65,1.57,2,2.64,2.74,1.15,1.49-2.83-1.27-5.88-4.23-5.67s-5.51,3.83-6,6.66a4.84,4.84,0,0,0,.78,3.95,2.87,2.87,0,0,0,3.8.42,10.05,10.05,0,0,0,3.19-4.17,14.57,14.57,0,0,0,1.34-5.47c.07-1.42-2.2-2.14-2.8-.76a42,42,0,0,0-2.44,7.33,1.51,1.51,0,0,0,1.85,1.84,5.59,5.59,0,0,0,3.5-2.95l-2.79-.75a16.28,16.28,0,0,1-.29,5.82l3,.4a3.37,3.37,0,0,0-4.44-3.09c-1.08.41-1.64,2.13-.36,2.74l2.49,1.19.36-2.74c-.6.24-.92,0-1-.62l-2.21,1.7c4,2.12,8.57,1.3,12.82.55a108.34,108.34,0,0,0,14.43-3.61c1.52-.49,1.37-3.16-.39-3a13.4,13.4,0,0,0-9.79,6,1.52,1.52,0,0,0,1.29,2.26,10.32,10.32,0,0,0,11-9.29,10.58,10.58,0,0,0-2.32-7.47,5.89,5.89,0,0,1-1.55-4.17,17,17,0,0,1,1.23-4.63c.59-1.61-1.94-2.64-2.74-1.16a18,18,0,0,0-1.35,14.19,1.52,1.52,0,0,0,2.74.36,13,13,0,0,0,1.8-11.82,1.52,1.52,0,0,0-2.74-.36,28.74,28.74,0,0,0-3.77,9.74l2.95.4a74.74,74.74,0,0,0-4.21-26.92c-.54-1.53-3-1.37-2.95.4l.28,19.8c0,1.63,2.61,2.11,2.95.4a158.68,158.68,0,0,0,3-28.6l-2.95.4a52.94,52.94,0,0,0,3.11,11.82,1.52,1.52,0,0,0,2.9,0c2.06-5.75,4-11.77,2.64-17.93a1.52,1.52,0,0,0-2.9,0A49.67,49.67,0,0,0,141,138.5c.19,1.89,3.14,1.94,3,0a149,149,0,0,0-2.41-18.12,1.51,1.51,0,0,0-2.89,0l-2.34,12.19c-.74,3.88-1.5,7.79-.55,11.71a1.51,1.51,0,0,0,2.89,0l4.79-15-2.89-.79-3,11.72,3,.4a60.84,60.84,0,0,0-3.53-19.76c-.46-1.29-2.55-1.55-2.89,0a100.93,100.93,0,0,1-6.6,20.13l2.74.36a11.21,11.21,0,0,1,1.73-9.63c1-1.37-1.29-3.15-2.35-1.82a67.83,67.83,0,0,0-9.6,16.37c-.56,1.36,1.6,2.61,2.51,1.46a59.59,59.59,0,0,0,9.62-17.7c.54-1.6-2-2.7-2.74-1.16a68.57,68.57,0,0,0-5.7,17.7,1.5,1.5,0,0,0,2.89.8,32.74,32.74,0,0,0,1.34-8.8,1.51,1.51,0,0,0-2.8-.75,28.89,28.89,0,0,0-3.83,7.27c-.82,2.29-1.75,5.23-1.47,7.69a3.92,3.92,0,0,0,1.28,2.65,2.25,2.25,0,0,0,2.86.05,5.78,5.78,0,0,0,.89-2l.84-2.25,1.69-4.5-2.9-.8a22.4,22.4,0,0,0-.55,7.16,1.5,1.5,0,0,0,3,0,48.29,48.29,0,0,0-2.5-22.67,1.51,1.51,0,0,0-3,.4,3.38,3.38,0,0,1-1.35,2.81,1.53,1.53,0,0,0,0,2.59,4.73,4.73,0,0,0,6.9-2.51,1.52,1.52,0,0,0-1.44-1.9l-7-.3.76,2.79c2.11-.92,3.86-.07,5.91.47a7.25,7.25,0,0,0,4.71-.3,7.71,7.71,0,0,0,4.75-7.58,1.51,1.51,0,0,0-2.79-.76,15,15,0,0,0-1.21,13.65,1.53,1.53,0,0,0,2.75.36c1.13-2.07.8-4.25.43-6.48-.26-1.51-.52-3.76,1.19-4.48l-2.21-1.7-1.33,4.66,2.89.8a11.79,11.79,0,0,0-1.38-9.44l-.23,1.82c1.38-1.49,3.75-1,5.55-.88,2.15.15,4.4.16,6.25-1.1a1.52,1.52,0,0,0-.36-2.74,8.34,8.34,0,0,0-6.77,1.28l2.2.89c-.61-1.56,2.9-2.08,3.85-2.43,1.64-.6,3.12-1.56,3.55-3.36h-2.89a3.06,3.06,0,0,1-.36,2.5l2.8.75.24-2.23a1.51,1.51,0,0,0-2.79-.76q-2.34,5.22-5,10.28c-1.59,3-3.12,6.41-5.94,8.44-4.72,3.39-11,3.59-15.73,7l2.26,1.3.91-7.36h-3a14.36,14.36,0,0,0,1.75,6.24c.84,1.55,3.08.45,2.74-1.15a27.64,27.64,0,0,0-2.33-6.63c-.53-1.08-2.56-.93-2.74.36a9.76,9.76,0,0,0,1.47,6.92c1.06,1.61,3.66.1,2.59-1.51a6.71,6.71,0,0,1-1.17-4.62l-2.74.36a24.75,24.75,0,0,1,2,5.91l2.74-1.15a11.06,11.06,0,0,1-1.34-4.73,1.5,1.5,0,0,0-3,0l-.91,7.36a1.51,1.51,0,0,0,2.26,1.3c4.93-3.53,11.46-3.69,16.28-7.41,2.89-2.22,4.55-5.53,6.24-8.68q2.82-5.25,5.26-10.7l-2.8-.75-.24,2.23c-.17,1.55,2.09,2,2.79.76a6.12,6.12,0,0,0,.66-4.8,1.51,1.51,0,0,0-2.89,0c-.39,1.62-3.42,1.71-4.68,2.33-1.86.91-3.56,2.88-2.72,5.05a1.52,1.52,0,0,0,2.2.9,5.44,5.44,0,0,1,4.46-1l-.36-2.74c-1.83,1.25-4.26.69-6.33.58-2.22-.11-4.48.16-6.07,1.87a1.51,1.51,0,0,0-.24,1.81,8.76,8.76,0,0,1,1.08,7.13,1.5,1.5,0,0,0,2.89.8l1.34-4.66a1.52,1.52,0,0,0-2.21-1.69c-2,.85-2.77,3-2.85,5.07-.08,2.23,1.29,4.89.16,7l2.74.36a12.17,12.17,0,0,1,.9-11.34l-2.8-.76a4.73,4.73,0,0,1-4.53,5.16c-1.51,0-2.92-.87-4.4-1.09a8.78,8.78,0,0,0-5,.75c-1.47.64-.59,2.74.75,2.8l7,.3-1.45-1.89a1.71,1.71,0,0,1-2.49.71v2.59a6.55,6.55,0,0,0,2.83-5.4l-2.94.39a46.4,46.4,0,0,1,2.39,21.88h3a19.44,19.44,0,0,1,.45-6.36,1.51,1.51,0,0,0-2.9-.8l-3,8.1,1-1.05c.53-.12.33.4.37-.15,0-.17-.09-.47-.09-.64a9.51,9.51,0,0,1,.21-1.77,27.74,27.74,0,0,1,1-3.92,26.44,26.44,0,0,1,3.74-7.16l-2.79-.76a29.66,29.66,0,0,1-1.23,8l2.89.8a65.47,65.47,0,0,1,5.4-17l-2.74-1.15a55.57,55.57,0,0,1-8.85,16.38l2.5,1.46A62.86,62.86,0,0,1,131.68,132l-2.36-1.81a14.1,14.1,0,0,0-2,11.94c.32,1.14,2.19,1.58,2.74.35a104,104,0,0,0,6.9-20.84H134a58.42,58.42,0,0,1,3.42,19,1.5,1.5,0,0,0,2.94.4l3-11.73a1.5,1.5,0,0,0-2.89-.79l-4.79,15h2.89c-.89-3.67,0-7.44.74-11.07l2.15-11.24h-2.89A142.48,142.48,0,0,1,141,138.5h3a47,47,0,0,1,1.17-16.07h-2.9c1.24,5.57-.77,11.15-2.64,16.34h2.9A52.16,52.16,0,0,1,139.37,127c-.25-1.72-2.93-1.24-3,.39a153.5,153.5,0,0,1-2.86,27.8l2.94.4-.28-19.8-2.95.4a72.13,72.13,0,0,1,4.11,26.12c0,1.66,2.63,2.09,3,.4a26.28,26.28,0,0,1,3.46-9l-2.74-.35a10.18,10.18,0,0,1-1.5,9.5l2.74.36a15,15,0,0,1,1.05-11.88l-2.74-1.15c-.92,2.49-1.78,5.23-1.11,7.89.62,2.5,2.88,4.06,3.49,6.58a7.31,7.31,0,0,1-7.81,8.89l1.3,2.26a10.15,10.15,0,0,1,7.2-4.56l-.4-2.95a104.48,104.48,0,0,1-13,3.35c-3.74.72-8.36,1.91-11.92,0a1.52,1.52,0,0,0-2.2,1.69,3.56,3.56,0,0,0,4.7,2.71c1.07-.42,1.64-2.12.36-2.74l-2.5-1.19-.35,2.74c.22-.09.62-.16.64.2.08,1.63,2.54,2.12,2.94.4a18.68,18.68,0,0,0,.4-6.62c-.16-1.3-2.08-2.27-2.8-.76a2.67,2.67,0,0,1-1.71,1.57l1.84,1.84a38.23,38.23,0,0,1,2.14-6.6l-2.79-.76a11,11,0,0,1-1.71,5.39c-.17.27-1.19,1.86-1.45,1.82.19,0,0-.08,0-.36a5.89,5.89,0,0,1,0-.84,6.55,6.55,0,0,1,2.18-3.89,1.66,1.66,0,0,1,1.77-.39c.35.16,1,.62.77,1l2.74,1.15a28.49,28.49,0,0,1,11.49-13.4l-2.26-1.3a13.62,13.62,0,0,1-6.78,11.35l2.26,1.3a26.51,26.51,0,0,1,1.5-7.14,25,25,0,0,1,1.47-3.26c.27-.5.56-1,.87-1.48a3.36,3.36,0,0,1,.29-.44s-.24-.37,0,.06a6.31,6.31,0,0,1,.13,2.87,27.58,27.58,0,0,1-.44,3.61,30.66,30.66,0,0,1-2.35,7.3l2.74.36-.81-3.89c-.39-1.89-3.28-1.09-2.89.8Z"/><path class="cls-35" d="M134.88,135.91a12.77,12.77,0,0,1,5.58,9l2.74-1.16a23.58,23.58,0,0,1-2.48-11.19c.05-2-2.81-1.89-3,0l-1.57,15.65c-.17,1.7,2.53,2,2.95.39a48.26,48.26,0,0,0-.53-25.95,1.52,1.52,0,0,0-2.74-.35,25.56,25.56,0,0,0-3.19,9,1.51,1.51,0,0,0,2.74,1.15l3.73-5.54c.81-1.2-.84-2.94-2.05-2a44.94,44.94,0,0,0-7,6.37l2.51.66a12.21,12.21,0,0,1-.67-5.22,1.51,1.51,0,0,0-2.79-.76,47.1,47.1,0,0,1-4,7.07c-1.1,1.59,1.49,3.07,2.59,1.51q2.88-4.06,5.87-8c.89-1.18-.88-2.92-2-2a6.45,6.45,0,0,0-2.76,5.09,1.51,1.51,0,0,0,1.9,1.45,84.22,84.22,0,0,0,17-8.57c.62-.41,1.23-.82,1.84-1.25a5.81,5.81,0,0,0,1.63-1.31,2.18,2.18,0,0,0-1-3,2.36,2.36,0,0,0-3,.76c-.83,1.16-.5,2.42-.23,3.7.32,1.45-1.07,2.73-1.91,3.81-1,1.3-2.07,2.54-3.17,3.75-2,2.22-4.78,4.26-5.51,7.33s-.06,6.56.12,9.66l.6,10.28c.21,3.51.59,7.06.51,10.58-.05,2.59-.44,5.71-2.65,7.41a1.52,1.52,0,0,0,.76,2.8,14.18,14.18,0,0,0,13.81-11.72c.28-1.89-2.61-2.7-2.89-.8a11.22,11.22,0,0,1-10.92,9.52l.75,2.79c2.85-2.19,3.87-5.42,4.1-8.91.26-4.1-.27-8.3-.51-12.4l-.84-14.2c-.12-2.12-.37-4.29.94-6.11a58,58,0,0,1,4.15-4.44A62.38,62.38,0,0,0,148.8,125a5.2,5.2,0,0,0,1.22-3,7.06,7.06,0,0,0-.29-1.64c-.06-.2-.1-.41-.17-.61a.65.65,0,0,1,0-.31q.15-.73-1.17-.69l.68-.89a82.09,82.09,0,0,1-19.24,10.29l1.89,1.44A3.21,3.21,0,0,1,133,127L131,125q-3,4-5.87,8l2.59,1.51a47,47,0,0,0,4-7.06l-2.8-.76a14.49,14.49,0,0,0,.77,6,1.52,1.52,0,0,0,2.51.66,41,41,0,0,1,6.38-5.9l-2-2-3.73,5.54,2.75,1.15a23.33,23.33,0,0,1,2.88-8.25l-2.74-.36a45.29,45.29,0,0,1,.53,24.36l2.94.4,1.57-15.65h-3a26.72,26.72,0,0,0,2.89,12.71c.83,1.66,2.95.38,2.74-1.16a15.57,15.57,0,0,0-6.95-10.82c-1.62-1.06-3.13,1.54-1.52,2.59Z"/></g></g></svg>