<svg xmlns="http://www.w3.org/2000/svg" viewBox="0 0 439.2 402.7"><defs><style>.cls-1{fill:#999;}.cls-2{fill:#ccc;}.cls-3{fill:#d168cb;}.cls-4{fill:#edc3e9;}.cls-5{fill:#385a64;}.cls-6{fill:#1b2e35;}.cls-7{fill:#b25aad;}.cls-8{fill:#fdbda7;}.cls-9{fill:#e0e0e0;}.cls-10{fill:#fefefe;}.cls-11{fill:#d67bd1;}.cls-12{fill:#1c2f36;}.cls-13{fill:#b3b3b3;}.cls-14{fill:#d068ca;}.cls-15{fill:#fdfdfd;}.cls-16{fill:#1d2f37;}.cls-17{fill:#944990;}.cls-18{fill:#e196dc;}.cls-19{fill:#ebebeb;}.cls-20{fill:#fcbda7;}.cls-21{fill:#fca8a8;}.cls-22{fill:#a851a5;}.cls-23{fill:#da83d5;}.cls-24{fill:#eaeaea;}.cls-25{fill:#d16acb;}.cls-26{fill:#dc89d7;}.cls-27{fill:#dd8ad7;}.cls-28{fill:#395b64;}.cls-29{fill:#cf6aca;}.cls-30{fill:#e7ade2;}.cls-31{fill:#e9e9e9;}.cls-32{fill:#f7f5f8;}.cls-33{fill:#9e539a;}.cls-34{fill:#23333a;}.cls-35{fill:#ececec;}.cls-36{fill:#f99d86;}.cls-37{fill:#ededed;}.cls-38{fill:#d781d3;}.cls-39{fill:#d271cd;}.cls-40{fill:#3e5b63;}.cls-41{fill:#aa519e;}.cls-42{fill:#21373e;}.cls-43{fill:#efefef;}.cls-44{fill:#3a4546;}.cls-45{fill:#f2ebf2;}.cls-46{fill:#b66bb1;}.cls-47{fill:#da8ad2;}.cls-48{fill:#786775;}.cls-49{fill:#2c444e;}.cls-50{fill:#bc5db6;}.cls-51{fill:#e0dfe0;}.cls-52{fill:#bc5db7;}.cls-53{fill:#e0abdc;}.cls-54{fill:#ebb3e6;}.cls-55{fill:#395a65;}.cls-56{fill:#f8f7f8;}.cls-57{fill:#d26ccc;}.cls-58{fill:#fabca7;}.cls-59{fill:#f8f6f8;}.cls-60{fill:#3a5b64;}.cls-61{fill:#ac56a8;}.cls-62{fill:#496770;}.cls-63{fill:#ce6ac8;}.cls-64{fill:#e2dbe1;}.cls-65{fill:#e7b0e3;}.cls-66{fill:#be62b8;}.cls-67{fill:#e1dbe1;}.cls-68{fill:#526f77;}.cls-69{fill:#8d498c;}.cls-70{fill:#e1d8e1;}.cls-71{fill:#bd65b8;}.cls-72{fill:#4a6970;}.cls-73{fill:#aab7b9;}.cls-74{fill:#2c454f;}.cls-75{fill:#375963;}.cls-76{fill:#fbbda7;}.cls-77{fill:#3c5d66;}.cls-78{fill:#3a5a64;}.cls-79{fill:#30474f;}.cls-80{fill:#2c3e45;}.cls-81{fill:#375760;}.cls-82{fill:#304951;}.cls-83{fill:#263940;}.cls-84{fill:#395861;}.cls-85{fill:#395a63;}.cls-86{fill:#283c43;}.cls-87{fill:#1d343f;}.cls-88{fill:#233c46;}.cls-89{fill:#223f47;}.cls-90{fill:#1a2e34;}.cls-91{fill:#3c5b64;}.cls-92{fill:#1e3036;}.cls-93{fill:#283e45;}.cls-94{fill:#a1a09f;}.cls-95{fill:#f9f9f9;}.cls-96{fill:#2b444e;}.cls-97{fill:#cf68c9;}.cls-98{fill:#a4b2b8;}.cls-99{fill:#e5a6e0;}.cls-100{fill:#db86d5;}.cls-101{fill:#fcfbfc;}.cls-102{fill:#f99e8a;}.cls-103{fill:#de8bd5;}.cls-104{fill:#d07cc9;}.cls-105{fill:#e9e1e8;}.cls-106{fill:#f4f4f4;}.cls-107{fill:#ebe7ed;}.cls-108{fill:#d77cc4;}.cls-109{fill:#1f2f38;}.cls-110{fill:#fc9d7e;}.cls-111{fill:#fa9f81;}.cls-112{fill:#404042;}.cls-113{fill:#d58076;}.cls-114{fill:#363b3c;}.cls-115{fill:#494948;}.cls-116{fill:#ca6cc3;}.cls-117{fill:#f4e9f4;}.cls-118{fill:#ca72c4;}.cls-119{fill:#e8e8e8;}.cls-120{fill:#e3e3e3;}.cls-121{fill:#385964;}.cls-122{fill:#ebeaeb;}.cls-123{fill:#d16ccc;}.cls-124{fill:#324e57;}.cls-125{fill:#f8ac93;}.cls-126{fill:#f7a98b;}.cls-127{fill:#eaeded;}.cls-128{fill:#e8e8e9;}.cls-129{fill:#172c32;}.cls-130{fill:#1b323a;}.cls-131{fill:#1a3037;}.cls-132{fill:#1b3038;}.cls-133{fill:#1b3239;}.cls-134{fill:#1b3037;}.cls-135{fill:#c1c8c9;}.cls-136{fill:#203a42;}.cls-137{fill:#223a44;}.cls-138{fill:#2d4750;}.cls-139{fill:#20343b;}.cls-140{fill:#bc6eb6;}.cls-141{fill:#c06ebb;}.cls-142{fill:#bf6dba;}.cls-143{fill:#a1629c;}.cls-144{fill:#9f5f9a;}.cls-145{fill:#c16ebd;}.cls-146{fill:#9e629b;}.cls-147{fill:#985495;}.cls-148{fill:#a569a2;}.cls-149{fill:#d169cb;}.cls-150{fill:#be61b8;}.cls-151{fill:#1c2f37;}.cls-152{fill:#4e5c6f;}.cls-153{fill:#365861;}.cls-154{fill:#375862;}.cls-155{fill:#263f49;}.cls-156{fill:#1f3840;}.cls-157{fill:#223c45;}.cls-158{fill:#19333c;}.cls-159{fill:#203a43;}.cls-160{fill:#223c46;}.cls-161{fill:#233d46;}.cls-162{fill:#223d47;}.cls-163{fill:#233d47;}.cls-164{fill:#3c5d67;}.cls-165{fill:#3b5d66;}.cls-166{fill:#010101;}.cls-167{fill:#faae94;}.cls-168{fill:#f9ac91;}.cls-169{fill:#f9a98d;}.cls-170{fill:#36535f;}.cls-171{fill:#f2f2f2;}.cls-172{fill:#375962;}.cls-173{fill:#1d343b;}.cls-174{fill:#365862;}.cls-175{fill:#35555f;}.cls-176{fill:#365761;}.cls-177{fill:#355761;}.cls-178{fill:#304f58;}.cls-179{fill:#33545d;}.cls-180{fill:#34545e;}.cls-181{fill:#375861;}.cls-182{fill:#355861;}.cls-183{fill:#1f353d;}.cls-184{fill:#1f373f;}.cls-185{fill:#34535c;}.cls-186{fill:#33525b;}.cls-187{fill:#33545c;}.cls-188{fill:#1c353c;}.cls-189{fill:#dedede;}.cls-190{fill:#ecbbe8;}.cls-191{fill:#93478f;}.cls-192{fill:#743872;}.cls-193{fill:#93488f;}.cls-194{fill:#743772;}.cls-195{fill:#753973;}.cls-196{fill:#dd88d7;}.cls-197{fill:#f2d2f0;}.cls-198{fill:#773a75;}.cls-199{fill:#c77bc1;}.cls-200{fill:#f2d1f0;}.cls-201{fill:#f2d3f0;}.cls-202{fill:#dd8bd7;}.cls-203{fill:#f2d0ef;}.cls-204{fill:#934790;}.cls-205{fill:#c983c3;}.cls-206{fill:#375761;}.cls-207{fill:#fefdfe;}.cls-208{fill:#c67ac1;}.cls-209{fill:#de8fd7;}</style></defs><title>Recurso 8</title><g id="Capa_2" data-name="Capa 2"><g id="Capa_1-2" data-name="Capa 1"><path class="cls-1" d="M12.2,313.63a77.46,77.46,0,0,1-12-37.16c-1.46-20.66,5.25-38.94,16.29-55.89,1.81-2.77,3.59-6,6.82-7.63a4,4,0,0,1,1,3.14c-2.46,13.23-5.79,26.29-8.23,39.53a10.08,10.08,0,0,1-1.49,4.14c-6.25,5.42-6.27,5.45,1.51,9.59,8,4.27,15.86,8.87,23.56,13.68,3.57,2.22,6.42,2.07,10,0,3.87-2.26,7.27-5.83,12.29-5.7,2.46,2.24,3,6.12,6.52,7.47,1.18.73,2.68.79,3.76,1.74a3.18,3.18,0,0,1,.45,1.36c-2.28,9-1.36,11,6.71,15.68,39.44,23,79.16,45.57,118.61,68.58a36.13,36.13,0,0,0,4.93,2.39c3.83,1.56,7.14.06,10.34-1.8,17.88-10.39,35.85-20.6,53.72-31,4.29-2.5,8.58-5,12.94-7.36,1.44-.78,2.81-1.83,4.62-1.43,3,1.78.7,3.92.41,5.93q-.68,2.79-1.62,5.5c-.67,1.72-1.21,3.48-1.8,5.23a27.86,27.86,0,0,1-1.38,3.17,10.49,10.49,0,0,1-2.46,3.34c-4.42,3.27-9.47,5.58-13.69,9.13-2.06,1.67-.93,2.85.67,3.79,8.17,4.8,16.41,9.45,24.64,14.13,2.29,1.3,4.47.88,6.6-.36,7.76-4.5,15.62-8.82,23.32-13.41,1.39-.83,4.45-1.53,1.59-4.18-4.55-3.55-9.72-6.05-14.76-8.77a4,4,0,0,1-1.07-.89c-1-1.82-1.25-3.9-2.19-5.74a15.9,15.9,0,0,0-1.8-4.17c-.53-1.83-.19-4-2-5.31-1.52-1.76.37-4.25-1.3-6-.51-1.76-.92-3.55-1.42-5.31a4.12,4.12,0,0,1,.86-4.1c10.08-7,21.12-12.43,31.61-18.77,5.53-3.35,11.24-6.4,16.77-9.75,1.83-1.11,3.63-2.37,5.93-2.35a3.5,3.5,0,0,1,2.71,2.6,4.57,4.57,0,0,1-.34,3.11c-1.2,1.82-3.2,2.25-5.06,2.91a66.76,66.76,0,0,0-17.22,8.71c-13.72,10-14.81,25.34-2.17,36.66,9.73,8.71,21.75,12.29,34.41,14.15,3.22.47,6.63.27,9.49,2.3-10.35,7.38-22.1,12-33.76,16.69-22.79,9.16-46.63,14.54-70.87,18.1a345.05,345.05,0,0,1-67.36,2.91,342.42,342.42,0,0,1-62.08-8.82A276.62,276.62,0,0,1,75.05,370a187.47,187.47,0,0,1-38.75-26.6,119.42,119.42,0,0,1-21.13-24.75c4.4-2.73,8.66-2.4,13.05.24,16.63,10,33.59,19.44,50.33,29.26,6.06,3.56,12.23,6.63,19.3,7.6,6.86.93,12.91,3.88,18.82,7.38,8.27,4.89,16.51,9.85,25.11,14.18-9.73-6-19.78-11.39-29.54-17.29-2.51-1.52-5.29-3-5.59-6.47a3.46,3.46,0,0,1,3-2c3.38.19,5.72,2.71,8.66,3.88,7.72,4.54,15.42,9.11,23.15,13.43-4.86-3.86-10.55-6.58-16-9.75-3.61-2.37-7.44-4.36-11.16-6.53-1.58-.92-3.29-1.63-4.13-3.43-.54-1.45-.84-3-2.06-4.13-4-4.51-8.78-8.2-13.55-11.85-2.22-1.61-4.7-2.85-6.58-4.91-7.63-5.16-16.11-8.75-24.29-12.89C53.58,309.09,42.84,303.7,32.87,297c-.25-.61,0,.22-.27-.4-1.3-3.34-2-7.62-6.39-7.88s-7,3-9.27,6.44A16.74,16.74,0,0,0,14.38,301c-1.88,3.85.69,7.15,1.33,10.7C15.11,313.41,14,314.19,12.2,313.63Z"/><path class="cls-2" d="M373.27,364.51c-17-1.34-33.5-4.51-46.37-17-11.43-11.11-9.79-27.37,3.18-36.78,7.08-5.14,15.12-8.06,23.17-11.06,1.13.91,1.16,2.16,1.07,3.45-.41,2.19-1.87,3.82-3,5.61-.79,1.06-1.47,2.2-2.32,3.22a13.14,13.14,0,0,1-2.89,2.41c-.85.52-1.64,1.13-2.46,1.7-.67.41-1.38.76-2.07,1.15-.34.22-.69.41-1,.62-.9.55-1.7,1.24-2.6,1.79-1.14.68-2.4,1.15-3.48,1.9-4.08,2.81-3.86,6.81.52,9.77a12.36,12.36,0,0,0,4,1c1.89.07,3.78.07,5.66,0,5.1-.34,8.95-3.27,12.8-6.18,1.1-.81,2.05-1.8,3.13-2.65a6.26,6.26,0,0,1,1.21-.68c3-1.38,6.84-1.26,8.58-4.85a56.15,56.15,0,0,0-1.26-11.93,23.26,23.26,0,0,0-.77-3.69,10.4,10.4,0,0,1,.15-5.56,2.1,2.1,0,0,1,1.88-1.33c5.6.19,11.18.67,16.77.94,2.66.13,5.29.25,7.73,1.48a8.47,8.47,0,0,1,3.08,3.55,18.56,18.56,0,0,1,2,8,7.43,7.43,0,0,0,.42,5c1.34,6,2.22,12.11,1.43,18.29-.24,1.85.35,3.55.56,5.31.09,3.48.35,6.92,2.67,9.8,4.22,3.9,11.93,1.95,13.85-3.54a15.08,15.08,0,0,0,.77-7.73c-.56-6.16-3.7-11.64-4.68-17.68-.26-2.24.13-4.54-.6-6.74a29.45,29.45,0,0,1-.6-2.94c-.31-1.46-.82-2.92.09-4.36,6.52.14,10.5,4.34,14.24,8.92,2.94,4.7,6.5,8.93,7.13,14.94,1.47,14-10.86,23.74-21.92,28.68C400.59,363,387.09,364.78,373.27,364.51Z"/><path class="cls-3" d="M81.91,5.73c15.17,6.49,17.37,19.1,14.55,35.59a57.88,57.88,0,0,1-6.8,19.13c-2.12,3.68-.83,5.86,1.49,8.21a22.3,22.3,0,0,0,9.4,5.41c.75.24,1.78.21,2,1.22.24,1.25-.81,1.68-1.68,2.12-5.86,3-12,2.71-17.89.62-3-1.08-4.84-.53-6.94,1.69-5.75,6.12-12.34,11-20.52,13.58C47,96,39.89,93.21,33.21,88.24c-7.58-14.5-5.22-28.89.71-43.1C39,32.85,46.52,22.21,57.21,14.06,64.49,8.51,72.27,4.35,81.91,5.73Z"/><path class="cls-1" d="M276.69,6.51c1.46,1.74.78,3.82.79,5.74,0,41.81.11,83.61-.07,125.42,0,5.12,1.27,6.79,6.67,7.74A285.59,285.59,0,0,1,345.31,163c1.44,1,1,3.49,3.09,4,1.77.84,4.06.45,5.4,2.29.61,1.94-.17,3.12-2,3.73-5,.89-7.43,7.5-4.33,12.31a11.67,11.67,0,0,1,2.3,6.27c-.14,5.68.55,11.37-.44,17-1.95,3.35-4,.88-5.77-.1-12.41-7-24.59-14.42-37.05-21.32-9.26-5.14-18-11.26-27.81-15.39-1.95-.88-4.88-.56-4.8-3.93a59.14,59.14,0,0,0,1-12.39q0-69.77,0-139.54c0-3-.47-6,1-8.8Z"/><path class="cls-4" d="M411.13,180c8.19,1.22,17.2,12.94,17.89,25.34.23,4.17,1.1,8.56-1,12.61-2.58-.14-2.91-2.4-3.59-4.1-1.48-3.68-3.55-7.11-4.77-10.88-.9-2.76-3.05-3.8-5.52-4.31-.52-.11.73.67.23,1.22-1.52,1.47-3.39,2.71-3.28,5.19.12,5.19,3.29,9.28,5,13.88.69,1.85,1.83,3.54,2.21,5.52.43,2.28,0,4-2.9,3.77-10.59-6.57-14.84-16.95-17.14-28.5A18.46,18.46,0,0,0,395,196q-35.89-35.91-71.78-71.84c-2.43-2.44-4.73-4.23-8.21-2.16a10.27,10.27,0,0,1-3.7.33c-4-.59-7.25-2.32-9.34-5.9.72-5.84-.84-10.4-7-12.37-.95-1.49-.89-3.33-1.66-4.88-2.27-5.22-.64-10.67-1-16,2.08-1.74,2.62-.33,3.36,1.45,2.19,5.28,4.61,10.48,6.84,15.75,1,2.36,2.16,3.74,4.7,1.79,4.13.45,3.37-3.1,4.29-5.26-.22-5.79-3.84-10.36-5.56-15.6-.65-2-2.28-3.79-.61-6,5.28-.06,7.78,4,10.6,7.37a27.08,27.08,0,0,1,6.12,15,11.08,11.08,0,0,0,4.22,8c5.16,4.34,8.68,10.47,15,13.55,3.08,2.53,5.61,5.64,8.55,8.32q3,3.16,6.22,6.19c4.91,5,9.92,9.81,14.75,14.83,1.24,1.29,3.42,2.38,2.15,4.87-2.21.69-4.27-.15-6.38-.6-2.85-1.5-4.77-4.07-7-6.27C350,137,340.4,127.32,330.74,117.76c-1.08-1.07-2.28-3.32-3.95-2s-.23,3.49.81,4.85a94.56,94.56,0,0,0,13.85,14.22c7.06,6.06,13.37,12.85,20.08,19.26a12.64,12.64,0,0,0,1.59,1.22c4.71,2,6,7.36,9.93,10.15,6.24,6.63,12.82,12.92,19.25,19.36,1,1,2.17,2.82,3.66,1.68,1.69-1.29.43-3.13-.54-4.39-2.92-3.82-6.58-6.92-10.08-10.18-2.33-2.18-6.32-3.6-5.24-8.09,2.53-1.18,3.89,1,5.57,2a57,57,0,0,0,5.47,3.24,12.2,12.2,0,0,1,2.31,1.5,31.26,31.26,0,0,0,3.32,3.29c3.21,4.13,6.44,8.15,12.62,5.36C410,179,410.64,179.51,411.13,180Z"/><path class="cls-1" d="M415.06,227.74c3.58,0,2.59-2.26,1.86-4-1.76-4.24-3.85-8.34-5.6-12.58-.81-2-2.67-3.85-1.21-6.29,4.48,1.69,6,6.35,9.28,9.25,1.23,1.09,1.89,2.71,3.3,3.63.89.66,1.95,1.13,2.44,2.21-2.14,1.35-.75,2.61,0,4,5.85,10.79,11.17,21.74,13.05,34.1A82.68,82.68,0,0,1,431.46,306c-1.16,2.55-2.92,4.85-3.38,7.71-4.63-3-8.72-6.88-13.92-9-1.4-1.32-1.27-3-1.14-4.69a12.61,12.61,0,0,0,0-7.15c-.05-12.88-1.31-25.71-1.68-38.57-.13-4.36-3.22-8-2.67-12.5.2-4.77-.71-9.6.76-14.3C411.43,225.42,413.25,226.54,415.06,227.74Z"/><path class="cls-5" d="M63.76,119c.84-2.79,3.15-4.16,5.45-5.49q96.49-55.71,193-111.37c6.73-3.88,11.3-2.4,14.48,4.4l-.39-.14c-6.49.34-11.29,4.52-16.53,7.53-58,33.36-115.79,67-173.86,100.24-5,2.87-9.7,6.34-15,8.8A10,10,0,0,1,63.76,119Z"/><path class="cls-6" d="M63.76,119c2.82.18,4.56,2.72,7.22,3.26,1,1.07,1,2.4.94,3.74-.63,49.42-.08,98.85-.31,148.28,0,3.66.54,7.26.73,10.89-1.17,1.84-2.82.93-4.34.74-3.88-1.33-5.08-4.64-6-8.14-1.42-1.65-1.48-3.66-1.48-5.66,0-13.29-.2-26.58.1-39.87-.23-3.82-.05-7.63,0-11.45-.24-9.54-.14-19.08,0-28.61.13-4.09-1.07-8.33,1.32-12.17q.09-26.74.18-53.47C62.13,123.87,62,121.22,63.76,119Z"/><path class="cls-7" d="M81.91,5.73C74.25,7,66.6,8.35,60.27,13.34,39.77,29.52,28.45,50.08,30.17,76.8c.18,2.68,1.38,5.07,2.44,7.51.52,1.19,2.24,2.35.6,3.93C19.92,82.86,16.54,72.52,18.45,57.86,21.23,36.52,31.57,19.07,49.24,6.43,59.84-1.14,70.84-2.54,81.91,5.73Z"/><path class="cls-6" d="M402,102.94c9.29,1.73,15.32,6.66,17.72,16.26,2.67,10.69,6.68,21,8.66,31.93.84,4.66-.78,7.38-4.78,9-4.43,1.79-8.94,3.35-13.42,5-.62.34-1.27.61-1.91.9-2.82.88-3.05-1.43-3.83-3.08-.45-3.79-2.53-6.85-4.54-9.93.33-2.32,2.49-2.64,4-3.68,3-1.1,3.87-3.08,2.62-6.09-.74-1.79-1.28-3.66-2-5.47-3.51-8.35-7.42-16.62-6.58-26C398.2,108.42,398.08,104.71,402,102.94Z"/><path class="cls-8" d="M397,81a11.13,11.13,0,0,1-5.85,7.25c-1.05.77-2.78,1.07-2.09,3-1.29,2.62-.87,5.4-.78,8.15,1.9,2.81.8,5.42-.49,8-4.41,4.11-9.9,5.09-15.58,4.8-3.12-.16-6.21-1.33-7-5.16-.06-3.64,2.35-5.67,5-7.57,2.81-1.3,3.15-3,.15-4.19-7.91-3-9.8-5.38-10.06-13.69a13.35,13.35,0,0,0-.84-5.35c.69-4.07-2.09-8.45,1.1-12.3,3.1-2.74,6.11-2.11,9.07.24,3.85,3.31,8,5.77,13.35,5.89,1.66,0,3.61.35,3.56,2.59-.08,3.59,1.59,3.8,4.35,2.74a5.69,5.69,0,0,1,3.92,0,3.89,3.89,0,0,1,1.71,1.31C397.43,78.1,396.92,79.57,397,81Z"/><path class="cls-3" d="M387.14,107.3c.37-2.62.75-5.25,1.12-7.88L402,102.94c-4.25,6.77-3.49,13.91-1.32,21,1.43,4.73,3.34,9.32,5,14-.73,1.4-.26,3-.81,4.45a13.92,13.92,0,0,0-.15,6.48,2.37,2.37,0,0,1-.42,1.25l-3.83,2.81c-4.15,3.3-8.33,6.49-14.16,5.36a5.4,5.4,0,0,1-1.53-3.57c-1.89-14.14-2.5-28.27.37-42.37A16.34,16.34,0,0,1,387.14,107.3Z"/><path class="cls-9" d="M12.2,313.63c1.14-.61,2.45-1,3.11-2.25,3.09-1.22,6.41.31,9.51-.77,6.07,1.35,10.73,5.51,16.09,8.26s10.27,5.83,15.34,8.85c7.86,5.25,15.35,11.09,24.28,14.55A41.62,41.62,0,0,1,86.46,345c5.63,3.52,12.1,4.8,18.31,6.78a3.67,3.67,0,0,1,2.2,1.94c4.77,6.41,12.4,8.61,18.76,12.66,5.16,3.27,10.64,6.06,16,9.06a7.55,7.55,0,0,1,3.63,3.77c-3.8,0-6.7-1.75-9.59-3.44q-14-8.1-27.85-16.27c-1.82-1.08-3.85-1.07-5.76-1.33-13.39-1.77-24.37-8.91-35.61-15.56-13.38-7.92-27-15.47-40.28-23.53-3.92-2.38-7.42.2-11.07-.42C12.27,318.09,10.05,317.16,12.2,313.63Z"/><path class="cls-3" d="M321.42,54c-1.39,1.19-2.66.94-2.9-.82-.74-5.52-4.69-8.06-9.11-10.15-3.13-1.47-4.32-3.72-4.05-7.14.6-7.86-1-15.81.88-23.63.16-.05.36-.19.47-.14,9.13,4.11,18.16,8.39,25.63,15.3,1.28,9-.16,18,1,27-3.81,2.32-5.84-2.17-9-2.36C322.6,51.58,322.22,53.09,321.42,54Z"/><path class="cls-10" d="M420.14,41.37c-.09,2.29-.2,4.3-3.59,3.32-2.61-.75-4.83,1.49-7.4,1.65a1.34,1.34,0,0,1-.12-1.27c1-1,.36-2.88,2.59-3.52-2.28.51-1.56,2.71-3,3.38-2.26.77-4.18,1-5.06-2-.66-2.25-2.57-2.74-4.72-2.61-4.21.24-5.34-.89-4.43-4.79a5,5,0,0,0-1.9-5.6c-2.79-2.22-2.57-4.72.67-6.51,2-1.11,3-2.48,2.49-4.78-.31-3.77,1.27-5.59,4.43-4.44,2.71,1,4.16.53,5.7-1.84s4.74-2,6.22.53c1.35,2.32,2.89,3.1,5.61,2.69,3.16-.48,4.64,1.79,3.75,5.14-.72,2.72-.32,4.85,2.88,5.5,1.3,2.73,1.45,5-2,6.33a3.27,3.27,0,0,0-2.07,4.39c1.27,2.82-1,3.74-2.58,5C418.49,42.19,419.06,40.55,420.14,41.37Z"/><path class="cls-11" d="M315.4,121.08c2.07-2.18,4-2.44,6.29-.1q38.49,38.6,77.08,77.08a4.26,4.26,0,0,1,.51.85,14.15,14.15,0,0,1-3.13,4.23c-7.55-8.7-16.47-16-24.35-24.38-6.07-5.79-11.35-12.39-18.18-17.38-1-.5-2.36-.56-2.27-2.16,1-.28,2.27-.77.8-1.73-4.28-2.79-6.5-7.64-10.76-10.4-3.73-1.4-5.76-4.79-8.47-7.35-4.42-4.18-8.64-8.58-13-12.88C318.45,124.93,316,123.7,315.4,121.08Z"/><path class="cls-10" d="M151.83,27.39c-2.52,1.63-2.7,3.65-1,6,2.17,1.37,3.55,3.13,2.76,5.89-2.47,2.25-6.23,3.54-4.49,8.44.46,1.29-1.86,3.95-4.65,2.6s-4.49-.86-6,1.95c-1.37,2.46-4.53,2.29-5.77-.32s-2.87-3.53-5.77-3.27c-3.16.29-4.8-1.84-3.82-4.82.66-2,.52-3.45-1.21-4.76-3.58-2.69-3.34-4.93.54-7.36a4,4,0,0,0,1.92-4.56c-.66-3.41,1.17-5,4.6-4.75h0c2.51,1.74,4.05.62,5.63-1.56,2-2.76,4.36-2.72,6.1.23,1.47,2.5,3,3.57,5.94,2.69S149.88,26.44,151.83,27.39Z"/><path class="cls-3" d="M395.81,77.28l-.64-.92c-3-2.13-6.36-3.67-8.69-6.63-2.27-4.32-6.34-7-9.62-10.39a2.88,2.88,0,0,1-.07-2.16A10.64,10.64,0,0,1,381.21,53c4.33-2.42,8.59-2.08,12.8.31,5.07,7.73,8.91,15.66,4.15,25C397,78.84,396.61,77.6,395.81,77.28Z"/><path class="cls-12" d="M320.47,126.24c7.26,6.66,14.33,13.51,20.92,20.85-3.72,4-7.78,3.94-12,.9-6.46-4.65-12.75-9.51-17.77-15.78C314.86,130.64,317.27,127.86,320.47,126.24Z"/><path class="cls-13" d="M61.94,180l0,12c-.58,5-4.43,6.18-8.41,7.21a15.13,15.13,0,0,0-4.86,1.74c-2.64,2.92-5.22,6-9.7,5.77a3.71,3.71,0,0,1-2.3-1.66,5.28,5.28,0,0,1,.33-4.84c.56-1,.6-2.15,1.08-3.17C45.78,191,53,184.26,61.94,180Z"/><path class="cls-10" d="M383.24,6.51l.94.93c1.06,1.15.46,2.38.35,3.67-.12,1.51-.16,3,1.82,4,2.26,1.22,2.37,3.44-.25,4.71a3.85,3.85,0,0,0-2.58,3.2c-.6,5.11-.61,5.11-5.67,4.14-2.76,2.29-5.46,5.43-8.47.19a2.36,2.36,0,0,0-2.73-.72c-2.3.79-3.32-.71-4.37-2.25h0c.7-2.62,1.51-5.18-1.83-6.84-1.11-.56-.66-2-.49-3.12,3.38-1.71,4.25-4.73,4.25-8.2,1.18-.4,2.25-1.5,3.65-.6.57.37,1.47.73,1.81.27,3.78-5,6.76-2.74,9.89.81C380.49,7.77,381.94,5.79,383.24,6.51Z"/><path class="cls-14" d="M370.18,99.52c-.34,2.82-3.81,3.73-4.05,6.6-4.16,8.49-8.63,16.87-9.89,26.45a2.14,2.14,0,0,1-1.15,1.54c-2.21-1.86-4.44-3.68-5.94-6.22-1.7-2.87-1-5.79.05-8.61a45.21,45.21,0,0,1,9.63-14.89c1.32-1.42,3.18-2.42,3.7-4.5C365,98.59,367.63,99.67,370.18,99.52Z"/><path class="cls-15" d="M50.11,126.14c1.27,1.18,1.34,2.27-.43,2.9a3.93,3.93,0,0,0-2.57,2c-.76,2.43.18,6.64-4.84,4.56-3.93,5.3-7.52.2-11.25-.38-1.78-.27-3.07-1-2.87-3.15h0c.75-.84,1.1-2.16.3-2.68-4.56-3-2.18-5.13.7-7.3h0c1.49-1.32-.84-2.68,0-4h1c.77-1,1.52-2.11,3-1h0c1.31.71,2.4-.21,3-.92,1.88-2.1,3.45-2.33,5.08.13.18.27.37.78.58.76C48.38,116.66,47.43,123.07,50.11,126.14Z"/><path class="cls-16" d="M362.53,99.89c1.26.33,2.29.62.68,2a53.08,53.08,0,0,0-8.51,9.51c-3.48,5-5.81,10.26-5.54,16.46-3-2.54-6.66-4.5-7.84-8.69,2.47-3.5,4.86-7.06,7.42-10.5C352.2,104,356.51,100.6,362.53,99.89Z"/><path class="cls-17" d="M377.27,59.3a19.46,19.46,0,0,1,9.92,10c-2.29.79-4.19-.54-6.11-1.33a45.32,45.32,0,0,0-12-2.75c-2.39-2.31-5.08-2.23-7.9-1a1.71,1.71,0,0,1-2.63,0c-1.18-2.47-5.25-2.43-5.2-6,.35-.57.74-1.34,1.34-1.4C362.35,56.24,370.15,54.61,377.27,59.3Z"/><path class="cls-18" d="M331.45,26.54c-8.72-4.21-16.86-9.43-25.21-14.3,1.18-2.53,3.51-3.6,5.68-2.35,8,4.59,16.5,8.23,23.53,14.33C334.79,26.15,333.79,27.5,331.45,26.54Z"/><path class="cls-19" d="M162.8,21.42c-5.21-4.51-5.23-4.52-.83-9.27a2.45,2.45,0,0,0,.54-2.23c-.38-3.77,2.08-3.67,4.9-5.07,5.45-2.72,9.44-.68,14,.92.3.11.75,0,.94.15,1.06,1,3.14,2.61,2.93,3.05-2.13,4.33,5,7.24,1.73,11.29-1.41,1.74-3.38,2.61-2.74,5.56.27,1.25-2.46,3.65-3.2,3.18-4.33-2.76-8.09,6.61-12.22.4a3.23,3.23,0,0,0-3.18-1.57c-4.12,0-5.15-2.64-2.86-6.42,2.3.46,3.09,2.83,4.79,4.11,4.08,3.09,7.6,1.3,11.35.37,2-.48,5.34-8.3,4.44-10.08-.61-1.19-1.38-2.32-1.19-3.7.26-1.88-.49-2.78-2.35-2.94a6.77,6.77,0,0,1-3.2-1.25c-3.36-2.21-9.31,0-11.4,3.26A14.55,14.55,0,0,0,162.8,21.42Z"/><path class="cls-19" d="M36.13,152.06c.09,1-.22,2.43.32,2.88,3.8,3.2,4.06,6-.37,8.85-1,.67-.43,1.72-.33,2.7.22,2.19-2.46,4.22-2.93,3.9-4.42-2.94-8.28,7.17-12.55.43-.18-.27-.29-.89-.36-.88-8,1.27-6.16-6.32-8.9-9.78-1.15-1.46-1.23-4.31-.35-4.48,5.19-1.05.72-10.88,8.5-9.11.16,0,.4.21.45.16,4.57-4.48,8.68-1.08,13,.66,2.21.9,4.85,1.22,3.57,4.67-3.08-1.54-6.73-1.51-9.55-3.93-1.47-1.26-9.09,2.38-9.74,4.35-.16.47-.13,1.12-.47,1.39-4.72,3.58-.74,7.34,0,10.87.51,2.53,4.29,1.29,5.63,3.39,1.85,2.91,3.38.27,5.22,0,4-.63,5.38-3.27,7.16-6.31,1.29-2.2,1.53-3.47.14-5.59C33.48,154.67,32.77,152.31,36.13,152.06Z"/><path class="cls-20" d="M295.49,104.22c3.83-1.1,8.21,3.1,7.92,7.73a27.81,27.81,0,0,1-.92,4.27,14.67,14.67,0,0,1,1.91,4.94c.14,1.92-.17,3.67-1.94,4.83-5.52-3-8.71-7.65-10.14-13.65C292.55,109.31,292.56,106.2,295.49,104.22Z"/><path class="cls-21" d="M302.46,126l1-4.8c2.67-1.37,5.33,1.17,8,0l4-.13a18.19,18.19,0,0,1,5.07,5.16c-2.11,3.23-4.41,6.18-8.85,6Z"/><path class="cls-22" d="M331.45,26.54l4-2.32a1.83,1.83,0,0,1,.8,2.22,164.91,164.91,0,0,0-.07,24.85,3.89,3.89,0,0,1-2.88,3.09c-2.42-.44-1.92-2.35-1.92-3.93C331.38,42.48,331.42,34.51,331.45,26.54Z"/><path class="cls-23" d="M425.13,220l-2.73-1.12c-3.61-5.92-7.28-11.81-8.29-18.86l-2.85-2c4.82-.63,8.05-.07,9.8,4.84a71.91,71.91,0,0,0,7,15.16C427.47,219.19,426.09,219.26,425.13,220Z"/><path class="cls-24" d="M128.89,22.42c-2.83.87-5.15,1.71-3.5,5.75.6,1.48-1.32,3.34-3.32,4.28-3.3,1.53-3.31,3.93-.47,5.82,2.29,1.53,3.19,3.14,2.2,5.69-1.11,2.87.27,4.36,2.88,3.84,3.32-.66,4.84,1,6.29,3.37s3.08,3.36,5,.27c1.57-2.51,3.69-3.45,6.63-1.95,2.69,1.37,4.26-.81,3.74-2.62-1.33-4.52,1.72-5.78,4.49-7.49.89-.23,1.39-.06,1,1-2.51,1.6-5.86,2.48-3.44,6.93.91,1.67-3.95,5-6,3.91-2.49-1.29-3.71-.8-5.28,1.42-2,2.85-5.55,2.41-7.23-.72a4,4,0,0,0-4.39-2.32c-4.23.28-6.44-2.49-5.06-6.32.63-1.75.16-2.67-1.25-3.74-3.32-2.53-3.19-6.25.28-8.2,1.91-1.08,2.18-2.31,1.87-4.45C122.78,23.39,125.33,21.57,128.89,22.42Z"/><path class="cls-25" d="M411.13,180c-9.42,1.66-11.54.83-14.74-5.75,3.87-2.46,7.92-4.29,12.66-3.91Q410.09,175.15,411.13,180Z"/><path class="cls-26" d="M305.4,75.3c1.24,6.24,4.85,11.55,6.85,17.49.5,1.48,2,2.91.2,4.48-1.26-.39-2.55.14-3.81-.12-1.37-6-4.47-11.27-6.77-16.87C299.84,75.32,299.73,75.34,305.4,75.3Z"/><path class="cls-27" d="M292.38,83.13c2.09.33,2,1.54,1.58,3.25A24.54,24.54,0,0,0,294.42,99c-1.06,2.08-1.28,4.58-3.15,6.25-2.76-6.22-2.91-12.67-1.76-19.25A3.1,3.1,0,0,1,292.38,83.13Z"/><path class="cls-28" d="M38,197c.4,1.07,1.44,2.08.28,3.28-3.52.67-5.7,4.12-9.36,4.5-2.72-.06-4.33-1.77-5.72-3.81C27.62,195.49,32,194.33,38,197Z"/><path class="cls-29" d="M351.35,159.22c.78,1,1.92.8,3,.86a8.91,8.91,0,0,1,.52,8.58,1.4,1.4,0,0,1-1.56.59c-1.86-.78-4.13.28-5.82-1.29-2.63-1.48-1.55-3.8-1.33-5.92C345.82,157.32,348.7,158.49,351.35,159.22Z"/><path class="cls-30" d="M375.11,49.22c4.53-1.48,8.94-1.5,13.14,1.06-2.18,1.92-5.32,1.7-7.6,3.39a21.57,21.57,0,0,0-4.72,4.17c-2,.3-3.85-.46-5.68-1.16-1.48-3.18,1.05-4.37,2.92-5.88a4.47,4.47,0,0,1,1.73-.6C376,50.05,375.42,49.62,375.11,49.22Z"/><path class="cls-31" d="M424.08,26.43c-4.25-.26-4.2-3.28-3.22-6,1.24-3.44-.79-4.33-3.09-4.22-3.18.16-5.3-.5-6.81-3.5a2.45,2.45,0,0,0-4.41-.29c-1.86,3.08-4,3.12-7.09,2.33-2.4-.6-4.24.57-3.28,3.64-.34.48-.67.48-1,0-.8-3.65,1.92-6.66,5.06-5.16,2.38,1.14,3.46.65,4.94-1.13,2.31-2.77,5.92-2.45,7.9.68,1,1.56,1.89,2.49,3.88,2.12,4.07-.73,6.44,2,5.25,5.89-.83,2.74-.4,4.54,2.91,4.59C425.44,26.43,425,26.68,424.08,26.43Z"/><path class="cls-31" d="M395.17,18.43h1c1,2.85-.23,4.88-2.74,5.9-3.32,1.35-3,3.33-.76,4.94,2.46,1.78,2.85,3.88,2.25,6.43-.8,3.4.33,4.7,3.82,4,2.07-.43,4.61.17,5.06,1.94.87,3.45,3.17,2.65,5.35,2.74.28.22.37.45.28.68s-.18.34-.27.34c0,.33,0,.65,0,1h0c-2.33,1.68-4.1,0-6-1,0-3.36-1.42-4.76-4.94-4.06s-6-2.29-4.64-5.84c.81-2.14.12-3.45-1.26-4.78-3.25-3.15-3.12-6.18.68-8.25A3.74,3.74,0,0,0,395.17,18.43Z"/><path class="cls-32" d="M409.05,170.32c-4.12,1.61-8.16,3.49-12.66,3.91-1.69-.37-3.12-1-3.12-3.1.67-1.14,1.86-1.45,3-1.89,4-1.15,8.14-2,12-3.76l1.93-.33C409.06,166.71,409.16,168.54,409.05,170.32Z"/><path class="cls-24" d="M151.83,27.39c-2.37-1.47-4.4-3.14-7.76-2.58s-3.61-4.71-6.53-5.1-2.91,4.61-6.35,4.53c-1.48,0-2.18-.41-2.31-1.83,2,0,3.71.09,5.06-2.17,1.78-3,6.1-2.61,7.81.56.77,1.44,1.48,3.05,3.16,2.35C149.39,21.3,150.34,24.66,151.83,27.39Z"/><path class="cls-33" d="M370.32,56.27l5.69,1a.87.87,0,0,1,1.35.14l-.09,1.92c-6.18-1.06-12.3-2.53-18.65-2-1.83.15-3.66,0-5.29,1,.07-3.2,2.54-2.89,4.58-3s4.23,0,6.35,0A6.17,6.17,0,0,1,370.32,56.27Z"/><path class="cls-24" d="M377.26,26.43c3.14.44,4.47.79,6.29-3.74s2.64-7.09.11-11c-.6-.91.3-2.79.52-4.23,1.31.61,1.34,1.66,1.69,3,1.2,4.73,2,8.66-1,13.62-1.95,3.27-2.55,5.5-6.64,3.34C377.21,27.82,377,27.32,377.26,26.43Z"/><path class="cls-34" d="M358.53,64.29l2.63,0c-2.06,3.79,1,8.33-1.73,12-.55-1.57-.59-1.48-3-2.51-.56-.24-.95-1.33-1.08-2.08C354.84,68.59,356.32,66.27,358.53,64.29Z"/><path class="cls-35" d="M28.15,132.11c2.05,3.6,7.38,2,9.29,5.8,2.37-3.48,8.91-1.06,9.67-6.83,1,3.57,1,6.45-4,5.5-1.43-.27-2,.46-2.91,1.24-2.1,1.85-4.36,2.37-6.08-.46-.9-1.48-2.32-.89-3.43-1.37C29.05,135.31,26.4,135,28.15,132.11Z"/><path class="cls-36" d="M291.27,105.27c.49-2.37-.11-5.28,3.15-6.25,1.57,1.49.81,3.45,1.07,5.2q-1.59,4.07-3.17,8.11C290.65,110.17,291.83,107.59,291.27,105.27Z"/><path class="cls-37" d="M50.11,126.14c-1.53-.68-3.28-1.37-3.16-3.34.19-2.94-2.28-3.09-3.57-4.49-3.6-3.89-6.89-1-10.25-1.16,6.73-4.11,13-2.53,16,4-.82,1.38.31,2.11,1,3Z"/><path class="cls-38" d="M308.64,97.15c1.31-1.16,2.67-3.89,3.81.12-.31,1.41-.65,2.81-.92,4.23-.83,4.3-2.48,2.84-4.25.62C307.73,100.46,308.19,98.8,308.64,97.15Z"/><path class="cls-24" d="M383.24,6.51c-2.51,1.36-4.79,1.35-6.51-1.24-.8-1.2-2.56-2.54-3.08-1.53-2.3,4.4-6.2,2.12-9.36,2.76q-.41-.35-.27-.69c.08-.23.17-.34.26-.34,3-1.06,6.31-.56,9.13-2.81a3.22,3.22,0,0,1,5,2C379.12,7.73,382.19,4.46,383.24,6.51Z"/><path class="cls-35" d="M377.26,26.43l1,1c-2.88,3.11-5.68,7-9.37.77-.58-1-1.74-.86-2.72-.61-2.75.7-3.5-1-3.89-3.17,3,2.45,7.55,1.15,10.49,4.66C374.23,30.81,375.4,26.88,377.26,26.43Z"/><path class="cls-39" d="M370.32,56.27c-2.09.12-4.17.19-6.06-1a15.57,15.57,0,0,1,7.86-5.07c1.09-.41,2.19-.85,2.11,1.06C372.49,52.62,370.46,53.7,370.32,56.27Z"/><path class="cls-40" d="M23.27,215.89c0-1,0-2,0-2.94,1-2.91,2-5.81,1.73-9,2.18-.56,2.44,1.44,3.38,2.53.41,1.48,0,3,.16,4.49-.24,1.55-1.77,2.31-2.29,3.7a3.83,3.83,0,0,1-1.18,1.55A1.56,1.56,0,0,1,23.27,215.89Z"/><path class="cls-37" d="M424.08,26.43l1-1c1.74,3.49,1.94,6.47-2.51,8-2,.7-2.28,2.11-1.48,3.9-.33.49-.68.47-1,0a3.27,3.27,0,0,1,1.36-5.34C424.56,30.84,424.12,28.71,424.08,26.43Z"/><path class="cls-41" d="M336.18,51.29a73.27,73.27,0,0,1,.07-24.85Q336.22,38.86,336.18,51.29Z"/><path class="cls-33" d="M380.15,53.28c2.25-2.2,5.21-2.51,8.1-3,2.08.7,4.46.85,5.76,3-4.38-1.12-8.69-1.32-12.82.93C380.8,54,380.23,53.89,380.15,53.28Z"/><path class="cls-42" d="M28.08,207l-3-3c-1.43-.52-2.41-1.3-1.81-3,1.9,1.13,3.52,2.82,5.91,3,3.77,1,2.75,3.33,1.58,5.7a1.63,1.63,0,0,1-1.2.6C27.72,209.73,29.12,207.81,28.08,207Z"/><path class="cls-37" d="M29.15,122.14c-1.37,2.26-4,4.36-.16,6.94,1.22.81.82,2.39-.84,3a4.33,4.33,0,0,0-.77-2.8C23.8,124.9,23.92,124.49,29.15,122.14Z"/><path class="cls-24" d="M360.3,14.45a3.47,3.47,0,0,0,1.54,3.34c2.69,1.93,2.59,4.26.45,6.62.78-4.13-3.87-6.79-3-11C360.3,13.13,360.59,13.51,360.3,14.45Z"/><path class="cls-43" d="M153.83,40.37l-1-1c.75-2.48-1.48-4-2-6C156.24,33.81,155.39,36.94,153.83,40.37Z"/><path class="cls-37" d="M360.3,14.45l-1-1c4.68-.78,2.72-5.69,5-8,0,.34,0,.68,0,1C365.34,10.34,364.37,13.17,360.3,14.45Z"/><path class="cls-24" d="M420.09,37.39l1,0c1.32,1.74-.45,2.72-1,4-1.5.5-2.49,2.73-4.91,1.3C417.43,41.2,420,40.37,420.09,37.39Z"/><path class="cls-10" d="M403.18,45.35l6,1C406.47,50.21,404.84,47.69,403.18,45.35Z"/><path class="cls-44" d="M389,91.27a2.07,2.07,0,0,1-.56-3c.67-1.16,1.75.06,2.65,0Z"/><path class="cls-45" d="M346.14,162c.42,2-.52,4.26,1.33,5.92-3.46-.45-1.67-3.19-2.16-4.94Z"/><path class="cls-46" d="M321.42,54c.18-1.8-.24-4.5,2.89-2Z"/><path class="cls-47" d="M374.23,51.31c-.45-.85-1.29-.94-2.11-1.06.79-.93,1.9-.94,3-1a10.93,10.93,0,0,1,1.27.5C376.09,50.79,375,50.86,374.23,51.31Z"/><path class="cls-48" d="M395.81,77.28l2.35,1c-.4.88-.79,1.77-1.18,2.65Z"/><path class="cls-37" d="M33.14,117.16l-3,1c.06-1,.18-2.1,1.29-2.37C32.35,115.55,32.81,116.38,33.14,117.16Z"/><path class="cls-31" d="M29.17,118.14c.46,1.34,1.83,2.69,0,4C29.52,120.82,27.31,119.47,29.17,118.14Z"/><path class="cls-15" d="M50.09,124.15c-2.12-.41-2.63-1.35-1-3Z"/><path class="cls-5" d="M279.58,170.79c7,2.75,13.06,7.09,19.53,10.74,16.42,9.3,32.75,18.77,49.11,28.17,1.87,1.7,1.39,4,1.41,6.08a537.17,537.17,0,0,0,3.05,58.54c.93,8.08-3.39,11.51-9.44,14.94-39.43,22.31-78.47,45.31-117.78,67.82-3.6,2.06-7.22,4.1-10.77,6.24a14.65,14.65,0,0,1-8.47,2.47,14.87,14.87,0,0,1-8-2.39C158,340.23,117.9,316.76,77.57,293.73c-2.4-1.36-5.19-2.54-5.36-6l-.09-1.06a5.45,5.45,0,0,1,1.16-1.86c16.13-9.94,32.68-19.13,49.07-28.61q52.85-30.57,105.73-61.09c13.66-7.9,27.31-15.83,41-23.64a8.36,8.36,0,0,1,4.19-1.44C275.33,170.82,277.52,170.24,279.58,170.79Z"/><path class="cls-49" d="M205.66,364.53c6.26.73,10.56-3.65,15.31-6.35,24.89-14.13,49.58-28.62,74.35-43q25.33-14.68,50.69-29.35c5.56-3.23,6.58-5.4,5.11-12.75-1.3-6.53-1.21-13.16-1.62-19.7-.93-14.54-.91-29.13-1.28-43.7q.18-9.55.35-19.13c4.53-4.37,3.94-10.56,5.7-15.93,6.38-.66,12.37.94,18.24,3.21,7.08,6.84,14.11,13.73,21.28,20.48,1.47,1.39,1.37,3.28,2.32,4.78,2.15,4.83,4.36,9.65,4.68,15.06-2.76,2.51-3.58,5.63-3.28,9.3s-.17,7.24.24,10.85c.52,4.58,1.73,5.34,6.17,4.29,2-.48,4-1.75,6.2-.78.21,2.63.33,5.23,1.95,7.54,2.25,3.2,0,6.73.52,10.15a214.89,214.89,0,0,1,1.71,34.12c-2.23,4-6.33,3.81-10,4.31a19.17,19.17,0,0,1-8.38-.43c-2.49-1.32-2.91-3.88-3.57-6.23-1.26-4.45-2.37-9-3.39-13.46-.47-2.08-1.17-2.91-3.33-1.59-3.1,1.89-6.25,3.73-9.48,5.4-3.53,1.82-2.86,5.74-4.52,8.48-4.5,3.85-9.81,4.5-15.15,2.89-2.46-.74-3.75-.32-5.14,1.37l-54,31.41c-2.54,1.95-6.52-.18-8.61,3a38.61,38.61,0,0,1-1.82,3.71c-.67.86-1.77.48-2.59.93q-35.11,20.14-70.24,40.29c-3.66,2.1-7.3,4-11.6,1.81C207.09,372.91,204.37,368.14,205.66,364.53Z"/><path class="cls-6" d="M205.66,364.53c1.63,2.59.86,5.47,1,8.24.16,3.18-2.34,2.5-4.16,2.8-8.65-3.83-16.51-9.08-24.68-13.77q-49.58-28.49-99.06-57.14c-1.15-.66-2.32-1.29-3.42-2q-8.67-5.75-3.12-14.88c3.19,4.6,8.46,6.26,13,8.88Q142.5,330,200,363.07A9.87,9.87,0,0,0,205.66,364.53Z"/><path class="cls-9" d="M62,231.85q0,22.93,0,45.89c-4.46,1.42-8.29,4.08-12.13,6.6-3.42,2.23-6.42,2.48-10.05.27-9.6-5.86-19.38-11.43-29.1-17.09-5.15-3-5.16-3-.24-5.88l3-1.78c1.68,1.19-.15,4.44,2.86,4.81a12.74,12.74,0,0,0,4-2c1.83-1,3.59-.54,5.19.43,5.1,3.07,10.45,5.75,15.31,9.21,2.33,2.62,1.17,6.57,3.54,9.15,4.06-.19,4.34-2.86,3.84-5.92-1.51-9.31-3.33-18.58-4.75-27.92-.28-1.8-.71-3.58-.08-5.39C48.82,237.53,54.75,233.55,62,231.85Z"/><path class="cls-3" d="M56.06,328.67q-14.14-8-28.3-15.94c-.85-.48-1.77-.82-2.66-1.22-3.56-1.58-3.38-4.53-2.82-7.63a12.73,12.73,0,0,1,5.52-7.69c1.94-1.27,3.85-1.76,5.52.45,10.51,5.59,20.86,11.42,30.84,17.91-.84,2.32-3.45,3-4.62,5.05C57.1,322.13,58.18,326,56.06,328.67Z"/><path class="cls-50" d="M104.84,352.73c-6.6-1.56-13.25-3-19-6.92-2.48-4.34-.38-7.9,2.07-11.29,1.82-2.51,4.23-3.58,7.29-2.1a69.84,69.84,0,0,1,13.81,12C108.17,347.45,106.4,350,104.84,352.73Z"/><path class="cls-51" d="M321.41,364.46c2.71,1.34,4.53,2.57.5,4.82C313.4,374,305,378.94,296.6,383.89c-3.21,1.89-5.88,1.7-9.15-.32-7.86-4.86-16-9.24-24.05-13.82-3.1-1.76-4-3.52,0-5.3l.59.24c.81.67,1.41,1.55,2.24,2.2a30.48,30.48,0,0,0,5,2.67c2,.91,3.72,2.22,5.63,3.23a67.73,67.73,0,0,0,6.82,3.93c2.31,1.16,4.27,3,6.88,3.61.42.1.83.23,1.24.35,3.47.8,5.37-2.36,8.16-3.25,2.45-1.07,4.51-2.81,6.89-4,2.07-1.3,4.19-2.52,6.36-3.64,2.39-1.52,5-2.69,7.12-4.65A3.42,3.42,0,0,1,321.41,364.46Z"/><path class="cls-52" d="M33.32,296.64c-6.2-1.73-7.6,3.47-10.15,7-4.27,2.28-7-.44-9.86-3,.57-3.79,2.68-6.84,5.21-9.43s5.27-5,9.15-3.7C31.84,289,33.15,292.54,33.32,296.64Z"/><path class="cls-53" d="M291.29,381.51a8.65,8.65,0,0,1-.89-.11,58.85,58.85,0,0,0-7-4.56c-2.26-.89-4.06-2.59-6.23-3.65-2-.93-3.84-2.06-5.71-3.18-1.62-1-3.43-1.71-5-2.8-.92-.82-2.18-1.31-2.66-2.59l-.39-.17c4.16-3.84,9.12-6.43,14.12-8.95,2.56.91.79,2.65.79,4.05-1.77,5.72-.76,8.06,4.58,10.71a22.07,22.07,0,0,0,8.12,2.17,3.54,3.54,0,0,1,2,1.16,8.24,8.24,0,0,1,.25,6.46A2.41,2.41,0,0,1,291.29,381.51Z"/><path class="cls-54" d="M292.48,380.34v-6.77c2.63-2.25,6.2-1.82,9.16-3.18,4.93-2.27,6.08-4.65,4.38-9.64-.18-1.77-.6-3.56.39-5.24,5.26,2.55,10.62,4.92,15,8.95-.06.38-.12.76-.19,1.14-3,1.14-5.5,3.17-8.36,4.54-2.3,1-4.2,2.64-6.4,3.81-2.57,1-4.61,3-7.14,4.06C297,378.52,295.6,382,292.48,380.34Z"/><path class="cls-55" d="M58.87,318.51c1.14-2.15,3.28-3,5.29-4,8.72,3.82,17.4,7.7,25.14,13.35-1.68,2.68-4.67,2.56-7.22,3.38C73.64,328.31,66.22,323.46,58.87,318.51Z"/><path class="cls-28" d="M16.43,266c-3.53-.19-3.53-.19-3-6.11q4.34-19.58,8.66-39.16c.36-1.61.8-3.21,1.2-4.81h1.78c1.71,1.31,2,3.12,1.77,5.1-3.29,11-5.13,22.29-7.47,33.48a11.32,11.32,0,0,1-.35,1.42C17.85,259.17,17.47,262.66,16.43,266Z"/><path class="cls-56" d="M306.42,355.51c.07,1.72.13,3.43.19,5.14.95,3-1.35,4.19-3.3,5.27-5.74,3.17-11.75,4.12-18,1.51a3.8,3.8,0,0,1-1.65-1.95c-.51-2-.58-4,1.22-5.48.44-.21.92-.55,1.38-.46,6.95,1.38,13.18-.6,19.1-4.06Z"/><path class="cls-14" d="M82.33,330.71c2-1.74,4.5-2.22,7-2.81,1.41,2.25,4.32,2.53,5.93,4.52-6.47.7-9,4.24-9.36,13.39l-5.78-2.38C76.49,338.42,77.16,334.62,82.33,330.71Z"/><path class="cls-57" d="M305.33,355.48c-5.35,6.59-12.39,6.34-19.73,4.88a1.81,1.81,0,0,1-1.55-1.36c0-2,0-3.94,1.46-5.52,1.63-.7,3.22-.11,4.8.21,5.16,1,9.1-1.7,13.12-4.18C305.56,351,305.4,353.27,305.33,355.48Z"/><path class="cls-58" d="M369.27,296.59l0,6c-.08,3.55-2.56,5.07-5.36,6.32-2.86-3.11-7.34-3-10.61-5.32,0-1.33-.05-2.65-.07-4,0-1,.09-2,.13-3A56.39,56.39,0,0,1,369.27,296.59Z"/><path class="cls-59" d="M303.43,349.51c-2.69,5.4-7.68,5.64-12.72,5.5a28.75,28.75,0,0,1-5.32-1.15,2.87,2.87,0,0,1-.77-1.38,4.14,4.14,0,0,1,3.11-5c4.67,0,9.18-1.09,13.73-2C304.11,345.87,303.24,348,303.43,349.51Z"/><path class="cls-60" d="M369.27,296.59a27,27,0,0,1-15.89,0c-.59-.83-.84-2-2.05-2.24.55-3.43,3.11-3.23,5.37-2.56,5.21,1.53,9.86.15,14.44-2.14,1.88,2.33,1.16,4.3-.84,6.1Z"/><path class="cls-61" d="M13.31,300.67c3.43.52,6.07,3.66,9.86,3-.07,2.8-.39,5.65,1.93,7.86-3.29,1.64-6.54,1-9.79-.13C12.21,308.26,11.65,304.67,13.31,300.67Z"/><path class="cls-25" d="M301.46,345.54c-4,3.8-9,3.36-13.88,2.87a2.47,2.47,0,0,1-1.65-1.12c-.39-2-.57-4.08.54-6a3.21,3.21,0,0,1,1.37-.29,21.72,21.72,0,0,0,11.71-1.39C303,340.69,301.64,343.31,301.46,345.54Z"/><path class="cls-62" d="M126.15,358.4c8.25,3.73,16.5,9.22,19.27,13.29-10.22-4.39-18.79-9.94-27.5-15.23a.78.78,0,0,1,.12-1.25C121.21,355.09,123.4,357.45,126.15,358.4Z"/><path class="cls-56" d="M299.55,339.62c-3.46,4.13-7.69,3.58-12.09,2-1.52-2.36-1.56-4.41,1.18-5.92,3.24-.3,6.39-1.47,9.71-1.14C301.2,335.65,298.65,338,299.55,339.62Z"/><path class="cls-63" d="M298.35,334.54c-2.63,2.06-5.67,2.26-8.82,2-1.8-.76-4.26-1-3.26-4,.45-1.31.89-2.61,1.33-3.92a32.19,32.19,0,0,0,9.75.14C297.94,330.62,298.86,332.45,298.35,334.54Z"/><path class="cls-64" d="M284.5,359.42c.36.32.73.63,1.1.94-1.82,1.46-.85,3.56-1.25,5.35-4.94-.09-6.55-1.52-6.9-6.13-.35-1.36,1-2.71.05-4.08l1.81-3C281,354.85,282.66,357.19,284.5,359.42Z"/><path class="cls-65" d="M297.35,328.73c-3.28,2.44-6.54,2.72-9.75-.14.07-3,2.32-3.2,4.45-3.26a43.41,43.41,0,0,1,5.31.46A3.27,3.27,0,0,0,297.35,328.73Z"/><path class="cls-66" d="M284.5,359.42c-3.43-1-5.32-3.24-5.19-6.94.38-1,.77-2,1.16-3,2.77,0,3.31,2.74,5,4.08l-.07.31C285.56,355.79,285.62,357.7,284.5,359.42Z"/><path class="cls-67" d="M285.46,353.54c-2.64-.16-3.38-2.66-5-4.08.46-1.73.68-3.56,2-4.92,2.3-.37,2.82,1.67,3.95,2.9l1.12,1C285.24,349.44,285.48,351.55,285.46,353.54Z"/><path class="cls-68" d="M126.15,358.4c-3.12.09-5.22-2.68-8.23-2.91-2.48-1.05-4.67-2.67-7.18-3.67-1.66-.55-3.17-1.23-3.26-3.32,1.19-2.4,2.29-.85,3.41.08C115.37,352.8,121.49,354.46,126.15,358.4Z"/><path class="cls-69" d="M110.89,348.58c-1,.26-1.94-1.16-2.93,0-.64,1.64.69,2,1.68,2.56a.64.64,0,0,1,.4.6q0,.39-.15.39L107,353.68l-2.13-.95c-.36-3.66,1.38-6.27,4.19-8.33C110.57,345.38,111.7,346.55,110.89,348.58Z"/><path class="cls-70" d="M286.27,332.51c-.14,2.33,2,2.8,3.26,4-3.21.67-1.68,3.27-2.07,5.09l-1,0c-2.4.56-2.1-1.64-2.84-2.78-.26-1.86,2.94-3.28.68-5.39A2,2,0,0,1,286.27,332.51Z"/><path class="cls-71" d="M283.65,338.86l2.84,2.78c.75,1.94,0,3.87,0,5.8-1.83-.27-2.73-1.8-3.95-2.9Z"/><path class="cls-72" d="M109.89,352.1a1.46,1.46,0,0,0,0-.55.58.58,0,0,1,1,0c2.69.71,5.33,1.49,7,4v1Z"/><path class="cls-73" d="M73,285.73c0,.61-.23,1-.87,1-1.45.15-3,.52-4.12-.82l4-.27A.68.68,0,0,1,73,285.73Z"/><path class="cls-1" d="M370.3,295.78l.84-6.1c0-5.51,2.56-9.07,7.76-11.17,3.31-1.34,6.29-3.52,9.91-5.6l6.47,23.75a1.37,1.37,0,0,1-.19,2c-7.45-.69-14.84-2.48-22.39-1.09A1.82,1.82,0,0,1,370.3,295.78Z"/><path class="cls-74" d="M404.08,348.74c-2.63-2.92-3.16-6.44-2.89-10.18.3-1,3.68,2.23,2.07-1.49-.52-1.2-1.11-2.41-.22-3.7a2.36,2.36,0,0,1,2-.31,6.71,6.71,0,0,1,2.06,1.68c2.43.92,4.93-.39,6.88.32a5.57,5.57,0,0,1-1.64-.15c-.93-2.27,1.66-2.71,2.19-4.22.81-.41,1-.82,0-1.22-1.1-2.4-4.65-.93-5.62-3.53.45-2.29,3-2.05,4.17-3.43a2.65,2.65,0,0,0,.35-2.19,3.86,3.86,0,0,1,.26-2.46,1.47,1.47,0,0,1,1.08-.61c.77.14.95.81,1.26,1.36,1.49,6.05,4.4,11.7,4.94,18-.7,4.14-.49,8.55-4.9,11.21C412.1,350.19,408.3,351.44,404.08,348.74Z"/><path class="cls-49" d="M334.42,332.34c-5.4-2.76-6-8.27-1.08-11.49,1.47-1,2.81-2.44,4.84-2.34.69-.49,1.07,0,1.43.47.94,1.48,2.75,1,4,1.73,1.61.9,3,.39,4.19-.75a7.41,7.41,0,0,1,1.8-1.06,6.18,6.18,0,0,1,2.83-.27,2.88,2.88,0,0,1,1.84,1c-.07,3.31-3.82,3.22-5.13,5.59,1.63,2.52,4.81-.74,6.44,1.62-2.76,4.61-7.59,5.06-12.15,6a16.67,16.67,0,0,1-3.6.13C338,332.78,336.33,331.76,334.42,332.34Z"/><path class="cls-75" d="M355.3,326.59a15.34,15.34,0,0,1-2.84.77c-2,.18-4.77,1.2-5.59-1.43-.71-2.28,2.19-2.36,3.53-3.37s2.61-2,3.91-2.94c.07-.21.13-.42.19-.63,1.58-1.82,3.64-3.11,5.34-4.8.35-.28.71-.53,1.07-.78,2.15-1.53,3.34-4,5.31-5.64,1.16-1,1.95-2.76,4-2.12,1.18,4.29,2,8.62,1.16,13.1-3.1,2.19-6.79,3.19-10.06,5l.14-.09a22.68,22.68,0,0,0-3.78,2.42C356.93,326.55,356.24,327.19,355.3,326.59Z"/><path class="cls-76" d="M414,299.73c0,1.64.08,3.28.13,4.92a7,7,0,0,0,.92,4c-.67.62-.16,1.9-1.27,2.26-5-1.61-9.23.46-13.33,3a2.29,2.29,0,0,1-1.18-1.59c-.06-.89-.6-1.75-.19-2.67l-1.86-7.78C402.81,300.88,408.36,299.82,414,299.73Z"/><path class="cls-77" d="M414,299.73c-5.41,2.21-10.95,3.31-16.78,2.11-1.34-.64-1.44-2.12-2.16-3.19.06-.66.12-1.33.19-2,6.51.1,13.07.49,19-3A6.68,6.68,0,0,1,414,299.73Z"/><path class="cls-78" d="M353.32,303.63c4,.85,8.92-.25,10.94,5-.1,2.54-2.17,3.31-3.9,4.41a7,7,0,0,1-3.48-.48,38.54,38.54,0,0,1-6.44-3.86Z"/><path class="cls-79" d="M400,311.87l.24,1.65c1.77.93,2.21,2.61,2.45,4.39A9.35,9.35,0,0,0,403,321a10.78,10.78,0,0,1,.35,2,13.18,13.18,0,0,1,.1,1.4c-.18,2.43.6,4.76.72,7.16a3.67,3.67,0,0,1-.93,2c.35,1.07.64,2.16,1.06,3.19.5,1.21,2.37,2.25.48,3.69-2.42,1.85-2.21-1.56-3.56-1.86-1.35-4.85,0-9.8-.59-14.7-.44-3.41-.52-6.87-1.54-10.19C398.8,312.77,398.15,311.69,400,311.87Z"/><path class="cls-80" d="M404.08,348.74c2.56-1.34,4.75,1.39,7.81.17,5.92-2.37,7.93-6.81,9.05-12.3.71,8.39-2.27,13-9.54,14.64C408.51,351.89,405.79,351.7,404.08,348.74Z"/><path class="cls-81" d="M350.44,308.67c3-.78,4.47,2.13,6.81,2.95.89.94,2.8,1.21,2.13,3.2-3.54,3-6.05-1.28-9.18-1.3a3,3,0,0,1-2-1.94Z"/><path class="cls-82" d="M360.27,312.6c.73-1.93,2.85-2.48,4-4l5-6c1.38.68.93,1.91.92,3-3.9,2.07-5.33,6.6-8.94,9A2.6,2.6,0,0,1,360.27,312.6Z"/><path class="cls-83" d="M355.3,326.59l2-1c1-.38,1.25.07,1,1a20,20,0,0,1-13,6.81c-.57-.48-1.5-.09-2-.82C347.39,330.73,352.3,330.58,355.3,326.59Z"/><path class="cls-75" d="M348.19,311.58l2.08,1c1.39.78,3.09,1,4.3,2.05,1.8,1.6,1.83,3-.77,3.73a7.78,7.78,0,0,1-3.62-1c-1.54-1.33-4.44-.88-4.85-3.69Z"/><path class="cls-84" d="M348.29,320.63c-1.35,1.74-2.76,3.19-4.89,1-1.13-1.09-2.75-1.22-4-2l-1.2-1c.65-.69,1.07-1.68,2.21-1.76C343.48,317.11,346.66,317.29,348.29,320.63Z"/><path class="cls-85" d="M352.28,319.61l-3,0c-3-.14-5.27-2.33-8.06-3.07l1.83-1c2.75-1.34,4.94.13,7.16,1.45C351.38,317.5,352.77,317.81,352.28,319.61Z"/><path class="cls-86" d="M361.31,323.78a20.67,20.67,0,0,1,10.06-5C369.17,322.73,365.05,322.87,361.31,323.78Z"/><path class="cls-87" d="M414.1,310.54c0-.82-.15-1.68,1-1.9,0,1,.09,1.93.13,2.89a8.19,8.19,0,0,1-.14,6l-.94.07a5.9,5.9,0,0,1-6.61.49,1.35,1.35,0,0,1-.59-1.4C409.82,315.26,413.27,314.42,414.1,310.54Z"/><path class="cls-88" d="M341.24,316.56c3.1-.06,5.43,1.9,8.06,3.07l-1,1-7.9-3.88A1.16,1.16,0,0,1,341.24,316.56Z"/><path class="cls-89" d="M350.32,317.57c-2.28-1.19-4.57-2.3-7.25-2a3.56,3.56,0,0,1,2.26-1.82c1.4,1.42,3.85,1,5,2.86.35.22.46.43.35.65S350.44,317.57,350.32,317.57Z"/><path class="cls-90" d="M343.32,332.56l2,.82a14.94,14.94,0,0,1-6.91,0c-.13-.81,0-1.37,1-.86Z"/><path class="cls-91" d="M415.07,317.57q.06-3,.14-6c1.19,2.26.84,4.69.79,7.08Z"/><path class="cls-92" d="M339.36,332.56l-1,.86c-1.57.55-2.63-.74-3.95-1.08C336.12,331.2,337.77,331.11,339.36,332.56Z"/><path class="cls-93" d="M358.29,326.57l-1-1a5,5,0,0,1,4.17-1.89A5,5,0,0,1,358.29,326.57Z"/><path class="cls-94" d="M400,311.87c-.3.6-.61,1.2-.92,1.8-1.12-1.37-1.41-2.72.05-4.05Z"/><path class="cls-95" d="M82.09,54.37c0,4-1.52,6.51-4.49,8.24-9.47,5.51-18.92,11-28.42,16.5-1.25.72-2.76,1.7-4.15.45-1.62-1.46-1.06-3.37-.47-5.11Q50.73,56.58,57,38.73c1.25-3.61,2.36-7.28,3.87-10.77,1.76-4.08,4.71-4.46,7-.75,4.65,7.65,8.95,15.52,13.4,23.3A7,7,0,0,1,82.09,54.37Z"/><path class="cls-96" d="M73,285.73l-1-.12a9.09,9.09,0,0,1-2-6.41q.09-74.82.09-149.65a57.14,57.14,0,0,1,.9-7.32c11.27-8.22,23.79-14.37,35.78-21.38Q157,71.53,207.35,42.55c20.79-12,41.66-23.91,62.42-36a6.13,6.13,0,0,1,6.53-.21c.07,1.32.22,2.64.22,4q0,75,.07,150.07a14.55,14.55,0,0,1-2.23,8.49,3.8,3.8,0,0,1-1.68,2.08q-27.75,16-55.51,31.95-27.53,15.87-55,31.77c-20.21,11.67-40.37,23.44-60.65,35C92,275.06,82.89,281.09,73,285.73Z"/><path class="cls-97" d="M354.32,175c-.07,2.15-.09,4.31-.21,6.46-.15,3,1.35,7.06-4.29,6.67-.35,0-.83,1.6-1.25,2.45-.13-.81,0-2.09-.45-2.36-6.09-3.55-2.29-9.06-2.6-13.62-.28-4.32,3.56-1.88,5.55-2.48,1.05.77,2.49-.14,3.49.83A1.7,1.7,0,0,1,354.32,175Z"/><path class="cls-98" d="M272.68,171a2.79,2.79,0,0,1,1.68-2.08c1.24,2,3.9.11,5.22,1.9Z"/><path class="cls-45" d="M354,173c-1-.06-2.13.08-2.91-.84,1.83-.11,2.33-1.25,2.21-2.87L354,169C355.49,170.33,355.47,171.64,354,173Z"/><path class="cls-5" d="M355.09,134.11c1.08-10.35,3.8-20.06,11-28,.52,4.93,4.42,4.77,7.79,4.82,4.68.06,9-1.81,13.22-3.64-.6,4.41-1.21,8.81-1.79,13.21-1.59,12-.2,24,.93,36,.06.56.6,1.07.92,1.61.45,1.11-.17,1.74-1,2.26a2.48,2.48,0,0,1-1.35-.09c-2.95-2.44-6.42-3.93-9.88-5.46a3.39,3.39,0,0,1-1.67-2.07Z"/><path class="cls-8" d="M375.38,153.87c3.7,1.32,7.47,2.53,9.88,6a15.85,15.85,0,0,0,2.57,2,8.88,8.88,0,0,1-1.92-2l1.29-1.76c4.8-.77,8.65-4,13.26-5.19,3.51,2.48,4.59,6.14,4.91,10.16.88,2.63-.22,4.07-2.76,4.73-3,.78-6,1.75-9.07,2.43a2.25,2.25,0,0,1-2.24-.21c-4.52-.37-6.76-5-11.06-5.85-2.18,2.7-4.78,3.58-8,1.87-2.06-2.9-6.23-4-6.79-8.31-.09-.67-2.07-1.09-3.18-1.63C366.32,153.5,371,154.54,375.38,153.87Z"/><path class="cls-99" d="M361.07,155.09q-16.31-15.69-32.59-31.37a9.12,9.12,0,0,1-1.9-2.28c-1.2-2.42-3.79-5.28-.69-7.51,2.85-2,4.25,1.61,5.77,3.15,11.55,11.67,23.63,22.81,34.62,35C365.71,155.14,362.93,154.31,361.07,155.09Z"/><path class="cls-99" d="M372.25,166.06c2.86.21,5.37-1.07,8-1.87,2.57,6.11,8.94,8.55,13,13.29a36.75,36.75,0,0,1,4.5,5.89c.89,1.62,1,3.66-.7,5s-3.07-.14-4.22-1.31Q382.49,176.56,372.25,166.06Z"/><path class="cls-100" d="M400.42,217.58c-1.82-4.71-4.42-9.19-4.31-14.47-.22-2.37,1.18-3.5,3.17-4.2,1.81,4.23,2.05,8.9,3.87,13.17,2.41,5.68,5.81,10.35,11.22,13.39,1.15.65,1.39,1.23.69,2.27a7.31,7.31,0,0,1-4.79-.76c-1.82.72-3-.51-4.32-1.36-.85-.73-1.63-1.53-2.42-2.32C402,221.68,400.61,220,400.42,217.58Z"/><path class="cls-101" d="M414.11,200a130.79,130.79,0,0,1,8.29,18.86c-4.78-4.06-8.13-9.37-12.29-14C410.05,202.09,410.33,199.6,414.11,200Z"/><path class="cls-102" d="M361.07,155.09c.83-2.57,3.79-1.43,5.21-3l7,.66,2.11,1.1c-4.07,2.46-8.62,2.16-13.1,2.25Z"/><path class="cls-103" d="M311.42,121.21c-2.67,1.73-5.33,1.14-8,0a7.26,7.26,0,0,1-.93-5C305.17,118.42,307.75,120.79,311.42,121.21Z"/><path class="cls-104" d="M391.3,170l1.82-.06a2.78,2.78,0,0,1,3.33.14c-.88.92-2.08.82-3.18,1C392.49,171,391.69,170.88,391.3,170Z"/><path class="cls-5" d="M400.42,217.58l3.8,5.26c-.48,3-2.33,3.8-4.6,3.42,2.21,1.38,4.07-2.14,6.59-1.48l4.06,2.2c-.26,5,.69,9.91-.15,14.85-1.69.64-3.36,1.33-5.07,1.89-7.11,2.34-8.62,1.26-8.83-6.44-.1-3.94.29-7.92-.12-11.82S396.66,218.94,400.42,217.58Z"/><path class="cls-105" d="M52.94,198c4.16-.31,6.78-2.87,9-6.1q0,14.48.07,29c-2.69,2.73-6.44,3.55-9.68,5.28a2,2,0,0,1-2.9-.9A87.73,87.73,0,0,1,52.94,198Z"/><path class="cls-106" d="M50.21,225.89c3.92-1.65,7.39-4.37,11.75-5v11l-17.85,10c-3.36-2.41-2.38-6.17-3-9.45a4.77,4.77,0,0,1,2-3.17C45.49,228.06,47.55,226.34,50.21,225.89Z"/><path class="cls-107" d="M404.06,142.14c.43-1.44-.38-3.36,1.62-4.2a49.08,49.08,0,0,0,2.06,5.51c2,4,.74,6-3.44,6.67-.06-.36-.12-.72-.19-1.08A13.13,13.13,0,0,1,404.06,142.14Z"/><path class="cls-108" d="M396.45,170.12l-3.32-.14a75.64,75.64,0,0,1,8.83-2.85c2.49-.51,3.27-1.86,3.41-4,.83.95.36,3.44,2.86,2.4C405.18,169.27,400.65,169.29,396.45,170.12Z"/><path class="cls-109" d="M369.06,65.23c3.34-2.5,6.53-.22,9.62.55s5.68,2.32,8.51,3.53c2.66,2.36,6.35,3.53,8,7-2-.48-3.92-.66-5.71.67-1,.73-1.85,2.24-3.38,1a3.24,3.24,0,0,1-.8-3.68c.83-2.63-.33-3.14-2.62-3.06C377.15,71.52,372.9,68.81,369.06,65.23Z"/><path class="cls-110" d="M372.23,71.75c0,2.21,0,4,0,5.77-.05,1.26.2,3-1.62,3a5.82,5.82,0,0,1-3.51-1.6c-1.3-1.16.11-2.08.85-2.82C369.22,74.87,369.54,72.79,372.23,71.75Z"/><path class="cls-111" d="M373.85,96.43c3.59-1.71,7.62-2,10.93-4.33C382.18,96.25,378.31,97.19,373.85,96.43Z"/><path class="cls-112" d="M366.32,73.36a1.56,1.56,0,0,1-1.36,1.7,1.38,1.38,0,0,1-1.63-1.35,1.3,1.3,0,0,1,1.32-1.62A1.37,1.37,0,0,1,366.32,73.36Z"/><path class="cls-113" d="M375.5,85.26c-.59.75-1.1,1.68-2.23,1.59-.88-.07-.9-.8-.78-1.44.2-1,1.05-1.14,1.86-1.17C375,84.21,375.64,84.33,375.5,85.26Z"/><path class="cls-114" d="M376.52,72.32c1.73,0,2.17.7,2.14,1.55a1.45,1.45,0,0,1-1.6,1.47,1.37,1.37,0,0,1-1.48-1.53C375.66,73,376.22,72.33,376.52,72.32Z"/><path class="cls-115" d="M362.22,70c.4-2.07,1.16-2.94,2.76-2.41.31.1.43.76.64,1.16Z"/><path class="cls-116" d="M404.06,142.14q0,3.45.05,6.9A6.25,6.25,0,0,1,404.06,142.14Z"/><path class="cls-49" d="M82.33,330.71c-2.49,3.93-4.73,7.91-2.25,12.72-8.9-3.46-16.48-9.09-24-14.76-.33-3.74-.09-7.32,2.81-10.16C67.39,321.22,74.17,327.3,82.33,330.71Z"/><path class="cls-59" d="M321.06,43.22c-6.38-2.91-11.38-6.83-10.69-14.82.09-1-.33-3.16,1.19-2.57,2.84,1.11,4.44,1.49,5.63-2.06.37-1.1,2,.31,2,1.59,0,2.95,1.16,5.47,2.36,8C323.18,36.74,323.7,40.05,321.06,43.22Z"/><path class="cls-117" d="M322.63,33.49c3,1.9,5,9.16,3.33,12a1.39,1.39,0,0,1-1.57.81c-1.49-.35-2-1.51-2.19-2.9C322,40.05,321.21,36.72,322.63,33.49Z"/><path class="cls-118" d="M322.63,33.49q-.22,4.93-.43,9.87l-1.14-.14.45-9.84Z"/><path class="cls-31" d="M415.16,24.39c2.22,4.29,1.43,8.09-2.46,10.78a8.49,8.49,0,0,1-10.22-.32c-3.17-2.31-4.5-5.58-2.3-9.45l.51.47c2,6.23,4,8.47,7.56,8.1,5.51-.58,5.33-5.32,6.39-9.11Z"/><path class="cls-19" d="M400.18,25.4c-.29-3.64,2.4-4.75,5-5.94a1.67,1.67,0,0,1,.45,1.26c-1.41,2-2.64,4.28-5.45,4.69Z"/><path class="cls-19" d="M410.14,19.45c2.22,1.1,4.75,1.87,5,4.94l0,0c-2.79.23-4.15-1.68-5.44-3.68A1.69,1.69,0,0,1,410.14,19.45Z"/><path class="cls-119" d="M409.17,45.36c0-.34,0-.68,0-1-.24-2.62,1.23-3.29,4.9-3.11C411,42.24,410.17,43.87,409.17,45.36Z"/><path class="cls-120" d="M410.14,19.45c0,.32,0,.65,0,1a3.44,3.44,0,0,1-5,0c0-.32,0-.64,0-1Z"/><path class="cls-121" d="M354,173l0-3.93c.12-3,.25-6,.37-8.95,6.6,5.37,12.35,11.61,18.18,17.77-6.21,0-12.15-1.79-18.19-2.85Z"/><path class="cls-10" d="M128.89,37.36v-1c.32-4.73,2.71-7.44,7-7.85a7.91,7.91,0,0,1,8.41,5.5c1.19,4.15-.59,7.71-5,10.06a12.8,12.8,0,0,1-4.05.17C131.7,43.24,129,41.45,128.89,37.36Z"/><path class="cls-24" d="M138.87,43.37c4.45-1.16,5.32-4.55,4.85-8.39-.43-3.56-2.81-5.31-6.39-5.6-5.15-.42-7.39,2.55-8.44,7-2.44-4.49,1.19-6.17,4-7.78,4-2.33,7.87-.93,10.63,2.36,3.77,4.5,1.9,10.79-3.62,13.41C138.81,44.75,138.64,44.26,138.87,43.37Z"/><path class="cls-31" d="M128.89,37.36c1.34,2.65,2.55,5.43,6,6,.23.89.06,1.38-1,1C131.06,42.84,127.07,42.16,128.89,37.36Z"/><path class="cls-43" d="M133.86,44.37l1-1,4,0c.33.34.67.67,1,1A4.59,4.59,0,0,1,133.86,44.37Z"/><path class="cls-17" d="M380.15,53.28l1,1-3.83,3.13L376,57.24C376.27,54.75,378.4,54.22,380.15,53.28Z"/><path class="cls-122" d="M44.29,229.74a3.76,3.76,0,0,0-2.19,2.14c-1.65,1.64-3.33,3.18-5.93,2.1a2.73,2.73,0,0,1-1.07-2.16c.87-8.66,1-17.43,3.81-25.8,4.08-.48,6.67-3.21,9.16-6.08,1.41,1.58.82,3.42.66,5.2-.59,6.4-1.7,12.74-2.26,19.15C46.28,226.37,45.18,228,44.29,229.74Z"/><path class="cls-25" d="M38.91,206c.35,7.74-1.63,15.24-2.33,22.88-.16,1.76-1,3.52.32,5.17a.7.7,0,0,1,.39.69c0,.28-.1.41-.18.42A10.74,10.74,0,0,1,34.22,237c-1.5.44-2.91,2.06-4.59.4-.84-2.25.38-4.42.2-6.65a18.45,18.45,0,0,1,.4-3.78,12.24,12.24,0,0,0,.54-4.5c-.37-4.43,1.06-8.75.83-13.17.72-3.09,3.08-3.93,5.83-4.26Z"/><path class="cls-123" d="M44.29,229.74l3.78-29.8L52.94,198c.21,7.76-1.74,15.29-2.39,23-.14,1.63-.23,3.26-.34,4.89C48.79,228,46.36,228.6,44.29,229.74Z"/><path class="cls-124" d="M37.43,205.08l-5.09,3.69c-.45,1-1.05,1.62-2.22,1-.1-2,1.81-4.3-1-5.83,3.25-.74,5.09-5,9.17-3.67C36.85,201.66,37,203.34,37.43,205.08Z"/><path class="cls-19" d="M378.25,21.41c-3.52,2.95-7,2.85-9.76-.28s-2.61-6.92.29-9.67a7.18,7.18,0,0,1,10.22.29c3.08,3.13,2.86,5.92-.76,9.67-1.31-1.48-.27-3.15-.39-4.72-.22-2.63-1.44-4.45-4.22-4.44a3.72,3.72,0,0,0-3.86,3.7c-.22,2.65,1.12,4.34,3.76,4.92C375.08,21.23,376.8,20.1,378.25,21.41Z"/><path class="cls-10" d="M37.14,121.15h2c4.81,2.41,6.16,6.26,3.07,9.2-1.52,1.46-3.27,2.89-5.74,1.65-2.19-1.11-3.82-2.36-3.88-5.2C32.53,123.47,34.4,122,37.14,121.15Z"/><path class="cls-35" d="M37.14,121.15c-2.91,2.3-6.15,4.63-2.63,8.72,2.21,2.57,5,2.59,7.21,0,3.54-4.07.31-6.42-2.58-8.75,4.73,0,5.25,3.09,4.93,6.69S41,133,38,132.92s-5.72-1.69-5.81-5.44C32.06,124,32.45,120.87,37.14,121.15Z"/><path class="cls-10" d="M162.8,21.42c-.16-.79-.05-2-.52-2.31-3.48-2.07-1.11-2.84-.15-5.41,2-5.35,6.28-6.27,9.88-8.83,1.93-1.37,2.86-2,4,.68.81,2,2.53,2.72,4.87,2.43s4.2.32,2.58,3.34c-.16.29-.46.81-.4.86,5.63,4.52-.32,8.43-.58,12.63a4,4,0,0,1-1.53,2.73c-3.9-3.54-6.53,5.08-10.19,1.06-.95-1.05-2.05-2.26-3.14-2.17-3.91.33-4.48-2.15-4.82-5Z"/><path class="cls-15" d="M36.13,152.06c-2.66,1.28-1.16,3-.36,4.49.34.62,1.48.77,2,1.36.68.84-5.79,10.21-6.75,10.59-4.61,1.82-8.63,3.14-13.38-.85-1.43-1.21-2-1.47-2.91-3.42-2.18-4.68-2-7.72.77-12.31,1.53-2.55.7-5.19,4.67-3.12,4.24-4.85,7.81-.72,11.86.49,2,.59,3.16,1.22,4.14,2.77Z"/><path class="cls-125" d="M301.28,111.3l-3.47,7.4C297.13,115.07,299.07,113,301.28,111.3Z"/><path class="cls-126" d="M297.61,109.21c-.73,2-1.09,3-1.66,4.6C295.24,111.87,295.33,110.72,297.61,109.21Z"/><path class="cls-127" d="M30.12,209.76l2.22-1c2.34,4.78-1.3,9.4-.36,14.14a5.9,5.9,0,0,0-.76,4L31,230.83c-4.42.21-3.48-3.58-3.93-5.82-.74-3.66-.2-7.56-1.83-11.1-.17-2.11,2.27-1.68,2.91-3a1.4,1.4,0,0,1,1.12-.73A1,1,0,0,0,30.12,209.76Z"/><path class="cls-128" d="M25.23,213.91c3.27,2.59,1.63,6.62,2.86,9.83.91,2.39,0,5.5,2.9,7.09-.24,2.32-.47,4.63-.71,6.95-3.05.38-3.12-2.15-3.91-4,.17-4.29-1.79-8.53-.38-12.86l-.94-5.05Z"/><path class="cls-129" d="M29.26,210.18l-1.12.73c-1.73-1.29-.48-2.62-.06-3.94C30.16,207.42,28.62,209.2,29.26,210.18Z"/><path class="cls-6" d="M324.37,230.84l-19,11c-1.15.9-2.23.34-3.31-.17-4.2-3.68-8-1.63-11.76.83a5.7,5.7,0,0,1-4.15-.49c-2.83-1.17-5.5-4.27-8.79-.67.85,1.74,2.76,1.67,4.08,2.51a6.48,6.48,0,0,1,1.69,1.15c.93,1,2.23,1.63,2.6,3.08a1.56,1.56,0,0,1-1.39,1.31c-1.63.09-3.16-1.05-4.84-.47-.92.32-2.09.65-2.06,1.78s1.3,1.29,2.25,1.45c1.29.21,2.61-.36,3.92.06.67.34,1.21.75.85,1.63a21.61,21.61,0,0,1-7,4,1.47,1.47,0,0,1-2.3-.29c-1.21-2.35-3.69-2.77-5.78-3.78a7,7,0,0,1-1.61-1.08c-1.38-1.34-3.2-2-4.74-3.14a23.46,23.46,0,0,0-3.42-1.84c-4.6-2.44-8.86-5.51-13.85-7.19a6,6,0,0,1-1.13-.79c-5.22-4.13-8.1-3.61-13.51,2.49a2.32,2.32,0,0,1-1.54,1.24,12.16,12.16,0,0,0-7,2.29c-.72.51-1.34,1.15-2.06,1.66-2.24,1.3-5,1.7-6.61,4.06a2.79,2.79,0,0,1-1.46,1.27c-1.65.67-3.57.79-4.87,2.35.72,1.92,3,2,4.07,3.37a1.93,1.93,0,0,1,.3,1.34,2.6,2.6,0,0,1-2.21,1.56c-1.24-.06-2-1-3-1.57-3.26-1.91-6.28-2.46-8.55,1.45a2.36,2.36,0,0,1-1.58,1.2c-2.37.63-6.55-.61-4.62,4.47a1.65,1.65,0,0,1-1.18,1.52c-1.72.49-3.11-1-4.71-.83-2.92.23-4.35,1.37-2.11,4.24a1.45,1.45,0,0,1-1.18,1.47,10.85,10.85,0,0,0-10.35,1.4,17.89,17.89,0,0,0-4,2c-1.35,1.08-2.94,1.87-3.8,3.48a3.54,3.54,0,0,1-.93.92c-2.7,0-4.78,1.55-7,2.75-1,.5-1.77,1.26-2.74,1.76a39.64,39.64,0,0,0-6.28,3.86,7.83,7.83,0,0,1-1.69,1.11c-2.15,1.11-6.08,1.23-2.89,5.27a1.66,1.66,0,0,1-1.24,1.47c-3.53-.6-7.15-2-10.25,1.17-.78.45-1.59.87-2.39,1.29-1.24.89-3.52,1.08-3.41,2.88.13,2,2.47,1.52,3.84,2.13a3,3,0,0,1,1.56,1.18c1.17,2.32,3.69,2.72,5.62,4,.57.33,1.09.7,1.62,1.08a19.39,19.39,0,0,0,6.44,2.8,4.84,4.84,0,0,1,1.62,1.06c1.52,1.88,3.77,2.68,5.75,3.9a18.4,18.4,0,0,0,2.64,1.81c2.74,1.76,5.38,1.88,8.08-.15a6.8,6.8,0,0,1,4.48-1.61,3.4,3.4,0,0,1,1.34.53.89.89,0,0,1-.06,1.26c-6.33,5.41-12.26,6.36-19.94,1.27-11.57-7.68-24-14-36.15-20.84-1.61-.91-3.72-1.75-3.94-3.52-.27-2.27,2.42-2.29,3.87-3.14q39.49-23,79.07-45.9,34.22-19.75,68.5-39.4c9-5.2,18.13-10.34,27.14-15.59,3.72-2.17,7-1.79,10.68.42,13.37,8,26.87,15.74,40.39,23.46,3.66,2.09,4.11,3.73-.08,5.5-.95.81-1.69.42-2.35-.4-3.46-4.53-8.92-6-13.45-9a20.71,20.71,0,0,0-2.2-1.49,35.62,35.62,0,0,1-7.17-4.06,9.29,9.29,0,0,0-8.66-1.49,1.54,1.54,0,0,1-1.34-1.36c1.27-2.27.26-3.36-2-3.44a5.73,5.73,0,0,0-5.26,2.85,3,3,0,0,1-1.53,1.23c-2.41.68-5.2.68-6.38,3.57a2.24,2.24,0,0,1-1.53,1.18c-2.68-.18-4.76,1.3-6.94,2.5-.78.42-1.42,1.05-2.17,1.52a28.61,28.61,0,0,0-5,2.95c1.06,1.5,2.8,1.68,4.15,2.41a7,7,0,0,1,1.65,1.1c1.22,1.17,2.78,1.9,4.07,3a17.53,17.53,0,0,0,3.89,2c2.11,1,4.05,2.34,6.18,3.32.7.45,1.29,1,2,1.46A26.42,26.42,0,0,1,298,233c.91.58,1.95.87,2.9,1.37,3.69,3.11,7.28,3,11.1.06,2.3-1.79,5.35-2.55,7.29-4.93a5.59,5.59,0,0,1,1.08-.86,2.92,2.92,0,0,1,1.37-.2C322.85,229,324.66,228.73,324.37,230.84Z"/><path class="cls-6" d="M102.06,292.75c-4.93-.06-7.84-2.38-10.3-4.58-2.23-2,1-3,2.26-3.77,9.41-5.58,18.93-11,28.4-16.42Q156.23,248.5,190,229q34-19.62,68-39.27c4.16-2.41,8.28-4.89,12.48-7.21,3.64-2,11.24,0,13.27,3.41,1.22,2-.57,2.56-1.81,3.28q-21.92,12.72-43.86,25.43-34,19.65-68,39.26-32.94,19-65.89,38A7.86,7.86,0,0,1,102.06,292.75Z"/><path class="cls-49" d="M319.44,283.77Q291.72,300.08,264,316.38a3.68,3.68,0,0,1-4.15-.14q-14.61-8.81-29.26-17.54c1.18-2.68,3.93-3.47,6.14-4.74,15.49-9,31.09-17.79,46.47-26.95,2.92-1.74,5.21-2,8.15-.11C300.56,272.78,310.5,277.44,319.44,283.77Z"/><path class="cls-130" d="M294.43,204.93l1-.92c2.72,0,5.26,1.31,8,1l1,.89c1.8,4.76,6.69,5.52,10.39,7.62,2.42,1.38,4.41-1.46,6.51-2.61a2.1,2.1,0,0,1,1.08,2.06c-3.48,4,0,5.07,2.63,6.93a13.07,13.07,0,0,0,11.31,2,2,2,0,0,0,2,1,99.75,99.75,0,0,1-13.95,8l-3-2c1.49-1.67,3.82-1.87,5.64-3.24-1.84-1.29-3.63-2.21-5.83-.89-2.52,1.51,1.12,2.71.19,4.13l-1,1c-5.48-2.11-9.7.76-14.1,3.35-1.69,1-3.29,3.09-5.77,1.7-1.12-.07-2.33.16-3.09-1,.82-1.8,4.85-1.44,3.81-3.62-1.29-2.7-3.7-.07-5.61.47a4,4,0,0,0-2.17,1.11,2.05,2.05,0,0,1-1-2c-.5-1.88,1.65-2.16,2.19-3.65-3.32-3.22-6.17.07-9.18.69l-4-2c1.69-1.68,4.33-1.53,6-3.13-3.37-2.94-6.64.15-10,.2l-1-1c1.39-2.15,2.39-4.35,1-6.9a2.11,2.11,0,0,1,1.06-2.06,7.59,7.59,0,0,0,3.44,1.81c3.66,1.3,4.75.32,4.49-3.82l1-.93c1.35-.76,2.51.29,3.77.43,1.72.2,3.51,0,4.5-1.37C296.59,206.89,293.65,206.53,294.43,204.93Z"/><path class="cls-131" d="M168.78,320.6v-1c-.83-.93-.44-1.75.23-2.54a12.56,12.56,0,0,1,3.67-2.18c2.57-1.08,2.27-2.56.81-4.32a1.63,1.63,0,0,1,1.15-1.55c1.37-.39,2.5.36,3.73.72,2.3.67,4.84,0,5.26-2.07.49-2.35-2.48-1.71-3.95-2.39a1.67,1.67,0,0,1-1.21-1.48c.56-1.69,2.19-2.18,3.44-3.09a19.29,19.29,0,0,1,2.73-1.94c1.71-.62,3.27-1.75,5.22-1.61a1.44,1.44,0,0,1,1.13,1.55,6.54,6.54,0,0,1-2,2.17c-.82.79-2.9,1.16-1.66,2.86.86,1.19,2.44.84,3.68.3,4.55-2,8.55-5,12.89-7.35,9.7-5.32,19.09-11.15,28.74-16.54a1.33,1.33,0,0,0,.6-.88c-.57-1.8-2.55-1.71-3.83-2.6a3.14,3.14,0,0,1-1.05-1,1.75,1.75,0,0,1,1.18-1.68,5.35,5.35,0,0,1,2.86-.19c7.16,3.18,7.79,3.1,11.62-1.46a2.32,2.32,0,0,1,1.57-1.21c3.66.07,6.4-1.85,9-4.15a5.71,5.71,0,0,1,1.09-.81c2.79-1.14,5.94-1.74,7.39-4.9a2.42,2.42,0,0,1,1.56-1.21,10.12,10.12,0,0,0,6-1.74c1.43-.93,2.81-2.43,4.86-1.47a2.15,2.15,0,0,0,2,.93c-15,8.8-29.9,17.66-44.91,26.39q-28.55,16.6-57.19,33C173.27,318.44,171,319.47,168.78,320.6Z"/><path class="cls-132" d="M319.44,283.77a126.78,126.78,0,0,1-22.87-12.83c-6.65-4.6-11.46-4.37-18.34,0-15.45,9.91-31.7,18.56-47.63,27.72-3.27-2.11.35-2.5,1-2.89,5-3.13,10.23-6.05,15.38-9,12.31-7.09,24.64-14.13,36.92-21.27,2.33-1.35,4.31-1.71,6.84-.2,8.93,5.32,18,10.39,27,15.64C318.66,281.51,320.42,281.91,319.44,283.77Z"/><path class="cls-133" d="M284.46,248.81l1-.94c1-.75,2.18-.41,3.27-.58,3.22-.49,2.84-2.18,1.46-4.24a3.84,3.84,0,0,1,1.33-1.55c3.76,1.64,7.34.57,10.92-.68l3,1c-6.88,4.15-13.62,8.56-20.91,12l-1.08-1.05a1.15,1.15,0,0,1,.27-1.29C284.55,250.73,286.26,250.3,284.46,248.81Z"/><path class="cls-121" d="M380.2,227.79a229.28,229.28,0,0,0,5.26,30.63c.86,3.35,0,4.89-2.67,6.32s-5.08,3-9.19,5.41c3.09-12.54.3-24,2.62-35.35-1.13-2.22,0-4.33.31-6.48.15-.47.3-.94.44-1.41C378.38,226,379.26,227,380.2,227.79Z"/><path class="cls-134" d="M377.32,226.75l-.16,1.08a.55.55,0,0,1-.92,0c.59-8.94-1-17.7-1.95-26.53-.63-5.93-5.65-6.63-9-9.38-.24-.89-.06-1.38,1-1,9.55.94,10.53,7.94,11,15.4.28,4.54,1.86,9,1,13.62C379,222.37,379.33,224.73,377.32,226.75Z"/><path class="cls-135" d="M377.32,226.75l1-6.78c1.91,2.3,1.71,5.11,1.92,7.82C379,228.11,378.23,227.25,377.32,226.75Z"/><path class="cls-136" d="M376.24,227.86c.31,0,.61,0,.92,0-.31,2.33-.63,4.65-.94,7A5.78,5.78,0,0,1,376.24,227.86Z"/><path class="cls-137" d="M366.27,191l-1,1a5,5,0,0,1-2.87-3.34A7.19,7.19,0,0,1,366.27,191Z"/><path class="cls-5" d="M37,234.67a2.9,2.9,0,0,0-.07-.6c1.81-.53,3.1-2.3,5.19-2.19.67,3.32,1.33,6.63,2,9.94,1.23,11.71,3.7,23.22,5.68,34.81.84,4.93-1.73,7.35-6.5,6-1.56-12.07-4.23-24-6-36C36.67,242.74,34.52,238.71,37,234.67Z"/><path class="cls-138" d="M37,234.67c1.38,13.94,4.71,27.57,6.7,41.41.3,2.13,1.82,4.53-.4,6.58-2.78-2.74-1.17-6.9-3.17-9.9-1.7-7.54-8.72-9.18-14.08-12.65-2.3-1.48-5.19-2.21-6.37-5.11a3.35,3.35,0,0,1,3.21-3.51,6.54,6.54,0,0,1,2.24,1.8c3.37,2.71,7.39,4.29,11.46,7.06.45-5.24-1.11-9.43-2.07-13.71-.49-3.57-1.76-7.12-.31-10.74Z"/><path class="cls-5" d="M20.17,254.76c4.29,3.69,9.42,6,14.34,8.64,3.86,2.07,6.35,4.67,5.6,9.36q-7.56-4.23-15.13-8.45c-1.51-.84-3-2.4-4.82-.61-3-2.06-2.95-4.89-2-7.94l0,.05C18.71,255.23,19,254.2,20.17,254.76Z"/><path class="cls-139" d="M18.19,255.76c-1.13,3.09,2,5.12,2,7.94A7.89,7.89,0,0,1,16.43,266C15.42,262.29,16.67,259,18.19,255.76Z"/><path class="cls-140" d="M292.48,380.34c2.79.19,4.25-2.7,6.85-3,1.08-.52,1.19.07,1.07.94-3.09.92-5,5.27-9.11,3.19Z"/><path class="cls-141" d="M312.43,369.54c3-1.17,5.08-4.38,8.79-3.94-1.94,2.61-4.92,3.6-7.68,4.95C312.43,371,312.29,370.44,312.43,369.54Z"/><path class="cls-142" d="M300.4,378.32l-1.07-.94c2.14-1.65,4.24-3.37,7-4,1.08-.53,1.2.06,1.08.93Z"/><path class="cls-143" d="M277.44,372.61a17.37,17.37,0,0,1,6.07,3.79.78.78,0,0,1,.21.81c-.09.25-.19.38-.28.38a20.54,20.54,0,0,1-7.14-4C276.4,372.94,277,372.85,277.44,372.61Z"/><path class="cls-144" d="M283.44,377.59c0-.4,0-.79.07-1.19,2.62,1.22,5.74,1.75,6.89,5A14.45,14.45,0,0,1,283.44,377.59Z"/><path class="cls-145" d="M307.38,374.32l-1.08-.93,6.13-3.85,1.11,1Z"/><path class="cls-146" d="M266.63,366.41l5,3c-.09.63-.66.71-1.09,1l-5-2.85C265.29,366.54,265.54,366.05,266.63,366.41Z"/><path class="cls-147" d="M270.55,370.36l1.09-1,5.8,3.21-1.14,1Z"/><path class="cls-148" d="M266.63,366.41c-.37.37-.74.74-1.12,1.1-1.37-.48-2.15-1.33-1.74-2.89Z"/><path class="cls-149" d="M285.46,366.67c5.41,1,10.77,1.38,15.93-1.13,2.24-1.1,4.46-2.21,5.22-4.89,2.91,2.94,2.55,6.49-1.14,9.11-3.86,2.74-8.33,3.65-13,3.81l-2.08-.18C287.63,372,283.56,371.52,285.46,366.67Z"/><path class="cls-150" d="M285.46,366.67c-.27,3.65,3,4.71,5,6.72-3.81.24-7.15-1.25-10.27-3.11-4.47-2.68-5.13-5.73-2.69-10.7,1,3.48,3.59,5.23,6.9,6.13Z"/><path class="cls-151" d="M20.17,254.76l-2,1.05C19.9,244,21.74,232.19,26,220.94c.71,4.28,2,8.5,1.28,12.92.17,6.35-.26,12.55-4.21,17.92A7,7,0,0,0,20.17,254.76Z"/><path class="cls-152" d="M110.92,351.52l-1,0c-1.38-.53-3.89-.31-2-3Z"/><path class="cls-75" d="M407.17,317.62l7,0c0,1,0,2,0,3-3.87,1.37-7.58,3.7-12,2v-1.95C403,318.18,404.78,317.42,407.17,317.62Z"/><path class="cls-153" d="M409.15,325.59c1.27,2.4,6.38-1,6,3.93a4.79,4.79,0,0,1-3.41,1.38c-2.2,0-4.18,1.49-6.45,1-2.9-3.12-.54-4.56,1.91-6A2,2,0,0,1,409.15,325.59Z"/><path class="cls-154" d="M415.12,330.61c.71,2.62-1.8,2.76-3,3.91-1.94.57-3.73,2-5.94,1.07-.34-.67-.67-1.35-1-2,1-3.09,4.15-2.27,6.18-3.46C412.61,330.25,414,329.7,415.12,330.61Z"/><path class="cls-75" d="M409.15,325.59l-1,1c-2-.12-5.57,2.31-4.71-2.76,3.4-1.87,6.83-3.4,10.69-1.23C413.73,325.69,410.51,324.09,409.15,325.59Z"/><path class="cls-155" d="M414.14,322.61c-3.79-.1-7.62-.39-10.94,2-.58-.11-.65-.72-1-1v-1c4.06-.23,7.73-2.76,12-2C415.16,321.26,415.18,321.93,414.14,322.61Z"/><path class="cls-156" d="M406.17,335.59l5.94-1.06c1.32.31,2.83-.52,4.37.93-3.06.05-5.8.15-8.35,1.22C407,337.15,406.27,336.94,406.17,335.59Z"/><path class="cls-157" d="M411.16,330.56c-1.88,1.24-4.51,1-6,3l-2,0c0-.65,0-1.29,0-1.94a1.4,1.4,0,0,1,2-.07l5.95-1.9c.32.21.42.42.32.63S411.27,330.56,411.16,330.56Z"/><path class="cls-158" d="M411.16,330.56c0-.31,0-.62,0-.93l3.94-.11c.69.36.75.72,0,1.09Z"/><path class="cls-159" d="M339.38,319.55c1.7,0,3.22.31,4,2C342,321.06,340,321.56,339.38,319.55Z"/><path class="cls-160" d="M350.32,317.57v-1l3,1.06c.58.52,1.58.84,1,2h-2Z"/><path class="cls-161" d="M354.3,319.61l-1-2c1.78-.29,2.36-1.14.86-2.43a37.09,37.09,0,0,0-3.89-2.6c3.32-.77,5.48,3.67,9,2a.69.69,0,0,1,1,0A12.06,12.06,0,0,1,354.3,319.61Z"/><path class="cls-162" d="M360.32,314.63h-1l-2-3,3,1a2.06,2.06,0,0,1,1,2C361,314.63,360.64,314.64,360.32,314.63Z"/><path class="cls-91" d="M414.1,310.54c.13,5.95.13,5.95-6.91,6.14-1.28,1.64-3.1,1.88-5,1.91l-2-5.07C403.49,309.26,410.21,307.82,414.1,310.54Z"/><path class="cls-74" d="M405.22,331.53l-2,.07a20.71,20.71,0,0,1-1-8l1,1c.8,2.81,3.5.83,5,2C406.48,327.83,403.42,328.23,405.22,331.53Z"/><path class="cls-163" d="M402.2,318.59l5-1.91c0,.31,0,.63,0,.94l-5,3C401.16,319.94,401.19,319.26,402.2,318.59Z"/><path class="cls-164" d="M62,57.2c-.33-5.6-.62-11.2-1-16.79-.29-4,3.14-4,6.37-6.33-1.31,8.6.78,16.57-3.21,23.42Z"/><path class="cls-165" d="M66.44,61.5c-.15,2-.8,3.94-2.92,4.59-1.63.51-1.84-1-1.8-2.1.08-2,.56-4,2.83-4.59C66.17,59,66.32,60.31,66.44,61.5Z"/><path class="cls-10" d="M75,270.66Q75,201.2,74.89,131.73c0-4.14,2.39-6.18,5.59-8q45.47-26.16,90.87-52.42,46.49-26.87,92.94-53.79c1.93,1.42,1.58,3.55,1.59,5.48q0,66,.06,132c0,5.05-2.05,8.46-6.35,11q-36.21,20.94-72.47,41.82-34.32,19.75-68.58,39.61c-12.65,7.32-25.34,14.55-38,21.92C78.9,270.25,77.23,271.58,75,270.66Z"/><path class="cls-166" d="M75,270.66q43.5-25,87-50c32-18.44,63.92-37,96-55.32,4.81-2.74,6.68-5.91,6.66-11.44-.19-43.66-.1-87.33-.12-131,0-1.82-.2-3.63-.3-5.45,5.08-2.28,5.33-2.17,5.33,3.19q0,69.27.09,138.53c0,4.06-1.63,6.43-5,8.36-22.57,13-45.07,26.08-67.62,39.11q-43.29,25-86.61,50c-10.06,5.8-20.1,11.62-30.2,17.34C75.85,276.57,75.3,276.16,75,270.66Z"/><path class="cls-167" d="M385.91,159.88c2.42.39,3,2.06,3.32,5.32l-4-5.35A.63.63,0,0,1,385.91,159.88Z"/><path class="cls-168" d="M382.11,160.4l-8.25,2.47C376.77,160,376.77,160,382.11,160.4Z"/><path class="cls-169" d="M371.3,159.75c1.36-2.33,3.38-3.09,6.42-2.36Z"/><path class="cls-170" d="M406.21,224.78c-2.26,2-5,2.19-7.86,1.79,2.41-.58,4.6-1.46,5.87-3.73Z"/><path class="cls-10" d="M405.17,20.42h5l5,4c-.3,2.54.78,5.24-1.12,7.6-2.13,2.65-4.66,4.22-8.12,3.1-4.69-1.53-6.05-5.15-5.7-9.7Z"/><path class="cls-171" d="M23.06,251.78q2.1-9,4.21-17.92c1.31,1.07.77,3.56,3,3.92l3.91-1.88q.9,5.46,1.79,10.91c-3,4.08-7.2,6.2-12.08,7.13C22.84,253.52,23.29,252.52,23.06,251.78Z"/><path class="cls-128" d="M31.22,226.89c-2-1.76-.78-2.9.76-4C32.06,224.3,32.34,225.73,31.22,226.89Z"/><path class="cls-10" d="M378.25,21.41c-2.66.45-5.26,2.11-7.91-.36-2.26-2.12-2.8-4.64-1.57-7.15,1.11-2.26,3.3-3.88,6.1-3s4.85,2.85,4.34,6.25c-.22,1.45-.64,2.87-1,4.31Z"/><path class="cls-35" d="M178.76,12.44c2.82,3.79,2.65,7.39-1.1,10.35-3.15,2.5-6.55,2.2-9.42-.54-3.85-3.69-2.52-7.35.54-10.81a2.63,2.63,0,0,1,.74,1.17,10.7,10.7,0,0,1-.27,3.43c-.37,2.95.63,4.94,3.87,5s4.48-1.66,4.25-4.72a11.33,11.33,0,0,1-.06-2.47A1.84,1.84,0,0,1,178.76,12.44Z"/><path class="cls-35" d="M178.76,12.44l-1,1c-2.94-.74-6.06.07-9-1l0-1C172.41,8.77,175.71,9.39,178.76,12.44Z"/><path class="cls-35" d="M31.15,156c1.93,3.6.4,6.57-2.42,8.46s-6.26,2.25-8.58-1.44l.53-.44c7.23,0,7.23,0,8.83-5.36A2.29,2.29,0,0,1,31.15,156Z"/><path class="cls-24" d="M19.16,155.05c1.22-3.61,3.63-4.41,7-3a.9.9,0,0,1,.28.8q-.07.42-.18.42c-2,1.13-4.31,1.35-6.46,2Z"/><path class="cls-24" d="M20.15,163.05c-3-2.34-3.13-5-1-8h0c1.65,2.49,2.24,5.1,1,7.95Z"/><path class="cls-31" d="M26.15,153c0-.32,0-.64,0-1,2.79-.09,4.55,1.12,5,4-.32.34-.65.68-1,1A16.33,16.33,0,0,1,26.15,153Z"/><path class="cls-130" d="M169.82,317.59a2.11,2.11,0,0,0-1,2l-1.08,0c-5.38-4.69-9.55-1-13.81,2l-2.09-2c-.08-2.82,3-2.52,4.35-4.51a4.13,4.13,0,0,0-5.41-.91c-1.54.76-2.9,2.23-4.91,1.41l-1-.95c.76-4.05,5.54-3.4,7.3-6.37-1.78-2.22-3.75-1.8-5.93-.45-2.62,1.61-5.07,3.64-8.35,3.81l-1-1c0-3.27,3.81-3.08,5-5.37-.7-1.85-3-1.76-4-3.17a2,2,0,0,1-.34-1.28c.83-2,3-2.57,4.32-4.09l1-.93c1.62-1.06,3.84-.8,5.29-2.5.07-1.63-3.06-1.43-2.27-3.57l1-1.07c1.91-.4,3.48.8,5.23,1.12,1.36.25,2.88.06,3.57-1.12.86-1.48-1.25-1.58-1.71-2.54a1.57,1.57,0,0,1-.19-1.36l2.05-2a7.56,7.56,0,0,0,3.43,1.81c3.65,1.3,4.76.32,4.5-3.78l0-1.09c1.55-1.2,2.78.1,4.1.55,1.57.54,3.24.45,3.87-1.08.79-1.93-1.34-1.76-2.36-2.31a5.87,5.87,0,0,1-1.63-1.06c1-1.41,2.79-1.14,4-2,3.81,1.58,7.64,3.33,10.9-1l1-.92c2.42-1.17,5.47-1.27,6.95-4.06l1-.92c2.38-1,6.65-.12,5-5.07l1-.93c3.51.15,7.11.73,10-2.07l1.94,2c.51.81.29,2,1.24,2.57,1.54.93,3.51,1.29,4.4-.26,1.15-2-1.16-2.1-2.35-2.67a4.74,4.74,0,0,1-1.27-.69v-1c-.2-.48-.23-1.18.13-1.34,3.12-1.46,1.69-3.53.83-5.54l1-.95c1-.59,1.92,0,2.78.4a4.2,4.2,0,0,0,4.67-.13c2.18-1.62-1.25-2.73-.47-4.26a2.12,2.12,0,0,1,1-2.06c1.57.84,3,2,4.86,2.21,3,.36,4.16-1.26,3.1-4.22l1-.95A15,15,0,0,0,242.34,239a2.73,2.73,0,0,1,3.19-.23l.06,1.1c-1.41,2.41-3.22,4.65.78,6.7,1.44.74,1,1.58-1.61,4.95.87,1.62,2.81,1.53,4.09,2.5a2,2,0,0,1,1,1.74c-.14,1.05-1.88,1.76-.78,3a3,3,0,0,0,3.64.61c2.41-1.05,4.63-2.48,7-3.7,2.84-1.5,5.31-3.91,8.82-3.92l1,1c.36,2.24-1.65,2.59-2.9,3.28-2,1.11-2.66,2.55-2,4.68l-1,.94c-1.36.76-2.54-.35-3.83-.37-3.88-.07-5.27,1.72-4.13,5.36,0,.38-.05.76-.07,1.14-1.71.37-3.13-.62-4.68-1-3.66-.8-5.49,1-5.24,4.89l-1,.93c-4.26-.93-8.08.68-11.94,2.05h-3c-.41-1.22.87-3-1.23-3.67-1.33-.43-2.77-.53-3.54.65-1.17,1.81.81,2,1.78,2.59a7.51,7.51,0,0,1,1.94,1.4l1.09,0c.28,2-1.43,2.45-2.6,3.17-10.86,6.65-22,12.89-33.09,19.07-1,.55-2,1.26-3.24.61l-1-.92a3.7,3.7,0,0,0-2.82-2.94c-1.34-.31-2.72-.31-3.62.69-1.53,1.67.85,1.92,1.3,2.91a1.5,1.5,0,0,1,.14,1.33l-2,2c-1.42-.81-2.72-1.9-4.34-2.28-1.34-.31-2.88-.22-3.41,1.21s1.09,1.71,2,2.18a5,5,0,0,1,1.69,1l1,.91c-.09,3.18-3.6,3-4.91,5l-1.05.93a2,2,0,0,1-.82.49C167.06,312.82,167.06,312.82,169.82,317.59Z"/><path class="cls-75" d="M248.55,254.76a24.13,24.13,0,0,1-2.8-.92c-1.18-.55-2.29-1.25-3.55-2,.5-1.63,2-1.7,3-2.45s1.84-1.94.17-2.63c-6.39-2.63-3.47-4.77.24-7,5.92.3,9.91,4.71,14.92,7C258.4,252.29,253.21,253.13,248.55,254.76Z"/><path class="cls-75" d="M268.49,251.75c-5.13,3-10.28,6-15.39,9-3.27,1.94-4.55-1.58-6.94-2.08.5-2.07,2.29-2.07,3.4-2.94,4.24-3.16,8.07-7.15,14-7Z"/><path class="cls-172" d="M336.35,221.9c-3.37,2.38-6.59,2.73-10.12,0-2.52-2-5.51-3.33-8.33-5,1.16-2,3.76-1.89,4.51-3.9,5.57,1.17,9.76,5,14.49,7.73A10,10,0,0,1,336.35,221.9Z"/><path class="cls-172" d="M300.54,234.87c2.88-1.5,6.06-2.63,8.59-4.59,3.84-3,7.37-3.68,11.28-.46-3.48,4.39-8.65,6.29-13.45,8.42C304.87,239.17,302.07,237.22,300.54,234.87Z"/><path class="cls-75" d="M321.33,210.93c-3.06,4.7-5,5.26-9.34,2.72-2.4-1.4-4.8-2.78-7.23-4.13-1.91-1.06-2.08-2.23-.33-3.6,2.7-1.79,5.05-1.87,8,.17C315.12,208,317.85,210.26,321.33,210.93Z"/><path class="cls-154" d="M137.9,311.63c2.35-1.48,4.68-3,7-4.44,4.53-2.81,4.64-2.79,9.26,1.23-2.58,2.89-6.56,3.66-9.33,6.22A9.92,9.92,0,0,1,137.9,311.63Z"/><path class="cls-173" d="M251.55,229.86l1-1c1-.66,1.9-.25,2.76.17a4.29,4.29,0,0,0,5-.49c1.57-1.43-1.74-2.17-.84-3.71l1-1c3.75.61,7.5,1.1,11-1l2,1a1.22,1.22,0,0,1-.59,1.67c-3.35,1-2.49,3.1-1.38,5.26l-1,.94a2.24,2.24,0,0,1-2.29-.15c-1.66-.84-3.37-1.39-5-.15-2,1.53,1.21,2.77.33,4.28a2.19,2.19,0,0,1-1,2.09c-3.36-3.53-7.28-1.21-11-1l-1-.95c-.08-2.89,2.86-2.51,4.06-3.67C253.05,232.28,251.53,232.24,251.55,229.86Z"/><path class="cls-154" d="M245.53,238.75c-1.72.9-3.66,1.54-5.12,2.75-3.27,2.72-6.44,2.65-9.79.36-.2-.41-.67-1.05-.55-1.2C234.3,235.42,240.27,234.71,245.53,238.75Z"/><path class="cls-174" d="M137.88,301.74a10.6,10.6,0,0,1,2.31.62c1.4.74,3.63,1,3.89,2.55.33,2-2.18,1.88-3.36,2.81s-2.57,1.92-3.86,2.87c-4.45-1.3-4.93-1.62-6-4C132.28,303.65,135,302.54,137.88,301.74Z"/><path class="cls-154" d="M153.89,321.57c3.36-6.63,10.13-7.62,13.81-2-1.07.4-2.39.54-3.16,1.26C161.13,324,157.63,324,153.89,321.57Z"/><path class="cls-154" d="M264.58,260.75c-2.55-1.67-3.41-3.17.14-4.8a36,36,0,0,0,4.79-3.16c2.34.86,5.31.77,6,4.06C271.81,258,269.29,262.43,264.58,260.75Z"/><path class="cls-153" d="M145.83,315.59c3.32-.87,5.68-5.7,10-2.44.85.64,2.52.7,2.23,2.13-.15.7-1.37,1.23-2.16,1.75-1.35.89-2.73,1.71-4.11,2.57C149.77,318.33,147.06,318.06,145.83,315.59Z"/><path class="cls-153" d="M113.27,297.16c3.43-2,6.06-5.68,10.6-2.55,1.75,1.2,1.87,2,.25,3.26C120.58,300.65,117.12,301.11,113.27,297.16Z"/><path class="cls-175" d="M219.37,242.53c-1.47,1-2.6,1.94-3.83,2.68-2.65,1.57-4.65-.32-6.74-1.45-.89-.48-.94-1.34,0-1.9,2.11-1.27,3.87-3.93,6.88-2C216.85,240.64,218,241.52,219.37,242.53Z"/><path class="cls-176" d="M254.06,222.35c-1.11,1.77-2.84,2-4.21,2.85-2.54,1.51-4.31-.48-6.25-1.49a1.08,1.08,0,0,1-.09-2c2-1.14,3.79-3.47,6.56-2A46.59,46.59,0,0,1,254.06,222.35Z"/><path class="cls-177" d="M223.45,233a49.35,49.35,0,0,1,5.7-2.84c2.32-.78,4,.95,5.72,2.06a1,1,0,0,1-.09,1.66c-1.87,1.19-3.62,3.17-6.09,2.32C227.06,235.67,225.66,234.42,223.45,233Z"/><path class="cls-178" d="M145.87,284.78c-1.88,2.18-4,3.67-6.19,3.42-1.65-.18-4.59-1.45-4.25-3.34.41-2.28,3.3-3,5.6-3.05C143.11,281.76,144.37,283.46,145.87,284.78Z"/><path class="cls-179" d="M151.34,275.21c.87-1.65,2.62-2,4.06-2.7,2.61-1.36,4.28.89,6.28,1.83a.9.9,0,0,1,.15,1.61c-2.09,1.16-4,3.5-6.67,2.24C153.78,277.54,152.08,276.9,151.34,275.21Z"/><path class="cls-153" d="M284.46,248.81c3.1,2.23-.31,2.73-1,3.94-3.06,1.52-5.76.71-8.18-1.39-.62-.55-.17-1.14.42-1.61,2.56-2.05,5.14-3.87,8.35-1.14A2,2,0,0,0,284.46,248.81Z"/><path class="cls-176" d="M229.63,242.81l3.07,2.32c-5.18,4.8-7.43,4.73-11-.31C224.31,244.12,226.32,240.88,229.63,242.81Z"/><path class="cls-153" d="M210.25,247.36c-1.2,2-3.06,3.34-5.23,3.2-1.85-.12-4.73-1-4.69-2.81,0-2.56,3.16-3.22,5.25-3.51C207.47,244,209.28,245.37,210.25,247.36Z"/><path class="cls-153" d="M220.64,246.88c.82,1.54,4.55,1.88,2.86,4.05-1.5,1.94-4.34,3.8-7.38,1.56-.79-.59-1.64-1.09-2.46-1.63C215,247.8,217.6,247,220.64,246.88Z"/><path class="cls-153" d="M199.19,254.37c-1.9,1.11-3.62,2.6-5.59,3.12s-3.47-1.53-5-2.61c-.62-.42-.21-1.34.41-1.6,1.75-.73,3-3.07,5.22-2.15C195.93,251.84,198,252.33,199.19,254.37Z"/><path class="cls-176" d="M239.94,230.83c-2-.8-4.67-1.4-4.62-3.39.05-2.26,2.75-3.36,4.8-3.34s4.89,1.1,4.68,3.35C244.63,229.25,241.86,230.16,239.94,230.83Z"/><path class="cls-176" d="M294.43,204.93l3.57,2.7c-3.2,3.69-6.61,4.41-10.53,1.35C287.93,206,289.34,205.22,294.43,204.93Z"/><path class="cls-176" d="M183,263.58c-2.44,1.85-4.31,3.36-6.68,3.06-1.82-.23-4.79-.92-4.59-2.71.24-2.3,3.3-3.45,5.41-3.41C179,260.55,180.77,262.31,183,263.58Z"/><path class="cls-153" d="M137.83,289.77c-2.11,1.58-4,3.07-6.31,2.8-1.82-.21-4.56-.81-4.18-3.13.35-2.1,3.08-3,5.1-3.09S136,288.17,137.83,289.77Z"/><path class="cls-153" d="M190.69,267.76c-.21,5-3.5,4.66-6.95,4.06l-3.36-2C184.91,265.29,184.91,265.29,190.69,267.76Z"/><path class="cls-153" d="M227.18,238.12c-3.45,3.18-7,4-10.64.32C219.9,233.71,222.64,233.62,227.18,238.12Z"/><path class="cls-180" d="M285.47,226.86c4.82-4.62,5.7-4.69,11.52-.66-1.56,1.25-3,2.44-4.53,3.62C289.53,230.25,287.9,227.62,285.47,226.86Z"/><path class="cls-176" d="M281.48,244.8c-2.36-.28-4.23-1.61-6.17-2.81,4.05-4.87,4.33-4.9,11.16-1.17C286.65,244.47,283.56,244,281.48,244.8Z"/><path class="cls-176" d="M182.73,272.74c-.7,3.07-4.17,5.31-6.61,4.07a34.22,34.22,0,0,1-4.29-3.06C175.33,272,178.74,269.19,182.73,272.74Z"/><path class="cls-153" d="M145.86,289.68l4.69,3.32c-2.54,1.61-4.22,4.43-7.71,2.75-1.05-1-4-1.1-3.13-2.84C140.73,290.85,143.44,290.11,145.86,289.68Z"/><path class="cls-174" d="M148.05,276.57c2.17,1,5.11,1.26,5.14,3.1,0,2.42-2.84,3.63-5,3.75-1.82.1-4.52-1.47-4.55-3.06C143.62,278.13,146.78,278,148.05,276.57Z"/><path class="cls-176" d="M212.62,251.82c.88,1.35,2.95,1.49,3.41,3.34-1.09,1.62-3.6,1.53-4.37,3.54-2.65-.19-4.47-1.89-6.63-3.64C207.4,253.31,209.6,251.67,212.62,251.82Z"/><path class="cls-153" d="M167.8,275.77a11.92,11.92,0,0,1,2,0c1.85.26,3.72.78,4.54,2.57.52,1.13-1,1.52-1.68,2.11-1.58,1.29-3.21,2.46-5.33,1-1.09-.74-2-1.75-3.49-1.77C163.93,277.12,166.83,277.43,167.8,275.77Z"/><path class="cls-153" d="M185.16,255.74c1.92.75,4.94,1.23,4.82,2.91-.16,2.15-2.93,3.65-5.17,3.64-1.82,0-4.53-1.44-4.5-3.16C180.35,256.83,183.36,256.68,185.16,255.74Z"/><path class="cls-153" d="M271.54,222.87c-3.32,4-7,4.21-11,1C263.05,219.27,265.79,219,271.54,222.87Z"/><path class="cls-176" d="M262.1,217.59c-2.85,2.55-5.47,4.54-9.24,2-1.73-1.16-2.57-1.62-.27-3.3C256.14,213.69,258.9,215,262.1,217.59Z"/><path class="cls-153" d="M263.56,235.74c-.14-2-4.67-1.77-2.86-4s4.69-3.85,7.79-1.29a19,19,0,0,0,2.05,1.34C269.17,234.78,266.64,235.74,263.56,235.74Z"/><path class="cls-176" d="M196.7,261.77c.29,1.38,3.85,1.24,1.89,3.49-1.76,2-4.08,3.27-6.88,1.58-.84-.94-3.66-1.16-2.23-2.83C191.14,262.08,193.56,260.1,196.7,261.77Z"/><path class="cls-153" d="M271.57,230.82l-3.56-3c1.33-2.23,4.19-2.1,5.53-4l5.72,3.41C276.86,229.48,274.78,231.32,271.57,230.82Z"/><path class="cls-176" d="M174.38,268.22a9.9,9.9,0,0,1-5.19,3.22c-2.1.73-3.68-.81-5.19-2-.53-.43-.87-1.32-.12-1.57,2.06-.72,3.41-3.46,6-2.43A28.86,28.86,0,0,1,174.38,268.22Z"/><path class="cls-153" d="M303.45,205c-3.09,3-5.49.53-8-1,2.07-4.23,7.11-5.2,9.71-1.86C307,204.53,304,204,303.45,205Z"/><path class="cls-181" d="M277.48,214l3.54,3.25c-.8,2.2-3.48,1.9-4.5,3.65-2.49-.41-4.52-1.67-6.86-3.44C272.57,216.19,274.34,213.67,277.48,214Z"/><path class="cls-176" d="M286.47,209.91c.47,1.39,3.73,1.4,2.24,3.49-1,1.45-3.15,2.73-5.08,2.25s-4.58-.9-5.09-3.73C281.32,211.81,283.09,207.67,286.47,209.91Z"/><path class="cls-153" d="M302.45,240.82c-3.37,3.45-7,4.44-11,1-.33.35-.63.34-.89-.07C295.39,237,296.8,236.9,302.45,240.82Z"/><path class="cls-174" d="M163.79,280.76c.58,1.29,3.4,1.42,2.41,3.19a5.25,5.25,0,0,1-5.09,2.52c-2.12-.36-4.66-.89-5.25-3.74C158.57,282.33,160.52,278.9,163.79,280.76Z"/><path class="cls-153" d="M129.87,305.64c-2.7.47-5.84-.62-6.18-2.65-.4-2.43,3.16-3.05,5.14-4.27.64.18-.19.08.47.17,2.26.31,4.65,1.09,4.86,3.46S131.55,304.8,129.87,305.64Z"/><path class="cls-176" d="M259.52,224.88c.86,1.38,3,1.48,3.36,3.36-3.27,3.17-6.69,3.73-10.32.67C254.15,225.78,255.21,225.17,259.52,224.88Z"/><path class="cls-182" d="M277.53,221.92c2.68-1.72,5.14-4.43,8.76-2.12.87.56,2.52.53,2.36,2-.14,1.18-1.46,1.62-2.43,2.2a7.63,7.63,0,0,1-4.72.86Z"/><path class="cls-153" d="M251.55,229.86l3.39,2.55c-.82,2-3.36,1.74-4.36,3.43-2.64.11-4.68-1.13-7-3C246.18,231,248.2,228.82,251.55,229.86Z"/><path class="cls-153" d="M251.55,236.79c6.84-3.59,7.69-3.51,11,1C258.62,240.23,254.75,242,251.55,236.79Z"/><path class="cls-181" d="M141.82,296.68c.07,2.71-2.37,2.94-3.95,4-3.86,2.52-5.49-.13-7-3C134.27,294.5,137.91,294.11,141.82,296.68Z"/><path class="cls-174" d="M211.67,259.71c3-1.67,5.06.51,6.14,2.32.91,1.52-1.63,2.41-3,3.1-2.79,1.39-4.79-.48-6.51-2.12-.85-.8,1.09-1.34,1.37-2.25Z"/><path class="cls-154" d="M153.81,284.71l4.63,3.29c-3.79,4.95-7.65,3.13-11.53.61C149,287,151.17,285.41,153.81,284.71Z"/><path class="cls-154" d="M293.48,231.84c1.92-2.53,3.84-5.19,7.64-3.6,1.15.48,2.8.87,2.86,2.36s-1.74,1.68-2.78,2.36a6.11,6.11,0,0,1-3.75.92C296.11,233.23,295.17,231.8,293.48,231.84Z"/><path class="cls-154" d="M207.71,258.77c-2.39,5.27-6.06,4.33-10,2.07a4.9,4.9,0,0,1,6.43-3.76A25.34,25.34,0,0,1,207.71,258.77Z"/><path class="cls-174" d="M290.45,242.83l3.62,2.71c-2.65,2.06-4.94,4.55-8.6,2.33l-3-2C284.46,243,286.88,241.42,290.45,242.83Z"/><path class="cls-183" d="M130.87,297.67c2.14,1.45,3.71,4.23,7,3,0,.35,0,.7,0,1-1.73,2.51-4.84,3-7,4.84l-1-.94c4.15-3,4.15-3-1-6.93Z"/><path class="cls-184" d="M263.53,248.73c-5.32,1-9.19,4.93-14,7l-1-1c3.69-3.09,8.72-4.17,12-7.94Z"/><path class="cls-185" d="M269.78,209l2.33-1.43c1.76-1.06,3.18-3,5.65-2.19.19.06.38.75.31.81C276.09,207.71,274.42,210,269.78,209Z"/><path class="cls-186" d="M286,200.14c.07.91.16,1.15.08,1.23-1.57,1.67-3.17,3.32-5.71,3.22-.17,0-.57-1-.43-1.18C281.4,201.48,283.49,200.74,286,200.14Z"/><path class="cls-180" d="M288.09,199.33c1.91-1.71,3.42-4.68,7.18-2.83C293,198.39,290.8,199.49,288.09,199.33Z"/><path class="cls-187" d="M270,210.39c-1.55,2.63-3.82,3.39-6.87,3.63C266,210.42,266.15,210.33,270,210.39Z"/><path class="cls-188" d="M290.45,242.83c-3.23-.53-5.55,1.32-7.94,3l-1-1c1.26-1.83,4.11-1.67,5-4a6.58,6.58,0,0,0,4.1,1,4.4,4.4,0,0,1,.89.07Z"/><path class="cls-153" d="M321.14,221.17c-1.28.94-2.3,1.67-3.3,2.44-2.8,2.14-4.9-.08-7.12-1.21-.82-.41-1.12-1.47-.12-1.92,2.35-1.07,4.41-3.93,7.48-1.46C319,219.72,319.9,220.31,321.14,221.17Z"/><path class="cls-176" d="M286,217.4c1.27-1.94,3.25-2.54,5-3.16,2.3-.79,4,.9,5.72,2.16.59.44.13,1.2-.53,1.55-1.89,1-3.3,3.55-6,2.07C288.78,219.24,287.44,218.3,286,217.4Z"/><path class="cls-154" d="M294,221.87c.62-1.46,2-1.46,2.76-2.21,2.8-2.79,5.06-.5,7.38.74a1,1,0,0,1,.05,1.93c-2.47,1.2-4.78,4-7.88,1.11A16.21,16.21,0,0,0,294,221.87Z"/><path class="cls-153" d="M313.21,216.84a8.32,8.32,0,0,1-5.5,2.93c-2,.17-4.65-.64-4.66-2.61s2.62-3.34,4.65-3.58C309.92,213.31,311.43,215.24,313.21,216.84Z"/><path class="cls-176" d="M312.27,225.93a6.44,6.44,0,0,1-5.41,3.25c-1.79,0-4.76-1-4.64-2.81.15-2.37,2.95-3.32,5.3-3.4C309.6,222.91,310.91,224.52,312.27,225.93Z"/><path class="cls-174" d="M321.39,228.85l-3.5-2.63c4.49-4.81,4.71-4.83,11.05-.57-2.34,1.69-4.54,3.32-7.55,3.2Z"/><path class="cls-154" d="M295,212.35c.85-1.63,2.61-1.91,4-2.69,2.25-1.25,3.73.39,5.26,1.57,1,.79.91,1.83-.25,2.33-1.8.77-3.2,3.45-5.65,1.56C297.19,214.24,295.52,214,295,212.35Z"/><path class="cls-75" d="M190.72,298.59c12.89-7.76,26.37-14.52,38.93-22.85,2.45.23,4.19,1.8,6.65,3.64-5.44,3.12-10.63,6.06-15.79,9.06-9.12,5.31-18.28,10.55-27.3,16-3.59,2.17-6.35,1.65-9.4-1.62Z"/><path class="cls-153" d="M245.59,271.74c-.37-1.32-3.54-1.39-2.09-3.14,1.7-2,4.08-4,7.17-3.19a26,26,0,0,1,4.84,2.41C252.48,269.83,250.09,273.45,245.59,271.74Z"/><path class="cls-154" d="M174.83,309.61c-.11-3.38,3.66-2.92,4.91-5,2.78-1.07,4.61.69,6.42,2.27.6.51.17,1.38-.44,1.6-2.59.92-4.38,4.34-7.85,2.53C176.87,310.53,175.84,310.09,174.83,309.61Z"/><path class="cls-154" d="M169.82,317.59c-1-1.82-4.86-1.48-4.16-3.83s3.81-3.18,6.32-3.83c.51-.13,1.19.39,1.8.61l3.55,2.07C175.32,315.31,172.4,316.21,169.82,317.59Z"/><path class="cls-154" d="M232.65,274.72c3.6-2.89,7.22-5.68,11.94-2.05-.4,3.13-4.8,5.8-7.8,4.57A29,29,0,0,1,232.65,274.72Z"/><path class="cls-154" d="M255.58,266.68l-3.69-3.44c3.94-1.9,7.25-5.55,11.65-1.55C263.18,264.58,260.2,266.44,255.58,266.68Z"/><path class="cls-174" d="M184.74,299.66l-4.7-3.31c3-3.28,6.05-4.12,9.91-1.62,2.17,1.4.34,2-.21,2.94Z"/><path class="cls-153" d="M178.76,303.74a3.06,3.06,0,0,1-.94.28,6.18,6.18,0,0,1-5.36-2.77c-.52-.86.84-1.64,1.63-2.14,2-1.25,4.08-2.26,6.31-.33,1,.84,2.41,1.24,2.37,2.88Z"/><path class="cls-153" d="M228.56,275.7a14.09,14.09,0,0,1-3.28-.72c-1.24-.58-3.46-.87-3.13-2.51.39-2,2.67-3,4.44-3.28a5.86,5.86,0,0,1,5.09,2.43c1.38,1.88-1.72,1.79-2.07,3.11Z"/><path class="cls-189" d="M23.9,253.94,36,246.81c1,5.07,2.6,10.07,2,15.78Z"/><path class="cls-3" d="M172,102.14c10.65,4.5,10.59,4.47,5.68,14.55-1.18,2.44-3.35,4.58-2.92,7.66,3.92,6.71,3.93,6.72,10.94,3.44,1-.48,2.06-1,3.1-1.39,4,2.86,1,7.11,2,10.55a5.61,5.61,0,0,1,1,2.16c.39,4-.56,7-5.12,7.72-7.48,3-10.79,9-12.35,16.53-.62,3,1.28,3.92,2.94,5,4,2.69,5,5.57,1.81,9.69a51.54,51.54,0,0,0-5.26,9c-1.48,3.11-3.4,3.43-6.4,2.32-2.35-.87-5.35-3.12-7.38-.72-3,3.53-8.59,5.9-8,11.33,1.15,10.83-4.64,16.3-13.63,19.9-.92.37-1.72,1.1-2.58,0-1.42-1.81-1.32-4-1.71-6.14-1.15-6.21-2.55-6.75-7.56-2.83-.82-.24-.44-4-2.46-.82-2.15,3.33-4.55,6.51-6.56,9.92-1.47,2.5-2.94,3.28-5.5,1.5-2.28-1.59-4.72-2.95-7.1-4.42-1.06-3.1,1.41-5.12,2.39-7.57s2.46-4.95,3.52-7.51c.36-6-.68-7-7.14-7-2.68.24-4.63,3.46-7.75,1.9-2.45-4-1.39-8.39-1.19-12.66.74-5.1,4.92-7.38,8.66-9.54,4.91-2.84,6.27-7.32,7.43-12.2.59-2.51-.86-4-2.37-5.59-1.81-1.9-3.93-3.66-3.49-6.74a79,79,0,0,1,9.23-15.75c1.51-1,3.08-.75,4.71-.33,7.62,2,10.29.67,13.91-6.92a126.19,126.19,0,0,0,2.05-13.39c2.93-5.76,9.14-7.13,13.95-10.39,3.67,1.43,1.18,5.86,3.79,7.81,1.37,1.43-.69,4.84,2.65,5,2.78.12,5.54-.25,7.23-3.13,1.58-2.67,3.42-5.18,5.11-7.79C168.65,103.77,169.35,101.55,172,102.14Z"/><path class="cls-190" d="M248.53,99.21c5.9,2.67,6.62,4.84,3.41,10-1.36,2.18-3.55,4-3.37,6.89a6.41,6.41,0,0,0,6.84,3.17c3.73,3.82,2.27,11.93-2.92,14.31-3.94,1.81-6.46,4.36-7.5,8.57-.51,2-.59,3.82.73,5.63,1,1.43,2.59,3.1,1.33,4.92a100.56,100.56,0,0,1-7.06,8.87c-.53.61-1.45-.34-2.17-.71-4.52-2.33-8.56-.72-10.3,4.14-.61,1.71-1,3.5-1.45,5.25-1.33,5-4.78,7.27-10.42,6.76a4.38,4.38,0,0,1-1.15-3.09c-.53-6.42-.54-6.42-6.79-3.83-2.49,1.48-3.19,7.85-8,2.94-2.88-1.63-3.07-3.75-1.43-6.48,1.55-2.56,3.94-4.91,2.94-8.38.38-3.89-2.87-2.45-4.64-3.17a6.7,6.7,0,0,1-1.84-.95h0c-2.42-4.06-.48-7.88.63-11.74a6.49,6.49,0,0,1,3.19-2.91c4.27-1.9,6.4-5.31,7.16-9.75.39-2.85-2.67-4.78-2-7.69,1.23-4.26,4.53-7.18,6.94-10.68l1.13-.06c.57.35,1.26.21,1.86.45,5.87,2.33,5.87,2.33,9.55-3.19,1.9-2.85,1.68-6.4,3.11-9.41a12.78,12.78,0,0,1,7.53-3c2.12,0,2.45,2.23,3.84,3.15a3,3,0,0,1,.22.44c.64,1.78-1,4.48,1.36,5.37,2.67,1,3.34-2,4.84-3.38C245.35,100.51,246.3,98.7,248.53,99.21Z"/><path class="cls-191" d="M106,150.07c-.57,3.29,2.06,4.72,4,6.37,2.4,2.09,2.66,4,2.17,7.28-1.07,7.09-5.62,10.86-11,14.16a11.27,11.27,0,0,0-5,5.23c-1.88-3.29-6.17-3.85-8.07-7.11,1.65-2.62,4.44-3.85,6.89-5.39,4-2.5,6.08-5.84,7.56-10.37s1.11-7.45-2.51-10.17C102,148.73,104,150.91,106,150.07Z"/><path class="cls-191" d="M172,102.14c-4,3.38-6,8.18-8.78,12.42-2.55,3.91-6.61,3.41-9.64,3s-1.69-4-.87-6.33c2.37-3.54,5-7,7-10.68s4.22-4,7.38-1.64C168.66,100.06,170.34,101.06,172,102.14Z"/><path class="cls-192" d="M106,150.07c-2,2.9-4-.25-6,0-3.78-1.72-4-4.13-1.79-7.44,2.36-3.56,4.44-7.33,6.52-11.07,1-1.87,2.16-2.95,4.25-1.42,1.53,2.17,5.88.94,5.92,4.9Q110.41,142.56,106,150.07Z"/><path class="cls-192" d="M112.1,202.08l-7.12,15c-9.39-4.54-9.4-4.55-4.89-13.67,1.24-2.5,2.58-5,3.87-7.44C108.81,195.47,111.4,197.42,112.1,202.08Z"/><path class="cls-193" d="M114.86,135c-1.12-2.67-4.81-2.22-5.92-4.9,5.86,2.94,10.32,1.32,13.73-4.1a21.76,21.76,0,0,1,3-3.17c3.39.71,6.32,2.14,8.18,5.23-3.61,7.71-7.37,9.48-15.15,7.11C117.43,134.82,116.17,134.38,114.86,135Z"/><path class="cls-194" d="M133.84,128.1l-8.18-5.23q.74-7.34,1.46-14.68c4.28-.74,7.18.91,8.82,5C135.72,118.25,135.67,123.3,133.84,128.1Z"/><path class="cls-193" d="M135.94,113.22a15.08,15.08,0,0,0-8.82-5c2.32-4.15,7.12-4.8,10.52-7.43,4.84-3.75,7.6,1.31,11.25,2.64-1.74,3.76-5.93,4.27-8.81,6.51C138.68,111,137.06,111.79,135.94,113.22Z"/><path class="cls-195" d="M88,176c2.83,2.2,8,1.78,8.06,7.11q0,6.9-.08,13.8C86.68,192.33,84.62,186.94,88,176Z"/><path class="cls-196" d="M206.68,129.13c.52,7.27-5.05,9.87-10,13-3.11,1.48-4.47-.7-5.86-2.8l0-2.34a11.26,11.26,0,0,0,8.91-8.8C202,124.57,203,124.71,206.68,129.13Z"/><path class="cls-197" d="M194.72,154.05l2.07,0c1.42,1.61,4.26,1.5,4.88,4.06.83,1,2.6,1.61,1,3.51-1.23,1.49-1.88,3.46-3.11,5-1.87,2.28-1.85,4.32.11,6.44a32,32,0,0,1-4.95-2.09c-4.06-2.55-4.5-5.29-2.08-9.4C194,159.28,196.55,157.23,194.72,154.05Z"/><path class="cls-196" d="M210.6,111.28c.6,3.14-2.45,4.4-3.49,6.71-.65,1.43-2.43,2.24-2.43,4.11-3.39,1.55-5.12-.86-7-2.93.48-3.82,3.36-6.23,5.56-8.92C205.88,107.05,208.13,110.92,210.6,111.28Z"/><path class="cls-17" d="M188.77,126.4c-2.17,3.87-6.59,4.8-10,5.15s-3.84-4.07-4.09-7.21C180.1,120.27,184.4,123.56,188.77,126.4Z"/><path class="cls-198" d="M126.6,210.87c-.4-4.08,2.39-3.74,5.12-3.94,3.42-.25,2.93,2,3.32,4.12a42,42,0,0,1,.83,8.79C132.19,217.47,126.33,217.33,126.6,210.87Z"/><path class="cls-199" d="M248.53,99.21a14.93,14.93,0,0,0-4.81,4.84c-1.38,2-2.85,4-5.54,2.7-2.52-1.19-1.53-3.66-1.34-5.71a6.37,6.37,0,0,1,.78-1.79C242,94,242,94,248.53,99.21Z"/><path class="cls-200" d="M226.6,99.29c0,3.6.08,7.22-3,9.9-3,.61-4.77-1.44-6.85-2.88,1.75-3.53.76-8,4-11C223.06,96.07,225.23,97.09,226.6,99.29Z"/><path class="cls-200" d="M190.85,139.29c1.94,1,3.52,2.68,5.86,2.8a32.3,32.3,0,0,0-2,12c-2.82-2.23-8.13-1.71-8-7.22C189.19,144.91,191.51,142.91,190.85,139.29Z"/><path class="cls-26" d="M216.77,106.31c2.92-.55,4.47,2.14,6.85,2.88-3.14,7.12-5,7.43-11.89,2A19.14,19.14,0,0,0,216.77,106.31Z"/><path class="cls-201" d="M207.71,170.09c1.26-3,3.75-3.64,6.49-2.89,3.11.86,1.4,3.47,1.46,5.39.06,1.47,0,2.94,0,4.42C212,175.91,209,173.94,207.71,170.09Z"/><path class="cls-202" d="M226.6,99.29c-2.31-.83-4.49-1.84-5.87-4,4.52-2.34,9-3.64,13.05.84C231.86,98.23,229.08,98.43,226.6,99.29Z"/><path class="cls-203" d="M197.7,119.17c2.39.82,4.31,2.76,7,2.93-1,2.82,3.21,4.15,2,7-2.34-.18-4.05-4.82-7-1C200.45,124.84,198.33,122.17,197.7,119.17Z"/><path class="cls-204" d="M112.1,202.08c-1.28-4-4.75-5-8.14-6.14a4.83,4.83,0,0,1-.21-.93c2.06-.57,4.37-3.55,6-1.2C111.35,196,114.06,198.61,112.1,202.08Z"/><path class="cls-205" d="M255.41,119.27c-3.94,2.55-6.34,1.74-6.84-3.17C251.26,116.29,253.22,118,255.41,119.27Z"/><path class="cls-10" d="M168.8,12.48c3.12-.9,6.28-2.12,9,1,1.16,2.47,1.75,5-.06,7.4-1.65,2.19-4.28,2-6.34,1.39C165.7,20.45,168.07,16.17,168.8,12.48Z"/><path class="cls-10" d="M26.15,153a4.34,4.34,0,0,1,4,4c-.21,7-2.06,8.14-10,6a19.51,19.51,0,0,1-1-7.95A8.52,8.52,0,0,1,26.15,153Z"/><path class="cls-153" d="M231.75,248.24c2.37-1.33,4-2.67,5.83-3.15,2.06-.53,3.74,1,5.13,2.43a1,1,0,0,1-.26,1.67c-1.86.9-3.45,2.93-5.81,2A35.68,35.68,0,0,1,231.75,248.24Z"/><path class="cls-153" d="M168.21,294.11c3.59-3.66,7.15-4,10.87-.24C173.78,298.7,173.56,298.71,168.21,294.11Z"/><path class="cls-153" d="M213.07,277.07c3.88-3.47,7.38-4.28,10.81-.2C219.12,281.48,218.33,281.51,213.07,277.07Z"/><path class="cls-206" d="M245.59,256.15c-2.15,1.28-3.7,2.72-5.5,3.14-2.15.5-4-1.18-5.63-2.45-.6-.46-.15-1.33.46-1.59,2-.85,3.72-3.06,6.25-2A31.2,31.2,0,0,1,245.59,256.15Z"/><path class="cls-176" d="M236.54,260.93c-1.65,1.93-3.56,3.4-5.92,3.08-1.64-.22-4.51-1.12-4.22-2.72.47-2.57,3.23-3.61,5.84-3.36A5,5,0,0,1,236.54,260.93Z"/><path class="cls-153" d="M215.46,282.06c-1.54,1.74-3.43,3.25-5.8,2.89-1.64-.24-4.51-1.13-4.2-2.73.49-2.55,3.24-3.64,5.86-3.33C213,279.09,214.88,279.74,215.46,282.06Z"/><path class="cls-153" d="M202.06,272.15c-6,4-6,4-10.63-.16C197.14,267.79,198,267.8,202.06,272.15Z"/><path class="cls-153" d="M207.54,286.2c-1.22,2.32-3.32,3-5.32,3.38-2.16.45-4.66-1.17-4.75-2.59-.13-2.1,2.51-3.36,4.51-3.58S205.89,284.72,207.54,286.2Z"/><path class="cls-153" d="M212.2,275.06c-5.78,4.45-6.06,4.45-11,0C204.71,271.61,208.24,271.19,212.2,275.06Z"/><path class="cls-153" d="M224,253.14c3.76-3.23,7.26-4.47,11-.72C231,257.15,230.54,257.19,224,253.14Z"/><path class="cls-154" d="M165.6,286.46c2.73-1.54,4.46-2.94,6.42-3.48s3.09,1.53,4.65,2.34a.91.91,0,0,1,.13,1.61c-1.76,1.11-3.44,2.85-5.69,2.29C169.45,288.8,168,287.68,165.6,286.46Z"/><path class="cls-153" d="M203.5,279.41c-.85,2.53-2.94,3.16-4.68,3.55-2.15.47-4.93-.77-5.23-2.56-.4-2.34,2.53-3,4.48-3.53C200.5,276.23,201.73,278.41,203.5,279.41Z"/><path class="cls-174" d="M160.6,295.54c-.88,2.38-3.09,3.14-5,3.42-2.13.31-4.69-1.32-4.84-3.11s2.58-2.77,4.5-3A5.26,5.26,0,0,1,160.6,295.54Z"/><path class="cls-176" d="M248.49,262.36c-1,2.64-3.18,3.4-5.1,3.69-2.14.32-4.71-1.33-4.86-3.1s2.59-2.73,4.5-3.06C245.31,259.5,247,260.85,248.49,262.36Z"/><path class="cls-153" d="M228.43,265.92c-1.77,1.47-3.65,2.86-6,2.72-1.81-.1-4.38-1.53-4.06-2.79a4.84,4.84,0,0,1,5.29-3.34A5.69,5.69,0,0,1,228.43,265.92Z"/><path class="cls-153" d="M199.09,267.29c2.18-1.35,3.62-2.6,5.29-3.18,2.13-.73,3.72.84,5.22,2.14a1.12,1.12,0,0,1-.21,2c-1.88.82-3.45,3-5.85,1.83A43.83,43.83,0,0,1,199.09,267.29Z"/><path class="cls-176" d="M209.15,270.22c1.56-1,2.84-1.66,4-2.48,2.61-1.77,4.19.72,6.16,1.49a1,1,0,0,1,.15,1.91c-1.9.95-3.35,3.55-6,2C212.07,272.33,210.36,272,209.15,270.22Z"/><path class="cls-174" d="M185.57,281.63a7.1,7.1,0,0,1-5.39,2.85c-1.83,0-4.69-.92-4.67-2.68,0-1.94,2.67-3.39,4.69-3.42A6.27,6.27,0,0,1,185.57,281.63Z"/><path class="cls-154" d="M155.24,310.36c6.09-3.91,6.09-3.91,10.85-.25C161.36,314.68,161.23,314.68,155.24,310.36Z"/><path class="cls-175" d="M175.34,305.63c-2.47,1.41-4.21,3.12-6.07,3.25s-5-.86-4.85-3.12c.1-2,3-2.72,5.09-3S172.87,304.37,175.34,305.63Z"/><path class="cls-153" d="M162.54,303.75c-3,2.71-6,4.51-9.55,1.35-.85-.75-1.24-1.57-.1-2.39C156.21,300.34,159.42,299.71,162.54,303.75Z"/><path class="cls-174" d="M152.62,300.81c-1.61,1.41-3.41,2.82-5.52,2.61-1.8-.17-4.81-1-4.51-2.79s2.87-3.7,5.33-3.2C149.68,297.78,151.75,298.43,152.62,300.81Z"/><path class="cls-153" d="M188.16,291.05a34.25,34.25,0,0,1,5.35-2.62c2.09-.61,3.7,1,5.28,2.1a.92.92,0,0,1-.26,1.61c-1.74.77-3,3.09-5.21,2.23C191.54,293.7,189.54,293.14,188.16,291.05Z"/><path class="cls-174" d="M227.06,257.5c-3.3,3.49-6.59,4.12-10.23,1.27-.85-.66-.9-1.3-.05-1.94C220.3,254.2,223.7,254.17,227.06,257.5Z"/><path class="cls-181" d="M158.39,290.87c3.68-3.25,7.24-4.3,10.78.2C165.55,294.37,162,295.65,158.39,290.87Z"/><path class="cls-176" d="M240.35,267.32c-.79,2.23-2.9,2.73-4.63,3.15-2.18.52-5.05-.82-5.31-2.45-.32-2,2.48-3.35,4.46-3.56S238.85,265.58,240.35,267.32Z"/><path class="cls-174" d="M182.89,276.68c1.85-1.61,3.56-2.73,5.54-2.85s4.71.66,4.68,2.61-2.51,3.37-4.79,3.19A8.65,8.65,0,0,1,182.89,276.68Z"/><path class="cls-154" d="M185.06,284.61c3.09-2.95,6.12-4.52,9.63-.87.76.8.71,1.36-.12,1.94C191.27,288,188.07,288.76,185.06,284.61Z"/><path class="cls-154" d="M170.55,299c-1.42,1.88-3.39,3.17-5.47,3-1.73-.15-4.74-.89-4.43-3,.26-1.72,2.86-3.35,5.08-3.08A5.79,5.79,0,0,1,170.55,299Z"/><path class="cls-174" d="M187.16,289.46c-2.82,2.62-5.61,4.76-9.33,1.28-1-1-.93-1.68,0-2.42C181.24,285.52,184.36,285.85,187.16,289.46Z"/><path class="cls-10" d="M127.82,185.94c-4.48-3.23-5.14-8.15-4.69-12.88,1.41-14.66,8.25-26.33,20.8-34.25,3.45-2.18,7.36-4,11.65-1.71,4.15,3.47,4,8.32,3.4,12.83-1.91,14.75-9,26.45-21.87,34.25C134.35,185.85,131.31,187.48,127.82,185.94Z"/><path class="cls-191" d="M127.82,185.94c17.85-2.36,31.05-25.5,30.06-40.27a25.28,25.28,0,0,0-2.3-8.57c5.59.67,7.2,5.08,8,9.48,2.94,15.77-11,37.6-26.36,41.76C133.61,189.32,130.4,188.94,127.82,185.94Z"/><path class="cls-207" d="M214.82,150.28c-3.1-.79-2.17-3.36-2.14-5.31.12-10.24,5.16-17.77,13.35-23.45a8.26,8.26,0,0,1,5.66-1.37,9.2,9.2,0,0,1,.9,1.18c4.67,8-7.05,27.92-15.92,29.5A2.51,2.51,0,0,1,214.82,150.28Z"/><path class="cls-208" d="M214.82,150.28c11.29-3.46,18.77-16.81,16.87-30.13,5.32.22,6.95,3.46,7,8.26.12,10.47-5.95,21.11-14.31,24.78C219.59,155.29,216.68,154.41,214.82,150.28Z"/><path class="cls-209" d="M201.67,158.13c-1.59-1.39-4.53-1.17-4.88-4.06C202.92,154.07,202.92,154.07,201.67,158.13Z"/></g></g></svg>