<svg xmlns="http://www.w3.org/2000/svg" viewBox="0 0 451.83 375.1"><defs><style>.cls-1{fill:#fafafa;}.cls-2{fill:#bed7fe;}.cls-3{fill:#94bdfe;}.cls-4{fill:#007cfd;}.cls-5{fill:#007dfd;}.cls-6{fill:#01499c;}.cls-7{fill:#efefef;}.cls-8{fill:#fefefe;}.cls-9{fill:#cb7a64;}.cls-10{fill:#929a9d;}.cls-11{fill:#fbfbfb;}.cls-12{fill:#4e5d62;}.cls-13{fill:#f9f9f9;}.cls-14{fill:#f7f6f6;}.cls-15{fill:#f6f6f6;}.cls-16{fill:#f4f4f4;}.cls-17{fill:#a66350;}.cls-18{fill:#3d99fd;}.cls-19{fill:#f7f7f7;}.cls-20{fill:#54a5fd;}.cls-21{fill:#ebebeb;}.cls-22{fill:#1b2f36;}.cls-23{fill:#4d5c61;}.cls-24{fill:#1e323a;}.cls-25{fill:#ececec;}.cls-26{fill:#516165;}.cls-27{fill:#f8f8f8;}.cls-28{fill:#546367;}.cls-29{fill:#d7e7fe;}.cls-30{fill:#1a2e35;}.cls-31{fill:#0155b6;}.cls-32{fill:#f9b374;}.cls-33{fill:#fdfefe;}.cls-34{fill:#d6e6fd;}.cls-35{fill:#037dfc;}.cls-36{fill:#c77964;}.cls-37{fill:#203138;}.cls-38{fill:#faf7f6;}.cls-39{fill:#d4e5fe;}.cls-40{fill:#21343d;}.cls-41{fill:#1684fd;}.cls-42{fill:#3795fd;}.cls-43{fill:#2d91fe;}.cls-44{fill:#d2e4fd;}.cls-45{fill:#cfe1fe;}.cls-46{fill:#c2d9fd;}.cls-47{fill:#958677;}.cls-48{fill:#cee1fe;}.cls-49{fill:#c9defd;}.cls-50{fill:#0859ba;}.cls-51{fill:#0658b9;}.cls-52{fill:#077ffd;}.cls-53{fill:#0880fd;}.cls-54{fill:#0c80fc;}.cls-55{fill:#0a7ffb;}.cls-56{fill:#0f82fc;}.cls-57{fill:#0e82fd;}.cls-58{fill:#0d81fd;}.cls-59{fill:#057efc;}.cls-60{fill:#067efd;}.cls-61{fill:#057efd;}.cls-62{fill:#037efd;}.cls-63{fill:#0c81fd;}.cls-64{fill:#4d6a89;}.cls-65{fill:#d5e5fe;}.cls-66{fill:#4c6a89;}.cls-67{fill:#c2d8fa;}.cls-68{fill:#0980fd;}.cls-69{fill:#547295;}.cls-70{fill:#6080a8;}.cls-71{fill:#fdfdfe;}.cls-72{fill:#5da2fe;}.cls-73{fill:#5ea2fe;}.cls-74{fill:#5fa2fe;}.cls-75{fill:#fdfdfd;}.cls-76{fill:#a56250;}.cls-77{fill:#0064d3;}.cls-78{fill:#006adf;}.cls-79{fill:#00326f;}.cls-80{fill:#e3e4ea;}.cls-81{fill:#fbf7f6;}.cls-82{fill:#829ccb;}.cls-83{fill:#b3b8bb;}.cls-84{fill:#8dbafe;}.cls-85{fill:#8dbafd;}.cls-86{fill:#8cb9fe;}.cls-87{fill:#fcfcfc;}.cls-88{fill:#e0e0e0;}.cls-89{fill:#1d3139;}.cls-90{fill:#58a6fe;}.cls-91{fill:#91c0f8;}.cls-92{fill:#96c6fd;}.cls-93{fill:#4ca0fd;}.cls-94{fill:#027af6;}.cls-95{fill:#124879;}.cls-96{fill:#cfdcee;}.cls-97{fill:#e9f3fe;}.cls-98{fill:#499ffd;}.cls-99{fill:#5da9fd;}.cls-100{fill:#bcd6fe;}.cls-101{fill:#c4dafd;}.cls-102{fill:#4995fe;}.cls-103{fill:#c3dafd;}.cls-104{fill:#c1d9fe;}.cls-105{fill:#c0d8fc;}.cls-106{fill:#fab474;}.cls-107{fill:#0175f4;}.cls-108{fill:#0062d0;}.cls-109{fill:#0363d1;}.cls-110{fill:#0071ea;}.cls-111{fill:#006ade;}.cls-112{fill:#0168da;}.cls-113{fill:#bf9064;}.cls-114{fill:#0072ed;}.cls-115{fill:#bad4fd;}.cls-116{fill:#d6e6fe;}.cls-117{fill:#027dfd;}.cls-118{fill:#94b2df;}.cls-119{fill:#fbfafb;}.cls-120{fill:#64a4fe;}.cls-121{fill:#a4c7fd;}.cls-122{fill:#e4edfd;}.cls-123{fill:#d1e2fc;}.cls-124{fill:#e5eefe;}.cls-125{fill:#64a5fe;}.cls-126{fill:#eff3fe;}.cls-127{fill:#d2e3fc;}.cls-128{fill:#e4eefe;}.cls-129{fill:#d3e3fd;}.cls-130{fill:#cfe1fc;}.cls-131{fill:#f0934c;}.cls-132{fill:#258cfd;}.cls-133{fill:#2b90fe;}.cls-134{fill:#e6e6e6;}.cls-135{fill:#f3f3f3;}.cls-136{fill:#017cfd;}.cls-137{fill:#12232a;}.cls-138{fill:#2a3b42;}.cls-139{fill:#4b5a60;}.cls-140{fill:#14262d;}.cls-141{fill:#5b666a;}.cls-142{fill:#a6acaf;}.cls-143{fill:#0679ef;}.cls-144{fill:#f5f5f5;}.cls-145{fill:#0255b7;}.cls-146{fill:#f1f2f4;}.cls-147{fill:#80b4fd;}.cls-148{fill:#f1f6fd;}.cls-149{fill:#edf3fe;}.cls-150{fill:#666;}</style></defs><title>Recurso 10</title><g id="Capa_2" data-name="Capa 2"><g id="Capa_1-2" data-name="Capa 1"><path class="cls-1" d="M451.83,304.3c-18.64,0-37.29,0-55.93,0-2,0-4.58-1-5.2,2.27-3.12-2.15-2.64-4.65-.73-7.3.86,3.44,3.1,4.11,6.49,4.08,18.45-.18,36.91-.09,55.37-.09Z"/><path class="cls-1" d="M59,304.3H0v-1H59A.86.86,0,0,1,59,304.3Z"/><path class="cls-2" d="M362.71,55.87l.21,19.91c-.66,1.39,1.36,1.81,1.12,3.06.15,4.44,1.18,8.93-.89,13.2-3.69,2.22-7.76,1.19-11.66,1.26-9.69.17-10.06.42-10.11,10.06,0,1-.09,2-.05,3,0,17.88.58,35.77-.26,53.63-.76,2.78-3,3.28-5.43,3.39s-4.75.18-5.78,2.84.6,4.36,2.39,6a6.59,6.59,0,0,1,1.25,1.53c.74,1.62.68,3.42,1.27,5.07.45,2.1.62,4.24,1.08,6.35,1.31,6,4.82,11.4,12.82,10,1.3-.24,3.15-.75,3.41,1.6-1.15,2.16-3.35,2.61-5.4,3-6.84,1.38-10.71,5.27-11.26,12.36a41.17,41.17,0,0,1-1.29,6.26c-.49,2-1.36,3.71-3.58,4.31-17.44.59-34.88.45-52.32.43-39.87,0-79.73-.16-119.6-.12l-1.94,0c-17.86,0-35.74.68-53.59-.36-3.61-1.31-3.51-4.86-4.59-7.68a42.36,42.36,0,0,1-1.76-5.64c-.45-4.63-4.08-8.44-3.49-13.35a6.41,6.41,0,0,1,3.7-3.69,1.11,1.11,0,0,1,.48,0c8.57,3.48,8.58,3.48,13-5.29,2.59-5.16,5.5-10.14,8.37-15.14a27.2,27.2,0,0,0,3.41-8.67c1.3-2.72,3.44-3.59,6-2.15,3.07,1.71,7.23,1.21,9.42,4.65.44,2.49-1,4.45-1.9,6.56-2.18,5.43-1.92,6.42,3.65,8.49a52.88,52.88,0,0,0,24,3.31c1.79-.18,3.59-.84,5.37.07,1.5,1.2,1.5,2.94,1.41,4.57a59.06,59.06,0,0,0,1.91,16.25,11.42,11.42,0,0,0,4.84,7.69c-3.85-8.06.89-13.33,4.12-19.34,3.81-7.12,9.91-12.92,11.57-21.39,1-4.85-2.73-5-4.83-6.85-2.3-4.22-2.9-9.28-7.19-12.53-2.51-1.9-5.61-2.67-7.89-4.82a27.81,27.81,0,0,1,3.53-11.4c4.65-1.93,5-6.59,6.37-10.45.68-1.83-1.36-2.21-2.62-2.91-1.53-.86-4.11-.5-4-3.32.1-1.07,1.94.55,1.78-1.28-.39-4.28.13-4.63,5-4.08.72.27,1.14,1.57,1.91,1,.62-.42,0-1.51-.05-2.29a9.08,9.08,0,0,0-3.94-5.46c-2.34-1.54-4-2.13-5.21,1.17a5.85,5.85,0,0,1-4.49,3.54c-3.7-1.24-6.45-3.39-7.18-7.47a6.33,6.33,0,0,1,3.46-1.85c3.55-.87,6.88-2,9.52-4.75a3.14,3.14,0,0,1,4.52-.33c1.64,1.41.79,2.6-.6,3.6-.78.52-1.94.16-2.53,1.12-.63.22.29.7,0,.12-.1-.19.36-.46.71-.52a4,4,0,0,1,1.41.08c2.12.62,4.37.48,4.75-1.9.35-2.18-1.8-3.27-3.72-3.93-1.55-.54-3.25-.32-4.84-.67a6.53,6.53,0,0,0-4.33.44c-2.21,1.74-4,4.41-7.22.79-.74-.83-5.11-3.17-6.44,1.47-.33,1.16-2,.8-3.17.7a16,16,0,0,0-5.88.61c-8.24-.57-16.18.07-23.45,4.64a32.2,32.2,0,0,0-7.92,48c4,4.89,3.91,5.6-1.89,11.43-1.58,1.46-3.15,2.92-4.58,4.53-2.77,2.83-4.29,7.09-8.93,7.77-2.19-1-2.55-2.87-2.58-5-1.47-7-3-14-10.25-17.79-1.36-.71-2.49-1.71-2.32-3.5,0-6.5.52-13-.31-19.48a10.2,10.2,0,0,1-.16-3.93c1.29-4.81,1.8-9.64.4-14.53.54-5.47-.52-11,.75-16.45a1.57,1.57,0,0,0,0-2.47,15.74,15.74,0,0,1-.6-5.37c-.13-7.24-.13-7.24-7.6-7.26-2.64,0-5.28,0-7.91,0-1.81-.06-3.66,0-5.13-1.4a1.35,1.35,0,0,1,.59-1.61c2-1.14,4.16-1,6.31-1q20.64,0,41.29,0c2.3,0,4.69-.24,6.71,1.28.74,3.15-3.11,1.73-3.7,3.85,2.78,2.26,6.18,1.83,9.42,1.83q46.68.06,93.37,0H323.7a30,30,0,0,0,7-.38c3.55-.84,5.47-3.13,5.28-6.8s-2-5.93-5.73-6.4a87.46,87.46,0,0,0-11-.21H138c-1.67,0-3.33,0-5,0-2.89,0-5.28.47-5.83,4-.17,1.09-.46,2.84-2.49,2.24-2.76-6.22-.17-12.37.4-18.52.16-1.84,2.1-2.4,3.86-2.56s3.65-.12,5.48-.12q110.07,0,220.12,0C357.3,54.58,360.24,53.86,362.71,55.87Z"/><path class="cls-3" d="M122,78l-55.23-.06a4.47,4.47,0,0,1-1.6,1c-7.28.57-14.5,1-21.81-.4-4.37-.81-9-.11-13.45-.2-1.75,0-3.75.57-4.95-1.45a11.16,11.16,0,0,1-.91-5.3c0-15.37,0-30.75,0-46.12,0-6.59.86-7.38,7.46-7.41,4.14,0,8.28-.08,12.42-.12a6.65,6.65,0,0,1,1.69-1c3.25-.87,6.58-.52,9.87-.51,17,.06,34-.22,51.07.13,6,.32,12.07-1.32,17.83,1.43,2.56,1.87,2.94,4.63,3,7.47.09,4.76.13,9.53,0,14.29,0,.63,0,1.26.05,1.9a17.11,17.11,0,0,1,.14,2.48c.07,9.16.07,9.17,9.49,9.17H351.19c1.33,0,2.67-.06,4,0,3.48.12,5.3-1.35,5.22-5,0-2-.17-4.05,1.67-5.48,1.81,4.26.72,8.66.64,13-4.32.05-8.64.14-13,.14Q241,56,132.17,55.9c-5,0-6.84,1.12-6.34,6.28.44,4.57-1.53,9.14-.77,13.81C125,78,124.06,78.87,122,78Z"/><path class="cls-3" d="M339.73,162.09,340,105.7c2-1.68,4.36-1.44,6.67-1.44q33.19-.08,66.41.06c6.07,0,6.09.1,6.36-5.81.08-1.68.09-3.34,1.42-4.62,1.86,1.57,1.13,3.71,1.12,5.6q0,38.1-.19,76.2c0,6.48-1.39,7.83-7.9,7.88-2.33,0-4.66.07-7,.11a6.43,6.43,0,0,1-1.63,1c-13.82,1.08-27.65.39-41.47.39a6.41,6.41,0,0,1-4.06-1.35,12.39,12.39,0,0,1-2.21-4.92c2.41-4.95.44-9.22-2.15-13.38.21-.61.4-1.25,1.28-.8a1.16,1.16,0,0,0-1.29-.42,5.54,5.54,0,0,1-2.43,0,12,12,0,0,0-9.09-.23C342.18,164.51,339.73,165.6,339.73,162.09Z"/><path class="cls-4" d="M362.07,42.87c0,12.23,0,12.23-12.15,12.23H132.53c-6.71,0-6.72,0-6.7-6.65,0-2.49.08-5,.12-7.47,5.87-2.87,12.1-1.14,18.18-1.43,29.14.24,58.3-.55,87.43,1,5.44-.06,10.89.15,16.33-.08,7.27-2,14.68-.68,22-.89,10-.19,19.94-.21,29.91,0,5.63-.27,11.26-.09,16.88-.09a8.33,8.33,0,0,1,5.2,1.34q17.21.09,34.43.19C358.43,41,360.76,40.42,362.07,42.87Z"/><path class="cls-5" d="M97.86,208.78l4.23,12.79c1.63,1.61,2,3.75,2.42,5.86,1.73,8.42,3.11,16.91,4.53,25.39.53,6.67,1.44,13.31,1.64,20,.09,3-.59,5.17-3.86,5.8-6.51.54-13,.27-19.55.19a55.84,55.84,0,0,1-5.64,0c-4.74.07-9.47.08-14.21,0-2,0-4,0-5.54-1.43-2.8,0-3.81-1.13-4-4.14-1-13.51-2.51-27-3.65-40.48-.67-8,1.13-15.75,3.85-23.27a2.76,2.76,0,0,1,2.85-.09c10.74,4.61,21.45,3.37,32.17-.12C94.6,208.73,96.16,207.89,97.86,208.78Z"/><path class="cls-6" d="M97.86,208.78c-13.19,5.51-26.42,7.62-39.82.67-1.26-4.4,2.26-8,2-12.25-2.08-2.31-1.26-5.44-2.3-8-.52-2.67-1.26-5.28-1.93-7.91-.31-5.92-3.77-9.14-9.19-10.69a3.46,3.46,0,0,1-1.13-1,4.61,4.61,0,0,1-.45-2.25c.42-3.21.84-6.42,2.27-9.38.77-1.59,1.32-3.38,3.53-3.54,2,.82,2.15,2.73,2.59,4.46.82,3.2,1.68,6.37,3.8,9,3.79,3.28,8.48,2.81,12.75,2.23a81.64,81.64,0,0,1,13.24-.84,2.85,2.85,0,0,0,2.63-1.06c.78-1.3.16-2.48-.24-3.72a17.18,17.18,0,0,1,1-13.66,1,1,0,0,1,1.3.05c8.12,2.53,10.42,9.57,12.77,16.52.36,1.08,1.4,2.43-.14,3.54a5.22,5.22,0,0,1-4.3,1.91c-4,.18-5.19,2-3.58,5.71a8.13,8.13,0,0,1,.49,2.38,21.43,21.43,0,0,0,.76,6,24.61,24.61,0,0,1,0,8.81C94.25,200.36,97.47,204.15,97.86,208.78Z"/><path class="cls-7" d="M269.9,40.82h-22c-.35-.18-.47-.36-.35-.54s.23-.27.34-.27c.62-1.54.91-3.33,1.91-4.55,2.57-3.13,3.1-6-.15-8.9-1.57-1.42-1.31-2.73.29-4.1a32.9,32.9,0,0,0,4.57-4.57c2.2-2.78,4.54-3.29,7-.62,1.78,1.95,3.34,1.42,5.26.41A30.77,30.77,0,0,1,273.14,15c2.82-.73,4.51-2.43,4.54-5.08,0-3.64,2-4,4.84-3.8a29.58,29.58,0,0,0,5,0c3.54-.35,5.51,1.08,5.33,4.69-.11,2.3,1,3.19,3,3.82a33.42,33.42,0,0,1,6,2.47c2.64,1.46,4.89,2.37,7.38-.46,1.45-1.64,3.4-1.71,5.12.3a47,47,0,0,0,5.28,5.28c2.23,1.9,2.72,3.62.14,5.56-2.2,1.65-1.76,3.52-.68,5.7,1.16,2.36,1.94,4.9,2.89,7.36l-22,0c-2.09-1.37-3.62-3.41-5.76-4.73a17.54,17.54,0,0,0-20.43,1.51C272.42,38.67,271.25,39.84,269.9,40.82Z"/><path class="cls-8" d="M362.87,183.62l43,.06c.94,1.72.46,3.57.47,5.35,0,17,0,34.06.05,51.09,0,1.77-.49,3.63.49,5.34.37,2.93-.75,4.34-3.88,4a48.22,48.22,0,0,0-5,0c-2-1.75-1.56-4.18-1.62-6.4-.1-4.42-.15-8.84,0-13.26.14-3.74-1-6-5.17-5.89-1.78-.12-3.46-.47-4.68-1.94-1.62-2.93-1-6.14-1-9.25-.22-11-3.35-14.82-14.05-16.95-3.12-.62-6.14-1.48-8.44-3.89C361.26,189.14,360.87,186.4,362.87,183.62Z"/><path class="cls-9" d="M59,304.3v-1c.77-8,1.42-16,3-23.95,6.35-1.72,12.62-.69,18.89.58C82.82,282,82.37,284.55,82,287c-1.9,13.06-3.64,26.13-5.63,39.17-1.69,9.63-2.51,19.42-4.92,28.94-5.23,3.87-6.69,4-9.56.66l-2-28.54c-1.08-6,.35-12.14-.78-18.16Z"/><path class="cls-5" d="M420.81,93.89c.86,12,.86,12-11.05,12q-34.9-.06-69.81-.19c-.27-14.92-.68-13.82,13.52-13.77,3.14,0,6.28-.09,9.42-.14,6-2.69,12.24-1.35,18.41-1a7.42,7.42,0,0,1,1.61,1l22.93-.08a.58.58,0,0,1,1,0c3.08.06,6.15.19,9.23.17A5.54,5.54,0,0,1,420.81,93.89Z"/><path class="cls-10" d="M390.85,222.51c7-.49,6.95-.49,7,6.18,0,6.92.12,13.84.18,20.75-.06,9.39-.25,18.78-.14,28.17.08,7.06-2.34,12.51-8.9,15.73-2.81,1.57-.54,5.75-3.69,7.15-1.93-6-6.74-5.95-11.79-5.74-4.1.18-8.22.14-12.33,0-1.7,0-3.4.11-5.1,0-2,0-4,.06-5.95,0a25.51,25.51,0,0,1-4.28-.18,4.34,4.34,0,0,1-2.34-1.06c-2.09-3.3.05-4.78,2.74-5.12,8.34-1.06,16.51-3.24,24.92-3.81a19.65,19.65,0,0,0,5,.41c8.34-.16,13.06-4.61,13.18-13,.21-14.11,0-28.22.08-42.34C389.38,227.18,389,224.61,390.85,222.51Z"/><path class="cls-7" d="M401.07,38.37c-.23,2.41.1,4.29,2.28,5.72,2.37,1.57,2.21,3.89.22,5.72A7.19,7.19,0,0,0,401,57a3.66,3.66,0,0,1-4.26,4c-3.13-.74-5,.59-6.84,2.42-2.18,2.21-4,2.33-6.07-.09-1.72-2-3.37-3.55-6.69-2.46-2.49.82-4-1.29-3.71-4.06.32-3-.17-5.28-3.14-7-2.67-1.58-1.86-4,.34-5.61s3.31-3.28,2.84-6.25,1.39-4.52,4.38-4.39a6.74,6.74,0,0,0,6.36-2.86c1.68-2.26,4.06-3,5.79.36a5.34,5.34,0,0,0,5.93,2.69C400.38,32.86,400.87,35.29,401.07,38.37Z"/><path class="cls-11" d="M232.91,3.1c2.37-2.93,5.8-2.95,9-2.95q78-.09,155.91-.08c2.38,0,4.45.62,7.81,2H240.73c-2.31,0-4.69-.35-6.81,1C233.59,3.57,233.25,3.58,232.91,3.1Z"/><path class="cls-11" d="M49,1.1c1.48-1.63,3.43-1,5.18-1q76.89,0,153.77,0c3.32,0,6.7-.14,9,3l-.83.54c-3.81.63-7.63,0-11.45.05q-73.12.06-146.25,0c-3,0-6,.44-8.84-.93A1.2,1.2,0,0,1,49,1.1Z"/><path class="cls-7" d="M44,86.88c3.32.7,5.45,3.72,9.2,4.13,2.21.24.76,4.67,3.19,6.57,1.45,1.14-2.87,10.21-4.83,10.14-2.89-.12-3.89,3.17-6.56,3.09-.34.48-.67.48-1,0-.11-.84-.34-1.92-1.2-2-4.35-.22-5.64-2.58-7.11-6.58-1.14-3.13-.73-4.53.4-7.21s.9-5.2,4.9-4.84A3.11,3.11,0,0,0,44,86.88Z"/><path class="cls-9" d="M58.82,188.41A20.1,20.1,0,0,1,60,197.2c-5.71.65-11.16.64-14.16-5.56-2.63-3.89-.29-8.14-.89-12.18.35-3.32-.31-6.87,2.3-9.65,6.1,1.08,9.31,4.69,9.58,10.88C56.7,183.47,56.21,186.33,58.82,188.41Z"/><path class="cls-7" d="M348.35,6.39c2.43,3.08,6.4,2.1,8,4.09s3.33,5.4,3.05,7.6c-.33,2.63-1.16,6.63-2.89,8-2.09,1.64-6.72,4.27-7.89,3.45-2.76-1.94-7.2-1.35-8.37-4.08-1.09-2.52-3.71-5.42-2.94-7.69.86-2.53,1.38-6,3.39-7.56S346.32,9.3,348.35,6.39Z"/><path class="cls-12" d="M385.75,300.4c1.44-2.18-2.69-6.9,3.22-7.06.33,2,.67,4,1,6-.05,2.46-.34,4.94.73,7.29l4.35,48.58c-.48,2.66,3.52,5,.57,7.85l-2.72.08c-2.39-1-2.27-3.24-2.45-5.3-2-17.71-3.78-35.44-5.83-53.15C384.56,303.13,384.54,301.6,385.75,300.4Z"/><path class="cls-13" d="M231.91,40.8H144c-.79-1.81.35-2.17,1.76-2.34,20.79-.11,41.58,0,62.38-.06,7.06,0,7.21-.19,7.24-7.28s0-14.27,0-21.41c0-2.31-.15-4.69,1.55-6.62h0c2,1.68,2,4,2,6.33,0,8.41.26,16.84-.12,25.24-.2,4.55,1.41,5.88,5.66,5.39A63.44,63.44,0,0,1,231.9,40q.4.27.27.54C232.09,40.71,232,40.8,231.91,40.8Z"/><path class="cls-14" d="M45.86,179.59c.26,4-1.09,8,0,12-1.51,1.53-.86,3.47-.87,5.22,0,16.1,0,32.19-1,48.29V110.81h1q0,25.82,0,51.62c0,1.74-.63,3.67.86,5.2l.46,1.83C46.24,172.84,45,176.16,45.86,179.59Z"/><path class="cls-15" d="M406.85,91.75h-1V5.32h1Z"/><path class="cls-15" d="M406.85,245.46c-1.64-1.47-1-3.41-1-5.15q-.08-28.32,0-56.63h1Z"/><path class="cls-16" d="M231.91,40.8c0-.27,0-.54,0-.81q0-15.57,0-31.14c0-2-.1-4,1-5.75h1c-2.15,11.46-.54,23-.94,34.54-.09,2.44,1.82,2.35,3.5,2.35,3.81,0,7.62,0,11.42,0,0,.27,0,.54,0,.81Z"/><path class="cls-17" d="M81.11,280.44c-6.4.48-12.69-1-19.06-1.09-.06-.67-.12-1.34-.17-2H81.74C82.91,278.65,83.1,279.77,81.11,280.44Z"/><path class="cls-18" d="M363,77.1c-.44-.27-1.32,0-1.25-.82,0-.2.79-.34,1.22-.5,5.31,0,10.62,0,15.92.17,1.35,0,3-.82,4,1a7,7,0,0,1-1.58,1C375.13,78.36,369,79.55,363,77.1Z"/><path class="cls-19" d="M49,1.1v1a14.24,14.24,0,0,0-2.65,9.76C46.45,14,46.62,16.19,45,18H44c0-3.75.08-7.5,0-11.24C43.89,3.23,45.13,1,49,1.1Z"/><path class="cls-20" d="M381.67,77l1.18-.1.06,14.93-1,0C379.42,87,379.62,82,381.67,77Z"/><path class="cls-21" d="M307.81,371.15c-.62-4.9-3.9-5.09-8-5.09q-84,.17-168.08.07c-8.62,0-17.17-1.64-25.82-1-2-1.86-4.49-2.63-7-3.55-1.74-.64-4-.86-4.14-3.52a4,4,0,0,1,1.33-.92,43.05,43.05,0,0,1,4.16-1.22c11.57-2.09,23.26-1.31,34.9-1.31,32.47,0,64.92-1.73,97.4-1a27.88,27.88,0,0,0,6.93-.8c8.31,1.55,16.72.59,25.07,1,13.26-.28,26.46,1.55,39.75,1,4.57-.17,8.5-1.08,11.52-4.64,3.4.69,2,3.17,1.63,4.94-.68,3.11-2.89,5.41-4.79,7.86-1.48,1.92-3.31,3.66-3.66,6.25A4.7,4.7,0,0,1,307.81,371.15Z"/><path class="cls-22" d="M94.85,358.35c2.5,2.29,5.8,2.65,8.85,3.52,1.9.54,3,1.15,2.24,3.26a7.51,7.51,0,0,1-4.7,1.12q-19.33-.09-38.67-.09c-2.16,0-4.07,0-3.63-3-1.14-2.53,1-4.06,1.84-6l1.12-1.41c3.13,3.36,5.82-.86,8.77-.5.93-.13,1.43.49,2,1.06a7,7,0,0,0,1.84,1.39c.56.26,1.12.49,1.7.7,3.35,1.63,4.2-2.55,6.71-2.87,3,.71,5.7-.83,8.58-1a3.85,3.85,0,0,1,2.1,1.57A5.62,5.62,0,0,1,94.85,358.35Z"/><path class="cls-23" d="M355.74,293.34h5.16c2.35,3.34,1.24,7.12,1.4,10.74.06,3.33.11,6.65,0,10,0,.61,0,1.22,0,1.84-1.52,13.52-.57,27.1-1,40.64-.36,7,.38,6.52-6.68,8.49-7.54.94-12.91,6.56-19.7,9.11-1.11.72-1.92.55-2.34-.78,4.45-5.12,10.93-7,16.53-10.23,2-1.17,5-1.29,5.31-4.48-.27-19.23-.12-38.45-.13-57.66C354.29,298.37,353.9,295.63,355.74,293.34Z"/><path class="cls-21" d="M354.62,365c2.73-2,6.6-3.21,5.37-7.88,3.54-2.59,7.69-1.76,11.45-1.4,6.78.65,13.77-.3,20.3,2.4q.58,2.49,1.16,5c-1.09.34-2.2,1-3.27,1C377.93,363.33,366.32,365.68,354.62,365Z"/><path class="cls-24" d="M355.85,361.06,333,372.93c-.72-.6-.57-1.28-.22-2l3.25-4.57a3.66,3.66,0,0,1,2.41-2.87c2.31-1.23,2.19-3.44,2.27-5.57a11.25,11.25,0,0,1,.3-2.77,3.68,3.68,0,0,1,1.66-2.23c3,.59,5.95,1.06,8.6-1.07C355.33,353.65,354,358.14,355.85,361.06Z"/><path class="cls-21" d="M338.7,364l-2.7,2.4c-1.71-2-4.09-1.48-6-1-3.48.94-6.9.68-10.37.57,1-3,3.52-4.25,6.28-5,2.4-.67,3.78-1.94,3.6-4.56a2.19,2.19,0,0,1,1.08-1,27.34,27.34,0,0,1,11.07-.21c0,.9,0,1.8.05,2.7A2.69,2.69,0,0,1,341,359c-1.45.65-2.67,1.42-1.58,3.29A1.47,1.47,0,0,1,338.7,364Z"/><path class="cls-25" d="M60.78,357.16l-1.84,6c-7.14.22-14.22-.07-21.14-2.06C45.24,358.07,53.42,360.13,60.78,357.16Z"/><path class="cls-25" d="M395.62,363l-.57-7.85c1.13,3,3.28,4.14,6.47,4,3.91-.15,7.87-.37,12,1.77C407.53,363.65,401.55,363.21,395.62,363Z"/><path class="cls-26" d="M329.93,357.09c2.57,3.24-.43,4.28-2.38,4.64-3.21.61-5.5,2.45-7.93,4.25-4.19,1.16-7.5,4.29-11.81,5.17v-2c1.5-2.61,4.23-3.49,6.71-4.66C319.68,362.08,324.5,359,329.93,357.09Z"/><path class="cls-27" d="M59.07,309.05c1.22,6,.7,12.1.78,18.16A9.07,9.07,0,0,1,59,325c-.63-7.59-.61-7.58-8.17-7.72a3.81,3.81,0,0,1-2.84-1c2.94,0,6,.49,8.78-.12C61,315.2,58.08,311.37,59.07,309.05Z"/><path class="cls-28" d="M332.75,370.94c.07.66.14,1.33.22,2,.26,1,1.1,1.12,1.95,1.2-.66.76-1.62,1.43-2.35.56A2.54,2.54,0,0,1,332.75,370.94Z"/><path class="cls-5" d="M244.93,169.71c5.51.9,1.79,5.39,3.11,7.92s2.64,5.16-1.18,6.87l-5.91,0c-5.35,2.41-10.7,2.65-16,0-8.14-.07-16.28-.28-24.42-.14-3.3.06-4.66-.62-4.62-4.31.18-18.74.15-37.48,0-56.22,0-3.22.85-4.24,4.15-4.2,15.29.13,30.58,0,45.87,0,2.32.26,2.2,2.18,2.31,3.71a29.94,29.94,0,0,1-.33,9.3,3.73,3.73,0,0,1-1,1.49,8.08,8.08,0,0,1-4.31,1c-2.33,0-4.67.13-7,.06-6.29.55-12.65-.75-18.88.81-2.61,5-1.49,7.24,3.8,7.33,5.81.1,11.63,0,17.44.06,2.32,0,4.77-.05,5.94,2.65,2,13.22,1.1,14.26-11.9,14.25-3.33,0-6.66.1-10-.09-2.64.31-6.29-1.41-6.66,3.39-.23,2.91.7,4.78,4,4.67,1.79-.05,3.59.06,5.4-.11,4.83-.06,9.66,0,14.49,0A9.46,9.46,0,0,1,244.93,169.71Z"/><path class="cls-29" d="M246.73,133.58c-.38-4.64,1-9.38-.83-13.93-3.37-2-7-.81-10.54-.85-5.12-.06-10.23,0-15.35,0-7,0-7.09,0-7.66-6.74a2.41,2.41,0,0,0-1.44-2.24h0c.42-2,1.82-3,2.73-.8,2.48,6,5,4.49,7.88.52.11-.16.9.17,1.38.27,3.55,1.65,4.66-2.15,7-3.15-.63-.89-2-1.24-1.84-2.91-1.43,2.51-.06,7.15-5.2,6.07,0-.33-.09-.66-.13-1-.27-2.18-5.76-.66-3.37-4.71,2.61-4.41,9.78-8.34,13.3-6.74,7.23,3.29,13.65,1.48,20.93-.62,5-1.45,9.84-4.62,15.52-4.19a25.07,25.07,0,0,1,5.78.92c6,1.87,12,3.55,18.38,2.43,2.92-.52,5.61.59,8.33,1.06,8.05,1.39,16.46.7,24.61,4-5.27,2.51-9.48,5.35-5.42,13-3.43-1.91-5.9-3.27-5.68-5.52.54-5.38-1.37-3.67-4.17-2.09-1.3.74-3.23.46-4.87.47-1.8,0-2.14,1.24-2.49,2.55s.82,1.95,1.65,1.89c3.9-.28,4.26,2.2,4.62,5.13.41,3.39-.92,5.39-4,6.4-2.3.82-4-.75-6-1.4C296,120.1,292.14,119,288,119.12a31.84,31.84,0,0,0-21.08,6.22,31.07,31.07,0,0,0-7.47,8.24c-.93,1.47-1.58,3.25-3.51,3.84-2.73.56-4.18-2.37-6.69-2.41A3.42,3.42,0,0,1,246.73,133.58Z"/><path class="cls-5" d="M287.94,117.89c6.59-.62,12.28,2,17.92,4.9l6.91,6.18c1,.13,1.51.66,1.35,1.71,9.28,16.76,8.29,30-3.35,44.91a11.57,11.57,0,0,1-10,6.75c-10.89,3.21-21.59,3.95-31.69-2.58,3.78-7.72,8.54-14.88,12.81-22.32,1.56-2.73,3.33-5.36,3.54-8.63,0-9,1.37-17.85,1-26.81A5.38,5.38,0,0,1,287.94,117.89Z"/><path class="cls-5" d="M363.88,191.46c2.76,2,5.95,2.7,9.22,3.21,8.84,1.36,12.77,5.3,13.6,14.16.39,4.24.26,8.54.36,12.81,2.94,7.94,1.33,10.07-7.78,10.3a19.28,19.28,0,0,1-6.47-.45c-4.76-1.3-2.31-5.23-2.95-8,0-2.19,0-4.39,0-6.6,0,.61,0,1.22,0,1.84,0,2.64.38,5.35-.12,7.9-.63,3.22.47,4.92,3.44,5.77,1.71,3.43.39,5.69-2.83,7.14s-6.69,2.81-10.07,4.14c-1.65.65-3.49,1.38-4.85-.67-.1-10,0-20.07-.06-28.5-.38,8.76.53,19.17-.42,29.54-3.05,3.35-6.59,5.44-11.36,4.48-2.22-4.15-.29-8.75-1.41-13a12.11,12.11,0,0,1-.42-1.57,50.26,50.26,0,0,1-.88-11,24,24,0,0,0-.47-5.66,34.93,34.93,0,0,1,.46,7.07c-.64,3.19,1.61,6.76-1.3,9.64-2.22,1.15-4.42.5-6.63-.08-3-.77-3.86-2.79-3.38-5.66a26.83,26.83,0,0,1,1.26-5.31,9,9,0,0,1,.88-1.33c1-4.1,2.46-8.16,2.84-12.32.62-6.67,5.09-9.08,10.5-10.62a30.51,30.51,0,0,0,6.92-2.34,2,2,0,0,1,1.25,0,8.13,8.13,0,0,1,1.74.88,3.07,3.07,0,0,1,1.41,2.18c-.38,1.87-1,3.73,0,5.37.09-1.18-1.13-2.9.54-4,1.12-.71,1.61.54,2.17,1.27.7,1,1.38,2,2.79,1,.67,0-.08-.64-.25-.42-.92,1.2-1.62.25-2.29-.47-.49-1.59-2.71-1.78-2.93-3.59a13.66,13.66,0,0,1,5.39-7.36A2.68,2.68,0,0,1,363.88,191.46Z"/><path class="cls-30" d="M51,154.75c-.24-7.11,1.18-13.76,5.22-19.76,2.58-3.85,2-8.16,1.54-12.43,0-.47-.16-.93-.25-1.4-5.11,1.55-2-4-4.39-5.25-1.59-.85-.79-3.72.84-5.21,2-1.8,4.76-2.85,6.86-1.44,5.55,3.74,11.39,1,17,1.18,3.76.11,7.19-.11,10.19,2.45,3,4.31,1.63,8.57-.13,12.82-1.12,1.71-1.4,4.07-4.26,4.33-1.78.15-1.34,2-1.3,3.28.07,2.71,2.05,4.45,3.53,6.43,2,3.45,4,6.88,1.41,10.91-1,5.49-2.92,11,1.09,16.21,1,1.28-.43,1.57-1.41,1.77-.38.31-.81.82-1.24.75-9.32-1.47-18.63,1.29-27.94.06a4.22,4.22,0,0,1-1.78-.8C52.78,164.56,52.61,159.4,51,154.75Z"/><path class="cls-31" d="M286.85,150.63c-4.76,9.72-10.74,18.75-16.13,28.11-.28.49-1.06.69-1.61,1-10.66-6.34-15.25-16-15.38-28.09,0-2,0-4,0-5.94-1.48-2-.25-3.9.24-5.84a5.62,5.62,0,0,1,2.09-3.06c2.82-4.4,5.12-9.21,9.86-12,1.48-.52,2.09.69,2.74,1.52,5.39,6.83,10.89,13.57,16.32,20.36C286,147.87,286.06,149.4,286.85,150.63Z"/><path class="cls-5" d="M173.18,147.51c8.78,2.41,14,7.88,14.73,17.16,2,4.27-.21,7.79-2.51,10.94-4,5.47-9.07,9.48-16.45,9.07a58,58,0,0,1-33.07-3.87c-3.46-1.47-4.55-3.11-2.44-6.64,1.6-2.66,2.5-5.74,3.71-8.63a3.13,3.13,0,0,1,3-.54c7.07,3.14,14.26,5.75,22.22,4.92a18.16,18.16,0,0,0,2.8-.87c3.52-1.76,3.64-3.79.39-6.09-1.19-.84-2.76-1.05-3.78-2.2C164.2,155.18,168.67,151.33,173.18,147.51Z"/><path class="cls-7" d="M331.7,221.57a1.13,1.13,0,0,1,0,1c-1.93,1.77-4.35,1.37-6.63,1.39-8.28.06-16.57,0-24.85,0-3,0-5.46.26-4,4.42.9,2.57-1.3,4.22-3,6.66,4.88.13,9.26-.1,13.62.13,1.94.1,4.52-.59,5.09,2.5a4.2,4.2,0,0,1-1.49.89,185.23,185.23,0,0,1-28.07.08,4,4,0,0,1-1.39-.71c-1-1.93,1.11-1.64,1.74-2.37a5.74,5.74,0,0,0-2.41,1.46c-2.37,1.44-4.54,2.78-5.9,5.62-1.67,3.5-10.38,2.91-12.46-.5-3.13-5.1-6.7-6.52-12.13-4.82-3.14,1-9.55-4.6-9.42-8.2.2-5.33.2-5.33-5.31-5.27l-2.49.05-1.61.07c-4,0-8,.09-12.06,0-.91,0-1.82,0-2.73,0-18.66.11-37.32.38-56-.13a6.09,6.09,0,0,1-1.8-.66,1.38,1.38,0,0,1-.64-1.62Z"/><path class="cls-22" d="M139.75,165.74l-2.6-.2c-3-1.12-6.26-1.91-9.07-3.45s-4.12-1-5.14,1.67c-1.09,1.91-2.46,3.51-4.8,3.75-2.55.27-4.25-.46-3.66-3.5,1.82-2.14,4.74-4.07,5.17-6.45s-3.16-4.19-4.62-6.53c-7.51-12-8.3-24.39-.91-36.52,7.26-11.92,18.4-17.11,32.39-16,1.15.09,2.31.15,3.46.22,5.52,0,10.34,1.56,13.72,6.26l7,7.24c3.59,1.68,3.9,5.25,4.87,8.43,2.41,5.15,4.29,10.33,1.23,15.9q-1.8,5.49-3.62,11a47.1,47.1,0,0,1-11.4,12.76c-.32,1.54-1.6,2.14-2.8,2.82C152.85,166,146.64,168.32,139.75,165.74Z"/><path class="cls-29" d="M300.81,182.34l10-6.75a4.35,4.35,0,0,0,3.3-.72c2.72-2.39,4.87-3.22,5,1.77a1.63,1.63,0,0,0,1.62,1.6c2.62-.07,1.72-2.8,2.8-4.09,7.26,7.49,7.16,16.3-.19,23.25-2.13,2-6.05,1.59-7.43-.88-2.23-4-5.34-5-9.46-3a17.14,17.14,0,0,1-2.24,1c-3.17,1.07-5.78,1.8-4.43-3.44C300.48,188.31,299.49,185.16,300.81,182.34Z"/><path class="cls-32" d="M362,191.24q-2.6,3.66-5.18,7.33-.39.7-1,.18L354,196.87c-1.15-1.09.36-2.05.16-3a6.46,6.46,0,0,1-1.21,2.43l-.48.13-.49-.1c-14.09.3-17.89-3.41-18.07-17.61a5,5,0,0,1,1-4.44c3.57-1.26,7.27-2.07,10.67-3.94,2.54-1.39,5.68-1.29,6.33,2.25.68,3.72,3.19,5,6.06,6.23,1,1.07,2.15,2.09,1.79,3.81C358.33,186.05,362.79,188,362,191.24Z"/><path class="cls-29" d="M169,184.68c10.34-2.87,17.88-8.4,19-20,6.89,1.41,7.6,2.82,5,9.14a38.77,38.77,0,0,0-1.43,5.71c-.58,2.37-.73,4.93-4,5.51a3.14,3.14,0,0,0-2.39,2.92c-.27,4.43-3.52,7.38-5.66,10.72-3.68,5.73-4.15,9.48.17,15.72-4.89-.5-7.52-3.13-8.49-7.17A70.93,70.93,0,0,1,169,184.68Z"/><path class="cls-9" d="M114.48,164c3,5.63,5.68,1.1,8.46-.25a5.48,5.48,0,0,1-.42,3.87c-4.63,8.59-9.1,17.26-14.06,25.65-2.81,4.76-5.78,4.33-11.21-.85-2.37-1.49-2.45-4.33-3.77-6.44-.89-1.63-.82-3.5-1.28-5.23-2.64-7.94-2.65-7.94,6-9.46.8-.14,1.62-.25,2.43-.38.51,1.82.88,3.7,2.3,5.11,1.64,2.61,3,3.16,5.1.13,1.94-2.77,3.58-5.41,3.2-8.9C112.21,166.1,112.83,164.54,114.48,164Z"/><path class="cls-29" d="M255,139.75l-1.23,6c-1.52,2.33-3.26,4.41-6.5,4.58,1.73,2.78,4.86-.37,5.34,2,.56,2.78-1.22,5.16-3.09,7.45-2.32,2.85-6.4,5.15-4.58,10a179.59,179.59,0,0,1-21,0c-4.23-4.06-4.89-6.5-3-11,5.65-.08,11.31-.38,17-.16,3.74.15,5.59-.67,5.07-4.84a55.59,55.59,0,0,1,.09-8,1.58,1.58,0,0,1,1.73.63c.3-.52-.13-.87-.36-1.2-1.08-1.52-1.39-3.36-2.22-5,.29,2.11,1.43,4.88-2.7,3.56-1.32-3.22-5.64-5.36-3.57-9.81h7c3.07,2,3.58,5.81,6.1,8.71.27-3.5-3.58-5.67-2.27-9h0l3.19.18C251.69,135.69,253.8,137.33,255,139.75Z"/><path class="cls-22" d="M357.93,178.78c-4.81,1.29-6.59-1.05-6.93-5.5-.29-3.8-2.78-3.16-5-1.89-3.46,2-6.86,4-11.07,3.58-1.08.38-1.48-.51-2.06-1.09-3-1.47-5.35-3.52-4.77-7.23.39-2.45,2.08-4.75,4.48-4.57s4.77-.82,7.11,0c1.17,3,3,1,4.46.46,3.48-1.27,6.73-1.69,9.65,1.16.57.35,1.34.36,1.77,1,2.26,3,5.33,5.51,4.44,9.92C359.72,176.23,359.81,178,357.93,178.78Z"/><path class="cls-33" d="M67.1,79c6.15,0,12.3,0,18.44-.15,2.59-.06,3.59,1,3.49,3.51-.14,3.81-.08,7.62-.1,11.44-7.31,1.15-14.63.59-22,.3A43,43,0,0,1,67.1,79Z"/><path class="cls-8" d="M381.67,77l.2,14.87-19-.08L363,77.1Z"/><path class="cls-34" d="M163.69,105A51.31,51.31,0,0,0,150,98.69c2.54-1.93,5.41-.2,8-.58,1.25-1.46-2.84-1.15-.73-2.87,1.62-1.31,8.82.08,9.8,2,.89,1.74,2.1.9,2.27-.13.28-1.75,1.19-2.18,2.65-2.28,1.34,1.7,2.67,1.8,4,0,3.09.06,6.56-.8,8.77,2,.93,1.2,3.8,2.49,1.63,4.61-1.66,1.63-3.52,4.7-6.41,1.32a1.34,1.34,0,0,1,0-2c1.89-1.07,2.17-2.11-.18-2.84a2.34,2.34,0,0,0-2.57,1.15C173.92,104,168.34,103.37,163.69,105Z"/><path class="cls-34" d="M175,120l-4.25-7.82c1.74-2,4.44-3.22,4.6-6.58a2,2,0,0,1,3.45-1.15c2.75,2.44,6.78,3.87,7.17,8.34-.75,1-1.43,2.17-3,2-2.47.07-5.72-.84-4.37,3.76.28.93,0,1-2.79,1.32C175.55,120.27,175.28,120.33,175,120Z"/><path class="cls-29" d="M224.9,184.53h16c-2,2.43-2.89,5.57-5.23,7.8-3.78,3.61-6.5,3.25-8.61-1.31C226.15,188.94,224.67,187,224.9,184.53Z"/><path class="cls-35" d="M175,120a7.37,7.37,0,0,1,.82-.13c9.84,4.18,10.2,5.55,4.56,15.22-1,1.64-1.91,2-3.53,1.42C177.34,130.89,176.19,125.44,175,120Z"/><path class="cls-36" d="M84.66,139.82c-1.9-1.67-4-3.58-3.66-6.16.2-1.7-1.88-6,3.47-4.67.8.2,2.26-2.12,3.41-3.28.13,1.41.25,2.82.38,4.23C88,133.57,89.84,138,84.66,139.82Z"/><path class="cls-37" d="M111.18,167.26c2.09,2.38,1.76,4.57-.28,6.88s-3.79,4.78-5.88,7.44a8.81,8.81,0,0,1-2.14-5.55Z"/><path class="cls-38" d="M84.66,139.82c2.44-2.84,3-6.38,3.6-9.88,1,7,1.66,14-.32,20.92a.88.88,0,0,0-.68-.2C88.85,146.47,86.45,143.22,84.66,139.82Z"/><path class="cls-39" d="M246.86,184.5c2-2,.45-4.64,1.18-6.87l2.29-1.87c.63-.53,1.36-1.2,2.08-.39a2.28,2.28,0,0,1,.15,1.83c-.79,2.51-1.61,5-2.57,7.46C248.88,187.5,247.83,186.19,246.86,184.5Z"/><path class="cls-40" d="M94.24,185.67a18.36,18.36,0,0,1,3,6.77L94,195.7c-1.81-2.77-.82-5.85-1-8.8A1.15,1.15,0,0,1,94.24,185.67Z"/><path class="cls-41" d="M67,93.71l21.91,0c.7.39.73.8,0,1.2L67,94.69c-.3-.22-.4-.44-.3-.65S66.91,93.71,67,93.71Z"/><path class="cls-42" d="M67,93.71c0,.33,0,.66,0,1-2.32-5.47-.35-11.21-1.09-16.79a2.13,2.13,0,0,0,.87,0c.1.34.21.68.31,1Q67.05,86.33,67,93.71Z"/><path class="cls-43" d="M157.8,221.56l.32,1c2,5.12,1.52,10.3.4,15.49a1.17,1.17,0,0,1-1.61.45q.08-8.46.14-16.92A1.47,1.47,0,0,0,157.8,221.56Z"/><path class="cls-44" d="M314.12,130.68,312.77,129c.91-1.51,1.83-3,2.92-4.8C317.9,127.19,316.54,129.06,314.12,130.68Z"/><path class="cls-45" d="M182.93,114.8l3-2c.05.65.05,1.3.15,1.94.16,1.14,1.38,2.68-.9,3S182.92,116.35,182.93,114.8Z"/><path class="cls-46" d="M175.94,94.86c-1.3,1.2-.07,3.07-1.18,4.54-2.4-.68-1.63-3.26-2.83-4.55C173.27,95.21,174.6,93.05,175.94,94.86Z"/><path class="cls-47" d="M332.91,173.88,335,175l-1.08,3.71C332.49,177.3,333,175.52,332.91,173.88Z"/><path class="cls-48" d="M319.53,202c-.3.28-.67.87-1.2,1.06s-1.26-.14-1.26-1,.29-1.29,1.08-1.35S319.46,200.84,319.53,202Z"/><path class="cls-29" d="M210.91,109.81c0,1.48.13,3-2.13,3.81a3.46,3.46,0,0,1,2.15-3.8Z"/><path class="cls-39" d="M315.41,122.42c-1,.09-1.35-.34-1.41-1.06-.05-.53.19-1.06.77-.88a6.22,6.22,0,0,1,1.46,1Z"/><path class="cls-49" d="M179.94,100.84c0,.67,0,1.33,0,2-.76-.24-2.14.53-2.17-.81C177.75,101,179,100.94,179.94,100.84Z"/><path class="cls-8" d="M45,18c0-3.58,0-7.16,0-10.73,0-2.82,1-4.71,4-5.14q79.8,0,159.6,0a26.87,26.87,0,0,1,8.33,1c0,11-.07,21.91.06,32.87,0,3-.85,4.1-4,4.08-21.63-.1-43.25,0-64.88,0-1.17,0-2.36.08-3.18-1-1.14-1.92-.35-3.29,1.26-4.43,4.42,0,8.86-.07,13.29,0a32.79,32.79,0,0,0-4.32-.07c-2.33,0-4.67,0-7,0-2.2-.21-1.54-1.24-.53-2.15,2.77-2.51,2.59-4.51-.47-6.81s-4.19-5.72-3.81-9.66-.9-5.09-4.75-4.73a10.76,10.76,0,0,1-9.3-3.7c-2.52-2.75-4.6-2.58-7.17-.25-3,2.67-6,5.24-10.54,3.8-2.11-.67-2.73,1.36-3.54,2.76s.08,3-1.12,4.22Z"/><path class="cls-7" d="M146,35.2l-1,3.79a1.88,1.88,0,0,0-1,1.82L126,41l.07-1a5.92,5.92,0,0,1,2.51-2.29c5.32-3,7-5.79,6.06-10.63-.89-4.59-4.27-6.81-8.57-7.88a4.71,4.71,0,0,0-1.93-.34c-5.65-1.56-11.44-.28-17.14-.83-2.29-3.79.78-6,2.5-8.68a1.11,1.11,0,0,1,1.69-.39c4.94,3.78,7.61-.31,10.43-3.14a5.57,5.57,0,0,1,8.49.54c2.12,2.65,5.2,4.95,8.6,3.26,2.14-1.07,3-.58,4,.79,1.1,1.53,4.08,2.16,2.36,5.15-2.16,3.75.15,7.45,2.65,8.85,2.75,1.54,3.12,2.92,3.35,5.53.31,3.39-2.7,2.68-4.08,4-2.92,1.32-5.85.43-8.23.55C140.58,35.43,143.58,33.51,146,35.2Z"/><path class="cls-50" d="M77.9,54.33c0,3.8-.08,7.6,0,11.39C78,68,77.37,69.05,74.88,69c-2.24-.06-2.8-1-2.78-3q.09-11.64,0-23.27c0-2.17.58-3.47,3.05-3.42,2.64,0,2.78,1.72,2.76,3.69C77.87,46.74,77.9,50.53,77.9,54.33Z"/><path class="cls-8" d="M124.09,18.82a10.39,10.39,0,0,1,11.53,5.8,10.85,10.85,0,0,1-5.05,13.52c-1.45.74-3,1.22-4.55,1.82,0-5.07-.15-10.14-.15-15.21C125.88,22.57,125.68,20.5,124.09,18.82Z"/><path class="cls-51" d="M54.78,59c0,2.31-.11,4.63,0,6.94S53.82,69,51.55,69c-2.44,0-2.61-1.33-2.59-3.17,0-4.63,0-9.26,0-13.89,0-1.9.31-3.12,2.67-3.12s3.3.87,3.18,3.21S54.78,56.63,54.78,59Z"/><path class="cls-31" d="M101.15,58.83c0,2.48,0,5,0,7.45,0,1.88-.71,2.65-2.63,2.67s-2.68-.69-2.66-2.61c.07-5.3,0-10.6,0-15.9,0-1.63.59-2.43,2.32-2.42s3,.24,2.93,2.36C101.11,53.19,101.15,56,101.15,58.83Z"/><path class="cls-4" d="M66,60c0,2.15,0,4.3,0,6.45,0,1.56-.46,2.51-2.25,2.5s-3-.22-2.94-2.34c0-4.46,0-8.93,0-13.4,0-1.72,1-2.23,2.52-2.29,1.91-.07,2.72.73,2.67,2.62C66,55.65,66,57.81,66,60Z"/><path class="cls-52" d="M113.74,62.49c-1.26,1.74,2.57,6.09-2.93,6.43-1.69.11-2.93-.26-2.89-2.37.07-3,.06-6,0-8.94,0-1.88.73-2.67,2.65-2.66s3.3.31,3.19,2.66C113.69,59.09,113.74,60.59,113.74,62.49Z"/><path class="cls-53" d="M84,61.28c1.24-1.73-2.48-6.7,3-6.14,5.72.58,2,5.51,2.62,8.37.41,1.81,1.77,5.34-2.65,5.44-2,0-3.15-.58-3-2.8C84.09,64.67,84,63.18,84,61.28Z"/><path class="cls-4" d="M43.06,62.86c0,1.32,0,2.64,0,4,0,1.82-1.17,2.11-2.65,2.08-1.24,0-2.41-.18-2.45-1.75-.06-2.64,0-5.29-.05-7.93,0-1.67.78-2.33,2.41-2.37,1.83,0,2.85.57,2.76,2.53C43,60.55,43.06,61.7,43.06,62.86Z"/><path class="cls-54" d="M101.81,41.19c-.07,1.93-1.19,2.85-2.85,2.75-1.43-.09-3.47,0-3.25-2.35.16-1.69.8-3.38,2.86-3.38C100.43,38.21,101.46,39.49,101.81,41.19Z"/><path class="cls-55" d="M63.38,41.11c2,.45,3.29,1.43,3.15,3.31a2.65,2.65,0,0,1-3,2.6,3,3,0,0,1-3-3.2C60.53,42.14,62.15,41.6,63.38,41.11Z"/><path class="cls-56" d="M75,29c1.72.08,2.91.92,2.89,2.68,0,1.54-.64,3.09-2.49,3.11a3,3,0,0,1-3.23-3.05C72.07,29.94,73.23,29.09,75,29Z"/><path class="cls-57" d="M86.3,45.9c2.06-.07,3.34.75,3.41,2.44a2.86,2.86,0,0,1-3,3.2A2.6,2.6,0,0,1,84,48.74C84,47,84.85,46,86.3,45.9Z"/><path class="cls-58" d="M113.65,48.27c-.45,1.58-1.2,2.82-3,2.68-2-.16-2.89-1.45-2.69-3.35A2.46,2.46,0,0,1,111,45.23,3,3,0,0,1,113.65,48.27Z"/><path class="cls-59" d="M54.85,39.24c-.11,2.06-1.28,2.73-2.91,2.84s-3-.34-2.93-2.33S50,36.55,52,36.64A3,3,0,0,1,54.85,39.24Z"/><path class="cls-60" d="M40.32,52.92a2.61,2.61,0,0,1-2.43-3c.1-1.7,1.07-2.79,2.81-2.66s2.54,1.3,2.42,3A2.55,2.55,0,0,1,40.32,52.92Z"/><path class="cls-61" d="M386,133.71c-7,0-13.95,0-20.93,0-1.22,0-3.08.45-3.06-1.51s1.89-1.45,3.09-1.46q21.18,0,42.35,0c1.23,0,3.09-.44,3.07,1.5s-1.87,1.47-3.1,1.47C400.23,133.74,393.09,133.71,386,133.71Z"/><path class="cls-62" d="M386.38,160.7c-7,0-13.95,0-20.92,0-1.29,0-3.47.82-3.48-1.51,0-1.9,1.93-1.4,3.14-1.4q21.18-.06,42.35,0c1.2,0,3.08-.48,3,1.54s-1.95,1.38-3.16,1.39C400.33,160.72,393.35,160.7,386.38,160.7Z"/><path class="cls-39" d="M386.38,120.76c-7,0-13.95,0-20.92,0-1.22,0-3.16.53-3.26-1.29-.12-2.36,2.09-1.62,3.37-1.62q20.93-.09,41.85,0c1.23,0,3.11-.41,3.05,1.52s-1.93,1.41-3.17,1.42C400.33,120.78,393.35,120.76,386.38,120.76Z"/><path class="cls-63" d="M386.48,137.62c7,0,14,0,20.95,0,1.05,0,2.69-.52,2.88,1.09.24,1.93-1.49,1.87-2.78,1.87q-21.45,0-42.91,0c-1.14,0-2.69.1-2.67-1.46,0-2,1.86-1.5,3.07-1.51C372.17,137.59,379.33,137.62,386.48,137.62Z"/><path class="cls-64" d="M379.81,126.74c-5,0-9.94,0-14.92,0-1.12,0-2.63.17-2.62-1.46s1.51-1.45,2.63-1.45q14.93,0,29.84,0c1.13,0,2.56,0,2.35,1.7-.15,1.29-1.39,1.21-2.36,1.21C389.76,126.75,384.78,126.74,379.81,126.74Z"/><path class="cls-65" d="M379.69,143.69c4.65,0,9.3,0,13.94,0,1.06,0,2.7-.39,2.68,1.3,0,1.37-1.45,1.63-2.66,1.63q-14.68,0-29.37,0c-1,0-2.17-.18-2.18-1.45s1.14-1.46,2.17-1.47h15.42Z"/><path class="cls-66" d="M370.36,152.66c-1.81,0-3.62.07-5.43,0-1.18-.06-3,.49-2.95-1.55,0-1.62,1.6-1.33,2.67-1.35q5.69-.06,11.35,0c1.07,0,2.63-.3,2.7,1.33.08,2.07-1.74,1.51-2.91,1.57C374,152.73,372.17,152.66,370.36,152.66Z"/><path class="cls-67" d="M362,191.24c-.92-2.85-6.42-4.47-2.32-8.65.79,1.14,2,1,3.15,1,.13,2.64-.67,5.4,1,7.84Z"/><path class="cls-68" d="M353.51,120.79c-1.54-.53-4.4,1-4.46-1.52s2.82-1.45,4.35-1.43,4.3-1.28,4.22,1.54C357.57,121.62,355,120.34,353.51,120.79Z"/><path class="cls-61" d="M353.41,133.85c-1.7-.53-4.4.73-4.34-1.48.08-3,3.06-1.4,4.73-1.58,1.36-.14,4-1,3.86,1.47C357.47,135,354.63,133,353.41,133.85Z"/><path class="cls-69" d="M353.32,137.46c1.68.55,4.28-.76,4.31,1.52,0,2.75-2.75,1.56-4.27,1.57s-4.41,1.12-4.3-1.55S352.1,138.35,353.32,137.46Z"/><path class="cls-65" d="M362.45,167.73c2.58-1.52,5.2-1.33,8.61-.44C367.84,169.52,365.13,168.67,362.45,167.73Z"/><path class="cls-70" d="M355.61,164.69c-.88.18-1.55,0-1.77-1,1.23-.61,2.4-.74,3.36.49Z"/><path class="cls-71" d="M269.9,40.82c2.81-6.65,8.84-8.58,15-8.57s12.19,1.91,15,8.57Z"/><path class="cls-72" d="M358.82,48.22A2.78,2.78,0,0,1,355.46,51a2.62,2.62,0,0,1-2.55-3.06,2.74,2.74,0,0,1,3.33-2.79C358,45.28,358.81,46.44,358.82,48.22Z"/><path class="cls-73" d="M340.94,48.45c0,1.9-1.06,2.63-2.85,2.56s-3.06-.81-3-2.57a3.11,3.11,0,0,1,3.55-3.24C340.45,45.35,341,46.82,340.94,48.45Z"/><path class="cls-74" d="M343.93,48.4a3.07,3.07,0,0,1,3.21-3.22c1.77-.11,2.68,1.07,2.7,2.79,0,2-1.06,3-3,3A2.72,2.72,0,0,1,343.93,48.4Z"/><path class="cls-75" d="M81.11,280.44l.63-3.1h5.4a5.65,5.65,0,0,1,.82,4.47,372.77,372.77,0,0,0-3.48,58.88c0,2.77.51,5.66-1.12,8.22-3,.56-2.51-1.89-2.7-3.34a44.28,44.28,0,0,1-.13-9.83c.43-4.59-.7-8-5.45-9.5,1.79-13,3.61-25.91,5.37-38.88C80.77,285.07,80.9,282.75,81.11,280.44Z"/><path class="cls-76" d="M86.89,281.35c.09-1.34.17-2.68.25-4H107c-.19,2-.13,4.11-1.11,6C99.34,284.8,93,283.83,86.89,281.35Z"/><path class="cls-77" d="M81,262.4q-4.41-9.9-8.83-19.79c6.47,4.63,8.55,11.5,9.84,18.79C82.37,262.45,81.88,262.63,81,262.4Z"/><path class="cls-78" d="M81,262.4l1-1a6.11,6.11,0,0,1,.89,1.61,23,23,0,0,1,0,3.59Z"/><path class="cls-79" d="M56,168.65c3.61,0,7.36-.61,10.81.15,3.7.82,5-4,7.31-3,2.43,1.09,4.3,3.27,7.42,2.87a42.58,42.58,0,0,1,5.42,0c-.16,2.13-1.76,2.28-3.24,2-6.36-1.17-12.5,1.63-18.81.95C61.72,171.27,58.26,171.68,56,168.65Z"/><path class="cls-80" d="M58.82,188.41c-5.88-1.26-2.36-4.88-2-7.72Z"/><path class="cls-81" d="M45.86,179.59c-1.18-3.44-1.84-6.85.47-10.13l1,.35C46.81,173.07,46.34,176.33,45.86,179.59Z"/><path class="cls-82" d="M94.24,185.67,93,186.9c-1.64-1.88-1-4-.77-6.14Z"/><path class="cls-83" d="M378.89,230.68c7.78-.51,7.78-.51,8.17-9l3.79.87q0,24.36,0,48.73c0,11.95-8.19,17.77-20,14.25.92-1.88,2.81-2.26,4.54-2.72,6.64-1.75,9.29-6.5,9.88-12.82.37-4,.11-8,.14-11.95.05-6.59-1.07-13.1-1.36-19.66C385.28,233.82,380.91,233,378.89,230.68Z"/><path class="cls-75" d="M75.08,326.24c6.89,0,6.71,0,7,6.89.18,5.35-1,10.78.76,16.05,2,2.18,1.91,4.42.17,6.69-2.09,2.44-3.39,6.91-7.93,3.08-1-.62,2.38-2.43-.69-2.44-.73.29-1.33,1-2.22.64-.48-.63-1-1.27-1.45-1.9Z"/><path class="cls-84" d="M415.38,96.88c2,.61,3.29,1.62,3,3.6a2.79,2.79,0,0,1-3.22,2.45,2.73,2.73,0,0,1-2.78-2.91C412.33,98.06,413.81,97.26,415.38,96.88Z"/><path class="cls-85" d="M406.6,97c1.75.32,3,1.31,3.08,3.19a2.57,2.57,0,0,1-2.82,2.73,2.69,2.69,0,0,1-3-3C403.84,98.14,404.83,97.21,406.6,97Z"/><path class="cls-86" d="M397.88,102.92c-1.74-.14-2.93-1-2.9-2.73A3.05,3.05,0,0,1,398.11,97c1.76-.09,2.69,1.08,2.74,2.79C400.91,101.83,399.82,102.83,397.88,102.92Z"/><path class="cls-30" d="M386.49,258.5c.13,1.79.36,3.59.37,5.38.15,14.65-1.87,17.37-16,21.61-7.95,1.55-15.87,3.27-24,4-2.5.22-4.32.93-2.9,4,1.53,2.19,1.91,4.79,2.64,7.27.82,7.62,2.16,15.17,3.24,22.75,1.68,6.74,2.38,13.63,3.45,20.46.36,2.33.63,4.68-2,6-3.37,1.24-7,1.34-10.43,2.11-3.92.8-5.21-1.75-6.26-4.79-3.58-10.31-6.72-20.76-9.95-31.17-1-3.72-2.28-7.36-3.41-11a14.72,14.72,0,0,1-.93-3.25,20.09,20.09,0,0,0-.87-4.39,14.07,14.07,0,0,0-2.13-4.28,64,64,0,0,1-2.22-11.08c-1-7.22,1.83-10.68,11.07-14.62,6.77-1,13.6-.11,20.32-.54-4.24-.89-8.72,1-12.73-1.37-1.28-3.31-.16-4.71,3.33-4.08,2.84.52,5.51.41,7.86-1.51a3.79,3.79,0,0,1,3.86,1.06c.43.72.32,1.4-.41,2.41,1.41-1,1.26-3,3-3.09,10.79-.43,21.58-.64,32.24-2.51A3,3,0,0,1,386.49,258.5Z"/><path class="cls-75" d="M350.85,349.21c2.43-.63,1.65-2.35,1.38-3.95-1.2-7.32-2.36-14.66-3.54-22a138.92,138.92,0,0,1-.33-25.47c.13-1.66.36-3.27,1.7-4.47h5.68q.06,33.87.11,67.72c-3.44-2-1.89-6.59-4.65-8.94C349.94,351.29,350.13,350.28,350.85,349.21Z"/><path class="cls-75" d="M360.93,304.3l0-11c6.12,0,12.25.34,18.35,0,4.11-.21,6.35.69,5.81,5.25-.06.57.45,1.2.69,1.8l0,3.9a5.21,5.21,0,0,1-4.06,1.46C374.79,305.29,367.67,307.5,360.93,304.3Z"/><path class="cls-12" d="M350.06,293.34q-.69,15-1.37,29.94c-.82-7.72-3.58-15.19-2.85-23.1-.5-2.28-1.62-4.56,0-6.85Z"/><path class="cls-33" d="M345.82,293.33q0,3.44,0,6.85c-2.12-1.84-1.63-4.37-1.8-6.72Z"/><path class="cls-8" d="M379.86,46.83c.23-4.68,2.86-7,7.8-6.83a7.69,7.69,0,0,1,7.17,7.84,7.79,7.79,0,0,1-7.57,7.1A7.67,7.67,0,0,1,379.86,46.83Z"/><path class="cls-75" d="M45,94.86c2.79-.56,4.77.12,5,3.35.23,3.51-1.12,5.68-5,5.6A7.34,7.34,0,0,1,45,94.86Z"/><path class="cls-87" d="M45,94.86v9c-3-.41-4.22-2.25-4-5.09C41.26,96.43,42.17,94.61,45,94.86Z"/><path class="cls-8" d="M343.85,17.87c-.09-3.24,2-4.6,4.69-4.55s5,1.91,4.89,4.64-1.73,5-5,5S343.85,20.92,343.85,17.87Z"/><path class="cls-8" d="M360.93,304.3h24.85c2.52,17.89,4.32,35.86,6,53.84-10.6.43-21.13-1.67-31.75-1-.15-14-.21-27.93.79-41.87,6.52-1.06,13-.19,18-.45-4.89-.75-11.49.75-17.94-.54Z"/><path class="cls-88" d="M271.87,328.24c-.17,2.91,1.17,6.26-3,7.85-1.47.56-.86,2.68-1.13,4.1-1,5-1.92,10-2.87,15-6.58,0-13.16-.07-19.74,0-2.11,0-3.87-.29-5.18-2-1-5.31-1.23-10.9-3.17-15.83-1.18-3-3.68-5.45-2.84-9.08,4.58-1.4,9.39.43,14-1h0a3.51,3.51,0,0,1,3.6-1.11C258.17,328.1,265.1,327.36,271.87,328.24Z"/><path class="cls-89" d="M316.77,350.17l.45-1.09a15.68,15.68,0,0,0,10.1-1,9.5,9.5,0,0,1,2.72,8.06,2.48,2.48,0,0,0-.11.94c-4,4.18-9.75,5.44-14.57,8.25-2.44,1.42-5,2.57-7.55,3.84-.67-2.82,1.54-4.18,3-5.87C314.19,359.53,317.48,355.75,316.77,350.17Z"/><path class="cls-90" d="M93.09,357.22c1-.41,1.2-2.11,2.72-1.71a1.6,1.6,0,0,1,.13,2.62l-1.09.22C94.11,358.21,93.28,358.2,93.09,357.22Z"/><path class="cls-91" d="M95.94,358.13c0-.88-.08-1.75-.13-2.62a4.35,4.35,0,0,1,3.33,1.61C98.34,358.29,97.13,358.16,95.94,358.13Z"/><path class="cls-9" d="M102.06,306.27Q97.52,328.92,93,351.59c-.26,1.29-.69,2.55-1,3.82-3-.26-5.78,3.72-8.94.46q-.08-3.35-.17-6.69c.16-15.25-.22-30.53,1.26-45.74.72-7.39.82-14.87,2.84-22.09l19,2-3.12,19.93A10.11,10.11,0,0,1,102.06,306.27Z"/><path class="cls-92" d="M74.12,355.33c2.16-2.21,2.21.67,2.69,1.34,1.56,2.21-1.72,1.06-1.78,2.28l-1.23-.71C73.29,357.2,74.12,356.31,74.12,355.33Z"/><path class="cls-93" d="M74.12,355.33c1.31,1.12,0,2-.32,2.91-.73-.1-1.5-.14-1.68-1.09Z"/><path class="cls-13" d="M360.82,314.28h18.83v1H360.78C360.8,314.94,360.81,314.61,360.82,314.28Z"/><path class="cls-87" d="M330,356.15l-3.39-7.86a2.69,2.69,0,0,1-.29-2.31c1.31-2.75.45-5.48-.05-8.21-.91-5-2.29-9.93-2.79-15,.61-2.55-1.51-6,2.36-7.48,3.38,10.7,6.83,21.37,10.07,32.11.93,3.07,2.36,4.52,5.61,3.36a2.55,2.55,0,0,1,1.29,2.92l-1.2,1.52C337.92,357.14,333.91,355.78,330,356.15Z"/><path class="cls-94" d="M342.85,353.65l-1.3-2.92,9.3-1.52c.12,1,.23,1.94.35,2.91C349.16,356.69,346.09,355.62,342.85,353.65Z"/><path class="cls-95" d="M341,358.2l.72-.33c.07,4.84-.11,5.21-3,6.1.16-.57.33-1.13.49-1.69C339,360.59,340.09,359.43,341,358.2Z"/><path class="cls-96" d="M341,358.2a4.37,4.37,0,0,1-1.79,4.08c-1.23-.51-2.46-1.25-2.13-2.71C337.58,357.3,339.93,359.44,341,358.2Z"/><path class="cls-97" d="M327,78.72c-2.67,1.64-4.68.25-6.3-1.64-1.46-1.7-.09-2.61,1.42-3.27,1.23-1.91,2.81-2.06,4.65-.94l1.47.31C328.14,75.11,329.31,77.31,327,78.72Z"/><path class="cls-98" d="M327,78.72c1.3-1.65.57-3.75,1.24-5.54C328.71,75.23,330.57,77.59,327,78.72Z"/><path class="cls-99" d="M326.73,72.87c-1.62,0-3.29-.28-4.65.94C323,70.21,324.59,70.27,326.73,72.87Z"/><path class="cls-29" d="M235.91,133.9c-.72,4.1,4.39,5.82,4,9.78-7.71,1.21-15.47.2-23.2.52-1.73.07-2.38-.89-2.26-2.46.2-2.6-.56-5.27.49-7.81Z"/><path class="cls-100" d="M220.92,158.71c-.86,4.18,1.74,7.43,3,11a40.69,40.69,0,0,0-4.43.22c-4.17.6-5.88-.71-5.59-5.28C214.3,158.25,214,158.23,220.92,158.71Z"/><path class="cls-101" d="M214.94,133.93c0,9.78,0,9.79,9.54,9.78,5.15,0,10.29,0,15.43,0,1.85-.15,2.13-1.13,1.59-2.75-.47-1.44-2.15-2.64-.85-4.9a60.21,60.21,0,0,1,6.45,13c-2.66-.14-2.76-2.35-4.07-3.25-1.36-1.88-3.37-1-5.07-1-6-.11-12-.47-18,.08-5.41.51-6.85-1.64-6-6.38C214.25,136.91,213,135.08,214.94,133.93Z"/><path class="cls-29" d="M246.74,133.58c1.35,2.78,2.79,5.51,4,8.35.41,1,.61,2.54-.5,3.14-1.39.75-1.94-.68-2.45-1.67-1.64-3.16-3.25-6.33-4.87-9.5Z"/><path class="cls-102" d="M286.85,150.63l-20.91-25.84c6.34-5.47,13.76-7.5,22-6.9C288.36,128.83,287.19,139.72,286.85,150.63Z"/><path class="cls-103" d="M222.91,109.82a3.19,3.19,0,0,0,3.38-3.5c-.34-2.56,1.14-3.53,2.69-4.79.25,5.9.18,8.26-.61,8.65-1.85.94-3.74,1.2-5.45-.37Z"/><path class="cls-104" d="M252.66,125.06c.2,1.55.15,2.55-1.36,2.21-1.11-.25-3.54-7.23-2.88-8.21.46-.7,1.93-1.13,1.87-.62C250,121.27,253.32,122.73,252.66,125.06Z"/><path class="cls-105" d="M255,139.75c-2.8-1.06-4.22-3.29-5.07-6,2.62-.11,3.51,3.24,6.17,3.07C255.92,137.88,256,139,255,139.75Z"/><path class="cls-32" d="M345.21,260.59c-2.14,3.82-5.93,3-8.56,1.84-2.88-1.3-2.42.43-2.91,1.75-3,1.16-3.16,1-3.31-2.88,2-5.79,5.11-10.62,11.42-12.53a3.81,3.81,0,0,1,2.09-.15l9.94-4.26a2.73,2.73,0,0,1,2.08-.56c4.84-1.94,9.63-4,14.53-5.78,3-1.09,2.77-3.17,2.34-5.52-.53-.73-.6-1.37.31-1.86l5.75,0c.28.18.58.54.83.5,5.34-.8,6.21,2,5.25,6.39.64,6.88-.64,9-6.73,11.32A83.88,83.88,0,0,1,359,253.56,22.75,22.75,0,0,0,345.21,260.59Z"/><path class="cls-106" d="M317.91,249.45c1.82-1.11,3.58-2.34,5.48-3.3,5.59-2.81,9.6-6.63,9.21-13.48l6.14,1c1.29.51,3-.71,4,1v-.15c1.11,1.11.48,2.48.55,3.74-1.68,11.67-9.58,18.28-22.3,18.67C318.58,255,316.62,252.89,317.91,249.45Z"/><path class="cls-107" d="M356,243.8a1.72,1.72,0,0,1-2.08.56c1.81-3.27.88-6.82.94-10.23.14-7.42.05-14.84,1.14-22.27Z"/><path class="cls-108" d="M373.14,230.64c-.1.62-.21,1.24-.31,1.86-4.14.49-5.68-.66-4.27-5.18.85-2.69.26-5.82.32-8.76,2.76.29.57,3,2,4C371.76,225.19,368.68,229,373.14,230.64Z"/><path class="cls-109" d="M342.74,234.68c-1.39-.15-2.86,0-4-1,2.25-3.16.61-6.77,1.16-10.12.53-.55.81-1.62,1.94-1Z"/><path class="cls-107" d="M355.87,198.75l1-.18c.75,1.25,2.59,1.43,3,3a2,2,0,0,1-1,1c-.69.07-1.34-2.18-1.91-.26-.44,1.52-.09,3.27-.09,6.1C355.27,204.51,353.55,201.83,355.87,198.75Z"/><path class="cls-5" d="M342.85,238.36l-.12-3.83c2.48,4.52.44,9.42,1.21,14.09l-.83.62C340.32,245.68,342.92,242,342.85,238.36Z"/><path class="cls-110" d="M370.84,222.53c-1.57-.87-.36-3.11-2-4v-6.41C372,216.11,370.4,219.47,370.84,222.53Z"/><path class="cls-111" d="M341.84,222.54l-1.94,1V216.4C341.88,218.3,341.92,220.4,341.84,222.54Z"/><path class="cls-112" d="M358.86,202.57l1-1c2.07,2.3,2-2,4.24-.82C361.92,201.16,363.59,208.73,358.86,202.57Z"/><path class="cls-113" d="M352.93,196.26c-.51-2.3,1.33-3.38,2.45-5.3.83,2.63-1.24,4-1.4,5.91C353.23,197.36,353.09,196.79,352.93,196.26Z"/><path class="cls-114" d="M352.19,202.09c-.39-.9-.72-1.61-1-2.35,0-.06.53-.44.61-.38C352.7,200,353.21,200.76,352.19,202.09Z"/><path class="cls-115" d="M139.75,165.74A41.19,41.19,0,0,0,159,161.86c1.94,2.7,1,6.73,4.14,8.88C154.61,172.34,147,170.09,139.75,165.74Z"/><path class="cls-116" d="M163.1,170.74c-6.13-.75-3.56-5.54-4.14-8.88l2.82-1.59a23.34,23.34,0,0,1,2.34.7c2.58,1,5.67,1.92,5.21,5.49C168.9,169.84,166.09,170.62,163.1,170.74Z"/><path class="cls-3" d="M210.07,294.27c-.81,3.19-3.26,3.93-6.09,3.94q-29.1,0-58.21,0a6.73,6.73,0,0,1-6-2.89q.12-23,.22-45.95c1.61-1.47,3.63-1.51,5.61-1.52q29.82-.13,59.63.09a7.23,7.23,0,0,1,4.7,1.21c1,7.58.37,15.19.41,22.78S210.82,286.83,210.07,294.27Z"/><path class="cls-117" d="M209.74,249.28l-69.74.1c-.13-2-.35-3.91-.36-5.87,0-3.25,1.77-4.79,4.93-4.85,4.11-.09,8.23-.14,12.34-.2H158a6.09,6.09,0,0,1,1.63-1c9.4-1.15,18.84-.29,28.27-.5,5-.11,9.94-.14,14.9.05,3.24.12,6.3.73,8,4C211.32,243.89,212.08,246.77,209.74,249.28Z"/><path class="cls-7" d="M131.94,249.44c-6.62,4.1-14.09,4.1-19,0a3.13,3.13,0,0,0-.17-3.72c-1.86-2.23-1-3.84-.32-6.4,1.08-3.93,2.88-5.16,6.37-6.87,3.25-1.59,4.35-.91,7,.53,2.35,1.3,5.56.8,5.27,4.9-.18,2.4,5.74,3.92,1,7.15C130.28,246.27,131.18,247.94,131.94,249.44Z"/><path class="cls-3" d="M349.81,266.42c-1.21,2.13-3.3,1.78-5.23,1.81l-18.71.21c-3.8,1.49-7.77,1.61-11.78,1.46-5.66-.6-11.43,1-17-.84a8.91,8.91,0,0,1-4.41-5c-2.14-4.93-4.49-9.77-6.76-14.64a9.51,9.51,0,0,1-1.83-2.07c-.94-3.26-3.61-6-3-9.73l29.85-.17c3.49,5.09,4.82,11.22,7.91,16.48,2.11,3.6,3,8.11,7.06,10.42C333.7,266.69,341.87,265.26,349.81,266.42Z"/><path class="cls-8" d="M281,237.64q2,4.85,4,9.71c.12,1.05-.42,1.54-1.4,1.53-15.89-.2-31.79.65-47.67-.43h0a9,9,0,0,1-3-3h0a107.83,107.83,0,0,1,0-22.93c1.66,0,3.32,0,5,0,6,0,6,.26,4,5.66-1.61,4.3,3.31,4.95,4.87,7.54,1.34,2.21,2.71.82,3.91-.45.81-.86,1.79-1.86,3-.87,3.12,2.65,8.94,1.48,9.74,7.7.35,2.68,4,1.07,6.15,1.29,1.48.14,4,.8,4.16-1.4.3-5,3.82-5.05,7.26-5.51Z"/><path class="cls-13" d="M210.07,241.5c.85.73.72,1.75.88,2.72.26,1.53-1,4.25,2.1,3.91a4,4,0,0,0,3.88-4.32c-.07-7.09,0-14.19,0-21.28h2c0,6.48,0,13,0,19.44,0,3.54-1.19,6.45-4.83,7.15-2.9.56-3.23,2.05-3.21,4.49.08,11.8.06,23.6,0,35.4,0,1.76.63,3.69-.82,5.25l-.33-45Z"/><path class="cls-118" d="M324,265.34c-4.82-6-6.62-13.46-10-20.14-1.26-2.46-2.08-5.15-3.1-7.73l1-.11,6,12.09c.4,2.62,1.83,4.8,3,7.08,1.86,1.63,2.75,3.85,3.65,6.06A2.81,2.81,0,0,1,324,265.34Z"/><path class="cls-16" d="M232.92,222.53q0,11.46,0,22.93c-2.11-4.38-.6-9-.95-13.54-.24-3.11-.05-6.26-.06-9.39Z"/><path class="cls-13" d="M159,222.54q0,7.94,0,15.87l-.47.14-.48-.1q.06-8,.13-15.93Z"/><path class="cls-119" d="M273.53,222.64c-3.78,2.4-6.71,2.19-10.4,0Z"/><path class="cls-8" d="M280.41,236.56c3.61-2.68,3.61-2.68,5.94-.27Z"/><path class="cls-120" d="M168.68,145.82a28.54,28.54,0,0,1-15.49,13.62c-5.8-1.36-11.69-2.56-16.17-6.93-2.11-2.06-4.58-4-3.38-7.6,6.27-2.93,13.07-2.84,19.74-3.53a10.41,10.41,0,0,1,2.49.23C160,143.53,165,142.73,168.68,145.82Z"/><path class="cls-121" d="M154,142.63c-6.76.7-13.56,1.08-20.11,3.13a1.1,1.1,0,0,1-1.49-.45c-1.27-4.61-1.53-9.18.44-13.69a3.22,3.22,0,0,1,2.14-1.39c9.19-.91,18.31-2.44,27.49-3.47,3-.35,6.14-1.44,9.19.08a14.63,14.63,0,0,1,.22,7c-3.11,2-6.34-.13-9.5.29-1.25,0-2.51-.05-3.77-.05C152.33,135,151.79,136,154,142.63Z"/><path class="cls-122" d="M132,105c11.89-4.84,24.82-1.74,32.78,7.86-1,1.62-2.56,2-4.24,2.2-7.44.7-14.8,2.17-22.28,2.48a3.12,3.12,0,0,1-1.44-.51c-.41-.49-.88-1.09-.76-1.7C136.86,111,134.93,107.81,132,105Z"/><path class="cls-123" d="M133,145.71a6.85,6.85,0,0,1,.91,0c1.86,5.29,6.07,8,10.92,10.09,2.78,1.22,6.3.75,8.38,3.59-14.45,4.65-28.79-.49-35.36-12.68C122.77,144.79,127.73,143.21,133,145.71Z"/><path class="cls-124" d="M133,145.71l-15.15,1a19.73,19.73,0,0,1-3.9-12,3.8,3.8,0,0,1,3.09-2.16c5.62-.23,11.14-2.76,16.86-.81C132,136.33,133.3,141.07,133,145.71Z"/><path class="cls-124" d="M114,128.76a16.6,16.6,0,0,1,3-10c6.51-2,13-4.37,20-2l0,0c1.1,1.23.6,2.58-.16,3.56-2,2.6-1.19,4.29,1.43,5.62-.29,2.24-1,4-3.72,4.16-4.8-3.34-9.91-.66-14.88-.71C117.7,129.43,115.71,130.32,114,128.76Z"/><path class="cls-125" d="M134.94,129.75c1-1.31,2.05-2.63,3.08-4a3.41,3.41,0,0,1,1.34-1.1c9-2.29,18.31-2.59,27.44-4a4.2,4.2,0,0,1,3.22,1.07c1.31,1.45,1.23,3.35,1.64,5.1-11.72,1.6-23.43,3.22-35.16,4.76-.5.06-1.1-.58-1.65-.89q-.37-.36-.21-.66T134.94,129.75Z"/><path class="cls-126" d="M138.85,125.64a7.6,7.6,0,0,1-.83.16c-5.66-.17-5.62-.15-2.7-5a28.18,28.18,0,0,0,1.64-4c7.16-1,14.31-2.14,21.49-2.92a55.15,55.15,0,0,0,6.32-1,12,12,0,0,1,4,5.88c-1.56,1.65-3.65,1.54-5.58,1.4C154.5,119.5,146.47,121.63,138.85,125.64Z"/><path class="cls-127" d="M136.94,116.79c-6.73-.16-13.19,2.36-20,2,2.93-6.84,8.15-11.21,15-13.81C139.43,106.5,136.73,112.26,136.94,116.79Z"/><path class="cls-128" d="M161.93,132.8c3.42-.66,6.6,1,9.95,1a12.41,12.41,0,0,1-1.13,6.89c-4.66,2.69-9.77,2.06-14.8,2l-1.95-.06c-1.8-1.53-3.77-3.2-2.81-5.81,1.09-3,3.72-4,6.78-4C159.29,133.29,160.61,134.54,161.93,132.8Z"/><path class="cls-121" d="M138.85,125.64c5.11-5.12,11.58-6.66,18.51-6.87,3.8-.12,7.61,0,11.42,0a3.74,3.74,0,0,1,1.24,3Z"/><path class="cls-129" d="M134.94,129.75a3.82,3.82,0,0,1-.09,1l-1,1.07-19.95,3a11.08,11.08,0,0,1,0-6c4.69-.61,9.4-1.16,14.08-1.86C131,126.46,133.58,126.57,134.94,129.75Z"/><path class="cls-130" d="M156,142.69a54.76,54.76,0,0,1,14.8-2q-1,2.53-2.06,5.09C164.35,145.14,160,144.64,156,142.69Z"/><path class="cls-131" d="M339.29,182.62c.59,1.6,2.33,2.94.81,4.55a1.36,1.36,0,0,1-1.33.12C336.68,185.5,339.41,184.17,339.29,182.62Z"/><path class="cls-49" d="M239.22,164.41c-.29-.19-.82-.36-.92-.66a1.08,1.08,0,0,1,.88-1.42,1.26,1.26,0,0,1,1.06.59C240.57,163.68,239.94,164,239.22,164.41Z"/><path class="cls-132" d="M146,35.2l-8.35-.37v-1h23.64l0,1.34Z"/><path class="cls-133" d="M173.68,34.58a6.56,6.56,0,0,1-5.33-.12A6.56,6.56,0,0,1,173.68,34.58Z"/><path class="cls-30" d="M297.07,269.06c5.55-1.61,11.19-.66,16.8-.61-5.72,6-2.4,11.92.36,17.74,1.53,3.23,2.77,6.63,4.9,9.56.33.61.8,1.13,1.13,1.74a16,16,0,0,0,.62,4.07c.33.83.67,1.65,1,2.47,1.32,6.36,2.7,12.71,2.86,19.24,1.33,6.49,2.67,13,4,19.47.37,1.85.63,3.72-2.22,3.66-3,2-6.13,2.74-9.56,1.18-2.83.68-4-.76-4.79-3.3-2.59-8.06-5.41-16-8.14-24.07-.38-.13-.54-.32-.48-.56s.16-.39.27-.39q-3.92-12.57-7.82-25.12c-.94-3.83-2-7.65-2.78-11.51C292.12,277.48,292.94,272.77,297.07,269.06Z"/><path class="cls-134" d="M271.87,328.24c-8,.07-16,.19-24-1-3.53-8.89-8.05-17.09-16-23-.79-.43-.46-1.43-1-2-.4-4.47,2-4.68,5.23-3.3a13.63,13.63,0,0,1,5.76,5.3c.47.22.7.86,1.36.72a1.75,1.75,0,0,1-.35-.71c-2.32-7.47-8.89-10.72-14.71-14.69-.66-.45-1.68-.43-2.26-.94-1.3-1.15-3.53-2.14-2.68-4.26s3.11-2.13,5.16-2,3.38,2.16,5.91,1.58c-2.46-4.8-6.81-7.48-10.57-10.72a32.65,32.65,0,0,1-4.31-4.07c-1-1.22-2-2.71-.46-4.42a3.22,3.22,0,0,1,4.87-.33c3.13,2.68,6.05,5.63,9.08,8.44a24.1,24.1,0,0,0,1.95,1.51c1.16-.34,0-.7,0-1.05-1.88-5.1-3.83-10.18-5.61-15.32-.58-1.68-1.24-4.09.87-4.8,1.81-.6,2.49,1.75,3.21,3.16,3.83,7.57,5.84,15.78,8.49,23.77.45,1.37.82,2.76,1.51,5.08,1.07-4.28-.2-7.77,1.09-11,.56-1.41.37-3.79,2.73-3.44,1.84.27,1.43,2.24,1.74,3.66,1.7,7.7.75,15.49.93,23.23a18.06,18.06,0,0,0,2.15,8.49l4.88-7.92c5.31,1.22,4.42,5.46,3.95,9-.7,5.19-2.29,10.24-2.92,15.46-.19,1.61-.72,3.28,1,4.49C263.2,327.83,267.69,326.06,271.87,328.24Z"/><path class="cls-7" d="M258.9,327.24c-2.42.14-3.3-.92-2.77-3.31,1.16-5.28,2.26-10.56,3.34-15.85.74-3.66,1.11-7.24-2.56-9.76,0-4.45-.4-8.94,1-13.3.38-1.16.67-2.36,2.16-2.24,1.13.1,1.56,1.07,1.76,2.11.46,2.42.93,4.84,1.49,7.77,3.05-7,5.2-14,9-20.21.84-1.36,1.4-3.61,3.48-2.66s.83,2.89.23,4.34c-1.58,3.77-3.28,7.48-5.4,12.28,3.75-3,6.53-5.45,9.53-7.57,1.88-1.33,4.61-2.8,6.2-.46s-.93,4.37-2.85,5.49c-4.71,2.77-9.24,5.7-12.83,10.16,2.22-.8,4.42-1.68,6.68-2.36a3.92,3.92,0,0,1,4.74,1.83c1.12,2.37-1.67,2.26-2.85,3.07-2,1.41-4.64,1.84-6.4,3.73-4.22,1.41-7,4.57-9.43,8.31,1.64-1.1,3.3-2.18,4.93-3.29,1.95-1.34,4.55-1.93,5.89-.27,1.65,2.07-1,3.64-2.42,4.65A35,35,0,0,0,258.9,327.24Z"/><path class="cls-1" d="M230.93,302.29a2.16,2.16,0,0,1,1,2l-123.63,0c-2.28,0-4.74-.5-6.25,2a3.39,3.39,0,0,1,.72-3q61.74,0,123.49,0C227.86,303.28,229.64,303.82,230.93,302.29Z"/><path class="cls-13" d="M235.91,248.45c14.64,0,29.29,0,43.93,0,1.75,0,3.72.65,5.14-1.07l.92,2.09c-14.94,0-29.88,0-44.82,0C239.33,249.41,237.38,250.08,235.91,248.45Z"/><path class="cls-15" d="M242.93,304.3c1.19.66,2.24,1.39,1.57,3.46l-2.58-3.47Z"/><path class="cls-135" d="M234.92,273.37a3.41,3.41,0,0,1,1.56,3.1s-.68.13-.72,0c-.33-.68-.58-1.39-.85-2.09Z"/><path class="cls-15" d="M232.91,245.45a6.25,6.25,0,0,1,3,3A2.81,2.81,0,0,1,232.91,245.45Z"/><path class="cls-136" d="M345.21,260.59c.79-4.83,4.79-6.41,8.57-7.32,7.39-1.77,15-2.81,22.32-4.87,5.65-1.58,8.88-4.8,8.87-10.83,1.67,6.89,1.7,13.9,1.52,20.93-12.05,2.78-24.3,3.17-36.59,3.11a.73.73,0,0,1-1-.05Z"/><path class="cls-137" d="M318.82,296.31c-4.73-5.63-7-12.49-9.53-19.2-1.75-4.61,1.92-6.37,4.58-8.66h12c-8.9,3.85-11.74,10.19-8.12,19.31.7,1.76-.66,4,1.15,5.59A2.35,2.35,0,0,1,318.82,296.31Z"/><path class="cls-138" d="M324,265.34l-.21-2.93c2.27-1.73,4.6-2.84,7.29-.82.43,1.32-.16,3.68,2.64,2.59,5.16,2.78,10.79.14,16.07,1.43.09,0,.19.24.18.37a1.17,1.17,0,0,1-.18.44l-20.45-.3C327.55,266.1,325.68,266.42,324,265.34Z"/><path class="cls-139" d="M324.74,323.27c-1.14-6.38-3.41-12.6-2.86-19.23l4,11.22C323.6,317.66,325,320.59,324.74,323.27Z"/><path class="cls-140" d="M348.85,261.56l1,.05c1.76,4.35-1.77,2-3.15,2.41Z"/><path class="cls-141" d="M318.82,296.31c0-1,.05-2,.08-3,1.33,1,1.23,2.71,1.92,4-.34.43-.67.43-1-.05Z"/><path class="cls-142" d="M319.85,297.32a1.87,1.87,0,0,1,1,.05c-.39,1.4,1.57,2.78.06,4.19C319.5,300.4,319.89,298.81,319.85,297.32Z"/><path class="cls-19" d="M200.6,315.13H155.27v-.49h45.52Z"/><path class="cls-134" d="M247.9,327.23c-4.52,2.13-9.32.5-14,1C238.47,326.15,243.27,327.77,247.9,327.23Z"/><path class="cls-143" d="M316.93,347.58l9.56-1.18c.05.63.11,1.26.16,1.89-2.75,5-6.09,2.86-9.43.79C317.12,348.58,317,348.08,316.93,347.58Z"/><path class="cls-144" d="M303.79,319.26l.21.95H287.2l0-.95Z"/><path class="cls-5" d="M179,290.19a17.45,17.45,0,0,1-18.87-5.28,18,18,0,0,1-2.12-20c3.57-6.39,11.27-10.4,17.91-9.39,1.81.27,3.25.76,3.21,3,1.33,2.64-.5,4.72-1.24,7-.85,2.65-2.13,5.17-2.31,8,.44,3.84,1.84,7.4,3,11C179.05,286.34,180.33,288.18,179,290.19Z"/><path class="cls-145" d="M179,290.19c-1.55-5.73-4.14-11.17-4.89-17.13,4.75-3.5,9.68-6.57,15.87-6.67C194.11,276.8,189.48,286.84,179,290.19Z"/><path class="cls-146" d="M189.93,266.39l-15.87,6.67q2.5-7.29,5-14.59c1-1.5,2.18-1.6,3.7-.59C186,260,188.91,262.41,189.93,266.39Z"/><path class="cls-147" d="M199.66,244.43a2.28,2.28,0,0,1-2.09,2.37,2.14,2.14,0,0,1-2.34-2,2,2,0,0,1,2-2.24A2.15,2.15,0,0,1,199.66,244.43Z"/><path class="cls-85" d="M191,242.58a1.78,1.78,0,0,1,2,1.81,1.8,1.8,0,0,1-2,2.15c-1.09,0-1.93-.46-1.94-1.7A2.08,2.08,0,0,1,191,242.58Z"/><path class="cls-84" d="M201.9,244.74c0-1.11.41-2,1.55-2.14a2,2,0,0,1,2.39,1.89,1.64,1.64,0,0,1-1.58,2C203,246.68,202,246.25,201.9,244.74Z"/><path class="cls-8" d="M121.73,237.46c3.19.4,5.13,2,5.11,5.07a4.51,4.51,0,0,1-4.59,4.8c-3.3.17-4.77-2.46-5-5S119.34,238.16,121.73,237.46Z"/><path class="cls-148" d="M300.17,249.7a3.6,3.6,0,0,1,2.49,2.76c.24,1.15-.34,2-1.59,1.77-1.51-.25-2.1-1.41-2.18-2.84C298.84,250.5,299.11,249.79,300.17,249.7Z"/><path class="cls-149" d="M161.93,132.8c-.21,1.17.55,2.6-1,3.52l-3-3.51Z"/><path class="cls-150" d="M336.78,181.69a1.5,1.5,0,0,0,0-3,1.5,1.5,0,0,0,0,3Z"/><path class="cls-150" d="M344.2,181.09a1.5,1.5,0,0,0,0-3,1.5,1.5,0,0,0,0,3Z"/></g></g></svg>